<svg width="369" height="737" viewBox="0 0 369 737" fill="none" xmlns="http://www.w3.org/2000/svg">
<path d="M624.265 379.599C638.128 394.055 629.23 418.13 609.298 420.096L46.3098 475.61C26.9026 477.524 13.4363 456.719 23.1291 439.797L253.556 37.5115C261.52 23.6074 280.612 21.2636 291.703 32.8283L624.265 379.599Z" fill="#F28F1C"/>
<path d="M158.008 250.453C156.637 250.326 155.034 250.262 153.199 250.262H151.309L161.717 221.096C162.179 219.788 162.411 219.031 162.411 218.823C162.411 218.6 162.403 218.464 162.387 218.417L162.411 218.369C163.447 218.417 164.548 218.44 165.712 218.44C166.669 218.44 167.818 218.424 169.158 218.393L169.182 218.44C169.15 218.504 169.134 218.592 169.134 218.704C169.134 219.007 169.373 219.812 169.852 221.12L180.475 250.333C180.156 250.318 179.781 250.31 179.35 250.31C179.35 250.31 178.935 250.294 178.106 250.262C177.707 250.262 177.348 250.262 177.029 250.262H173.321L171.072 243.371H160.257L158.008 250.453ZM169.206 237.629L165.593 226.503L162.076 237.629H169.206ZM184.566 250.262C184.662 249.719 184.709 249.129 184.709 248.491V218.44H189.495L202.175 238.395V220.067C202.175 219.19 202.096 218.648 201.936 218.44H208.396C208.316 219.078 208.276 219.78 208.276 220.546V250.262H203.3L190.811 231.097V250.262H184.566ZM224.642 250.86C222.058 250.86 219.625 250.653 217.344 250.238V218.225C219.45 217.97 221.89 217.842 224.666 217.842C227.457 217.842 229.977 218.225 232.226 218.991C234.491 219.74 236.381 220.817 237.896 222.221C240.959 225.028 242.49 228.96 242.49 234.016C242.49 239.679 240.784 243.977 237.37 246.912C234.308 249.544 230.065 250.86 224.642 250.86ZM223.565 245.022C224.602 245.213 225.639 245.309 226.675 245.309C227.712 245.309 228.829 245.11 230.025 244.711C231.221 244.296 232.258 243.658 233.135 242.797C235.017 240.979 235.958 238.331 235.958 234.854C235.958 229.143 233.877 225.634 229.714 224.326C228.342 223.896 226.755 223.68 224.953 223.68H224.307C224.067 223.68 223.82 223.688 223.565 223.704V245.022ZM259.812 237.892C259.334 237.924 258.824 237.94 258.281 237.94C257.739 237.94 256.933 237.9 255.865 237.82V250.262H249.524V218.273C251.757 217.986 254.501 217.842 257.755 217.842C262.189 217.842 265.491 218.664 267.66 220.307C269.845 221.934 270.938 224.454 270.938 227.867C270.938 230.515 269.941 232.78 267.947 234.662C267.293 235.268 266.544 235.795 265.698 236.241L270.579 246.529C271.536 248.651 272.27 249.911 272.78 250.31L272.661 250.429C271.113 250.174 268.681 250.182 265.363 250.453L259.812 237.892ZM258.209 223.489C257.396 223.489 256.614 223.529 255.865 223.608V232.748C256.646 232.86 257.563 232.916 258.616 232.916C259.669 232.916 260.554 232.828 261.272 232.652C261.99 232.461 262.612 232.174 263.138 231.791C264.271 230.946 264.837 229.678 264.837 227.987C264.837 226.296 264.247 225.108 263.066 224.422C261.966 223.8 260.347 223.489 258.209 223.489ZM294.098 244.52C295.087 244.52 295.773 244.424 296.156 244.232L296.251 244.256L296.012 250.262H278.092V218.273C278.522 218.305 279.001 218.329 279.527 218.345L281.202 218.393C282.319 218.424 283.531 218.44 284.839 218.44C288.492 218.44 292.104 218.377 295.677 218.249C295.502 219.653 295.414 221.527 295.414 223.872C295.414 224.127 295.43 224.318 295.462 224.446L295.414 224.518C294.585 224.278 293.404 224.159 291.873 224.159H284.336V230.26H290.007C291.761 230.26 292.814 230.212 293.165 230.116L293.237 236.026C292.471 235.946 291.482 235.906 290.27 235.906H284.336V244.52H294.098ZM304.96 250.453C303.589 250.326 301.986 250.262 300.151 250.262H298.261L308.669 221.096C309.132 219.788 309.363 219.031 309.363 218.823C309.363 218.6 309.355 218.464 309.339 218.417L309.363 218.369C310.4 218.417 311.5 218.44 312.665 218.44C313.622 218.44 314.77 218.424 316.11 218.393L316.134 218.44C316.102 218.504 316.086 218.592 316.086 218.704C316.086 219.007 316.325 219.812 316.804 221.12L327.427 250.333C327.108 250.318 326.733 250.31 326.302 250.31C326.302 250.31 325.888 250.294 325.058 250.262C324.659 250.262 324.3 250.262 323.981 250.262H320.273L318.024 243.371H307.209L304.96 250.453ZM316.158 237.629L312.545 226.503L309.028 237.629H316.158ZM354.032 250.405C353.267 250.31 351.791 250.262 349.606 250.262H347.692V218.345C348.713 218.409 349.837 218.44 351.065 218.44C352.294 218.44 353.163 218.377 353.673 218.249L361.712 231.911L369.44 218.249C369.951 218.377 370.924 218.44 372.359 218.44C373.795 218.44 375.023 218.409 376.044 218.345V250.262H374.13C371.945 250.262 370.469 250.31 369.704 250.405V228.968L361.88 242.964L354.032 230.092V250.405ZM400.424 244.52C401.413 244.52 402.099 244.424 402.482 244.232L402.578 244.256L402.338 250.262H384.418V218.273C384.849 218.305 385.327 218.329 385.854 218.345L387.528 218.393C388.645 218.424 389.857 218.44 391.165 218.44C394.818 218.44 398.431 218.377 402.003 218.249C401.828 219.653 401.74 221.527 401.74 223.872C401.74 224.127 401.756 224.318 401.788 224.446L401.74 224.518C400.911 224.278 399.73 224.159 398.199 224.159H390.663V230.26H396.333C398.088 230.26 399.14 230.212 399.491 230.116L399.563 236.026C398.797 235.946 397.808 235.906 396.596 235.906H390.663V244.52H400.424ZM413.631 250.262C411.287 250.262 409.731 250.31 408.966 250.405V218.297C409.349 218.393 410.138 218.44 411.334 218.44C412.547 218.44 413.95 218.409 415.545 218.345V244.52H420.498C421.934 244.52 423.082 244.472 423.943 244.376C423.832 248.108 423.776 250.046 423.776 250.19V250.429C422.213 250.318 419.589 250.262 415.904 250.262H413.631ZM445.453 244.52C446.442 244.52 447.127 244.424 447.51 244.232L447.606 244.256L447.367 250.262H429.446V218.273C429.877 218.305 430.355 218.329 430.882 218.345L432.557 218.393C433.673 218.424 434.885 218.44 436.193 218.44C439.846 218.44 443.459 218.377 447.032 218.249C446.856 219.653 446.769 221.527 446.769 223.872C446.769 224.127 446.785 224.318 446.816 224.446L446.769 224.518C445.939 224.278 444.759 224.159 443.228 224.159H435.691V230.26H441.361C443.116 230.26 444.169 230.212 444.52 230.116L444.591 236.026C443.826 235.946 442.837 235.906 441.625 235.906H435.691V244.52H445.453ZM454.209 250.262C454.305 249.719 454.353 249.129 454.353 248.491V218.44H459.138L471.819 238.395V220.067C471.819 219.19 471.739 218.648 471.58 218.44H478.04C477.96 219.078 477.92 219.78 477.92 220.546V250.262H472.943L460.454 231.097V250.262H454.209ZM494.285 250.86C491.701 250.86 489.269 250.653 486.988 250.238V218.225C489.093 217.97 491.534 217.842 494.309 217.842C497.1 217.842 499.621 218.225 501.87 218.991C504.135 219.74 506.025 220.817 507.54 222.221C510.603 225.028 512.134 228.96 512.134 234.016C512.134 239.679 510.427 243.977 507.014 246.912C503.951 249.544 499.708 250.86 494.285 250.86ZM493.208 245.022C494.245 245.213 495.282 245.309 496.319 245.309C497.356 245.309 498.472 245.11 499.668 244.711C500.865 244.296 501.902 243.658 502.779 242.797C504.661 240.979 505.602 238.331 505.602 234.854C505.602 229.143 503.521 225.634 499.357 224.326C497.986 223.896 496.399 223.68 494.596 223.68H493.95C493.711 223.68 493.464 223.688 493.208 223.704V245.022ZM519.91 218.345C521.505 218.409 522.47 218.44 522.805 218.44H524.527C525.373 218.44 526.051 218.377 526.561 218.249L526.537 250.262H519.91V218.345Z" fill="white"/>
<path d="M155.252 351.542C153.412 351.542 151.786 351.222 150.372 350.582C148.986 349.942 147.892 349.049 147.092 347.902C146.292 346.756 145.866 345.476 145.812 344.062H148.772C148.906 345.422 149.506 346.622 150.572 347.662C151.639 348.676 153.199 349.182 155.252 349.182C157.146 349.182 158.639 348.702 159.732 347.742C160.852 346.756 161.412 345.516 161.412 344.022C161.412 342.822 161.106 341.862 160.492 341.142C159.879 340.396 159.119 339.849 158.212 339.502C157.306 339.129 156.052 338.729 154.452 338.302C152.586 337.796 151.106 337.302 150.012 336.822C148.919 336.342 147.986 335.596 147.212 334.582C146.439 333.569 146.052 332.196 146.052 330.462C146.052 329.022 146.426 327.742 147.172 326.622C147.919 325.476 148.972 324.582 150.332 323.942C151.692 323.302 153.252 322.982 155.012 322.982C157.599 322.982 159.679 323.622 161.252 324.902C162.852 326.156 163.772 327.782 164.012 329.782H160.972C160.786 328.636 160.159 327.622 159.092 326.742C158.026 325.836 156.586 325.382 154.772 325.382C153.092 325.382 151.692 325.836 150.572 326.742C149.452 327.622 148.892 328.836 148.892 330.382C148.892 331.556 149.199 332.502 149.812 333.222C150.426 333.942 151.186 334.489 152.092 334.862C153.026 335.236 154.279 335.636 155.852 336.062C157.666 336.569 159.132 337.076 160.252 337.582C161.372 338.062 162.319 338.809 163.092 339.822C163.866 340.836 164.252 342.196 164.252 343.902C164.252 345.209 163.906 346.449 163.212 347.622C162.519 348.796 161.492 349.742 160.132 350.462C158.772 351.182 157.146 351.542 155.252 351.542ZM172.463 325.582V336.022H183.063V338.342H172.463V348.942H184.263V351.262H169.663V323.262H184.263V325.582H172.463ZM188.5 337.262C188.5 334.516 189.1 332.062 190.3 329.902C191.5 327.716 193.14 326.022 195.22 324.822C197.3 323.596 199.62 322.982 202.18 322.982C205.3 322.982 207.967 323.729 210.18 325.222C212.42 326.689 214.047 328.769 215.06 331.462H211.78C210.98 329.569 209.753 328.089 208.1 327.022C206.473 325.956 204.5 325.422 202.18 325.422C200.127 325.422 198.273 325.902 196.62 326.862C194.993 327.822 193.713 329.209 192.78 331.022C191.847 332.809 191.38 334.889 191.38 337.262C191.38 339.636 191.847 341.716 192.78 343.502C193.713 345.289 194.993 346.662 196.62 347.622C198.273 348.582 200.127 349.062 202.18 349.062C204.5 349.062 206.473 348.542 208.1 347.502C209.753 346.436 210.98 344.969 211.78 343.102H215.06C214.047 345.769 212.42 347.836 210.18 349.302C207.94 350.769 205.273 351.502 202.18 351.502C199.62 351.502 197.3 350.902 195.22 349.702C193.14 348.476 191.5 346.782 190.3 344.622C189.1 342.462 188.5 340.009 188.5 337.262ZM235.519 351.262L228.599 339.582H223.439V351.262H220.639V323.302H229.039C232.159 323.302 234.519 324.049 236.119 325.542C237.746 327.036 238.559 328.996 238.559 331.422C238.559 333.449 237.973 335.182 236.799 336.622C235.653 338.036 233.946 338.956 231.679 339.382L238.879 351.262H235.519ZM223.439 337.302H229.079C231.266 337.302 232.906 336.769 233.999 335.702C235.119 334.636 235.679 333.209 235.679 331.422C235.679 329.582 235.146 328.169 234.079 327.182C233.013 326.169 231.333 325.662 229.039 325.662H223.439V337.302ZM246.916 325.582V336.022H257.516V338.342H246.916V348.942H258.716V351.262H244.116V323.262H258.716V325.582H246.916ZM280.593 323.302V325.622H272.833V351.262H270.033V325.622H262.233V323.302H280.593ZM301.214 344.622H288.494L286.054 351.262H283.094L293.294 323.662H296.454L306.614 351.262H303.654L301.214 344.622ZM300.374 342.302L294.854 327.182L289.334 342.302H300.374ZM325.988 351.262L319.068 339.582H313.908V351.262H311.108V323.302H319.508C322.628 323.302 324.988 324.049 326.588 325.542C328.215 327.036 329.028 328.996 329.028 331.422C329.028 333.449 328.442 335.182 327.268 336.622C326.122 338.036 324.415 338.956 322.148 339.382L329.348 351.262H325.988ZM313.908 337.302H319.548C321.735 337.302 323.375 336.769 324.468 335.702C325.588 334.636 326.148 333.209 326.148 331.422C326.148 329.582 325.615 328.169 324.548 327.182C323.482 326.169 321.802 325.662 319.508 325.662H313.908V337.302ZM337.385 323.302V351.262H334.585V323.302H337.385ZM359.925 344.622H347.205L344.765 351.262H341.805L352.005 323.662H355.165L365.325 351.262H362.365L359.925 344.622ZM359.085 342.302L353.565 327.182L348.045 342.302H359.085ZM402.796 331.462C401.996 329.622 400.769 328.182 399.116 327.142C397.489 326.076 395.569 325.542 393.356 325.542C391.276 325.542 389.409 326.022 387.756 326.982C386.102 327.942 384.796 329.316 383.836 331.102C382.876 332.862 382.396 334.916 382.396 337.262C382.396 339.609 382.876 341.676 383.836 343.462C384.796 345.249 386.102 346.622 387.756 347.582C389.409 348.542 391.276 349.022 393.356 349.022C395.302 349.022 397.049 348.609 398.596 347.782C400.169 346.929 401.422 345.729 402.356 344.182C403.316 342.609 403.862 340.782 403.996 338.702H392.236V336.422H406.956V338.462C406.822 340.916 406.156 343.142 404.956 345.142C403.756 347.116 402.142 348.676 400.116 349.822C398.116 350.969 395.862 351.542 393.356 351.542C390.769 351.542 388.422 350.942 386.316 349.742C384.209 348.516 382.542 346.822 381.316 344.662C380.116 342.476 379.516 340.009 379.516 337.262C379.516 334.516 380.116 332.062 381.316 329.902C382.542 327.716 384.209 326.022 386.316 324.822C388.422 323.596 390.769 322.982 393.356 322.982C396.342 322.982 398.956 323.729 401.196 325.222C403.436 326.716 405.062 328.796 406.076 331.462H402.796ZM426.965 351.262L420.045 339.582H414.885V351.262H412.085V323.302H420.485C423.605 323.302 425.965 324.049 427.565 325.542C429.191 327.036 430.005 328.996 430.005 331.422C430.005 333.449 429.418 335.182 428.245 336.622C427.098 338.036 425.391 338.956 423.125 339.382L430.325 351.262H426.965ZM414.885 337.302H420.525C422.711 337.302 424.351 336.769 425.445 335.702C426.565 334.636 427.125 333.209 427.125 331.422C427.125 329.582 426.591 328.169 425.525 327.182C424.458 326.169 422.778 325.662 420.485 325.662H414.885V337.302ZM451.761 344.622H439.041L436.601 351.262H433.641L443.841 323.662H447.001L457.161 351.262H454.201L451.761 344.622ZM450.921 342.302L445.401 327.182L439.881 342.302H450.921ZM464.455 348.982H474.495V351.262H461.655V323.302H464.455V348.982ZM478.971 351.462C478.384 351.462 477.891 351.262 477.491 350.862C477.118 350.462 476.931 349.969 476.931 349.382C476.931 348.796 477.118 348.316 477.491 347.942C477.891 347.542 478.384 347.342 478.971 347.342C479.531 347.342 479.998 347.542 480.371 347.942C480.771 348.316 480.971 348.796 480.971 349.382C480.971 349.969 480.771 350.462 480.371 350.862C479.998 351.262 479.531 351.462 478.971 351.462Z" fill="white"/>
</svg>
