<svg width="242" height="95" viewBox="0 0 242 95" fill="none" xmlns="http://www.w3.org/2000/svg">
<path d="M88.4747 12.34C88.3018 14.1469 87.6351 15.5513 86.4703 16.5656C85.3056 17.5758 83.7581 18.0809 81.8238 18.0809C80.4738 18.0809 79.2844 17.7606 78.2555 17.1241C77.2266 16.4835 76.4322 15.5759 75.8725 14.3974C75.3128 13.2188 75.0206 11.8513 75 10.295V8.71397C75 7.11654 75.284 5.71212 75.8519 4.49659C76.4199 3.28107 77.2307 2.34478 78.2925 1.68364C79.3544 1.0266 80.5767 0.69397 81.9678 0.69397C83.8404 0.69397 85.3468 1.19907 86.4868 2.20927C87.6269 3.21947 88.2936 4.65264 88.4788 6.50467H85.5443C85.4044 5.28915 85.0504 4.41036 84.4784 3.8724C83.9063 3.33445 83.0708 3.06342 81.9678 3.06342C80.6878 3.06342 79.7042 3.53156 79.0169 4.46374C78.3296 5.40002 77.9797 6.76749 77.9633 8.57435V10.0732C77.9633 11.9006 78.2925 13.2968 78.9469 14.2619C79.6013 15.2228 80.5644 15.7032 81.8279 15.7032C82.9844 15.7032 83.8528 15.4445 84.4372 14.923C85.0216 14.4056 85.3879 13.5391 85.5443 12.3318H88.4788L88.4747 12.34Z" fill="white"/>
<path d="M94.1172 17.847H91.2856V5.277H94.1172V17.8511V17.847ZM93.5822 0.0822754H96.8089L93.5822 3.60155H91.3103L93.5822 0.0822754Z" fill="white"/>
<path d="M104.176 7.85568C103.806 7.79408 103.419 7.76123 103.024 7.76123C101.727 7.76123 100.855 8.25812 100.402 9.24779V17.8468H97.5703V5.2768H100.274L100.344 6.68122C101.027 5.58889 101.974 5.04272 103.184 5.04272C103.587 5.04272 103.921 5.09611 104.184 5.20699L104.172 7.85568H104.176Z" fill="white"/>
<path d="M111.156 15.8265C111.864 15.8265 112.448 15.6212 112.914 15.2105C113.379 14.7999 113.63 14.2907 113.659 13.687H116.325C116.293 14.4713 116.05 15.1982 115.593 15.8758C115.136 16.5533 114.515 17.0913 113.728 17.4855C112.946 17.8797 112.099 18.0768 111.189 18.0768C109.428 18.0768 108.028 17.506 106.995 16.3685C105.962 15.231 105.448 13.6582 105.448 11.6502V11.3586C105.448 9.44498 105.962 7.91325 106.983 6.76343C108.008 5.61361 109.407 5.0387 111.177 5.0387C112.675 5.0387 113.897 5.47399 114.84 6.34456C115.782 7.21514 116.276 8.36086 116.325 9.7776H113.659C113.626 9.05896 113.383 8.46352 112.918 7.99949C112.457 7.53545 111.868 7.30138 111.152 7.30138C110.234 7.30138 109.53 7.63401 109.032 8.29515C108.535 8.9563 108.283 9.9624 108.275 11.3093V11.761C108.275 13.1244 108.522 14.1428 109.016 14.8122C109.51 15.4815 110.222 15.8183 111.152 15.8183L111.156 15.8265Z" fill="white"/>
<path d="M126.339 16.6149C125.507 17.5923 124.326 18.0809 122.799 18.0809C121.433 18.0809 120.4 17.6826 119.696 16.8859C118.992 16.0893 118.643 14.9354 118.643 13.4242V5.27686H121.474V13.3872C121.474 14.9846 122.137 15.7813 123.466 15.7813C124.795 15.7813 125.767 15.2885 126.248 14.3071V5.27686H129.08V17.851H126.413L126.343 16.619L126.339 16.6149Z" fill="white"/>
<path d="M135.204 17.8469H132.372V0H135.204V17.8469Z" fill="white"/>
<path d="M137.994 11.4448C137.994 10.2129 138.237 9.10414 138.727 8.11447C139.217 7.1248 139.904 6.3692 140.789 5.83536C141.674 5.30562 142.69 5.0387 143.839 5.0387C145.538 5.0387 146.917 5.58486 147.979 6.67719C149.041 7.76952 149.613 9.21912 149.695 11.0219L149.708 11.683C149.708 12.9232 149.469 14.0319 148.991 15.0052C148.514 15.9825 147.831 16.7381 146.942 17.272C146.053 17.8058 145.028 18.0727 143.863 18.0727C142.085 18.0727 140.661 17.4814 139.595 16.2987C138.529 15.1161 137.994 13.5433 137.994 11.5763V11.4366V11.4448ZM140.826 11.6871C140.826 12.9807 141.093 13.995 141.629 14.7259C142.164 15.4569 142.908 15.8224 143.863 15.8224C144.818 15.8224 145.563 15.4528 146.094 14.7054C146.625 13.9621 146.892 12.8739 146.892 11.4407C146.892 10.1718 146.621 9.16163 146.069 8.41835C145.522 7.67507 144.777 7.30138 143.839 7.30138C142.9 7.30138 142.18 7.66686 141.637 8.39782C141.093 9.12877 140.822 10.2252 140.822 11.6789L140.826 11.6871Z" fill="white"/>
<path d="M157.992 11.4695C157.992 9.5312 158.441 7.97894 159.342 6.80448C160.244 5.63002 161.45 5.04279 162.964 5.04279C164.298 5.04279 165.38 5.50682 166.203 6.439V0H169.035V17.8469H166.471L166.331 16.5451C165.483 17.5676 164.355 18.0768 162.944 18.0768C161.532 18.0768 160.273 17.4855 159.363 16.2987C158.449 15.1119 157.992 13.5022 157.992 11.4654V11.4695ZM160.824 11.7118C160.824 12.9889 161.071 13.9868 161.565 14.7054C162.059 15.4199 162.758 15.7813 163.668 15.7813C164.824 15.7813 165.672 15.2639 166.207 14.2372V8.87005C165.689 7.86396 164.849 7.35886 163.693 7.35886C162.775 7.35886 162.071 7.72023 161.573 8.44708C161.075 9.16982 160.828 10.2622 160.828 11.72L160.824 11.7118Z" fill="white"/>
<path d="M177.772 18.0809C175.978 18.0809 174.525 17.5183 173.41 16.389C172.294 15.2638 171.739 13.7608 171.739 11.8883V11.5392C171.739 10.2826 171.982 9.16155 172.467 8.17599C172.953 7.18632 173.632 6.4184 174.513 5.86813C175.389 5.31786 176.369 5.04272 177.447 5.04272C179.163 5.04272 180.489 5.58889 181.423 6.68122C182.357 7.77355 182.826 9.3176 182.826 11.3175V12.455H174.591C174.677 13.4939 175.023 14.3152 175.632 14.9189C176.241 15.5225 177.007 15.8264 177.933 15.8264C179.229 15.8264 180.287 15.3049 181.102 14.2577L182.629 15.7114C182.123 16.4629 181.452 17.046 180.608 17.4608C179.764 17.8756 178.822 18.0809 177.772 18.0809ZM177.435 7.30951C176.657 7.30951 176.031 7.58054 175.554 8.1226C175.077 8.66466 174.772 9.42026 174.64 10.3894H180.032V10.18C179.97 9.23547 179.719 8.52093 179.275 8.03637C178.834 7.5518 178.217 7.30951 177.435 7.30951Z" fill="white"/>
<path d="M80.404 35.5295L78.482 37.5622V42.8391H75.5352V25.9203H78.482V33.8582L80.1118 31.8501L85.0753 25.9244H88.6394L82.3383 33.4188L89.0016 42.8432H85.5074L80.4081 35.5336L80.404 35.5295Z" fill="white"/>
<path d="M90.5449 27.0002C90.5449 26.5649 90.6849 26.2077 90.9565 25.9202C91.2322 25.6327 91.6273 25.489 92.1377 25.489C92.648 25.489 93.0472 25.6327 93.3271 25.9202C93.607 26.2077 93.7469 26.569 93.7469 27.0002C93.7469 27.4314 93.607 27.7804 93.3271 28.0638C93.0472 28.3471 92.6521 28.4868 92.1377 28.4868C91.6232 28.4868 91.2322 28.3471 90.9565 28.0638C90.6807 27.7804 90.5449 27.4273 90.5449 27.0002ZM93.5494 42.839H90.7178V30.2649H93.5494V42.839Z" fill="white"/>
<path d="M99.4923 30.265L99.5746 31.7187C100.505 30.5935 101.727 30.035 103.242 30.035C105.867 30.035 107.201 31.5339 107.246 34.5317V42.8391H104.415V34.6918C104.415 33.8951 104.242 33.3038 103.896 32.9178C103.55 32.5359 102.987 32.3429 102.2 32.3429C101.06 32.3429 100.208 32.8603 99.6487 33.8869V42.835H96.8171V30.2609H99.4841L99.4923 30.265Z" fill="white"/>
<path d="M115.922 43.0689C114.128 43.0689 112.675 42.5063 111.559 41.377C110.444 40.2519 109.888 38.7489 109.888 36.8763V36.5273C109.888 35.2707 110.131 34.1496 110.617 33.164C111.103 32.1744 111.782 31.4064 112.662 30.8562C113.539 30.3059 114.519 30.0308 115.597 30.0308C117.313 30.0308 118.638 30.5769 119.573 31.6693C120.507 32.7616 120.976 34.3056 120.976 36.3055V37.443H112.741C112.827 38.4819 113.173 39.3032 113.782 39.9069C114.391 40.5106 115.156 40.8144 116.083 40.8144C117.379 40.8144 118.437 40.2929 119.252 39.2458L120.778 40.6995C120.272 41.451 119.601 42.0341 118.758 42.4488C117.914 42.8636 116.971 43.0689 115.922 43.0689ZM115.585 32.2976C114.807 32.2976 114.181 32.5686 113.704 33.1106C113.226 33.6527 112.922 34.4083 112.79 35.3774H118.181V35.168C118.12 34.2235 117.869 33.509 117.424 33.0244C116.984 32.5398 116.366 32.2976 115.585 32.2976Z" fill="white"/>
<path d="M130.471 39.4223C130.471 38.9172 130.265 38.5353 129.849 38.2725C129.434 38.0097 128.746 37.7756 127.783 37.5744C126.82 37.3732 126.018 37.1186 125.372 36.8065C123.96 36.1248 123.252 35.1351 123.252 33.8416C123.252 32.7575 123.709 31.8499 124.627 31.1231C125.545 30.3962 126.709 30.0308 128.121 30.0308C129.627 30.0308 130.845 30.4045 131.771 31.1477C132.698 31.891 133.163 32.856 133.163 34.0428H130.331C130.331 33.5008 130.129 33.049 129.726 32.6877C129.323 32.3263 128.788 32.1456 128.117 32.1456C127.495 32.1456 126.989 32.2893 126.598 32.5768C126.207 32.8643 126.01 33.2462 126.01 33.7266C126.01 34.1619 126.191 34.4986 126.557 34.7368C126.923 34.975 127.66 35.2173 128.771 35.4637C129.882 35.706 130.755 35.9975 131.385 36.3342C132.018 36.671 132.488 37.0775 132.792 37.5498C133.097 38.022 133.253 38.5969 133.253 39.2704C133.253 40.3997 132.784 41.3195 131.846 42.0176C130.907 42.7199 129.677 43.0689 128.154 43.0689C127.121 43.0689 126.203 42.8841 125.392 42.5104C124.586 42.1367 123.956 41.6275 123.507 40.9746C123.055 40.3258 122.832 39.6236 122.832 38.8721H125.582C125.619 39.5373 125.874 40.0506 126.339 40.412C126.804 40.7734 127.421 40.9541 128.191 40.9541C128.96 40.9541 129.504 40.8144 129.891 40.5311C130.278 40.2477 130.471 39.8782 130.471 39.4223Z" fill="white"/>
<path d="M135.961 27.0002C135.961 26.5649 136.097 26.2077 136.373 25.9202C136.648 25.6327 137.044 25.489 137.554 25.489C138.064 25.489 138.464 25.6327 138.743 25.9202C139.023 26.2077 139.163 26.569 139.163 27.0002C139.163 27.4314 139.023 27.7804 138.743 28.0638C138.464 28.3471 138.068 28.4868 137.554 28.4868C137.039 28.4868 136.648 28.3471 136.373 28.0638C136.097 27.7804 135.961 27.4273 135.961 27.0002ZM138.966 42.839H136.134V30.2649H138.966V42.839Z" fill="white"/>
<path d="M141.756 36.4329C141.756 35.2009 141.999 34.0922 142.489 33.1025C142.978 32.1129 143.666 31.3573 144.551 30.8234C145.435 30.2937 146.452 30.0268 147.6 30.0268C149.3 30.0268 150.683 30.5729 151.741 31.6652C152.798 32.7576 153.375 34.2072 153.457 36.0099L153.469 36.6711C153.469 37.9112 153.231 39.02 152.753 39.9932C152.276 40.9706 151.593 41.7262 150.704 42.26C149.815 42.7939 148.79 43.0608 147.625 43.0608C145.847 43.0608 144.423 42.4695 143.357 41.2868C142.291 40.1041 141.756 38.5313 141.756 36.5643V36.4247V36.4329ZM144.588 36.6752C144.588 37.9687 144.855 38.983 145.39 39.714C145.925 40.445 146.67 40.8104 147.625 40.8104C148.58 40.8104 149.325 40.4408 149.856 39.6935C150.387 38.9502 150.654 37.862 150.654 36.4288C150.654 35.1599 150.383 34.1497 149.831 33.4064C149.284 32.6631 148.539 32.2894 147.6 32.2894C146.662 32.2894 145.942 32.6549 145.398 33.3859C144.855 34.1168 144.584 35.2133 144.584 36.667L144.588 36.6752ZM148.386 24.984H151.613L148.386 28.5032L146.115 28.495L148.386 24.9799V24.984Z" fill="white"/>
<path d="M159.116 42.8391H156.284V24.9922H159.116V42.8391Z" fill="white"/>
<path d="M161.902 36.4329C161.902 35.2009 162.145 34.0922 162.635 33.1025C163.124 32.1128 163.812 31.3572 164.697 30.8234C165.582 30.2937 166.598 30.0267 167.746 30.0267C169.446 30.0267 170.825 30.5729 171.887 31.6652C172.944 32.7576 173.521 34.2072 173.603 36.0099L173.615 36.6711C173.615 37.9112 173.377 39.02 172.899 39.9932C172.422 40.9706 171.739 41.7262 170.85 42.26C169.961 42.7939 168.936 43.0608 167.771 43.0608C165.993 43.0608 164.569 42.4694 163.503 41.2868C162.437 40.1041 161.902 38.5313 161.902 36.5643V36.4247V36.4329ZM164.734 36.6752C164.734 37.9687 165.001 38.983 165.536 39.714C166.071 40.4449 166.816 40.8104 167.771 40.8104C168.726 40.8104 169.471 40.4408 170.002 39.6934C170.533 38.9502 170.8 37.8619 170.8 36.4288C170.8 35.1599 170.529 34.1497 169.977 33.4064C169.43 32.6631 168.685 32.2894 167.746 32.2894C166.808 32.2894 166.088 32.6549 165.544 33.3859C165.001 34.1168 164.73 35.2132 164.73 36.667L164.734 36.6752Z" fill="white"/>
<path d="M175.756 36.4574C175.756 34.5069 176.217 32.9464 177.134 31.7801C178.052 30.6139 179.275 30.0308 180.797 30.0308C182.234 30.0308 183.365 30.5318 184.189 31.5296L184.316 30.2648H186.868V42.4529C186.868 44.1038 186.353 45.4055 185.325 46.3582C184.296 47.3109 182.909 47.7873 181.159 47.7873C180.233 47.7873 179.332 47.5943 178.451 47.2124C177.571 46.8305 176.9 46.3254 176.443 45.7094L177.781 44.0134C178.649 45.0441 179.723 45.5575 180.995 45.5575C181.933 45.5575 182.674 45.3028 183.221 44.7977C183.765 44.2885 184.036 43.5453 184.036 42.5597V41.7097C183.221 42.6172 182.135 43.0689 180.777 43.0689C179.303 43.0689 178.097 42.4858 177.159 41.3154C176.225 40.1451 175.756 38.5271 175.756 36.4574ZM178.575 36.6997C178.575 37.9645 178.834 38.9542 179.349 39.681C179.863 40.4038 180.579 40.7693 181.497 40.7693C182.637 40.7693 183.485 40.2806 184.036 39.3032V33.7718C183.501 32.8191 182.662 32.3427 181.522 32.3427C180.592 32.3427 179.867 32.7123 179.349 33.4474C178.834 34.1824 178.575 35.2666 178.575 36.6997Z" fill="white"/>
<path d="M189.481 36.4329C189.481 35.2009 189.724 34.0922 190.214 33.1025C190.704 32.1128 191.391 31.3572 192.276 30.8234C193.161 30.2937 194.177 30.0267 195.325 30.0267C197.025 30.0267 198.408 30.5729 199.466 31.6652C200.523 32.7576 201.1 34.2072 201.182 36.0099L201.194 36.6711C201.194 37.9112 200.956 39.02 200.478 39.9932C200.001 40.9706 199.318 41.7262 198.429 42.26C197.54 42.7939 196.515 43.0608 195.346 43.0608C193.568 43.0608 192.144 42.4694 191.078 41.2868C190.012 40.1041 189.477 38.5313 189.477 36.5643V36.4247L189.481 36.4329ZM192.313 36.6752C192.313 37.9687 192.58 38.983 193.115 39.714C193.65 40.4449 194.395 40.8104 195.35 40.8104C196.305 40.8104 197.05 40.4408 197.581 39.6934C198.112 38.9502 198.379 37.8619 198.379 36.4288C198.379 35.1599 198.108 34.1497 197.556 33.4064C197.009 32.6631 196.264 32.2894 195.325 32.2894C194.387 32.2894 193.667 32.6549 193.124 33.3859C192.58 34.1168 192.309 35.2132 192.309 36.667L192.313 36.6752Z" fill="white"/>
<path d="M210.895 39.4223C210.895 38.9172 210.689 38.5353 210.274 38.2725C209.858 38.0097 209.171 37.7756 208.207 37.5744C207.244 37.3732 206.442 37.1186 205.796 36.8065C204.384 36.1248 203.676 35.1351 203.676 33.8416C203.676 32.7575 204.133 31.8499 205.051 31.1231C205.969 30.3962 207.133 30.0308 208.545 30.0308C210.051 30.0308 211.27 30.4045 212.196 31.1477C213.122 31.891 213.587 32.856 213.587 34.0428H210.755C210.755 33.5008 210.553 33.049 210.15 32.6877C209.747 32.3263 209.212 32.1456 208.541 32.1456C207.919 32.1456 207.413 32.2893 207.022 32.5768C206.631 32.8643 206.434 33.2462 206.434 33.7266C206.434 34.1619 206.615 34.4986 206.981 34.7368C207.347 34.975 208.084 35.2173 209.195 35.4637C210.306 35.706 211.179 35.9975 211.809 36.3342C212.443 36.671 212.912 37.0775 213.216 37.5498C213.521 38.022 213.677 38.5969 213.677 39.2704C213.677 40.3997 213.208 41.3195 212.27 42.0176C211.331 42.7199 210.101 43.0689 208.578 43.0689C207.545 43.0689 206.627 42.8841 205.816 42.5104C205.01 42.1367 204.38 41.6275 203.931 40.9746C203.479 40.3258 203.256 39.6236 203.256 38.8721H206.006C206.043 39.5373 206.298 40.0506 206.763 40.412C207.228 40.7734 207.845 40.9541 208.615 40.9541C209.385 40.9541 209.928 40.8144 210.315 40.5311C210.702 40.2477 210.899 39.8782 210.899 39.4223H210.895Z" fill="white"/>
<path d="M226.967 38.7941L229.531 30.2648H232.547L227.539 44.7444C226.769 46.8592 225.464 47.9146 223.625 47.9146C223.213 47.9146 222.76 47.8448 222.262 47.7052V45.5082L222.797 45.541C223.514 45.541 224.049 45.4096 224.411 45.1509C224.773 44.8922 225.057 44.4569 225.267 43.8451L225.674 42.765L221.25 30.2607H224.3L226.967 38.79V38.7941Z" fill="white"/>
<path d="M85.3096 60.6573H78.4859V67.8272H75.5391V50.9084H86.3097V53.2779H78.4818V58.3084H85.3055V60.6573H85.3096Z" fill="white"/>
<path d="M88.6106 51.9882C88.6106 51.553 88.7505 51.1957 89.0222 50.9082C89.2979 50.6208 89.693 50.4771 90.2034 50.4771C90.7137 50.4771 91.1129 50.6208 91.3928 50.9082C91.6726 51.1957 91.8126 51.5571 91.8126 51.9882C91.8126 52.4194 91.6726 52.7685 91.3928 53.0518C91.1129 53.3352 90.7178 53.4748 90.2034 53.4748C89.6889 53.4748 89.2979 53.3352 89.0222 53.0518C88.7464 52.7685 88.6106 52.4153 88.6106 51.9882ZM91.615 67.827H88.7835V55.2529H91.615V67.827Z" fill="white"/>
<path d="M101.999 64.4105C101.999 63.9054 101.793 63.5235 101.377 63.2607C100.962 62.9979 100.274 62.7638 99.3113 62.5626C98.3482 62.3614 97.5457 62.1067 96.8995 61.7947C95.4878 61.113 94.7799 60.1233 94.7799 58.8298C94.7799 57.7456 95.2368 56.8381 96.1546 56.1113C97.0724 55.3844 98.2371 55.0189 99.6488 55.0189C101.155 55.0189 102.373 55.3926 103.299 56.1359C104.225 56.8792 104.69 57.8442 104.69 59.031H101.863C101.863 58.4889 101.661 58.0372 101.258 57.6758C100.855 57.3145 100.32 57.1338 99.6488 57.1338C99.0273 57.1338 98.5211 57.2775 98.1301 57.565C97.7391 57.8524 97.5415 58.2343 97.5415 58.7148C97.5415 59.1501 97.7226 59.4868 98.0889 59.725C98.4552 59.9632 99.1919 60.2054 100.303 60.4518C101.414 60.6941 102.287 60.9857 102.917 61.3224C103.546 61.6591 104.02 62.0657 104.324 62.5379C104.629 63.0102 104.785 63.5851 104.785 64.2586C104.785 65.3878 104.316 66.3077 103.378 67.0058C102.439 67.708 101.209 68.0571 99.6858 68.0571C98.6528 68.0571 97.735 67.8723 96.9242 67.4986C96.1175 67.1249 95.4878 66.6157 95.0392 65.9628C94.5906 65.3139 94.3643 64.6117 94.3643 63.8602H97.1135C97.1506 64.5255 97.4057 65.0388 97.8708 65.4002C98.3359 65.7615 98.9532 65.9422 99.7229 65.9422C100.492 65.9422 101.036 65.8026 101.423 65.5193C101.809 65.2359 102.003 64.8663 102.003 64.4105H101.999Z" fill="white"/>
<path d="M107.489 51.9882C107.489 51.553 107.625 51.1957 107.901 50.9082C108.176 50.6208 108.571 50.4771 109.082 50.4771C109.592 50.4771 109.991 50.6208 110.271 50.9082C110.551 51.1957 110.691 51.5571 110.691 51.9882C110.691 52.4194 110.551 52.7685 110.271 53.0518C109.991 53.3352 109.596 53.4748 109.082 53.4748C108.567 53.4748 108.176 53.3352 107.901 53.0518C107.625 52.7685 107.489 52.4153 107.489 51.9882ZM110.493 67.827H107.662V55.2529H110.493V67.827Z" fill="white"/>
<path d="M113.284 61.421C113.284 60.1891 113.527 59.0803 114.017 58.0907C114.506 57.101 115.194 56.3454 116.078 55.8116C116.963 55.2818 117.98 55.0149 119.128 55.0149C120.828 55.0149 122.211 55.5611 123.269 56.6534C124.326 57.7457 124.902 59.1953 124.985 60.9981L124.997 61.6592C124.997 62.8994 124.758 64.0081 124.281 64.9814C123.804 65.9587 123.12 66.7143 122.231 67.2482C121.342 67.782 120.318 68.0489 119.153 68.0489C117.375 68.0489 115.951 67.4576 114.885 66.2749C113.819 65.0923 113.284 63.5195 113.284 61.5524V61.4128V61.421ZM116.116 61.6633C116.116 62.9569 116.383 63.9712 116.918 64.7021C117.453 65.4331 118.198 65.7986 119.153 65.7986C120.108 65.7986 120.853 65.429 121.384 64.6816C121.914 63.9383 122.182 62.8501 122.182 61.4169C122.182 60.148 121.91 59.1378 121.359 58.3945C120.811 57.6513 120.067 57.2776 119.128 57.2776C118.19 57.2776 117.47 57.6431 116.926 58.374C116.383 59.105 116.111 60.2014 116.111 61.6551L116.116 61.6633Z" fill="white"/>
<path d="M131.175 52.1978V55.253H133.401V57.3432H131.175V64.3612C131.175 64.8417 131.269 65.1866 131.459 65.4002C131.648 65.6137 131.99 65.7205 132.479 65.7205C132.805 65.7205 133.134 65.6835 133.471 65.6055V67.7901C132.825 67.9667 132.204 68.0571 131.607 68.0571C129.434 68.0571 128.347 66.8621 128.347 64.468V57.3432H126.273V55.253H128.347V52.1978H131.179H131.175Z" fill="white"/>
<path d="M141.349 68.0571C139.554 68.0571 138.101 67.4945 136.986 66.3652C135.871 65.2359 135.315 63.737 135.315 61.8645V61.5154C135.315 60.2588 135.558 59.1377 136.043 58.1522C136.529 57.1625 137.208 56.3946 138.089 55.8443C138.966 55.2941 139.945 55.0189 141.023 55.0189C142.74 55.0189 144.065 55.5651 144.999 56.6574C145.933 57.7497 146.403 59.2938 146.403 61.2937V62.4312H138.167C138.254 63.4701 138.599 64.2914 139.208 64.8951C139.817 65.4987 140.583 65.8026 141.509 65.8026C142.805 65.8026 143.863 65.2811 144.678 64.2339L146.205 65.6876C145.699 66.4391 145.028 67.0222 144.184 67.437C143.34 67.8517 142.398 68.0571 141.349 68.0571ZM141.011 57.2857C140.233 57.2857 139.608 57.5567 139.13 58.0988C138.653 58.6409 138.348 59.3965 138.216 60.3656H143.608V60.1562C143.546 59.2117 143.295 58.4971 142.851 58.0126C142.41 57.528 141.793 57.2857 141.011 57.2857Z" fill="white"/>
<path d="M155.436 57.832C155.066 57.7704 154.679 57.7375 154.284 57.7375C152.988 57.7375 152.115 58.2344 151.662 59.2241V67.8231H148.831V55.249H151.535L151.605 56.6534C152.288 55.5611 153.235 55.0149 154.445 55.0149C154.848 55.0149 155.181 55.0683 155.445 55.1792L155.432 57.8279L155.436 57.832Z" fill="white"/>
<path d="M164.643 67.8272C164.52 67.589 164.409 67.1948 164.318 66.6527C163.417 67.589 162.314 68.0571 161.009 68.0571C159.704 68.0571 158.713 67.6958 157.91 66.9771C157.112 66.2585 156.712 65.3674 156.712 64.3038C156.712 62.9651 157.21 61.9344 158.21 61.2198C159.206 60.5053 160.635 60.1439 162.491 60.1439H164.228V59.3185C164.228 58.6697 164.047 58.1482 163.68 57.7539C163.314 57.3638 162.758 57.1667 162.013 57.1667C161.367 57.1667 160.84 57.3269 160.429 57.6472C160.017 57.9675 159.811 58.3781 159.811 58.875H156.98C156.98 58.1851 157.21 57.5404 157.667 56.9408C158.124 56.3413 158.75 55.869 159.536 55.5282C160.322 55.1874 161.203 55.0149 162.174 55.0149C163.647 55.0149 164.824 55.3845 165.701 56.1236C166.578 56.8628 167.03 57.9018 167.051 59.2446V64.9157C167.051 66.045 167.211 66.9484 167.528 67.6219V67.819H164.639L164.643 67.8272ZM161.532 65.7945C162.092 65.7945 162.618 65.6589 163.108 65.3879C163.602 65.1169 163.972 64.7514 164.219 64.2956V61.9261H162.692C161.643 61.9261 160.857 62.1068 160.33 62.4723C159.803 62.8378 159.54 63.3511 159.54 64.0163C159.54 64.5584 159.721 64.9896 160.083 65.314C160.445 65.6343 160.927 65.7986 161.532 65.7986V65.7945Z" fill="white"/>
<path d="M181.291 61.6674C181.291 63.6097 180.851 65.162 179.962 66.32C179.077 67.4781 177.887 68.0571 176.398 68.0571C175.015 68.0571 173.908 67.6054 173.08 66.6978V72.6605H170.249V55.253H172.858L172.973 56.5301C173.805 55.524 174.932 55.0189 176.365 55.0189C177.9 55.0189 179.106 55.5897 179.982 56.7313C180.855 57.8729 181.291 59.4622 181.291 61.4908V61.6632V61.6674ZM178.472 61.4251C178.472 60.1685 178.221 59.1747 177.723 58.4396C177.221 57.7046 176.505 57.335 175.574 57.335C174.418 57.335 173.587 57.8113 173.084 58.7641V64.3407C173.595 65.318 174.434 65.8067 175.599 65.8067C176.5 65.8067 177.204 65.4453 177.715 64.7185C178.225 63.9957 178.476 62.8952 178.476 61.4251H178.472Z" fill="white"/>
<path d="M189.469 68.0571C187.674 68.0571 186.222 67.4945 185.106 66.3652C183.991 65.24 183.435 63.737 183.435 61.8645V61.5154C183.435 60.2588 183.678 59.1377 184.164 58.1522C184.649 57.1625 185.329 56.3946 186.209 55.8443C187.086 55.2941 188.065 55.0189 189.144 55.0189C190.86 55.0189 192.185 55.5651 193.119 56.6574C194.054 57.7497 194.523 59.2938 194.523 61.2937V62.4312H186.287C186.374 63.4701 186.72 64.2914 187.329 64.8951C187.938 65.4987 188.703 65.8026 189.629 65.8026C190.926 65.8026 191.984 65.2811 192.798 64.2339L194.325 65.6876C193.819 66.4391 193.148 67.0222 192.305 67.437C191.461 67.8517 190.518 68.0571 189.469 68.0571ZM189.131 57.2857C188.354 57.2857 187.728 57.5567 187.251 58.0988C186.773 58.6409 186.469 59.3965 186.337 60.3656H191.728V60.1562C191.667 59.2117 191.416 58.4971 190.971 58.0126C190.531 57.528 189.913 57.2857 189.131 57.2857Z" fill="white"/>
<path d="M204.594 66.5953C203.763 67.5726 202.581 68.0613 201.055 68.0613C199.688 68.0613 198.655 67.663 197.951 66.8663C197.248 66.0696 196.898 64.9157 196.898 63.4045V55.2572H199.729V63.3675C199.729 64.965 200.392 65.7616 201.721 65.7616C203.051 65.7616 204.022 65.2689 204.503 64.2874V55.2572H207.335V67.8313H204.668L204.598 66.5994L204.594 66.5953Z" fill="white"/>
<path d="M213.998 52.1978V55.253H216.225V57.3432H213.998V64.3612C213.998 64.8417 214.093 65.1866 214.282 65.4002C214.471 65.6137 214.813 65.7205 215.303 65.7205C215.628 65.7205 215.957 65.6835 216.295 65.6055V67.7901C215.649 67.9667 215.027 68.0571 214.43 68.0571C212.257 68.0571 211.171 66.8621 211.171 64.468V57.3432H209.096V55.253H211.171V52.1978H214.002H213.998Z" fill="white"/>
<path d="M226.152 67.8272C226.028 67.589 225.917 67.1948 225.827 66.6527C224.925 67.589 223.822 68.0571 222.518 68.0571C221.213 68.0571 220.221 67.6958 219.419 66.9771C218.62 66.2585 218.221 65.3674 218.221 64.3038C218.221 62.9651 218.719 61.9344 219.719 61.2198C220.715 60.5053 222.143 60.1439 223.999 60.1439H225.736V59.3185C225.736 58.6697 225.555 58.1482 225.189 57.7539C224.822 57.3638 224.267 57.1667 223.522 57.1667C222.876 57.1667 222.349 57.3269 221.937 57.6472C221.526 57.9675 221.32 58.3781 221.32 58.875H218.488C218.488 58.1851 218.719 57.5404 219.176 56.9408C219.633 56.3413 220.258 55.869 221.044 55.5282C221.83 55.1874 222.711 55.0149 223.682 55.0149C225.156 55.0149 226.333 55.3845 227.21 56.1236C228.086 56.8628 228.539 57.9018 228.559 59.2446V64.9157C228.559 66.045 228.72 66.9484 229.037 67.6219V67.819H226.148L226.152 67.8272ZM223.04 65.7945C223.6 65.7945 224.127 65.6589 224.617 65.3879C225.111 65.1169 225.481 64.7514 225.728 64.2956V61.9261H224.201C223.152 61.9261 222.365 62.1068 221.839 62.4723C221.312 62.8378 221.048 63.3511 221.048 64.0163C221.048 64.5584 221.229 64.9896 221.592 65.314C221.954 65.6343 222.435 65.7986 223.04 65.7986V65.7945Z" fill="white"/>
<path d="M238.828 64.4105C238.828 63.9054 238.622 63.5235 238.207 63.2607C237.791 62.9979 237.104 62.7638 236.141 62.5626C235.178 62.3614 234.375 62.1067 233.729 61.7947C232.317 61.113 231.609 60.1233 231.609 58.8298C231.609 57.7456 232.066 56.8381 232.984 56.1113C233.902 55.3844 235.066 55.0189 236.478 55.0189C237.984 55.0189 239.203 55.3926 240.129 56.1359C241.055 56.8792 241.52 57.8442 241.52 59.031H238.688C238.688 58.4889 238.487 58.0372 238.083 57.6758C237.68 57.3145 237.145 57.1338 236.474 57.1338C235.853 57.1338 235.346 57.2775 234.955 57.565C234.564 57.8524 234.367 58.2343 234.367 58.7148C234.367 59.1501 234.548 59.4868 234.914 59.725C235.28 59.9632 236.017 60.2054 237.128 60.4518C238.24 60.6941 239.112 60.9857 239.742 61.3224C240.376 61.6591 240.845 62.0657 241.149 62.5379C241.454 63.0102 241.61 63.5851 241.61 64.2586C241.61 65.3878 241.141 66.3077 240.203 67.0058C239.264 67.708 238.034 68.0571 236.511 68.0571C235.478 68.0571 234.56 67.8723 233.749 67.4986C232.943 67.1249 232.313 66.6157 231.864 65.9628C231.412 65.3139 231.189 64.6117 231.189 63.8602H233.939C233.976 64.5255 234.231 65.0388 234.696 65.4002C235.161 65.7615 235.778 65.9422 236.548 65.9422C237.318 65.9422 237.861 65.8026 238.248 65.5193C238.635 65.2359 238.832 64.8663 238.832 64.4105H238.828Z" fill="white"/>
<path d="M79.3584 75.8964L84.2478 88.8647L89.129 75.8964H92.936V92.8152H90.0015V87.2385L90.2937 79.777L85.285 92.8152H83.1777L78.1813 79.7893L78.4735 87.2385V92.8152H75.5391V75.8964H79.3584Z" fill="white"/>
<path d="M104.983 86.9552H99.1385V90.5567H105.987V92.8111H96.3069V79.272H105.95V81.5511H99.1385V84.6885H104.983V86.9552Z" fill="white"/>
<path d="M119.852 92.8151H117.033L110.93 83.5755V92.8151H108.098V79.276H110.93L117.033 88.5238V79.276H119.852V92.8151Z" fill="white"/>
<path d="M122.836 92.8151V79.276H127.248C128.52 79.276 129.66 79.5429 130.669 80.0768C131.673 80.6106 132.455 81.3662 133.014 82.3353C133.574 83.3086 133.862 84.4091 133.875 85.6411V86.3515C133.875 87.6122 133.599 88.7374 133.043 89.7188C132.488 90.7044 131.702 91.4641 130.681 92.0021C129.66 92.54 128.495 92.811 127.191 92.811H122.836V92.8151ZM125.668 81.5551V90.5607H127.183C129.722 90.5607 131.014 89.2137 131.06 86.5158V85.7355C131.06 83.0088 129.854 81.6126 127.438 81.551H125.668V81.5551Z" fill="white"/>
<path d="M148.267 86.3516C148.267 88.3966 147.707 90.0146 146.584 91.2096C145.46 92.4005 143.983 93 142.139 93C140.295 93 138.822 92.4005 137.677 91.2055C136.537 90.0105 135.965 88.372 135.965 86.2982V85.7644C135.965 84.4339 136.225 83.2553 136.739 82.2369C137.258 81.2185 137.978 80.4382 138.912 79.9003C139.842 79.3623 140.912 79.0913 142.114 79.0913C143.979 79.0913 145.468 79.6991 146.588 80.9105C147.707 82.1219 148.267 83.7645 148.267 85.8301V86.3516ZM145.448 85.7356C145.448 84.3189 145.156 83.2389 144.575 82.4956C143.995 81.7523 143.172 81.3786 142.118 81.3786C141.065 81.3786 140.262 81.7523 139.674 82.4956C139.085 83.2389 138.789 84.3189 138.789 85.7356V86.3516C138.789 87.7314 139.085 88.8032 139.682 89.5752C140.274 90.3472 141.098 90.7332 142.143 90.7332C143.188 90.7332 144.016 90.3554 144.588 89.5999C145.164 88.8443 145.448 87.7601 145.448 86.3516V85.7356Z" fill="white"/>
<path d="M153.251 90.5607H160.647V92.8151H149.629V91.1766L156.848 81.5551H149.638V79.276H160.445V80.8775L153.247 90.5566L153.251 90.5607Z" fill="white"/>
<path d="M171.204 89.9201H165.59L164.483 92.8151H161.631L167.117 79.276H169.714L175.175 92.8151H172.311L171.204 89.9201ZM166.417 87.7724H170.376L168.397 82.6351L166.417 87.7724Z" fill="white"/>
<path d="M2.41173 94.7002C1.40751 94.7002 0.522645 93.9897 0.308631 93.0083C0.308631 93.0042 0.296284 92.9467 0.296284 92.9467C0.267474 92.803 0.255127 92.6716 0.255127 92.5525V91.9776C0.255127 91.4027 0.477373 90.8647 0.884823 90.4582C1.08238 90.261 1.31285 90.105 1.57214 89.9982C1.83966 89.8874 2.11952 89.8299 2.41173 89.8299H4.44076C4.58069 89.8299 4.69593 89.7149 4.69593 89.5753V81.2267C4.69593 60.5833 17.2075 52.3005 24.6651 49.2001C24.9491 49.081 25.1261 48.8264 25.1261 48.5266C25.1261 48.2269 24.9491 47.9723 24.6651 47.8532C17.2075 44.7528 4.69593 36.4741 4.69593 15.8266V7.3918C4.69593 7.25218 4.58069 7.13719 4.44076 7.13719H2.41173C1.83554 7.13719 1.29639 6.91544 0.888939 6.5089C0.790163 6.41034 0.703734 6.30357 0.625537 6.18859C0.465026 5.95452 0.358019 5.69581 0.300399 5.42068C0.27159 5.28105 0.255127 5.13322 0.255127 4.98539V4.41048C0.255127 4.28728 0.267474 4.15998 0.296284 4.01625C0.296284 4.01625 0.308631 3.95876 0.308631 3.95055C0.522645 2.9732 1.40751 2.25867 2.41173 2.25867H54.3514C55.3556 2.25867 56.2405 2.96909 56.4545 3.95055C56.4545 3.95465 56.4668 4.01214 56.4668 4.01214C56.4957 4.15587 56.508 4.28728 56.508 4.40637V4.98128C56.508 5.27284 56.4504 5.55208 56.3393 5.81901C56.2323 6.07361 56.0759 6.30357 55.8783 6.50479C55.4709 6.91134 54.9317 7.13309 54.3555 7.13309H53.8904C53.7505 7.13309 53.6353 7.24807 53.6353 7.38769V15.8224C53.6353 31.5134 46.2641 39.981 40.0783 44.3216C39.996 44.3791 39.9548 44.4776 39.9754 44.5762C40.0618 45.032 40.103 45.4837 40.103 45.9149C40.103 47.693 39.4115 49.4547 38.1069 51.0111C38.0575 51.0686 38.0369 51.1425 38.0493 51.2164C38.0616 51.2903 38.1069 51.356 38.1686 51.393C44.8689 55.4379 52.985 63.5565 53.59 79.2433C53.6188 79.9086 53.6312 80.5738 53.6312 81.2185V89.567C53.6312 89.7067 53.7464 89.8216 53.8863 89.8216H54.3514C55.5408 89.8216 56.508 90.7867 56.508 91.9735V92.5484C56.508 92.6716 56.4957 92.7989 56.4668 92.9426C56.4668 92.9426 56.4545 93.0042 56.4545 93.0083C56.2405 93.9897 55.3556 94.7002 54.3514 94.7002H2.41173Z" fill="white"/>
<path d="M54.3514 2.51742C55.2363 2.51742 56.0183 3.14571 56.2035 4.00808C56.2035 4.01219 56.2035 4.01629 56.2035 4.0204L56.2117 4.06557C56.2364 4.19287 56.2488 4.30786 56.2488 4.41462V4.98954C56.2488 5.24414 56.1994 5.49464 56.1006 5.72871C56.0059 5.95456 55.866 6.15578 55.6931 6.33236C55.3351 6.68963 54.8577 6.88674 54.3514 6.88674H53.8864C53.6024 6.88674 53.376 7.1167 53.376 7.39595V15.8307C53.376 31.4108 46.0625 39.8127 39.9302 44.1204C39.7655 44.2354 39.6832 44.4366 39.7203 44.6337C39.8026 45.0731 39.8437 45.5084 39.8437 45.9232C39.8437 47.6397 39.1729 49.348 37.9094 50.8551C37.8147 50.9701 37.7735 51.1179 37.7982 51.2657C37.8229 51.4136 37.9094 51.5409 38.0369 51.6189C44.6837 55.6309 52.734 63.6838 53.3349 79.2598C53.3596 79.9209 53.376 80.5821 53.376 81.2268V89.5753C53.376 89.8587 53.6065 90.0845 53.8864 90.0845H54.3514C55.4009 90.0845 56.2529 90.9346 56.2529 91.9817V92.5566C56.2529 92.6634 56.2405 92.7743 56.2158 92.9057V92.9426C56.2158 92.9426 56.2076 92.955 56.2076 92.9591C56.0183 93.8214 55.2404 94.4497 54.3556 94.4497H2.41178C1.52691 94.4497 0.744935 93.8214 0.55973 92.9591C0.55973 92.955 0.55973 92.9509 0.55973 92.9468L0.551499 92.9016C0.526805 92.7743 0.514458 92.6593 0.514458 92.5525V91.9776C0.514458 91.4725 0.71201 90.9962 1.07007 90.6389C1.24293 90.4664 1.44871 90.3268 1.67507 90.2324C1.90967 90.1338 2.15661 90.0845 2.41589 90.0845H4.44492C4.7289 90.0845 4.95526 89.8546 4.95526 89.5753V81.2268C4.95526 60.7312 17.3681 52.51 24.7681 49.4383C25.1426 49.2823 25.3854 48.925 25.3854 48.5308C25.3854 48.1366 25.1426 47.7793 24.7681 47.6233C17.3681 44.5475 4.95526 36.3304 4.95526 15.8348V7.39184C4.95526 7.10849 4.72478 6.88263 4.44492 6.88263H2.41589C1.90967 6.88263 1.43225 6.68552 1.07419 6.32826C0.987759 6.24202 0.909561 6.14757 0.843711 6.04901C0.703778 5.84369 0.609118 5.61372 0.55973 5.37144C0.535036 5.24825 0.522689 5.11684 0.522689 4.98954V4.41462C0.522689 4.30786 0.535036 4.19698 0.55973 4.06557L0.567961 4.02451C0.567961 4.02451 0.567961 4.01629 0.567961 4.01219C0.757282 3.14982 1.53514 2.52153 2.42001 2.52153H54.3597M54.3597 2.01232H2.41178C1.25528 2.00411 0.292212 2.81719 0.0576193 3.8972C0.0576193 3.8972 0.0576193 3.90542 0.0576193 3.90952C0.0535036 3.93006 0.0493879 3.95059 0.0452723 3.97112C0.0164626 4.11485 0 4.26268 0 4.41462V4.98954C0 5.1538 0.0164626 5.31806 0.0493879 5.4741C0.115239 5.7862 0.238708 6.07776 0.411566 6.33647C0.497995 6.46377 0.596771 6.58286 0.707894 6.69373C1.14415 7.12902 1.74916 7.40005 2.41178 7.40005H4.4408V15.8348C4.4408 36.8396 17.4175 45.1265 24.5705 48.0955C24.9738 48.2639 24.9738 48.8018 24.5705 48.9661C17.4216 51.9392 4.4408 60.222 4.4408 81.2268V89.5753H2.41178C2.07841 89.5753 1.7615 89.641 1.47341 89.7642C1.18531 89.8874 0.926024 90.064 0.707894 90.2816C0.271634 90.7169 0 91.3206 0 91.9817V92.5566C0 92.7086 0.0164626 92.8564 0.0452723 93.0001C0.0452723 93.0207 0.0493879 93.0412 0.0576193 93.0617C0.0576193 93.0617 0.0576193 93.0699 0.0576193 93.0741C0.292212 94.1541 1.25528 94.9671 2.41178 94.9671H54.3514C55.5079 94.9671 56.471 94.1541 56.7056 93.0741C56.7056 93.0741 56.7056 93.0658 56.7056 93.0617C56.7097 93.0412 56.7138 93.0207 56.7179 93.0001C56.7467 92.8564 56.7632 92.7086 56.7632 92.5566V91.9817C56.7632 90.6512 55.6849 89.5753 54.3514 89.5753H53.8864V81.2268C53.8864 80.5492 53.8699 79.8881 53.8452 79.2392C53.2361 63.4497 45.0747 55.2737 38.3004 51.1836C39.5968 49.6396 40.3541 47.845 40.3541 45.9232C40.3541 45.455 40.3047 44.991 40.2224 44.5393C46.8074 39.9195 53.8864 31.3492 53.8864 15.8307V7.39184H54.3514C55.0182 7.39184 55.6191 7.12081 56.0553 6.68552C56.2734 6.46788 56.4504 6.20917 56.5739 5.92171C56.6974 5.63426 56.7632 5.31806 56.7632 4.98543V4.41052C56.7632 4.25858 56.7467 4.11074 56.7179 3.96702C56.7179 3.94648 56.7138 3.92595 56.7056 3.90542C56.7056 3.90542 56.7056 3.8972 56.7056 3.8931C56.471 2.81309 55.5079 2 54.3514 2L54.3597 2.01232Z" fill="white"/>
<path opacity="0.75" d="M33.7609 48.0873C40.9098 45.1142 53.8906 36.8314 53.8906 15.8266V7.39185H4.44092V15.8266C4.44092 36.8314 17.4176 45.1183 24.5706 48.0873C24.974 48.2557 24.974 48.7936 24.5706 48.9579C17.4217 51.931 4.44092 60.2138 4.44092 81.2186V89.6533H53.8906V81.2186C53.8906 60.2138 40.9139 51.9269 33.7609 48.9579C33.3576 48.7895 33.3576 48.2516 33.7609 48.0873Z" fill="#1C55A0"/>
<g opacity="0.75">
<path opacity="0.8" d="M33.7567 48.0011C40.9056 45.028 53.8864 36.7452 53.8864 15.7404V7.30566H39.4733C39.4733 29.3165 34.5098 41.2952 29.1636 48.4364C34.4316 56.9944 39.605 73.1658 39.4527 89.6493H53.8822V81.1324C53.8822 60.1276 40.9056 51.8407 33.7525 48.8717C33.3492 48.7033 33.3492 48.1654 33.7525 48.0011H33.7567Z" fill="white"/>
</g>
<path d="M15.3227 89.6492L37.358 44.8965L33.3493 45.5577L44.2517 24.3147L46.7129 29.1194L53.8865 7.39185L36.9835 23.4154L42.412 23.2306L20.5002 55.0109L26.2087 54.0664L4.41211 89.6492H15.3227Z" fill="url(#paint0_linear_213_64)"/>
<path d="M21.9489 53.0398C17.0184 54.3005 13.4624 57.9101 13.4624 62.1644C13.4624 67.47 18.9939 71.7695 25.8177 71.7695C29.1802 71.7695 32.0405 73.7324 32.0405 76.1512C32.0405 78.5699 29.316 80.5328 25.9535 80.5328H25.9288C25.1509 80.5328 24.5171 80.927 24.5171 81.4116C24.5171 81.8962 25.1468 82.2904 25.9288 82.2904H25.9535C30.9252 82.2904 34.9585 79.1571 34.9585 75.2888C34.9585 71.4205 30.7894 68.3242 25.8177 68.3242C21.204 68.3242 17.467 65.6303 17.467 62.3081C17.467 59.2077 20.7266 56.6576 24.9081 56.3332L26.3609 53.9555L20.6566 54.9L21.9448 53.0275L21.9489 53.0398ZM32.2916 55.1875C37.0164 53.471 40.3542 49.964 40.3542 45.9191C40.3542 40.1782 33.8473 35.5296 25.8177 35.5296C19.4343 35.5296 13.4419 31.9364 13.4419 27.5466C13.4419 23.1567 19.4301 19.5964 25.8177 19.5964C26.4803 20.5861 27.682 21.2554 28.9661 21.2554C29.176 21.2554 29.3818 21.239 29.5835 21.2061C31.1022 20.9844 33.4769 20.0686 35.5224 19.1816C37.0328 18.5246 37.037 16.611 35.5306 15.9498C33.4893 15.0546 31.1227 14.1265 29.6041 13.9007C29.4024 13.8678 29.1966 13.8473 28.9867 13.8473C27.6491 13.8473 26.4762 14.7261 25.8218 15.7815C16.3763 15.7815 8.72119 21.0501 8.72119 27.5466C8.72119 34.0431 16.3763 39.3117 25.8218 39.3117C30.8429 39.3117 35.0079 41.9111 35.5924 45.1922L37.358 44.9007L32.2916 55.1916V55.1875Z" fill="#273D8C"/>
<path d="M54.3514 2.00415H2.41178C1.07979 2.00415 0 3.08154 0 4.41056V4.98547C0 6.3145 1.07979 7.39188 2.41178 7.39188H54.3514C55.6834 7.39188 56.7632 6.3145 56.7632 4.98547V4.41056C56.7632 3.08154 55.6834 2.00415 54.3514 2.00415Z" fill="#283C8C"/>
<g opacity="0.75">
<path d="M54.3514 5.78616H2.41178C1.25939 5.78616 0.292212 4.97718 0.0576193 3.89717C0.0205783 4.06143 0 4.23391 0 4.41049V4.9854C0 6.3118 1.0783 7.39181 2.41178 7.39181H54.3514C55.6849 7.39181 56.7632 6.3159 56.7632 4.9854V4.41049C56.7632 4.23391 56.7426 4.06143 56.7056 3.89307C56.4669 4.97308 55.5038 5.78206 54.3514 5.78206V5.78616Z" fill="white"/>
</g>
<path d="M54.3514 89.5671H2.41178C1.07979 89.5671 0 90.6445 0 91.9736V92.5485C0 93.8775 1.07979 94.9549 2.41178 94.9549H54.3514C55.6834 94.9549 56.7632 93.8775 56.7632 92.5485V91.9736C56.7632 90.6445 55.6834 89.5671 54.3514 89.5671Z" fill="#283C8C"/>
<g opacity="0.8">
<path d="M0.255127 91.9736C0.255127 90.7868 1.22231 89.8218 2.41173 89.8218H54.3514C55.5408 89.8218 56.508 90.7868 56.508 91.9736V92.0146C56.0141 91.3453 55.2198 90.9141 54.3514 90.9141H2.41173C1.54333 90.9141 0.749006 91.3412 0.255127 92.0146V91.9736Z" fill="white"/>
<path d="M54.3514 90.0805C55.1416 90.0805 55.8248 90.565 56.1088 91.2549C55.6149 90.8812 55.0017 90.6636 54.3514 90.6636H2.41178C1.7615 90.6636 1.14827 90.8812 0.65439 91.2549C0.938371 90.565 1.62157 90.0805 2.41178 90.0805H54.3514ZM54.3514 89.5712H2.41178C1.0783 89.5671 0 90.6471 0 91.9736V92.5485C0 92.725 0.0205783 92.8975 0.0576193 93.0659C0.296328 91.9859 1.25939 91.1769 2.41178 91.1769H54.3514C55.5038 91.1769 56.471 91.9859 56.7056 93.0659C56.7426 92.9016 56.7632 92.7291 56.7632 92.5485V91.9736C56.7632 90.643 55.6849 89.5671 54.3514 89.5671V89.5712Z" fill="white"/>
</g>
<defs>
<linearGradient id="paint0_linear_213_64" x1="35.7879" y1="86.0493" x2="22.904" y2="12.8413" gradientUnits="userSpaceOnUse">
<stop stop-color="white"/>
<stop offset="0.1" stop-color="#CDD2E4"/>
<stop offset="0.21" stop-color="#A1ABCD"/>
<stop offset="0.32" stop-color="#7B89B9"/>
<stop offset="0.44" stop-color="#5C6DA8"/>
<stop offset="0.56" stop-color="#45589C"/>
<stop offset="0.69" stop-color="#344893"/>
<stop offset="0.83" stop-color="#2A3F8D"/>
<stop offset="1" stop-color="#273D8C"/>
</linearGradient>
</defs>
</svg>
