<svg width="19" height="15" viewBox="0 0 19 15" fill="none" xmlns="http://www.w3.org/2000/svg">
<path d="M18.2537 2.49199C17.6036 2.77424 16.9158 2.96019 16.212 3.04397C16.9517 2.61118 17.5079 1.92361 17.7764 1.11023C17.0771 1.51883 16.3133 1.80553 15.5178 1.95804C15.1828 1.6072 14.7799 1.3281 14.3336 1.1377C13.8873 0.947296 13.4069 0.849574 12.9216 0.85047C10.9569 0.85047 9.3669 2.41622 9.3669 4.34636C9.3655 4.61483 9.39629 4.88251 9.4586 5.14367C8.04974 5.07767 6.67019 4.71852 5.40819 4.08922C4.14619 3.45991 3.02954 2.5743 2.12968 1.48904C1.81398 2.02086 1.64703 2.62765 1.64626 3.246C1.64626 4.4582 2.27914 5.52969 3.23479 6.15744C2.6686 6.14401 2.114 5.99426 1.6181 5.7209V5.76419C1.6181 7.45983 2.8456 8.87045 4.47024 9.19154C4.16473 9.27292 3.8499 9.31415 3.53372 9.3142C3.30937 9.31459 3.08553 9.29284 2.86546 9.24926C3.31711 10.6382 4.63162 11.6484 6.18874 11.6773C4.92347 12.6517 3.37004 13.1783 1.77262 13.1745C1.48907 13.174 1.20579 13.1572 0.924194 13.124C2.54926 14.1609 4.43827 14.7094 6.36637 14.7041C12.914 14.7041 16.4911 9.37553 16.4911 4.75403C16.4911 4.60251 16.4871 4.45098 16.4799 4.30306C17.1742 3.80955 17.7749 3.19625 18.2537 2.49199Z" fill="#030211"/>
</svg>
