<svg width="18" height="18" viewBox="0 0 18 18" fill="none" xmlns="http://www.w3.org/2000/svg">
<path d="M16.2037 12.2681L13.6637 11.9781C13.365 11.943 13.0623 11.9761 12.7782 12.0748C12.4942 12.1735 12.2362 12.3353 12.0237 12.5481L10.1837 14.3881C7.34486 12.9443 5.03745 10.6369 3.59367 7.79807L5.44367 5.94807C5.87367 5.51807 6.08367 4.91807 6.01367 4.30807L5.72367 1.78807C5.66698 1.30024 5.43287 0.850304 5.06591 0.523915C4.69895 0.197526 4.22478 0.0174842 3.73367 0.0180678H2.00367C0.873674 0.0180678 -0.0663265 0.958068 0.00367348 2.08807C0.533673 10.6281 7.36367 17.4481 15.8937 17.9781C17.0237 18.0481 17.9637 17.1081 17.9637 15.9781V14.2481C17.9737 13.2381 17.2137 12.3881 16.2037 12.2681Z" fill="white"/>
</svg>
