<svg width="242" height="95" viewBox="0 0 242 95" fill="none" xmlns="http://www.w3.org/2000/svg">
<path d="M88.4747 12.3399C88.3018 14.1468 87.6351 15.5512 86.4703 16.5655C85.3056 17.5757 83.7581 18.0808 81.8238 18.0808C80.4738 18.0808 79.2844 17.7605 78.2555 17.124C77.2266 16.4834 76.4322 15.5758 75.8725 14.3973C75.3128 13.2187 75.0206 11.8512 75 10.2949V8.71385C75 7.11642 75.284 5.712 75.8519 4.49647C76.4199 3.28095 77.2307 2.34466 78.2925 1.68352C79.3544 1.02647 80.5767 0.693848 81.9678 0.693848C83.8404 0.693848 85.3468 1.19895 86.4868 2.20915C87.6269 3.21935 88.2936 4.65252 88.4788 6.50455H85.5443C85.4044 5.28903 85.0504 4.41023 84.4784 3.87228C83.9063 3.33433 83.0708 3.0633 81.9678 3.0633C80.6878 3.0633 79.7042 3.53144 79.0169 4.46362C78.3296 5.3999 77.9797 6.76737 77.9633 8.57423V10.0731C77.9633 11.9005 78.2925 13.2967 78.9469 14.2617C79.6013 15.2227 80.5644 15.7031 81.8279 15.7031C82.9844 15.7031 83.8528 15.4444 84.4372 14.9229C85.0216 14.4055 85.3879 13.539 85.5443 12.3317H88.4788L88.4747 12.3399Z" fill="#546EF3"/>
<path d="M94.1167 17.8468H91.2852V5.27676H94.1167V17.8509V17.8468ZM93.5817 0.0820312H96.8084L93.5817 3.60131H91.3098L93.5817 0.0820312Z" fill="black"/>
<path d="M104.176 7.85544C103.806 7.79384 103.419 7.76099 103.024 7.76099C101.727 7.76099 100.855 8.25787 100.402 9.24754V17.8466H97.5703V5.27655H100.274L100.344 6.68098C101.027 5.58865 101.974 5.04248 103.184 5.04248C103.587 5.04248 103.921 5.09587 104.184 5.20674L104.172 7.85544H104.176Z" fill="black"/>
<path d="M111.156 15.8264C111.864 15.8264 112.448 15.621 112.913 15.2104C113.378 14.7997 113.629 14.2905 113.658 13.6869H116.325C116.292 14.4712 116.049 15.1981 115.592 15.8756C115.136 16.5532 114.514 17.0912 113.728 17.4854C112.946 17.8796 112.098 18.0767 111.189 18.0767C109.427 18.0767 108.028 17.5059 106.995 16.3684C105.962 15.2309 105.447 13.6581 105.447 11.65V11.3585C105.447 9.44485 105.962 7.91313 106.982 6.76331C108.007 5.61348 109.407 5.03857 111.176 5.03857C112.674 5.03857 113.897 5.47386 114.839 6.34444C115.782 7.21502 116.276 8.36074 116.325 9.77748H113.658C113.625 9.05884 113.382 8.4634 112.917 7.99936C112.456 7.53533 111.868 7.30126 111.152 7.30126C110.234 7.30126 109.53 7.63389 109.032 8.29503C108.534 8.95618 108.283 9.96227 108.275 11.3092V11.7609C108.275 13.1243 108.522 14.1427 109.016 14.8121C109.509 15.4814 110.221 15.8181 111.152 15.8181L111.156 15.8264Z" fill="black"/>
<path d="M126.339 16.6149C125.507 17.5923 124.326 18.0809 122.799 18.0809C121.433 18.0809 120.4 17.6826 119.696 16.8859C118.992 16.0893 118.643 14.9354 118.643 13.4242V5.27686H121.474V13.3872C121.474 14.9846 122.137 15.7813 123.466 15.7813C124.795 15.7813 125.767 15.2885 126.248 14.3071V5.27686H129.08V17.851H126.413L126.343 16.619L126.339 16.6149Z" fill="black"/>
<path d="M135.205 17.8469H132.373V0H135.205V17.8469Z" fill="black"/>
<path d="M137.994 11.4447C137.994 10.2128 138.237 9.10401 138.727 8.11435C139.216 7.12468 139.904 6.36908 140.789 5.83524C141.674 5.3055 142.69 5.03857 143.838 5.03857C145.538 5.03857 146.917 5.58474 147.979 6.67707C149.041 7.7694 149.613 9.219 149.695 11.0218L149.707 11.6829C149.707 12.9231 149.469 14.0318 148.991 15.0051C148.514 15.9824 147.831 16.738 146.942 17.2719C146.053 17.8057 145.028 18.0726 143.863 18.0726C142.085 18.0726 140.661 17.4813 139.595 16.2986C138.529 15.1159 137.994 13.5431 137.994 11.5761V11.4365V11.4447ZM140.826 11.687C140.826 12.9806 141.093 13.9949 141.628 14.7258C142.163 15.4568 142.908 15.8223 143.863 15.8223C144.818 15.8223 145.563 15.4527 146.094 14.7053C146.625 13.962 146.892 12.8738 146.892 11.4406C146.892 10.1717 146.621 9.1615 146.069 8.41823C145.522 7.67495 144.777 7.30126 143.838 7.30126C142.9 7.30126 142.18 7.66674 141.637 8.39769C141.093 9.12865 140.822 10.2251 140.822 11.6788L140.826 11.687Z" fill="black"/>
<path d="M157.992 11.4695C157.992 9.5312 158.441 7.97894 159.342 6.80448C160.243 5.63002 161.449 5.04279 162.964 5.04279C164.297 5.04279 165.38 5.50682 166.203 6.439V0H169.035V17.8469H166.47L166.331 16.5451C165.483 17.5676 164.355 18.0768 162.943 18.0768C161.532 18.0768 160.272 17.4855 159.363 16.2987C158.449 15.1119 157.992 13.5022 157.992 11.4654V11.4695ZM160.824 11.7118C160.824 12.9889 161.071 13.9868 161.565 14.7054C162.058 15.4199 162.758 15.7813 163.668 15.7813C164.824 15.7813 165.672 15.2639 166.207 14.2372V8.87005C165.688 7.86396 164.849 7.35886 163.692 7.35886C162.775 7.35886 162.071 7.72023 161.573 8.44708C161.075 9.16982 160.828 10.2622 160.828 11.72L160.824 11.7118Z" fill="black"/>
<path d="M177.772 18.0806C175.977 18.0806 174.525 17.518 173.409 16.3888C172.294 15.2636 171.738 13.7606 171.738 11.888V11.539C171.738 10.2824 171.981 9.1613 172.467 8.17574C172.952 7.18608 173.631 6.41816 174.512 5.86789C175.389 5.31762 176.368 5.04248 177.447 5.04248C179.163 5.04248 180.488 5.58865 181.422 6.68098C182.357 7.77331 182.826 9.31735 182.826 11.3172V12.4547H174.59C174.677 13.4937 175.023 14.315 175.632 14.9186C176.241 15.5223 177.006 15.8262 177.932 15.8262C179.229 15.8262 180.287 15.3046 181.101 14.2575L182.628 15.7112C182.122 16.4627 181.451 17.0458 180.608 17.4606C179.764 17.8753 178.821 18.0806 177.772 18.0806ZM177.434 7.30927C176.657 7.30927 176.031 7.5803 175.554 8.12236C175.076 8.66442 174.772 9.42001 174.64 10.3891H180.031V10.1797C179.97 9.23522 179.719 8.52069 179.274 8.03612C178.834 7.55155 178.216 7.30927 177.434 7.30927Z" fill="black"/>
<path d="M80.404 35.5296L78.482 37.5624V42.8392H75.5352V25.9204H78.482V33.8583L80.1118 31.8502L85.0753 25.9245H88.6394L82.3383 33.4189L89.0016 42.8433H85.5074L80.4081 35.5337L80.404 35.5296Z" fill="#546EF3"/>
<path d="M90.5449 27C90.5449 26.5647 90.6849 26.2074 90.9565 25.92C91.2322 25.6325 91.6273 25.4888 92.1377 25.4888C92.648 25.4888 93.0472 25.6325 93.3271 25.92C93.607 26.2074 93.7469 26.5688 93.7469 27C93.7469 27.4311 93.607 27.7802 93.3271 28.0635C93.0472 28.3469 92.6521 28.4865 92.1377 28.4865C91.6232 28.4865 91.2322 28.3469 90.9565 28.0635C90.6807 27.7802 90.5449 27.427 90.5449 27ZM93.5494 42.8388H90.7178V30.2646H93.5494V42.8388Z" fill="black"/>
<path d="M99.4916 30.2651L99.5739 31.7188C100.504 30.5936 101.726 30.0352 103.241 30.0352C105.867 30.0352 107.2 31.534 107.245 34.5318V42.8392H104.414V34.6919C104.414 33.8953 104.241 33.3039 103.895 32.9179C103.55 32.536 102.986 32.343 102.2 32.343C101.06 32.343 100.208 32.8604 99.648 33.8871V42.8351H96.8164V30.261H99.4834L99.4916 30.2651Z" fill="black"/>
<path d="M115.922 43.0689C114.128 43.0689 112.675 42.5063 111.56 41.377C110.444 40.2519 109.889 38.7489 109.889 36.8763V36.5273C109.889 35.2707 110.131 34.1496 110.617 33.164C111.103 32.1744 111.782 31.4064 112.663 30.8562C113.539 30.3059 114.519 30.0308 115.597 30.0308C117.313 30.0308 118.639 30.5769 119.573 31.6693C120.507 32.7616 120.976 34.3056 120.976 36.3055V37.443H112.741C112.827 38.4819 113.173 39.3032 113.782 39.9069C114.391 40.5106 115.157 40.8144 116.083 40.8144C117.379 40.8144 118.437 40.2929 119.252 39.2458L120.779 40.6995C120.272 41.451 119.602 42.0341 118.758 42.4488C117.914 42.8636 116.972 43.0689 115.922 43.0689ZM115.585 32.2976C114.807 32.2976 114.181 32.5686 113.704 33.1106C113.226 33.6527 112.922 34.4083 112.79 35.3774H118.182V35.168C118.12 34.2235 117.869 33.509 117.424 33.0244C116.984 32.5398 116.367 32.2976 115.585 32.2976Z" fill="black"/>
<path d="M130.471 39.4223C130.471 38.9172 130.265 38.5353 129.849 38.2725C129.434 38.0097 128.746 37.7756 127.783 37.5744C126.82 37.3732 126.018 37.1186 125.371 36.8065C123.96 36.1248 123.252 35.1351 123.252 33.8416C123.252 32.7575 123.709 31.8499 124.626 31.1231C125.544 30.3962 126.709 30.0308 128.121 30.0308C129.627 30.0308 130.845 30.4045 131.771 31.1477C132.697 31.891 133.162 32.856 133.162 34.0428H130.331C130.331 33.5008 130.129 33.049 129.726 32.6877C129.322 32.3263 128.787 32.1456 128.117 32.1456C127.495 32.1456 126.989 32.2893 126.598 32.5768C126.207 32.8643 126.009 33.2462 126.009 33.7266C126.009 34.1619 126.19 34.4986 126.557 34.7368C126.923 34.975 127.66 35.2173 128.771 35.4637C129.882 35.706 130.755 35.9975 131.384 36.3342C132.018 36.671 132.487 37.0775 132.792 37.5498C133.096 38.022 133.253 38.5969 133.253 39.2704C133.253 40.3997 132.784 41.3195 131.845 42.0176C130.907 42.7199 129.676 43.0689 128.154 43.0689C127.121 43.0689 126.203 42.8841 125.392 42.5104C124.585 42.1367 123.956 41.6275 123.507 40.9746C123.054 40.3258 122.832 39.6236 122.832 38.8721H125.581C125.618 39.5373 125.874 40.0506 126.339 40.412C126.804 40.7734 127.421 40.9541 128.191 40.9541C128.96 40.9541 129.504 40.8144 129.89 40.5311C130.277 40.2477 130.471 39.8782 130.471 39.4223Z" fill="black"/>
<path d="M135.961 27C135.961 26.5647 136.097 26.2074 136.373 25.92C136.648 25.6325 137.043 25.4888 137.554 25.4888C138.064 25.4888 138.463 25.6325 138.743 25.92C139.023 26.2074 139.163 26.5688 139.163 27C139.163 27.4311 139.023 27.7802 138.743 28.0635C138.463 28.3469 138.068 28.4865 137.554 28.4865C137.039 28.4865 136.648 28.3469 136.373 28.0635C136.097 27.7802 135.961 27.427 135.961 27ZM138.965 42.8388H136.134V30.2646H138.965V42.8388Z" fill="black"/>
<path d="M141.756 36.433C141.756 35.2011 141.999 34.0923 142.488 33.1026C142.978 32.113 143.666 31.3574 144.55 30.8235C145.435 30.2938 146.452 30.0269 147.6 30.0269C149.3 30.0269 150.683 30.573 151.74 31.6654C152.798 32.7577 153.374 34.2073 153.457 36.0101L153.469 36.6712C153.469 37.9114 153.23 39.0201 152.753 39.9934C152.275 40.9707 151.592 41.7263 150.703 42.2602C149.814 42.794 148.79 43.0609 147.625 43.0609C145.847 43.0609 144.423 42.4696 143.357 41.2869C142.291 40.1042 141.756 38.5314 141.756 36.5644V36.4248V36.433ZM144.587 36.6753C144.587 37.9689 144.855 38.9832 145.39 39.7141C145.925 40.4451 146.67 40.8106 147.625 40.8106C148.58 40.8106 149.325 40.441 149.855 39.6936C150.386 38.9503 150.654 37.8621 150.654 36.4289C150.654 35.16 150.382 34.1498 149.831 33.4065C149.283 32.6632 148.538 32.2896 147.6 32.2896C146.662 32.2896 145.941 32.655 145.398 33.386C144.855 34.117 144.583 35.2134 144.583 36.6671L144.587 36.6753ZM148.386 24.9841H151.613L148.386 28.5034L146.114 28.4951L148.386 24.98V24.9841Z" fill="black"/>
<path d="M159.117 42.8391H156.285V24.9922H159.117V42.8391Z" fill="black"/>
<path d="M161.902 36.433C161.902 35.2011 162.145 34.0923 162.635 33.1026C163.125 32.113 163.812 31.3574 164.697 30.8235C165.582 30.2938 166.598 30.0269 167.747 30.0269C169.446 30.0269 170.825 30.573 171.887 31.6653C172.945 32.7577 173.521 34.2073 173.603 36.01L173.616 36.6712C173.616 37.9113 173.377 39.0201 172.899 39.9933C172.422 40.9707 171.739 41.7263 170.85 42.2601C169.961 42.794 168.936 43.0609 167.771 43.0609C165.993 43.0609 164.569 42.4696 163.503 41.2869C162.437 40.1042 161.902 38.5314 161.902 36.5644V36.4248V36.433ZM164.734 36.6753C164.734 37.9688 165.001 38.9831 165.536 39.7141C166.072 40.4451 166.816 40.8105 167.771 40.8105C168.726 40.8105 169.471 40.441 170.002 39.6936C170.533 38.9503 170.8 37.8621 170.8 36.4289C170.8 35.16 170.529 34.1498 169.977 33.4065C169.43 32.6632 168.685 32.2895 167.747 32.2895C166.808 32.2895 166.088 32.655 165.545 33.386C165.001 34.1169 164.73 35.2134 164.73 36.6671L164.734 36.6753Z" fill="black"/>
<path d="M175.756 36.4574C175.756 34.5069 176.217 32.9464 177.135 31.7801C178.052 30.6139 179.275 30.0308 180.798 30.0308C182.234 30.0308 183.366 30.5318 184.189 31.5296L184.316 30.2648H186.868V42.4529C186.868 44.1038 186.354 45.4055 185.325 46.3582C184.296 47.3109 182.909 47.7873 181.16 47.7873C180.234 47.7873 179.332 47.5943 178.452 47.2124C177.571 46.8305 176.9 46.3254 176.443 45.7094L177.781 44.0134C178.649 45.0441 179.723 45.5575 180.995 45.5575C181.933 45.5575 182.674 45.3028 183.222 44.7977C183.765 44.2885 184.037 43.5453 184.037 42.5597V41.7097C183.222 42.6172 182.135 43.0689 180.777 43.0689C179.304 43.0689 178.098 42.4858 177.159 41.3154C176.225 40.1451 175.756 38.5271 175.756 36.4574ZM178.575 36.6997C178.575 37.9645 178.834 38.9542 179.349 39.681C179.863 40.4038 180.579 40.7693 181.497 40.7693C182.637 40.7693 183.485 40.2806 184.037 39.3032V33.7718C183.502 32.8191 182.662 32.3427 181.522 32.3427C180.592 32.3427 179.867 32.7123 179.349 33.4474C178.834 34.1824 178.575 35.2666 178.575 36.6997Z" fill="black"/>
<path d="M189.481 36.433C189.481 35.2011 189.724 34.0923 190.213 33.1026C190.703 32.113 191.39 31.3574 192.275 30.8235C193.16 30.2938 194.177 30.0269 195.325 30.0269C197.025 30.0269 198.408 30.573 199.465 31.6653C200.523 32.7577 201.099 34.2073 201.182 36.01L201.194 36.6712C201.194 37.9113 200.955 39.0201 200.478 39.9933C200 40.9707 199.317 41.7263 198.428 42.2601C197.539 42.794 196.514 43.0609 195.346 43.0609C193.568 43.0609 192.144 42.4696 191.078 41.2869C190.012 40.1042 189.477 38.5314 189.477 36.5644V36.4248L189.481 36.433ZM192.312 36.6753C192.312 37.9688 192.58 38.9831 193.115 39.7141C193.65 40.4451 194.395 40.8105 195.35 40.8105C196.304 40.8105 197.049 40.441 197.58 39.6936C198.111 38.9503 198.379 37.8621 198.379 36.4289C198.379 35.16 198.107 34.1498 197.556 33.4065C197.008 32.6632 196.263 32.2895 195.325 32.2895C194.387 32.2895 193.666 32.655 193.123 33.386C192.58 34.1169 192.308 35.2134 192.308 36.6671L192.312 36.6753Z" fill="black"/>
<path d="M210.895 39.4223C210.895 38.9172 210.689 38.5353 210.273 38.2725C209.857 38.0097 209.17 37.7756 208.207 37.5744C207.244 37.3732 206.441 37.1186 205.795 36.8065C204.384 36.1248 203.676 35.1351 203.676 33.8416C203.676 32.7575 204.132 31.8499 205.05 31.1231C205.968 30.3962 207.133 30.0308 208.544 30.0308C210.051 30.0308 211.269 30.4045 212.195 31.1477C213.121 31.891 213.586 32.856 213.586 34.0428H210.755C210.755 33.5008 210.553 33.049 210.15 32.6877C209.746 32.3263 209.211 32.1456 208.54 32.1456C207.919 32.1456 207.413 32.2893 207.022 32.5768C206.631 32.8643 206.433 33.2462 206.433 33.7266C206.433 34.1619 206.614 34.4986 206.981 34.7368C207.347 34.975 208.084 35.2173 209.195 35.4637C210.306 35.706 211.179 35.9975 211.808 36.3342C212.442 36.671 212.911 37.0775 213.216 37.5498C213.52 38.022 213.677 38.5969 213.677 39.2704C213.677 40.3997 213.208 41.3195 212.269 42.0176C211.331 42.7199 210.1 43.0689 208.577 43.0689C207.544 43.0689 206.627 42.8841 205.816 42.5104C205.009 42.1367 204.379 41.6275 203.931 40.9746C203.478 40.3258 203.256 39.6236 203.256 38.8721H206.005C206.042 39.5373 206.297 40.0506 206.762 40.412C207.227 40.7734 207.845 40.9541 208.614 40.9541C209.384 40.9541 209.927 40.8144 210.314 40.5311C210.701 40.2477 210.899 39.8782 210.899 39.4223H210.895Z" fill="black"/>
<path d="M226.967 38.7941L229.531 30.2648H232.547L227.539 44.7444C226.769 46.8592 225.464 47.9146 223.625 47.9146C223.213 47.9146 222.76 47.8448 222.262 47.7052V45.5082L222.797 45.541C223.514 45.541 224.049 45.4096 224.411 45.1509C224.773 44.8922 225.057 44.4569 225.267 43.8451L225.674 42.765L221.25 30.2607H224.3L226.967 38.79V38.7941Z" fill="black"/>
<path d="M85.3096 60.657H78.4859V67.827H75.5391V50.9082H86.3097V53.2777H78.4818V58.3081H85.3055V60.657H85.3096Z" fill="#546EF3"/>
<path d="M88.6113 51.9882C88.6113 51.553 88.7513 51.1957 89.0229 50.9082C89.2986 50.6208 89.6937 50.4771 90.2041 50.4771C90.7144 50.4771 91.1136 50.6208 91.3935 50.9082C91.6734 51.1957 91.8133 51.5571 91.8133 51.9882C91.8133 52.4194 91.6734 52.7685 91.3935 53.0518C91.1136 53.3352 90.7185 53.4748 90.2041 53.4748C89.6896 53.4748 89.2986 53.3352 89.0229 53.0518C88.7471 52.7685 88.6113 52.4153 88.6113 51.9882ZM91.6158 67.827H88.7842V55.2529H91.6158V67.827Z" fill="black"/>
<path d="M101.998 64.4106C101.998 63.9055 101.792 63.5236 101.376 63.2608C100.961 62.998 100.273 62.7639 99.3103 62.5627C98.3472 62.3615 97.5447 62.1069 96.8985 61.7948C95.4869 61.1131 94.779 60.1234 94.779 58.8299C94.779 57.7458 95.2358 56.8382 96.1536 56.1114C97.0714 55.3845 98.2361 55.019 99.6478 55.019C101.154 55.019 102.372 55.3927 103.298 56.136C104.224 56.8793 104.689 57.8443 104.689 59.0311H101.862C101.862 58.489 101.66 58.0373 101.257 57.676C100.854 57.3146 100.319 57.1339 99.6478 57.1339C99.0263 57.1339 98.5201 57.2776 98.1291 57.5651C97.7381 57.8525 97.5406 58.2344 97.5406 58.7149C97.5406 59.1502 97.7217 59.4869 98.088 59.7251C98.4543 59.9633 99.1909 60.2056 100.302 60.452C101.413 60.6942 102.286 60.9858 102.916 61.3225C103.545 61.6593 104.019 62.0658 104.323 62.5381C104.628 63.0103 104.784 63.5852 104.784 64.2587C104.784 65.388 104.315 66.3078 103.377 67.0059C102.438 67.7081 101.208 68.0572 99.6848 68.0572C98.6518 68.0572 97.734 67.8724 96.9232 67.4987C96.1166 67.125 95.4869 66.6158 95.0382 65.9629C94.5896 65.3141 94.3633 64.6118 94.3633 63.8603H97.1125C97.1496 64.5256 97.4048 65.0389 97.8698 65.4003C98.3349 65.7617 98.9522 65.9423 99.7219 65.9423C100.492 65.9423 101.035 65.8027 101.422 65.5194C101.809 65.236 102.002 64.8664 102.002 64.4106H101.998Z" fill="black"/>
<path d="M107.488 51.9882C107.488 51.553 107.624 51.1957 107.9 50.9082C108.176 50.6208 108.571 50.4771 109.081 50.4771C109.591 50.4771 109.991 50.6208 110.27 50.9082C110.55 51.1957 110.69 51.5571 110.69 51.9882C110.69 52.4194 110.55 52.7685 110.27 53.0518C109.991 53.3352 109.595 53.4748 109.081 53.4748C108.567 53.4748 108.176 53.3352 107.9 53.0518C107.624 52.7685 107.488 52.4153 107.488 51.9882ZM110.493 67.827H107.661V55.2529H110.493V67.827Z" fill="black"/>
<path d="M113.283 61.4213C113.283 60.1893 113.526 59.0806 114.016 58.0909C114.506 57.1012 115.193 56.3456 116.078 55.8118C116.963 55.2821 117.979 55.0151 119.127 55.0151C120.827 55.0151 122.21 55.5613 123.268 56.6536C124.326 57.746 124.902 59.1956 124.984 60.9983L124.996 61.6595C124.996 62.8996 124.758 64.0084 124.28 64.9816C123.803 65.959 123.12 66.7146 122.231 67.2484C121.342 67.7823 120.317 68.0492 119.152 68.0492C117.374 68.0492 115.95 67.4578 114.884 66.2752C113.818 65.0925 113.283 63.5197 113.283 61.5527V61.4131V61.4213ZM116.115 61.6636C116.115 62.9571 116.382 63.9714 116.917 64.7024C117.452 65.4333 118.197 65.7988 119.152 65.7988C120.107 65.7988 120.852 65.4292 121.383 64.6818C121.914 63.9386 122.181 62.8503 122.181 61.4172C122.181 60.1483 121.91 59.1381 121.358 58.3948C120.811 57.6515 120.066 57.2778 119.127 57.2778C118.189 57.2778 117.469 57.6433 116.926 58.3743C116.382 59.1052 116.111 60.2017 116.111 61.6554L116.115 61.6636Z" fill="black"/>
<path d="M131.175 52.1978V55.253H133.402V57.3432H131.175V64.3612C131.175 64.8417 131.27 65.1866 131.459 65.4002C131.648 65.6137 131.99 65.7205 132.48 65.7205C132.805 65.7205 133.134 65.6835 133.472 65.6055V67.7901C132.826 67.9667 132.204 68.0571 131.607 68.0571C129.434 68.0571 128.348 66.8621 128.348 64.468V57.3432H126.273V55.253H128.348V52.1978H131.179H131.175Z" fill="black"/>
<path d="M141.348 68.0572C139.554 68.0572 138.101 67.4946 136.985 66.3653C135.87 65.236 135.314 63.7372 135.314 61.8646V61.5155C135.314 60.2589 135.557 59.1379 136.043 58.1523C136.529 57.1626 137.208 56.3947 138.088 55.8445C138.965 55.2942 139.945 55.019 141.023 55.019C142.739 55.019 144.064 55.5652 144.999 56.6575C145.933 57.7499 146.402 59.2939 146.402 61.2938V62.4313H138.167C138.253 63.4702 138.599 64.2915 139.208 64.8952C139.817 65.4988 140.583 65.8027 141.509 65.8027C142.805 65.8027 143.863 65.2812 144.678 64.234L146.205 65.6877C145.698 66.4392 145.027 67.0224 144.184 67.4371C143.34 67.8519 142.398 68.0572 141.348 68.0572ZM141.011 57.2858C140.233 57.2858 139.607 57.5569 139.13 58.0989C138.652 58.641 138.348 59.3966 138.216 60.3657H143.608V60.1563C143.546 59.2118 143.295 58.4973 142.85 58.0127C142.41 57.5281 141.793 57.2858 141.011 57.2858Z" fill="black"/>
<path d="M155.436 57.8322C155.065 57.7706 154.678 57.7378 154.283 57.7378C152.987 57.7378 152.114 58.2346 151.662 59.2243V67.8233H148.83V55.2492H151.534L151.604 56.6536C152.287 55.5613 153.234 55.0151 154.444 55.0151C154.847 55.0151 155.181 55.0685 155.444 55.1794L155.432 57.8281L155.436 57.8322Z" fill="black"/>
<path d="M164.644 67.8274C164.52 67.5893 164.409 67.195 164.319 66.653C163.417 67.5893 162.314 68.0574 161.01 68.0574C159.705 68.0574 158.713 67.696 157.911 66.9774C157.112 66.2587 156.713 65.3676 156.713 64.304C156.713 62.9653 157.211 61.9346 158.211 61.2201C159.207 60.5055 160.635 60.1442 162.491 60.1442H164.228V59.3188C164.228 58.6699 164.047 58.1484 163.681 57.7542C163.314 57.3641 162.759 57.1669 162.014 57.1669C161.368 57.1669 160.841 57.3271 160.429 57.6474C160.018 57.9677 159.812 58.3784 159.812 58.8752H156.98C156.98 58.1854 157.211 57.5406 157.668 56.9411C158.125 56.3415 158.75 55.8693 159.536 55.5284C160.322 55.1876 161.203 55.0151 162.174 55.0151C163.648 55.0151 164.825 55.3847 165.701 56.1239C166.578 56.8631 167.031 57.902 167.051 59.2448V64.9159C167.051 66.0452 167.212 66.9486 167.529 67.6221V67.8192H164.64L164.644 67.8274ZM161.532 65.7947C162.092 65.7947 162.619 65.6592 163.109 65.3882C163.603 65.1171 163.973 64.7517 164.22 64.2958V61.9264H162.693C161.643 61.9264 160.857 62.1071 160.331 62.4725C159.804 62.838 159.54 63.3513 159.54 64.0166C159.54 64.5587 159.721 64.9898 160.084 65.3142C160.446 65.6346 160.927 65.7988 161.532 65.7988V65.7947Z" fill="black"/>
<path d="M181.29 61.6675C181.29 63.6098 180.85 65.1621 179.961 66.3201C179.076 67.4782 177.887 68.0572 176.397 68.0572C175.014 68.0572 173.907 67.6055 173.08 66.6979V72.6606H170.248V55.2531H172.857L172.973 56.5302C173.804 55.5241 174.932 55.019 176.364 55.019C177.899 55.019 179.105 55.5898 179.982 56.7315C180.854 57.8731 181.29 59.4623 181.29 61.4909V61.6634V61.6675ZM178.471 61.4252C178.471 60.1686 178.22 59.1748 177.722 58.4398C177.22 57.7047 176.504 57.3351 175.574 57.3351C174.417 57.3351 173.586 57.8115 173.084 58.7642V64.3408C173.594 65.3182 174.434 65.8068 175.598 65.8068C176.5 65.8068 177.204 65.4455 177.714 64.7186C178.224 63.9959 178.475 62.8953 178.475 61.4252H178.471Z" fill="black"/>
<path d="M189.469 68.0572C187.675 68.0572 186.222 67.4946 185.107 66.3653C183.991 65.2401 183.436 63.7372 183.436 61.8646V61.5155C183.436 60.2589 183.678 59.1379 184.164 58.1523C184.65 57.1626 185.329 56.3947 186.209 55.8445C187.086 55.2942 188.066 55.019 189.144 55.019C190.86 55.019 192.185 55.5652 193.12 56.6575C194.054 57.7499 194.523 59.2939 194.523 61.2938V62.4313H186.288C186.374 63.4702 186.72 64.2915 187.329 64.8952C187.938 65.4988 188.704 65.8027 189.63 65.8027C190.926 65.8027 191.984 65.2812 192.799 64.234L194.326 65.6877C193.819 66.4392 193.149 67.0224 192.305 67.4371C191.461 67.8519 190.519 68.0572 189.469 68.0572ZM189.132 57.2858C188.354 57.2858 187.728 57.5569 187.251 58.0989C186.773 58.641 186.469 59.3966 186.337 60.3657H191.729V60.1563C191.667 59.2118 191.416 58.4973 190.971 58.0127C190.531 57.5281 189.914 57.2858 189.132 57.2858Z" fill="black"/>
<path d="M204.595 66.5954C203.763 67.5727 202.582 68.0614 201.055 68.0614C199.689 68.0614 198.656 67.6631 197.952 66.8664C197.248 66.0698 196.898 64.9158 196.898 63.4046V55.2573H199.73V63.3677C199.73 64.9651 200.393 65.7618 201.722 65.7618C203.051 65.7618 204.023 65.269 204.504 64.2875V55.2573H207.336V67.8314H204.669L204.599 66.5995L204.595 66.5954Z" fill="black"/>
<path d="M213.997 52.1978V55.253H216.224V57.3432H213.997V64.3612C213.997 64.8417 214.092 65.1866 214.281 65.4002C214.471 65.6137 214.812 65.7205 215.302 65.7205C215.627 65.7205 215.957 65.6835 216.294 65.6055V67.7901C215.648 67.9667 215.026 68.0571 214.43 68.0571C212.257 68.0571 211.17 66.8621 211.17 64.468V57.3432H209.096V55.253H211.17V52.1978H214.002H213.997Z" fill="black"/>
<path d="M226.152 67.8274C226.028 67.5893 225.917 67.195 225.826 66.653C224.925 67.5893 223.822 68.0574 222.517 68.0574C221.213 68.0574 220.221 67.696 219.418 66.9774C218.62 66.2587 218.221 65.3676 218.221 64.304C218.221 62.9653 218.719 61.9346 219.719 61.2201C220.715 60.5055 222.143 60.1442 223.999 60.1442H225.736V59.3188C225.736 58.6699 225.555 58.1484 225.189 57.7542C224.822 57.3641 224.267 57.1669 223.522 57.1669C222.876 57.1669 222.349 57.3271 221.937 57.6474C221.526 57.9677 221.32 58.3784 221.32 58.8752H218.488C218.488 58.1854 218.719 57.5406 219.176 56.9411C219.632 56.3415 220.258 55.8693 221.044 55.5284C221.83 55.1876 222.711 55.0151 223.682 55.0151C225.156 55.0151 226.333 55.3847 227.209 56.1239C228.086 56.8631 228.539 57.902 228.559 59.2448V64.9159C228.559 66.0452 228.72 66.9486 229.037 67.6221V67.8192H226.147L226.152 67.8274ZM223.04 65.7947C223.6 65.7947 224.127 65.6592 224.616 65.3882C225.11 65.1171 225.481 64.7517 225.728 64.2958V61.9264H224.201C223.151 61.9264 222.365 62.1071 221.838 62.4725C221.312 62.838 221.048 63.3513 221.048 64.0166C221.048 64.5587 221.229 64.9898 221.591 65.3142C221.954 65.6346 222.435 65.7988 223.04 65.7988V65.7947Z" fill="black"/>
<path d="M238.828 64.4106C238.828 63.9055 238.622 63.5236 238.207 63.2608C237.791 62.998 237.104 62.7639 236.141 62.5627C235.178 62.3615 234.375 62.1069 233.729 61.7948C232.317 61.1131 231.609 60.1234 231.609 58.8299C231.609 57.7458 232.066 56.8382 232.984 56.1114C233.902 55.3845 235.066 55.019 236.478 55.019C237.984 55.019 239.203 55.3927 240.129 56.136C241.055 56.8793 241.52 57.8443 241.52 59.0311H238.688C238.688 58.489 238.487 58.0373 238.083 57.676C237.68 57.3146 237.145 57.1339 236.474 57.1339C235.853 57.1339 235.346 57.2776 234.955 57.5651C234.564 57.8525 234.367 58.2344 234.367 58.7149C234.367 59.1502 234.548 59.4869 234.914 59.7251C235.28 59.9633 236.017 60.2056 237.128 60.452C238.24 60.6942 239.112 60.9858 239.742 61.3225C240.376 61.6593 240.845 62.0658 241.149 62.5381C241.454 63.0103 241.61 63.5852 241.61 64.2587C241.61 65.388 241.141 66.3078 240.203 67.0059C239.264 67.7081 238.034 68.0572 236.511 68.0572C235.478 68.0572 234.56 67.8724 233.749 67.4987C232.943 67.125 232.313 66.6158 231.864 65.9629C231.412 65.3141 231.189 64.6118 231.189 63.8603H233.939C233.976 64.5256 234.231 65.0389 234.696 65.4003C235.161 65.7617 235.778 65.9423 236.548 65.9423C237.318 65.9423 237.861 65.8027 238.248 65.5194C238.635 65.236 238.832 64.8664 238.832 64.4106H238.828Z" fill="black"/>
<path d="M79.3584 75.8965L84.2478 88.8648L89.129 75.8965H92.936V92.8153H90.0015V87.2386L90.2937 79.7771L85.285 92.8153H83.1777L78.1813 79.7894L78.4735 87.2386V92.8153H75.5391V75.8965H79.3584Z" fill="#546EF3"/>
<path d="M104.982 86.9552H99.1382V90.5567H105.987V92.8111H96.3066V79.272H105.95V81.5511H99.1382V84.6885H104.982V86.9552Z" fill="#546EF3"/>
<path d="M119.852 92.815H117.033L110.929 83.5754V92.815H108.098V79.2759H110.929L117.033 88.5237V79.2759H119.852V92.815Z" fill="#546EF3"/>
<path d="M122.836 92.815V79.2759H127.248C128.52 79.2759 129.66 79.5428 130.668 80.0766C131.672 80.6105 132.454 81.3661 133.014 82.3352C133.574 83.3085 133.862 84.409 133.874 85.641V86.3514C133.874 87.6121 133.598 88.7373 133.043 89.7187C132.487 90.7043 131.701 91.464 130.68 92.0019C129.66 92.5399 128.495 92.8109 127.19 92.8109H122.836V92.815ZM125.668 81.555V90.5605H127.182C129.721 90.5605 131.014 89.2136 131.059 86.5156V85.7354C131.059 83.0087 129.853 81.6125 127.437 81.5509H125.668V81.555Z" fill="#546EF3"/>
<path d="M148.267 86.3516C148.267 88.3966 147.707 90.0146 146.583 91.2096C145.46 92.4005 143.982 93 142.138 93C140.295 93 138.821 92.4005 137.677 91.2055C136.537 90.0105 135.965 88.372 135.965 86.2982V85.7644C135.965 84.4339 136.224 83.2553 136.739 82.2369C137.257 81.2185 137.977 80.4382 138.912 79.9003C139.842 79.3623 140.912 79.0913 142.114 79.0913C143.978 79.0913 145.468 79.6991 146.587 80.9105C147.707 82.1219 148.267 83.7645 148.267 85.8301V86.3516ZM145.447 85.7356C145.447 84.3189 145.155 83.2389 144.575 82.4956C143.994 81.7523 143.171 81.3786 142.118 81.3786C141.064 81.3786 140.262 81.7523 139.673 82.4956C139.085 83.2389 138.788 84.3189 138.788 85.7356V86.3516C138.788 87.7314 139.085 88.8032 139.681 89.5752C140.274 90.3472 141.097 90.7332 142.142 90.7332C143.188 90.7332 144.015 90.3554 144.587 89.5999C145.163 88.8443 145.447 87.7601 145.447 86.3516V85.7356Z" fill="#546EF3"/>
<path d="M153.251 90.5605H160.647V92.815H149.629V91.1765L156.848 81.555H149.637V79.2759H160.445V80.8774L153.247 90.5564L153.251 90.5605Z" fill="#546EF3"/>
<path d="M171.204 89.9199H165.59L164.483 92.815H161.631L167.117 79.2759H169.714L175.176 92.815H172.311L171.204 89.9199ZM166.417 87.7722H170.377L168.397 82.635L166.417 87.7722Z" fill="#546EF3"/>
<path d="M2.41247 94.7003C1.40824 94.7003 0.523377 93.9899 0.309363 93.0084C0.309363 93.0043 0.297016 92.9468 0.297016 92.9468C0.268206 92.8031 0.255859 92.6717 0.255859 92.5526V91.9777C0.255859 91.4028 0.478105 90.8648 0.885556 90.4583C1.08311 90.2612 1.31358 90.1051 1.57287 89.9984C1.84039 89.8875 2.12025 89.83 2.41247 89.83H4.44149C4.58142 89.83 4.69666 89.715 4.69666 89.5754V81.2269C4.69666 60.5835 17.2083 52.3006 24.6659 49.2002C24.9498 49.0812 25.1268 48.8265 25.1268 48.5268C25.1268 48.227 24.9498 47.9724 24.6659 47.8533C17.2083 44.7529 4.69666 36.4742 4.69666 15.8267V7.39192C4.69666 7.2523 4.58142 7.13732 4.44149 7.13732H2.41247C1.83627 7.13732 1.29712 6.91557 0.889671 6.50902C0.790896 6.41046 0.704467 6.3037 0.626269 6.18871C0.465758 5.95464 0.358751 5.69593 0.301132 5.4208C0.272322 5.28118 0.255859 5.13334 0.255859 4.98551V4.4106C0.255859 4.2874 0.268206 4.1601 0.297016 4.01637C0.297016 4.01637 0.309363 3.95888 0.309363 3.95067C0.523377 2.97332 1.40824 2.25879 2.41247 2.25879H54.3521C55.3563 2.25879 56.2412 2.96921 56.4552 3.95067C56.4552 3.95478 56.4676 4.01227 56.4676 4.01227C56.4964 4.15599 56.5087 4.2874 56.5087 4.40649V4.9814C56.5087 5.27296 56.4511 5.55221 56.34 5.81913C56.233 6.07373 56.0766 6.3037 55.879 6.50491C55.4716 6.91146 54.9324 7.13321 54.3562 7.13321H53.8912C53.7512 7.13321 53.636 7.24819 53.636 7.38781V15.8226C53.636 31.5135 46.2648 39.9811 40.079 44.3217C39.9967 44.3792 39.9555 44.4778 39.9761 44.5763C40.0625 45.0321 40.1037 45.4839 40.1037 45.915C40.1037 47.6932 39.4123 49.4548 38.1076 51.0112C38.0582 51.0687 38.0376 51.1426 38.05 51.2165C38.0623 51.2904 38.1076 51.3562 38.1693 51.3931C44.8696 55.438 52.9857 63.5566 53.5907 79.2434C53.6195 79.9087 53.6319 80.5739 53.6319 81.2187V89.5672C53.6319 89.7068 53.7471 89.8218 53.8871 89.8218H54.3521C55.5416 89.8218 56.5087 90.7868 56.5087 91.9736V92.5485C56.5087 92.6717 56.4964 92.799 56.4676 92.9427C56.4676 92.9427 56.4552 93.0043 56.4552 93.0084C56.2412 93.9899 55.3563 94.7003 54.3521 94.7003H2.41247Z" fill="white"/>
<path d="M54.3514 2.51742C55.2363 2.51742 56.0183 3.14571 56.2035 4.00808C56.2035 4.01219 56.2035 4.01629 56.2035 4.0204L56.2117 4.06557C56.2364 4.19287 56.2488 4.30786 56.2488 4.41462V4.98954C56.2488 5.24414 56.1994 5.49464 56.1006 5.72871C56.0059 5.95456 55.866 6.15578 55.6931 6.33236C55.3351 6.68963 54.8577 6.88674 54.3514 6.88674H53.8864C53.6024 6.88674 53.376 7.1167 53.376 7.39595V15.8307C53.376 31.4108 46.0625 39.8127 39.9302 44.1204C39.7655 44.2354 39.6832 44.4366 39.7203 44.6337C39.8026 45.0731 39.8437 45.5084 39.8437 45.9232C39.8437 47.6397 39.1729 49.348 37.9094 50.8551C37.8147 50.9701 37.7735 51.1179 37.7982 51.2657C37.8229 51.4136 37.9094 51.5409 38.0369 51.6189C44.6837 55.6309 52.734 63.6838 53.3349 79.2598C53.3596 79.9209 53.376 80.5821 53.376 81.2268V89.5753C53.376 89.8587 53.6065 90.0845 53.8864 90.0845H54.3514C55.4009 90.0845 56.2529 90.9346 56.2529 91.9817V92.5566C56.2529 92.6634 56.2405 92.7743 56.2158 92.9057V92.9426C56.2158 92.9426 56.2076 92.955 56.2076 92.9591C56.0183 93.8214 55.2404 94.4497 54.3556 94.4497H2.41178C1.52691 94.4497 0.744935 93.8214 0.55973 92.9591C0.55973 92.955 0.55973 92.9509 0.55973 92.9468L0.551499 92.9016C0.526805 92.7743 0.514458 92.6593 0.514458 92.5525V91.9776C0.514458 91.4725 0.71201 90.9962 1.07007 90.6389C1.24293 90.4664 1.44871 90.3268 1.67507 90.2324C1.90967 90.1338 2.15661 90.0845 2.41589 90.0845H4.44492C4.7289 90.0845 4.95526 89.8546 4.95526 89.5753V81.2268C4.95526 60.7312 17.3681 52.51 24.7681 49.4383C25.1426 49.2823 25.3854 48.925 25.3854 48.5308C25.3854 48.1366 25.1426 47.7793 24.7681 47.6233C17.3681 44.5475 4.95526 36.3304 4.95526 15.8348V7.39184C4.95526 7.10849 4.72478 6.88263 4.44492 6.88263H2.41589C1.90967 6.88263 1.43225 6.68552 1.07419 6.32826C0.987759 6.24202 0.909561 6.14757 0.843711 6.04901C0.703778 5.84369 0.609118 5.61372 0.55973 5.37144C0.535036 5.24825 0.522689 5.11684 0.522689 4.98954V4.41462C0.522689 4.30786 0.535036 4.19698 0.55973 4.06557L0.567961 4.02451C0.567961 4.02451 0.567961 4.01629 0.567961 4.01219C0.757282 3.14982 1.53514 2.52153 2.42001 2.52153H54.3597M54.3597 2.01232H2.41178C1.25528 2.00411 0.292212 2.81719 0.0576193 3.8972C0.0576193 3.8972 0.0576193 3.90542 0.0576193 3.90952C0.0535036 3.93006 0.0493879 3.95059 0.0452723 3.97112C0.0164626 4.11485 0 4.26268 0 4.41462V4.98954C0 5.1538 0.0164626 5.31806 0.0493879 5.4741C0.115239 5.7862 0.238708 6.07776 0.411566 6.33647C0.497995 6.46377 0.596771 6.58286 0.707894 6.69373C1.14415 7.12902 1.74916 7.40005 2.41178 7.40005H4.4408V15.8348C4.4408 36.8396 17.4175 45.1265 24.5705 48.0955C24.9738 48.2639 24.9738 48.8018 24.5705 48.9661C17.4216 51.9392 4.4408 60.222 4.4408 81.2268V89.5753H2.41178C2.07841 89.5753 1.7615 89.641 1.47341 89.7642C1.18531 89.8874 0.926024 90.064 0.707894 90.2816C0.271634 90.7169 0 91.3206 0 91.9817V92.5566C0 92.7086 0.0164626 92.8564 0.0452723 93.0001C0.0452723 93.0207 0.0493879 93.0412 0.0576193 93.0617C0.0576193 93.0617 0.0576193 93.0699 0.0576193 93.0741C0.292212 94.1541 1.25528 94.9671 2.41178 94.9671H54.3514C55.5079 94.9671 56.471 94.1541 56.7056 93.0741C56.7056 93.0741 56.7056 93.0658 56.7056 93.0617C56.7097 93.0412 56.7138 93.0207 56.7179 93.0001C56.7467 92.8564 56.7632 92.7086 56.7632 92.5566V91.9817C56.7632 90.6512 55.6849 89.5753 54.3514 89.5753H53.8864V81.2268C53.8864 80.5492 53.8699 79.8881 53.8452 79.2392C53.2361 63.4497 45.0747 55.2737 38.3004 51.1836C39.5968 49.6396 40.3541 47.845 40.3541 45.9232C40.3541 45.455 40.3047 44.991 40.2224 44.5393C46.8074 39.9195 53.8864 31.3492 53.8864 15.8307V7.39184H54.3514C55.0182 7.39184 55.6191 7.12081 56.0553 6.68552C56.2734 6.46788 56.4504 6.20917 56.5739 5.92171C56.6974 5.63426 56.7632 5.31806 56.7632 4.98543V4.41052C56.7632 4.25858 56.7467 4.11074 56.7179 3.96702C56.7179 3.94648 56.7138 3.92595 56.7056 3.90542C56.7056 3.90542 56.7056 3.8972 56.7056 3.8931C56.471 2.81309 55.5079 2 54.3514 2L54.3597 2.01232Z" fill="white"/>
<path opacity="0.75" d="M33.7614 48.0871C40.9103 45.1139 53.8911 36.8311 53.8911 15.8264V7.3916H4.44141V15.8264C4.44141 36.8311 17.4181 45.1181 24.5711 48.0871C24.9744 48.2554 24.9744 48.7934 24.5711 48.9576C17.4222 51.9307 4.44141 60.2136 4.44141 81.2183V89.6531H53.8911V81.2183C53.8911 60.2136 40.9144 51.9266 33.7614 48.9576C33.358 48.7893 33.358 48.2513 33.7614 48.0871Z" fill="#1C55A0"/>
<g opacity="0.75">
<path opacity="0.8" d="M33.7571 48.0011C40.906 45.028 53.8868 36.7452 53.8868 15.7404V7.30566H39.4738C39.4738 29.3165 34.5103 41.2952 29.1641 48.4364C34.4321 56.9944 39.6055 73.1658 39.4532 89.6493H53.8827V81.1324C53.8827 60.1276 40.906 51.8407 33.753 48.8717C33.3497 48.7033 33.3497 48.1654 33.753 48.0011H33.7571Z" fill="white"/>
</g>
<path d="M15.3227 89.649L37.358 44.8963L33.3493 45.5574L44.2517 24.3145L46.7129 29.1191L53.8865 7.3916L36.9835 23.4152L42.412 23.2304L20.5002 55.0106L26.2087 54.0661L4.41211 89.649H15.3227Z" fill="url(#paint0_linear_227_64)"/>
<path d="M21.9484 53.0396C17.0179 54.3003 13.4619 57.91 13.4619 62.1643C13.4619 67.4699 18.9934 71.7694 25.8172 71.7694C29.1797 71.7694 32.04 73.7323 32.04 76.1511C32.04 78.5698 29.3155 80.5327 25.953 80.5327H25.9283C25.1504 80.5327 24.5166 80.9269 24.5166 81.4115C24.5166 81.896 25.1463 82.2903 25.9283 82.2903H25.953C30.9247 82.2903 34.9581 79.157 34.9581 75.2887C34.9581 71.4204 30.7889 68.3241 25.8172 68.3241C21.2035 68.3241 17.4665 65.6302 17.4665 62.308C17.4665 59.2076 20.7261 56.6575 24.9076 56.3331L26.3604 53.9554L20.6561 54.8999L21.9443 53.0273L21.9484 53.0396ZM32.2911 55.1874C37.0159 53.4708 40.3537 49.9639 40.3537 45.919C40.3537 40.1781 33.8468 35.5295 25.8172 35.5295C19.4338 35.5295 13.4414 31.9363 13.4414 27.5465C13.4414 23.1566 19.4297 19.5963 25.8172 19.5963C26.4798 20.5859 27.6816 21.2553 28.9656 21.2553C29.1755 21.2553 29.3813 21.2389 29.583 21.206C31.1017 20.9843 33.4764 20.0685 35.5219 19.1815C37.0323 18.5245 37.0365 16.6108 35.5301 15.9497C33.4888 15.0545 31.1223 14.1264 29.6036 13.9006C29.4019 13.8677 29.1961 13.8472 28.9862 13.8472C27.6486 13.8472 26.4757 14.726 25.8213 15.7813C16.3758 15.7813 8.7207 21.05 8.7207 27.5465C8.7207 34.043 16.3758 39.3116 25.8213 39.3116C30.8424 39.3116 35.0074 41.911 35.5919 45.1921L37.3575 44.9006L32.2911 55.1915V55.1874Z" fill="#273D8C"/>
<path d="M54.3514 2.00439H2.41178C1.07979 2.00439 0 3.08178 0 4.41081V4.98572C0 6.31474 1.07979 7.39213 2.41178 7.39213H54.3514C55.6834 7.39213 56.7632 6.31474 56.7632 4.98572V4.41081C56.7632 3.08178 55.6834 2.00439 54.3514 2.00439Z" fill="#283C8C"/>
<g opacity="0.75">
<path d="M54.3514 5.78616H2.41178C1.25939 5.78616 0.292212 4.97718 0.0576193 3.89717C0.0205783 4.06143 0 4.23391 0 4.41049V4.9854C0 6.3118 1.0783 7.39181 2.41178 7.39181H54.3514C55.6849 7.39181 56.7632 6.3159 56.7632 4.9854V4.41049C56.7632 4.23391 56.7426 4.06143 56.7056 3.89307C56.4669 4.97308 55.5038 5.78206 54.3514 5.78206V5.78616Z" fill="white"/>
</g>
<path d="M54.3514 89.5669H2.41178C1.07979 89.5669 0 90.6443 0 91.9733V92.5482C0 93.8772 1.07979 94.9546 2.41178 94.9546H54.3514C55.6834 94.9546 56.7632 93.8772 56.7632 92.5482V91.9733C56.7632 90.6443 55.6834 89.5669 54.3514 89.5669Z" fill="#283C8C"/>
<g opacity="0.8">
<path d="M0.255859 91.9731C0.255859 90.7863 1.22304 89.8213 2.41247 89.8213H54.3521C55.5416 89.8213 56.5087 90.7863 56.5087 91.9731V92.0142C56.0149 91.3448 55.2205 90.9136 54.3521 90.9136H2.41247C1.54406 90.9136 0.749739 91.3407 0.255859 92.0142V91.9731Z" fill="white"/>
<path d="M54.3514 90.0802C55.1416 90.0802 55.8248 90.5648 56.1088 91.2547C55.6149 90.881 55.0017 90.6633 54.3514 90.6633H2.41178C1.7615 90.6633 1.14827 90.881 0.65439 91.2547C0.938371 90.5648 1.62157 90.0802 2.41178 90.0802H54.3514ZM54.3514 89.571H2.41178C1.0783 89.5669 0 90.6469 0 91.9733V92.5482C0 92.7248 0.0205783 92.8973 0.0576193 93.0656C0.296328 91.9856 1.25939 91.1766 2.41178 91.1766H54.3514C55.5038 91.1766 56.471 91.9856 56.7056 93.0656C56.7426 92.9014 56.7632 92.7289 56.7632 92.5482V91.9733C56.7632 90.6428 55.6849 89.5669 54.3514 89.5669V89.571Z" fill="white"/>
</g>
<defs>
<linearGradient id="paint0_linear_227_64" x1="35.7879" y1="86.0491" x2="22.904" y2="12.841" gradientUnits="userSpaceOnUse">
<stop stop-color="white"/>
<stop offset="0.1" stop-color="#CDD2E4"/>
<stop offset="0.21" stop-color="#A1ABCD"/>
<stop offset="0.32" stop-color="#7B89B9"/>
<stop offset="0.44" stop-color="#5C6DA8"/>
<stop offset="0.56" stop-color="#45589C"/>
<stop offset="0.69" stop-color="#344893"/>
<stop offset="0.83" stop-color="#2A3F8D"/>
<stop offset="1" stop-color="#273D8C"/>
</linearGradient>
</defs>
</svg>
