<svg width="478" height="478" viewBox="0 0 478 478" fill="none" xmlns="http://www.w3.org/2000/svg">
<circle cx="239" cy="239" r="239" fill="#546EF3"/>
<path d="M122.884 237.21C121.504 237.21 120.284 236.97 119.224 236.49C118.184 236.01 117.364 235.34 116.764 234.48C116.164 233.62 115.844 232.66 115.804 231.6H118.024C118.124 232.62 118.574 233.52 119.374 234.3C120.174 235.06 121.344 235.44 122.884 235.44C124.304 235.44 125.424 235.08 126.244 234.36C127.084 233.62 127.504 232.69 127.504 231.57C127.504 230.67 127.274 229.95 126.814 229.41C126.354 228.85 125.784 228.44 125.104 228.18C124.424 227.9 123.484 227.6 122.284 227.28C120.884 226.9 119.774 226.53 118.954 226.17C118.134 225.81 117.434 225.25 116.854 224.49C116.274 223.73 115.984 222.7 115.984 221.4C115.984 220.32 116.264 219.36 116.824 218.52C117.384 217.66 118.174 216.99 119.194 216.51C120.214 216.03 121.384 215.79 122.704 215.79C124.644 215.79 126.204 216.27 127.384 217.23C128.584 218.17 129.274 219.39 129.454 220.89H127.174C127.034 220.03 126.564 219.27 125.764 218.61C124.964 217.93 123.884 217.59 122.524 217.59C121.264 217.59 120.214 217.93 119.374 218.61C118.534 219.27 118.114 220.18 118.114 221.34C118.114 222.22 118.344 222.93 118.804 223.47C119.264 224.01 119.834 224.42 120.514 224.7C121.214 224.98 122.154 225.28 123.334 225.6C124.694 225.98 125.794 226.36 126.634 226.74C127.474 227.1 128.184 227.66 128.764 228.42C129.344 229.18 129.634 230.2 129.634 231.48C129.634 232.46 129.374 233.39 128.854 234.27C128.334 235.15 127.564 235.86 126.544 236.4C125.524 236.94 124.304 237.21 122.884 237.21ZM135.792 216.03V237H133.692V216.03H135.792ZM142.647 235.29H150.177V237H140.547V216.03H142.647V235.29ZM169.794 216.03L161.844 237H159.444L151.494 216.03H153.774L160.644 234.72L167.574 216.03H169.794ZM175.05 216.03V237H172.95V216.03H175.05ZM195.615 237H193.515L181.905 219.36V237H179.805V216.03H181.905L193.515 233.64V216.03H195.615V237ZM212.522 232.02H202.982L201.152 237H198.932L206.582 216.3H208.952L216.572 237H214.352L212.522 232.02ZM211.892 230.28L207.752 218.94L203.612 230.28H211.892ZM240.324 232.02H230.784L228.954 237H226.734L234.384 216.3H236.754L244.374 237H242.154L240.324 232.02ZM239.694 230.28L235.554 218.94L231.414 230.28H239.694ZM249.845 235.29H257.375V237H247.745V216.03H249.845V235.29ZM272.522 232.02H262.982L261.152 237H258.932L266.582 216.3H268.952L276.572 237H274.352L272.522 232.02ZM271.892 230.28L267.752 218.94L263.612 230.28H271.892ZM289.752 226.17C290.932 226.39 291.932 226.99 292.752 227.97C293.572 228.95 293.982 230.09 293.982 231.39C293.982 232.45 293.712 233.41 293.172 234.27C292.652 235.11 291.882 235.78 290.862 236.28C289.842 236.76 288.622 237 287.202 237H279.942V216.03H286.992C289.112 216.03 290.722 216.52 291.822 217.5C292.942 218.48 293.502 219.75 293.502 221.31C293.502 222.61 293.152 223.67 292.452 224.49C291.752 225.29 290.852 225.85 289.752 226.17ZM282.042 225.3H286.932C288.352 225.3 289.442 224.97 290.202 224.31C290.982 223.63 291.372 222.7 291.372 221.52C291.372 220.36 290.982 219.45 290.202 218.79C289.442 218.13 288.322 217.8 286.842 217.8H282.042V225.3ZM287.052 235.23C288.572 235.23 289.752 234.87 290.592 234.15C291.452 233.43 291.882 232.44 291.882 231.18C291.882 229.92 291.432 228.92 290.532 228.18C289.652 227.42 288.462 227.04 286.962 227.04H282.042V235.23H287.052ZM309.992 232.02H300.452L298.622 237H296.402L304.052 216.3H306.422L314.042 237H311.822L309.992 232.02ZM309.362 230.28L305.222 218.94L301.082 230.28H309.362ZM328.573 237L323.383 228.24H319.513V237H317.413V216.03H323.713C326.053 216.03 327.823 216.59 329.023 217.71C330.243 218.83 330.853 220.3 330.853 222.12C330.853 223.64 330.413 224.94 329.533 226.02C328.673 227.08 327.393 227.77 325.693 228.09L331.093 237H328.573ZM319.513 226.53H323.743C325.383 226.53 326.613 226.13 327.433 225.33C328.273 224.53 328.693 223.46 328.693 222.12C328.693 220.74 328.293 219.68 327.493 218.94C326.693 218.18 325.433 217.8 323.713 217.8H319.513V226.53ZM341.38 237.21C340 237.21 338.78 236.97 337.72 236.49C336.68 236.01 335.86 235.34 335.26 234.48C334.66 233.62 334.34 232.66 334.3 231.6H336.52C336.62 232.62 337.07 233.52 337.87 234.3C338.67 235.06 339.84 235.44 341.38 235.44C342.8 235.44 343.92 235.08 344.74 234.36C345.58 233.62 346 232.69 346 231.57C346 230.67 345.77 229.95 345.31 229.41C344.85 228.85 344.28 228.44 343.6 228.18C342.92 227.9 341.98 227.6 340.78 227.28C339.38 226.9 338.27 226.53 337.45 226.17C336.63 225.81 335.93 225.25 335.35 224.49C334.77 223.73 334.48 222.7 334.48 221.4C334.48 220.32 334.76 219.36 335.32 218.52C335.88 217.66 336.67 216.99 337.69 216.51C338.71 216.03 339.88 215.79 341.2 215.79C343.14 215.79 344.7 216.27 345.88 217.23C347.08 218.17 347.77 219.39 347.95 220.89H345.67C345.53 220.03 345.06 219.27 344.26 218.61C343.46 217.93 342.38 217.59 341.02 217.59C339.76 217.59 338.71 217.93 337.87 218.61C337.03 219.27 336.61 220.18 336.61 221.34C336.61 222.22 336.84 222.93 337.3 223.47C337.76 224.01 338.33 224.42 339.01 224.7C339.71 224.98 340.65 225.28 341.83 225.6C343.19 225.98 344.29 226.36 345.13 226.74C345.97 227.1 346.68 227.66 347.26 228.42C347.84 229.18 348.13 230.2 348.13 231.48C348.13 232.46 347.87 233.39 347.35 234.27C346.83 235.15 346.06 235.86 345.04 236.4C344.02 236.94 342.8 237.21 341.38 237.21ZM354.288 217.74V225.57H362.238V227.31H354.288V235.26H363.138V237H352.188V216H363.138V217.74H354.288ZM134.593 262.03V277.9C134.593 279.5 134.103 280.79 133.123 281.77C132.143 282.73 130.833 283.21 129.193 283.21C127.493 283.21 126.133 282.7 125.113 281.68C124.113 280.64 123.613 279.24 123.613 277.48H125.743C125.763 278.62 126.043 279.55 126.583 280.27C127.143 280.99 128.013 281.35 129.193 281.35C130.313 281.35 131.143 281.02 131.683 280.36C132.223 279.7 132.493 278.88 132.493 277.9V262.03H134.593ZM149.294 283.21C147.354 283.21 145.594 282.76 144.014 281.86C142.434 280.94 141.184 279.67 140.264 278.05C139.364 276.41 138.914 274.56 138.914 272.5C138.914 270.44 139.364 268.6 140.264 266.98C141.184 265.34 142.434 264.07 144.014 263.17C145.594 262.25 147.354 261.79 149.294 261.79C151.254 261.79 153.024 262.25 154.604 263.17C156.184 264.07 157.424 265.34 158.324 266.98C159.224 268.6 159.674 270.44 159.674 272.5C159.674 274.56 159.224 276.41 158.324 278.05C157.424 279.67 156.184 280.94 154.604 281.86C153.024 282.76 151.254 283.21 149.294 283.21ZM149.294 281.38C150.854 281.38 152.254 281.02 153.494 280.3C154.734 279.58 155.714 278.55 156.434 277.21C157.154 275.85 157.514 274.28 157.514 272.5C157.514 270.72 157.154 269.16 156.434 267.82C155.714 266.48 154.734 265.45 153.494 264.73C152.254 264.01 150.854 263.65 149.294 263.65C147.734 263.65 146.334 264.01 145.094 264.73C143.854 265.45 142.874 266.48 142.154 267.82C141.434 269.16 141.074 270.72 141.074 272.5C141.074 274.28 141.434 275.85 142.154 277.21C142.874 278.55 143.854 279.58 145.094 280.3C146.334 281.02 147.734 281.38 149.294 281.38ZM174.676 283L169.486 274.24H165.616V283H163.516V262.03H169.816C172.156 262.03 173.926 262.59 175.126 263.71C176.346 264.83 176.956 266.3 176.956 268.12C176.956 269.64 176.516 270.94 175.636 272.02C174.776 273.08 173.496 273.77 171.796 274.09L177.196 283H174.676ZM165.616 272.53H169.846C171.486 272.53 172.716 272.13 173.536 271.33C174.376 270.53 174.796 269.46 174.796 268.12C174.796 266.74 174.396 265.68 173.596 264.94C172.796 264.18 171.536 263.8 169.816 263.8H165.616V272.53ZM197.624 268.15C197.024 266.77 196.104 265.69 194.864 264.91C193.644 264.11 192.204 263.71 190.544 263.71C188.984 263.71 187.584 264.07 186.344 264.79C185.104 265.51 184.124 266.54 183.404 267.88C182.684 269.2 182.324 270.74 182.324 272.5C182.324 274.26 182.684 275.81 183.404 277.15C184.124 278.49 185.104 279.52 186.344 280.24C187.584 280.96 188.984 281.32 190.544 281.32C192.004 281.32 193.314 281.01 194.474 280.39C195.654 279.75 196.594 278.85 197.294 277.69C198.014 276.51 198.424 275.14 198.524 273.58H189.704V271.87H200.744V273.4C200.644 275.24 200.144 276.91 199.244 278.41C198.344 279.89 197.134 281.06 195.614 281.92C194.114 282.78 192.424 283.21 190.544 283.21C188.604 283.21 186.844 282.76 185.264 281.86C183.684 280.94 182.434 279.67 181.514 278.05C180.614 276.41 180.164 274.56 180.164 272.5C180.164 270.44 180.614 268.6 181.514 266.98C182.434 265.34 183.684 264.07 185.264 263.17C186.844 262.25 188.604 261.79 190.544 261.79C192.784 261.79 194.744 262.35 196.424 263.47C198.104 264.59 199.324 266.15 200.084 268.15H197.624ZM206.69 263.74V271.57H214.64V273.31H206.69V281.26H215.54V283H204.59V262H215.54V263.74H206.69ZM243.481 262.03V283H241.381V273.19H230.011V283H227.911V262.03H230.011V271.45H241.381V262.03H243.481ZM250.372 263.74V271.57H258.322V273.31H250.372V281.26H259.222V283H248.272V262H259.222V263.74H250.372ZM274.52 283L269.33 274.24H265.46V283H263.36V262.03H269.66C272 262.03 273.77 262.59 274.97 263.71C276.19 264.83 276.8 266.3 276.8 268.12C276.8 269.64 276.36 270.94 275.48 272.02C274.62 273.08 273.34 273.77 271.64 274.09L277.04 283H274.52ZM265.46 272.53H269.69C271.33 272.53 272.56 272.13 273.38 271.33C274.22 270.53 274.64 269.46 274.64 268.12C274.64 266.74 274.24 265.68 273.44 264.94C272.64 264.18 271.38 263.8 269.66 263.8H265.46V272.53ZM292.127 283L286.937 274.24H283.067V283H280.967V262.03H287.267C289.607 262.03 291.377 262.59 292.577 263.71C293.797 264.83 294.407 266.3 294.407 268.12C294.407 269.64 293.967 270.94 293.087 272.02C292.227 273.08 290.947 273.77 289.247 274.09L294.647 283H292.127ZM283.067 272.53H287.297C288.937 272.53 290.167 272.13 290.987 271.33C291.827 270.53 292.247 269.46 292.247 268.12C292.247 266.74 291.847 265.68 291.047 264.94C290.247 264.18 288.987 263.8 287.267 263.8H283.067V272.53ZM310.725 278.02H301.185L299.355 283H297.135L304.785 262.3H307.155L314.775 283H312.555L310.725 278.02ZM310.095 276.28L305.955 264.94L301.815 276.28H310.095ZM324.355 262.03C326.675 262.03 328.665 262.45 330.325 263.29C331.985 264.13 333.255 265.34 334.135 266.92C335.015 268.5 335.455 270.38 335.455 272.56C335.455 274.72 335.015 276.59 334.135 278.17C333.255 279.73 331.985 280.93 330.325 281.77C328.665 282.59 326.675 283 324.355 283H318.145V262.03H324.355ZM324.355 281.26C327.275 281.26 329.495 280.5 331.015 278.98C332.555 277.44 333.325 275.3 333.325 272.56C333.325 269.8 332.555 267.65 331.015 266.11C329.495 264.55 327.275 263.77 324.355 263.77H320.245V281.26H324.355ZM351.477 278.02H341.937L340.107 283H337.887L345.537 262.3H347.907L355.527 283H353.307L351.477 278.02ZM350.847 276.28L346.707 264.94L342.567 276.28H350.847ZM105.223 308.03V323.9C105.223 325.5 104.733 326.79 103.753 327.77C102.773 328.73 101.463 329.21 99.8228 329.21C98.1228 329.21 96.7628 328.7 95.7428 327.68C94.7428 326.64 94.2428 325.24 94.2428 323.48H96.3728C96.3928 324.62 96.6728 325.55 97.2128 326.27C97.7728 326.99 98.6428 327.35 99.8228 327.35C100.943 327.35 101.773 327.02 102.313 326.36C102.853 325.7 103.123 324.88 103.123 323.9V308.03H105.223ZM112.514 308.03V321.23C112.514 323.31 113.004 324.85 113.984 325.85C114.984 326.85 116.344 327.35 118.064 327.35C119.784 327.35 121.124 326.86 122.084 325.88C123.064 324.88 123.554 323.33 123.554 321.23V308.03H125.654V321.2C125.654 323.86 124.944 325.86 123.524 327.2C122.124 328.54 120.294 329.21 118.034 329.21C115.774 329.21 113.934 328.54 112.514 327.2C111.114 325.86 110.414 323.86 110.414 321.2V308.03H112.514ZM142.488 324.02H132.948L131.118 329H128.898L136.548 308.3H138.918L146.538 329H144.318L142.488 324.02ZM141.858 322.28L137.718 310.94L133.578 322.28H141.858ZM165.718 329H163.618L152.008 311.36V329H149.908V308.03H152.008L163.618 325.64V308.03H165.718V329ZM177.747 318.5C177.747 316.44 178.197 314.6 179.097 312.98C179.997 311.34 181.227 310.07 182.787 309.17C184.347 308.25 186.087 307.79 188.007 307.79C190.347 307.79 192.347 308.35 194.007 309.47C195.687 310.57 196.907 312.13 197.667 314.15H195.207C194.607 312.73 193.687 311.62 192.447 310.82C191.227 310.02 189.747 309.62 188.007 309.62C186.467 309.62 185.077 309.98 183.837 310.7C182.617 311.42 181.657 312.46 180.957 313.82C180.257 315.16 179.907 316.72 179.907 318.5C179.907 320.28 180.257 321.84 180.957 323.18C181.657 324.52 182.617 325.55 183.837 326.27C185.077 326.99 186.467 327.35 188.007 327.35C189.747 327.35 191.227 326.96 192.447 326.18C193.687 325.38 194.607 324.28 195.207 322.88H197.667C196.907 324.88 195.687 326.43 194.007 327.53C192.327 328.63 190.327 329.18 188.007 329.18C186.087 329.18 184.347 328.73 182.787 327.83C181.227 326.91 179.997 325.64 179.097 324.02C178.197 322.4 177.747 320.56 177.747 318.5ZM213.011 329L207.821 320.24H203.951V329H201.851V308.03H208.151C210.491 308.03 212.261 308.59 213.461 309.71C214.681 310.83 215.291 312.3 215.291 314.12C215.291 315.64 214.851 316.94 213.971 318.02C213.111 319.08 211.831 319.77 210.131 320.09L215.531 329H213.011ZM203.951 318.53H208.181C209.821 318.53 211.051 318.13 211.871 317.33C212.711 316.53 213.131 315.46 213.131 314.12C213.131 312.74 212.731 311.68 211.931 310.94C211.131 310.18 209.871 309.8 208.151 309.8H203.951V318.53ZM221.469 308.03V321.23C221.469 323.31 221.959 324.85 222.939 325.85C223.939 326.85 225.299 327.35 227.019 327.35C228.739 327.35 230.079 326.86 231.039 325.88C232.019 324.88 232.509 323.33 232.509 321.23V308.03H234.609V321.2C234.609 323.86 233.899 325.86 232.479 327.2C231.079 328.54 229.249 329.21 226.989 329.21C224.729 329.21 222.889 328.54 221.469 327.2C220.069 325.86 219.369 323.86 219.369 321.2V308.03H221.469ZM240.643 327.14H251.353V329H238.183V327.32L248.743 309.89H238.363V308.03H251.203V309.71L240.643 327.14ZM269.497 308.03C271.817 308.03 273.807 308.45 275.467 309.29C277.127 310.13 278.397 311.34 279.277 312.92C280.157 314.5 280.597 316.38 280.597 318.56C280.597 320.72 280.157 322.59 279.277 324.17C278.397 325.73 277.127 326.93 275.467 327.77C273.807 328.59 271.817 329 269.497 329H263.287V308.03H269.497ZM269.497 327.26C272.417 327.26 274.637 326.5 276.157 324.98C277.697 323.44 278.467 321.3 278.467 318.56C278.467 315.8 277.697 313.65 276.157 312.11C274.637 310.55 272.417 309.77 269.497 309.77H265.387V327.26H269.497ZM296.618 324.02H287.078L285.248 329H283.028L290.678 308.3H293.048L300.668 329H298.448L296.618 324.02ZM295.988 322.28L291.848 310.94L287.708 322.28H295.988ZM318.631 329.21C317.251 329.21 316.031 328.97 314.971 328.49C313.931 328.01 313.111 327.34 312.511 326.48C311.911 325.62 311.591 324.66 311.551 323.6H313.771C313.871 324.62 314.321 325.52 315.121 326.3C315.921 327.06 317.091 327.44 318.631 327.44C320.051 327.44 321.171 327.08 321.991 326.36C322.831 325.62 323.251 324.69 323.251 323.57C323.251 322.67 323.021 321.95 322.561 321.41C322.101 320.85 321.531 320.44 320.851 320.18C320.171 319.9 319.231 319.6 318.031 319.28C316.631 318.9 315.521 318.53 314.701 318.17C313.881 317.81 313.181 317.25 312.601 316.49C312.021 315.73 311.731 314.7 311.731 313.4C311.731 312.32 312.011 311.36 312.571 310.52C313.131 309.66 313.921 308.99 314.941 308.51C315.961 308.03 317.131 307.79 318.451 307.79C320.391 307.79 321.951 308.27 323.131 309.23C324.331 310.17 325.021 311.39 325.201 312.89H322.921C322.781 312.03 322.311 311.27 321.511 310.61C320.711 309.93 319.631 309.59 318.271 309.59C317.011 309.59 315.961 309.93 315.121 310.61C314.281 311.27 313.861 312.18 313.861 313.34C313.861 314.22 314.091 314.93 314.551 315.47C315.011 316.01 315.581 316.42 316.261 316.7C316.961 316.98 317.901 317.28 319.081 317.6C320.441 317.98 321.541 318.36 322.381 318.74C323.221 319.1 323.931 319.66 324.511 320.42C325.091 321.18 325.381 322.2 325.381 323.48C325.381 324.46 325.121 325.39 324.601 326.27C324.081 327.15 323.311 327.86 322.291 328.4C321.271 328.94 320.051 329.21 318.631 329.21ZM331.539 308.03V329H329.439V308.03H331.539ZM338.395 327.29H345.925V329H336.295V308.03H338.395V327.29ZM365.541 308.03L357.591 329H355.191L347.241 308.03H349.521L356.391 326.72L363.321 308.03H365.541ZM380.847 324.02H371.307L369.477 329H367.257L374.907 308.3H377.277L384.897 329H382.677L380.847 324.02ZM380.217 322.28L376.077 310.94L371.937 322.28H380.217Z" fill="white"/>
<path d="M93.6055 160.442C92.5417 160.343 91.2985 160.293 89.876 160.293H88.4102L96.4814 137.675C96.8402 136.661 97.0195 136.073 97.0195 135.913C97.0195 135.739 97.0133 135.634 97.001 135.597L97.0195 135.56C97.8236 135.597 98.6771 135.616 99.5801 135.616C100.322 135.616 101.213 135.603 102.252 135.579L102.271 135.616C102.246 135.665 102.233 135.733 102.233 135.82C102.233 136.055 102.419 136.68 102.79 137.694L111.028 160.349C110.781 160.337 110.49 160.331 110.156 160.331C110.156 160.331 109.835 160.318 109.191 160.293C108.882 160.293 108.604 160.293 108.356 160.293H105.48L103.736 154.95H95.3496L93.6055 160.442ZM102.289 150.497L99.4873 141.869L96.7598 150.497H102.289ZM120.046 160.757C118.042 160.757 116.156 160.597 114.387 160.275V135.449C116.02 135.251 117.912 135.152 120.064 135.152C122.229 135.152 124.184 135.449 125.928 136.043C127.684 136.624 129.15 137.459 130.325 138.547C132.7 140.724 133.888 143.774 133.888 147.695C133.888 152.086 132.564 155.42 129.917 157.696C127.542 159.737 124.252 160.757 120.046 160.757ZM119.211 156.23C120.015 156.378 120.819 156.453 121.623 156.453C122.427 156.453 123.293 156.298 124.221 155.989C125.148 155.667 125.952 155.172 126.633 154.504C128.092 153.094 128.822 151.041 128.822 148.344C128.822 143.916 127.208 141.195 123.979 140.18C122.916 139.846 121.685 139.679 120.287 139.679H119.786C119.601 139.679 119.409 139.685 119.211 139.698V156.23ZM144.353 160.405C143.759 160.331 142.615 160.293 140.92 160.293H139.436V135.542C140.227 135.591 141.099 135.616 142.052 135.616C143.004 135.616 143.678 135.566 144.074 135.467L150.309 146.062L156.302 135.467C156.698 135.566 157.452 135.616 158.565 135.616C159.679 135.616 160.631 135.591 161.423 135.542V160.293H159.938C158.244 160.293 157.1 160.331 156.506 160.405V143.78L150.438 154.634L144.353 144.652V160.405ZM168.492 135.542C169.729 135.591 170.478 135.616 170.737 135.616H172.073C172.729 135.616 173.255 135.566 173.65 135.467L173.632 160.293H168.492V135.542ZM180.775 160.293C180.85 159.873 180.887 159.415 180.887 158.92V135.616H184.598L194.432 151.09V136.877C194.432 136.197 194.37 135.777 194.246 135.616H199.256C199.194 136.111 199.163 136.655 199.163 137.249V160.293H195.304L185.618 145.431V160.293H180.775ZM206.418 135.542C207.655 135.591 208.403 135.616 208.663 135.616H209.999C210.655 135.616 211.18 135.566 211.576 135.467L211.558 160.293H206.418V135.542ZM233.434 136.989L233.081 142.444L232.951 142.481C232.036 141.108 230.477 140.217 228.275 139.809C227.583 139.673 226.915 139.605 226.271 139.605C225.641 139.605 225.096 139.661 224.639 139.772C224.193 139.883 223.81 140.044 223.488 140.254C222.808 140.7 222.468 141.281 222.468 141.999C222.468 142.939 222.765 143.644 223.358 144.114C224.101 144.683 225.331 145.085 227.051 145.32C228.77 145.543 230.149 145.852 231.188 146.248C232.228 146.643 233.081 147.144 233.749 147.751C235.011 148.889 235.642 150.497 235.642 152.575C235.642 155.296 234.615 157.393 232.562 158.865C230.805 160.126 228.591 160.757 225.919 160.757C223.767 160.757 221.639 160.349 219.536 159.533C218.843 159.261 218.237 158.945 217.718 158.586L217.922 152.389L217.996 152.334C219.53 154.981 222.047 156.304 225.548 156.304C228.034 156.304 229.679 155.704 230.483 154.504C230.756 154.096 230.892 153.645 230.892 153.15C230.892 152.643 230.811 152.228 230.65 151.907C230.49 151.573 230.224 151.288 229.853 151.053C229.135 150.583 227.929 150.268 226.234 150.107C224.54 149.946 223.154 149.643 222.078 149.198C221.002 148.752 220.142 148.202 219.499 147.546C218.336 146.359 217.755 144.701 217.755 142.574C217.755 140.372 218.528 138.591 220.074 137.23C221.645 135.845 223.76 135.152 226.42 135.152C229.092 135.152 231.43 135.764 233.434 136.989ZM249.595 160.405C249.001 160.331 247.473 160.293 245.012 160.293H244.418V139.772H240.744C239.656 139.772 239.012 139.828 238.814 139.939C238.617 140.05 238.462 140.149 238.351 140.236L238.295 140.217V135.467L238.351 135.412C238.759 135.548 239.86 135.616 241.653 135.616H253.287C254.376 135.616 255.019 135.56 255.217 135.449C255.415 135.337 255.569 135.238 255.681 135.152L255.736 135.17V139.92L255.681 139.976C255.272 139.84 254.172 139.772 252.378 139.772H249.595V160.405ZM267.704 150.701C267.333 150.725 266.937 150.738 266.517 150.738C266.096 150.738 265.471 150.707 264.643 150.645V160.293H259.726V135.486C261.457 135.263 263.585 135.152 266.108 135.152C269.547 135.152 272.108 135.789 273.79 137.063C275.485 138.325 276.332 140.279 276.332 142.926C276.332 144.98 275.559 146.736 274.013 148.196C273.506 148.666 272.924 149.074 272.269 149.42L276.054 157.399C276.796 159.044 277.365 160.021 277.761 160.331L277.668 160.423C276.468 160.225 274.582 160.232 272.009 160.442L267.704 150.701ZM266.461 139.531C265.83 139.531 265.224 139.562 264.643 139.624V146.711C265.249 146.798 265.96 146.841 266.776 146.841C267.593 146.841 268.279 146.773 268.836 146.637C269.393 146.489 269.875 146.266 270.283 145.969C271.161 145.314 271.601 144.33 271.601 143.019C271.601 141.708 271.143 140.786 270.228 140.254C269.374 139.772 268.118 139.531 266.461 139.531ZM283.68 160.442C282.616 160.343 281.373 160.293 279.95 160.293H278.484L286.556 137.675C286.914 136.661 287.094 136.073 287.094 135.913C287.094 135.739 287.088 135.634 287.075 135.597L287.094 135.56C287.898 135.597 288.751 135.616 289.654 135.616C290.396 135.616 291.287 135.603 292.326 135.579L292.345 135.616C292.32 135.665 292.308 135.733 292.308 135.82C292.308 136.055 292.493 136.68 292.864 137.694L301.103 160.349C300.855 160.337 300.564 160.331 300.23 160.331C300.23 160.331 299.909 160.318 299.266 160.293C298.956 160.293 298.678 160.293 298.431 160.293H295.555L293.811 154.95H285.424L283.68 160.442ZM292.363 150.497L289.562 141.869L286.834 150.497H292.363ZM315.167 135.152C317.48 135.152 319.453 135.554 321.086 136.358V142.036L321.049 142.073C320.356 141.009 318.896 140.304 316.67 139.958C316.014 139.846 315.186 139.791 314.184 139.791C313.182 139.791 312.198 139.982 311.233 140.366C310.269 140.737 309.477 141.269 308.858 141.961C307.659 143.31 307.059 145.233 307.059 147.732C307.059 150.639 307.819 152.804 309.341 154.226C310.603 155.414 312.272 156.007 314.351 156.007C316.701 156.007 318.606 155.506 320.065 154.504C320.597 154.146 321.049 153.7 321.42 153.168L321.476 153.206V158.401C319.583 159.972 317.035 160.757 313.831 160.757C310.058 160.757 307.102 159.557 304.962 157.158C302.909 154.869 301.882 151.839 301.882 148.066C301.882 144.071 303.007 140.922 305.259 138.622C307.535 136.308 310.838 135.152 315.167 135.152ZM326.727 135.542C327.964 135.591 328.712 135.616 328.972 135.616H330.308C330.963 135.616 331.489 135.566 331.885 135.467L331.866 160.293H326.727V135.542ZM340.865 157.362C339.74 156.286 338.849 154.993 338.193 153.484C337.55 151.975 337.229 150.323 337.229 148.53C337.229 146.724 337.532 145.017 338.138 143.409C338.744 141.801 339.61 140.384 340.735 139.16C341.861 137.935 343.222 136.964 344.817 136.247C346.413 135.517 348.201 135.152 350.18 135.152C353.594 135.152 356.47 136.228 358.808 138.38C361.306 140.681 362.556 143.786 362.556 147.695C362.556 151.48 361.269 154.628 358.696 157.139C357.113 158.685 355.227 159.749 353.037 160.331C351.961 160.615 350.699 160.757 349.252 160.757C347.817 160.757 346.339 160.46 344.817 159.867C343.308 159.273 341.991 158.438 340.865 157.362ZM342.387 148.27C342.387 149.42 342.578 150.478 342.962 151.443C343.345 152.408 343.877 153.237 344.558 153.929C346.005 155.389 347.867 156.119 350.143 156.119C352.307 156.119 354.045 155.42 355.356 154.022C356.692 152.575 357.36 150.602 357.36 148.103C357.36 145.753 356.723 143.792 355.449 142.221C354.076 140.539 352.196 139.698 349.809 139.698C347.495 139.698 345.659 140.551 344.298 142.258C343.024 143.854 342.387 145.858 342.387 148.27ZM348.491 127.118C350.347 127.118 352.326 127.013 354.429 126.802L354.41 126.932L349.549 132.925H345.355L348.491 127.118ZM367.51 160.293C367.584 159.873 367.621 159.415 367.621 158.92V135.616H371.332L381.166 151.09V136.877C381.166 136.197 381.104 135.777 380.98 135.616H385.99C385.928 136.111 385.897 136.655 385.897 137.249V160.293H382.038L372.353 145.431V160.293H367.51Z" fill="white"/>
</svg>
