<svg width="523" height="523" viewBox="0 0 523 523" fill="none" xmlns="http://www.w3.org/2000/svg">
<rect x="407.1" width="423.207" height="423.207" rx="20" transform="rotate(74.1415 407.1 0)" fill="#546EF3"/>
<path d="M69.5869 204.938C69.2838 205.481 69.1323 206.781 69.1323 208.838V216.255C69.1323 218.504 67.9679 220.458 65.6391 222.117C63.2306 223.856 60.2797 224.725 56.7866 224.725C51.9376 224.725 48.0696 223.202 45.1826 220.155C42.3912 217.252 40.9956 213.552 40.9956 209.054C40.9956 204.269 42.4152 200.281 45.2544 197.091C48.4285 193.502 52.799 191.708 58.3657 191.708C62.0822 191.708 65.025 192.425 67.1943 193.861L66.8115 200.919L66.6201 200.967C66.0618 199.994 64.9612 199.196 63.3183 198.574C61.7552 197.984 60.1123 197.689 58.3896 197.689C56.6829 197.689 55.1836 197.96 53.8916 198.502C52.6155 199.045 51.5309 199.818 50.6377 200.823C48.7555 202.881 47.8144 205.6 47.8144 208.982C47.8144 211.933 48.6438 214.301 50.3027 216.088C51.9616 217.858 54.0989 218.744 56.7148 218.744C59.6018 218.744 61.5478 217.994 62.5527 216.495C62.8717 216.016 63.0312 215.474 63.0312 214.868V210.896H59.9448C58.2859 210.896 57.3847 211.04 57.2412 211.327L57.1694 211.303L56.9541 205.058C57.4007 205.186 59.2111 205.25 62.3852 205.25H65.2085C66.963 205.25 68.3986 205.13 69.5151 204.891L69.5869 204.938ZM92.0053 218.385C92.9943 218.385 93.6801 218.289 94.063 218.098L94.1587 218.122L93.9194 224.127H75.999V192.138C76.4296 192.17 76.9082 192.194 77.4345 192.21L79.1093 192.258C80.2259 192.29 81.4381 192.306 82.7461 192.306C86.3987 192.306 90.0115 192.242 93.5844 192.114C93.409 193.518 93.3213 195.392 93.3213 197.737C93.3213 197.992 93.3372 198.183 93.3691 198.311L93.3213 198.383C92.4918 198.144 91.3115 198.024 89.7802 198.024H82.2436V204.125H87.914C89.6686 204.125 90.7213 204.077 91.0722 203.981L91.144 209.891C90.3784 209.811 89.3894 209.771 88.1772 209.771H82.2436V218.385H92.0053ZM110.835 211.757C110.356 211.789 109.846 211.805 109.304 211.805C108.761 211.805 107.956 211.765 106.887 211.686V224.127H100.547V192.138C102.78 191.851 105.523 191.708 108.777 191.708C113.212 191.708 116.513 192.529 118.683 194.172C120.868 195.799 121.96 198.319 121.96 201.732C121.96 204.38 120.964 206.645 118.97 208.527C118.316 209.133 117.566 209.66 116.721 210.106L121.602 220.395C122.559 222.516 123.292 223.776 123.803 224.175L123.683 224.294C122.136 224.039 119.703 224.047 116.386 224.318L110.835 211.757ZM109.232 197.354C108.418 197.354 107.637 197.394 106.887 197.474V206.613C107.669 206.725 108.586 206.781 109.639 206.781C110.691 206.781 111.577 206.693 112.294 206.518C113.012 206.326 113.634 206.039 114.161 205.656C115.293 204.811 115.859 203.543 115.859 201.852C115.859 200.161 115.269 198.973 114.089 198.287C112.988 197.665 111.369 197.354 109.232 197.354ZM145.121 218.385C146.109 218.385 146.795 218.289 147.178 218.098L147.274 218.122L147.035 224.127H129.114V192.138C129.545 192.17 130.023 192.194 130.55 192.21L132.225 192.258C133.341 192.29 134.553 192.306 135.861 192.306C139.514 192.306 143.127 192.242 146.7 192.114C146.524 193.518 146.436 195.392 146.436 197.737C146.436 197.992 146.452 198.183 146.484 198.311L146.436 198.383C145.607 198.144 144.427 198.024 142.895 198.024H135.359V204.125H141.029C142.784 204.125 143.837 204.077 144.187 203.981L144.259 209.891C143.494 209.811 142.505 209.771 141.292 209.771H135.359V218.385H145.121ZM160.122 224.271C159.356 224.175 157.881 224.127 155.696 224.127H153.782V192.21C154.803 192.274 155.927 192.306 157.155 192.306C158.383 192.306 159.253 192.242 159.763 192.114L167.802 205.776L175.53 192.114C176.041 192.242 177.014 192.306 178.449 192.306C179.885 192.306 181.113 192.274 182.134 192.21V224.127H180.22C178.034 224.127 176.559 224.175 175.793 224.271V202.833L167.97 216.83L160.122 203.958V224.271ZM191.249 192.21C192.845 192.274 193.81 192.306 194.144 192.306H195.867C196.713 192.306 197.39 192.242 197.901 192.114L197.877 224.127H191.249V192.21ZM209.194 224.318C207.822 224.191 206.219 224.127 204.385 224.127H202.495L212.902 194.961C213.365 193.653 213.596 192.896 213.596 192.688C213.596 192.465 213.588 192.33 213.572 192.282L213.596 192.234C214.633 192.282 215.734 192.306 216.898 192.306C217.855 192.306 219.003 192.29 220.343 192.258L220.367 192.306C220.335 192.369 220.319 192.457 220.319 192.569C220.319 192.872 220.559 193.677 221.037 194.985L231.66 224.199C231.341 224.183 230.966 224.175 230.536 224.175C230.536 224.175 230.121 224.159 229.291 224.127C228.893 224.127 228.534 224.127 228.215 224.127H224.506L222.257 217.236H211.443L209.194 224.318ZM220.391 211.494L216.778 200.369L213.261 211.494H220.391ZM254.748 194.076L254.294 201.11L254.126 201.158C252.946 199.388 250.936 198.239 248.097 197.713C247.204 197.537 246.343 197.45 245.513 197.45C244.7 197.45 243.998 197.521 243.408 197.665C242.833 197.809 242.339 198.016 241.924 198.287C241.047 198.861 240.608 199.611 240.608 200.536C240.608 201.748 240.991 202.658 241.757 203.264C242.714 203.997 244.301 204.516 246.518 204.819C248.735 205.106 250.514 205.505 251.853 206.015C253.193 206.526 254.294 207.172 255.155 207.953C256.782 209.421 257.596 211.494 257.596 214.174C257.596 217.683 256.272 220.387 253.624 222.285C251.359 223.912 248.504 224.725 245.059 224.725C242.283 224.725 239.54 224.199 236.828 223.146C235.935 222.795 235.153 222.388 234.483 221.926L234.747 213.935L234.842 213.863C236.82 217.276 240.066 218.983 244.58 218.983C247.786 218.983 249.908 218.209 250.944 216.662C251.295 216.136 251.471 215.554 251.471 214.916C251.471 214.262 251.367 213.727 251.16 213.312C250.952 212.882 250.609 212.515 250.131 212.212C249.206 211.606 247.651 211.199 245.465 210.992C243.28 210.784 241.494 210.394 240.106 209.819C238.718 209.245 237.61 208.535 236.78 207.69C235.281 206.159 234.531 204.021 234.531 201.278C234.531 198.439 235.528 196.142 237.522 194.387C239.548 192.601 242.275 191.708 245.705 191.708C249.15 191.708 252.165 192.497 254.748 194.076ZM294.633 191.708C297.616 191.708 300.16 192.226 302.265 193.263V200.584L302.217 200.632C301.324 199.26 299.442 198.351 296.571 197.904C295.725 197.761 294.657 197.689 293.365 197.689C292.073 197.689 290.805 197.936 289.561 198.431C288.316 198.909 287.296 199.595 286.498 200.488C284.951 202.227 284.177 204.707 284.177 207.929C284.177 211.678 285.158 214.469 287.12 216.303C288.747 217.834 290.9 218.6 293.58 218.6C296.611 218.6 299.067 217.954 300.949 216.662C301.635 216.2 302.217 215.625 302.696 214.939L302.768 214.987V221.687C300.327 223.712 297.041 224.725 292.91 224.725C288.045 224.725 284.233 223.178 281.474 220.083C278.826 217.133 277.502 213.225 277.502 208.36C277.502 203.208 278.953 199.148 281.856 196.182C284.791 193.199 289.05 191.708 294.633 191.708ZM311.405 220.347C309.953 218.959 308.805 217.292 307.959 215.346C307.13 213.4 306.715 211.271 306.715 208.958C306.715 206.629 307.106 204.428 307.888 202.354C308.669 200.281 309.786 198.455 311.237 196.875C312.689 195.296 314.443 194.044 316.501 193.119C318.559 192.178 320.863 191.708 323.415 191.708C327.818 191.708 331.526 193.095 334.541 195.871C337.763 198.837 339.374 202.841 339.374 207.881C339.374 212.762 337.715 216.822 334.397 220.06C332.356 222.053 329.923 223.425 327.1 224.175C325.712 224.542 324.085 224.725 322.219 224.725C320.369 224.725 318.463 224.342 316.501 223.577C314.555 222.811 312.856 221.734 311.405 220.347ZM313.367 208.623C313.367 210.106 313.614 211.47 314.108 212.714C314.603 213.958 315.289 215.027 316.166 215.92C318.032 217.803 320.433 218.744 323.368 218.744C326.159 218.744 328.4 217.842 330.091 216.04C331.813 214.174 332.675 211.63 332.675 208.408C332.675 205.377 331.853 202.849 330.21 200.823C328.44 198.654 326.015 197.569 322.937 197.569C319.954 197.569 317.586 198.67 315.831 200.871C314.188 202.929 313.367 205.513 313.367 208.623ZM355.835 211.757C355.356 211.789 354.846 211.805 354.304 211.805C353.761 211.805 352.956 211.765 351.887 211.686V224.127H345.547V192.138C347.78 191.851 350.523 191.708 353.777 191.708C358.212 191.708 361.513 192.529 363.683 194.172C365.868 195.799 366.96 198.319 366.96 201.732C366.96 204.38 365.964 206.645 363.97 208.527C363.316 209.133 362.566 209.66 361.721 210.106L366.602 220.395C367.559 222.516 368.292 223.776 368.803 224.175L368.683 224.294C367.136 224.039 364.703 224.047 361.386 224.318L355.835 211.757ZM354.232 197.354C353.418 197.354 352.637 197.394 351.887 197.474V206.613C352.669 206.725 353.586 206.781 354.639 206.781C355.691 206.781 356.577 206.693 357.294 206.518C358.012 206.326 358.634 206.039 359.161 205.656C360.293 204.811 360.859 203.543 360.859 201.852C360.859 200.161 360.269 198.973 359.089 198.287C357.988 197.665 356.369 197.354 354.232 197.354ZM385.599 224.271C384.833 224.175 382.863 224.127 379.689 224.127H378.923V197.665H374.186C372.782 197.665 371.953 197.737 371.698 197.88C371.443 198.024 371.243 198.152 371.1 198.263L371.028 198.239V192.114L371.1 192.042C371.626 192.218 373.046 192.306 375.358 192.306H390.36C391.763 192.306 392.593 192.234 392.848 192.09C393.103 191.947 393.303 191.819 393.446 191.708L393.518 191.731V197.856L393.446 197.928C392.92 197.753 391.5 197.665 389.187 197.665H385.599V224.271ZM414.668 218.385C415.657 218.385 416.343 218.289 416.726 218.098L416.822 218.122L416.582 224.127H398.662V192.138C399.093 192.17 399.571 192.194 400.098 192.21L401.772 192.258C402.889 192.29 404.101 192.306 405.409 192.306C409.062 192.306 412.675 192.242 416.248 192.114C416.072 193.518 415.984 195.392 415.984 197.737C415.984 197.992 416 198.183 416.032 198.311L415.984 198.383C415.155 198.144 413.975 198.024 412.443 198.024H404.907V204.125H410.577C412.332 204.125 413.384 204.077 413.735 203.981L413.807 209.891C413.041 209.811 412.053 209.771 410.84 209.771H404.907V218.385H414.668ZM405.577 181.348C407.969 181.348 410.521 181.212 413.233 180.941L413.209 181.108L406.94 188.836H401.533L405.577 181.348ZM442.422 194.076L441.968 201.11L441.8 201.158C440.62 199.388 438.61 198.239 435.771 197.713C434.878 197.537 434.016 197.45 433.187 197.45C432.373 197.45 431.672 197.521 431.082 197.665C430.507 197.809 430.013 198.016 429.598 198.287C428.721 198.861 428.282 199.611 428.282 200.536C428.282 201.748 428.665 202.658 429.431 203.264C430.388 203.997 431.975 204.516 434.192 204.819C436.409 205.106 438.187 205.505 439.527 206.015C440.867 206.526 441.968 207.172 442.829 207.953C444.456 209.421 445.269 211.494 445.269 214.174C445.269 217.683 443.946 220.387 441.298 222.285C439.033 223.912 436.178 224.725 432.732 224.725C429.957 224.725 427.214 224.199 424.502 223.146C423.609 222.795 422.827 222.388 422.157 221.926L422.42 213.935L422.516 213.863C424.494 217.276 427.74 218.983 432.254 218.983C435.46 218.983 437.581 218.209 438.618 216.662C438.969 216.136 439.144 215.554 439.144 214.916C439.144 214.262 439.041 213.727 438.833 213.312C438.626 212.882 438.283 212.515 437.805 212.212C436.88 211.606 435.324 211.199 433.139 210.992C430.954 210.784 429.167 210.394 427.78 209.819C426.392 209.245 425.283 208.535 424.454 207.69C422.955 206.159 422.205 204.021 422.205 201.278C422.205 198.439 423.202 196.142 425.196 194.387C427.221 192.601 429.949 191.708 433.378 191.708C436.824 191.708 439.838 192.497 442.422 194.076Z" fill="white"/>
<path d="M118.609 297.488L108.009 325.448H104.809L94.209 297.488H97.249L106.409 322.408L115.649 297.488H118.609ZM125.616 297.488V325.448H122.816V297.488H125.616ZM130.677 311.448C130.677 308.702 131.277 306.248 132.477 304.088C133.677 301.902 135.317 300.208 137.397 299.008C139.477 297.782 141.797 297.168 144.357 297.168C147.477 297.168 150.143 297.915 152.357 299.408C154.597 300.875 156.223 302.955 157.237 305.648H153.957C153.157 303.755 151.93 302.275 150.277 301.208C148.65 300.142 146.677 299.608 144.357 299.608C142.303 299.608 140.45 300.088 138.797 301.048C137.17 302.008 135.89 303.395 134.957 305.208C134.023 306.995 133.557 309.075 133.557 311.448C133.557 313.822 134.023 315.902 134.957 317.688C135.89 319.475 137.17 320.848 138.797 321.808C140.45 322.768 142.303 323.248 144.357 323.248C146.677 323.248 148.65 322.728 150.277 321.688C151.93 320.622 153.157 319.155 153.957 317.288H157.237C156.223 319.955 154.597 322.022 152.357 323.488C150.117 324.955 147.45 325.688 144.357 325.688C141.797 325.688 139.477 325.088 137.397 323.888C135.317 322.662 133.677 320.968 132.477 318.808C131.277 316.648 130.677 314.195 130.677 311.448ZM165.616 299.768V310.208H176.216V312.528H165.616V323.128H177.416V325.448H162.816V297.448H177.416V299.768H165.616ZM200.813 305.528C200.813 307.928 200.027 309.862 198.453 311.328C196.88 312.795 194.52 313.528 191.373 313.528H185.733V325.448H182.933V297.488H191.373C194.493 297.488 196.84 298.222 198.413 299.688C200.013 301.155 200.813 303.102 200.813 305.528ZM191.373 311.128C195.747 311.128 197.933 309.262 197.933 305.528C197.933 303.662 197.413 302.248 196.373 301.288C195.333 300.328 193.667 299.848 191.373 299.848H185.733V311.128H191.373ZM220.391 325.448L213.471 313.768H208.311V325.448H205.511V297.488H213.911C217.031 297.488 219.391 298.235 220.991 299.728C222.618 301.222 223.431 303.182 223.431 305.608C223.431 307.635 222.845 309.368 221.671 310.808C220.525 312.222 218.818 313.142 216.551 313.568L223.751 325.448H220.391ZM208.311 311.488H213.951C216.138 311.488 217.778 310.955 218.871 309.888C219.991 308.822 220.551 307.395 220.551 305.608C220.551 303.768 220.018 302.355 218.951 301.368C217.885 300.355 216.205 299.848 213.911 299.848H208.311V311.488ZM231.788 299.768V310.208H242.388V312.528H231.788V323.128H243.588V325.448H228.988V297.448H243.588V299.768H231.788ZM257.585 325.728C255.745 325.728 254.119 325.408 252.705 324.768C251.319 324.128 250.225 323.235 249.425 322.088C248.625 320.942 248.199 319.662 248.145 318.248H251.105C251.239 319.608 251.839 320.808 252.905 321.848C253.972 322.862 255.532 323.368 257.585 323.368C259.479 323.368 260.972 322.888 262.065 321.928C263.185 320.942 263.745 319.702 263.745 318.208C263.745 317.008 263.439 316.048 262.825 315.328C262.212 314.582 261.452 314.035 260.545 313.688C259.639 313.315 258.385 312.915 256.785 312.488C254.919 311.982 253.439 311.488 252.345 311.008C251.252 310.528 250.319 309.782 249.545 308.768C248.772 307.755 248.385 306.382 248.385 304.648C248.385 303.208 248.759 301.928 249.505 300.808C250.252 299.662 251.305 298.768 252.665 298.128C254.025 297.488 255.585 297.168 257.345 297.168C259.932 297.168 262.012 297.808 263.585 299.088C265.185 300.342 266.105 301.968 266.345 303.968H263.305C263.119 302.822 262.492 301.808 261.425 300.928C260.359 300.022 258.919 299.568 257.105 299.568C255.425 299.568 254.025 300.022 252.905 300.928C251.785 301.808 251.225 303.022 251.225 304.568C251.225 305.742 251.532 306.688 252.145 307.408C252.759 308.128 253.519 308.675 254.425 309.048C255.359 309.422 256.612 309.822 258.185 310.248C259.999 310.755 261.465 311.262 262.585 311.768C263.705 312.248 264.652 312.995 265.425 314.008C266.199 315.022 266.585 316.382 266.585 318.088C266.585 319.395 266.239 320.635 265.545 321.808C264.852 322.982 263.825 323.928 262.465 324.648C261.105 325.368 259.479 325.728 257.585 325.728ZM274.796 297.488V325.448H271.996V297.488H274.796ZM289.416 297.488C292.51 297.488 295.163 298.048 297.376 299.168C299.59 300.288 301.283 301.902 302.456 304.008C303.63 306.115 304.216 308.622 304.216 311.528C304.216 314.408 303.63 316.902 302.456 319.008C301.283 321.088 299.59 322.688 297.376 323.808C295.163 324.902 292.51 325.448 289.416 325.448H281.136V297.488H289.416ZM289.416 323.128C293.31 323.128 296.27 322.115 298.296 320.088C300.35 318.035 301.376 315.182 301.376 311.528C301.376 307.848 300.35 304.982 298.296 302.928C296.27 300.848 293.31 299.808 289.416 299.808H283.936V323.128H289.416ZM312.179 299.768V310.208H322.779V312.528H312.179V323.128H323.979V325.448H309.379V297.448H323.979V299.768H312.179ZM350.576 325.448H347.776L332.296 301.928V325.448H329.496V297.488H332.296L347.776 320.968V297.488H350.576V325.448ZM373.278 297.488V299.808H365.518V325.448H362.718V299.808H354.918V297.488H373.278ZM380.499 299.768V310.208H391.099V312.528H380.499V323.128H392.299V325.448H377.699V297.448H392.299V299.768H380.499Z" fill="white"/>
</svg>
