<svg width="742" height="737" viewBox="0 0 742 737" fill="none" xmlns="http://www.w3.org/2000/svg">
<path d="M624.265 379.599C638.128 394.055 629.23 418.13 609.298 420.096L46.3098 475.61C26.9026 477.524 13.4363 456.719 23.1291 439.797L253.556 37.5115C261.52 23.6075 280.612 21.2636 291.703 32.8283L624.265 379.599Z" fill="#F28F1C"/>
<path d="M129.436 308.191C128.064 308.064 126.461 308 124.627 308H122.737L133.145 278.834C133.607 277.527 133.838 276.769 133.838 276.562C133.838 276.338 133.83 276.203 133.814 276.155L133.838 276.107C134.875 276.155 135.976 276.179 137.14 276.179C138.097 276.179 139.246 276.163 140.585 276.131L140.609 276.179C140.577 276.243 140.562 276.33 140.562 276.442C140.562 276.745 140.801 277.55 141.279 278.858L151.902 308.072C151.583 308.056 151.208 308.048 150.778 308.048C150.778 308.048 150.363 308.032 149.534 308C149.135 308 148.776 308 148.457 308H144.749L142.5 301.109H131.685L129.436 308.191ZM140.633 295.367L137.021 284.242L133.503 295.367H140.633ZM155.994 308C156.089 307.458 156.137 306.868 156.137 306.229V276.179H160.922L173.603 296.133V277.806C173.603 276.928 173.523 276.386 173.364 276.179H179.824C179.744 276.817 179.704 277.519 179.704 278.284V308H174.728L162.238 288.835V308H155.994ZM196.069 308.598C193.485 308.598 191.053 308.391 188.772 307.976V275.963C190.877 275.708 193.318 275.581 196.093 275.581C198.885 275.581 201.405 275.963 203.654 276.729C205.919 277.479 207.809 278.555 209.324 279.959C212.387 282.766 213.918 286.698 213.918 291.754C213.918 297.417 212.211 301.715 208.798 304.65C205.735 307.282 201.493 308.598 196.069 308.598ZM194.993 302.76C196.029 302.952 197.066 303.047 198.103 303.047C199.14 303.047 200.256 302.848 201.453 302.449C202.649 302.035 203.686 301.396 204.563 300.535C206.445 298.717 207.386 296.069 207.386 292.592C207.386 286.882 205.305 283.372 201.142 282.064C199.77 281.634 198.183 281.418 196.38 281.418H195.734C195.495 281.418 195.248 281.426 194.993 281.442V302.76ZM231.24 295.63C230.762 295.662 230.251 295.678 229.709 295.678C229.167 295.678 228.361 295.638 227.292 295.559V308H220.952V276.011C223.185 275.724 225.929 275.581 229.183 275.581C233.617 275.581 236.919 276.402 239.088 278.045C241.273 279.672 242.366 282.192 242.366 285.605C242.366 288.253 241.369 290.518 239.375 292.4C238.721 293.007 237.971 293.533 237.126 293.979L242.007 304.268C242.964 306.389 243.698 307.649 244.208 308.048L244.088 308.167C242.541 307.912 240.109 307.92 236.791 308.191L231.24 295.63ZM229.637 281.227C228.824 281.227 228.042 281.267 227.292 281.347V290.486C228.074 290.598 228.991 290.654 230.044 290.654C231.097 290.654 231.982 290.566 232.7 290.391C233.417 290.199 234.04 289.912 234.566 289.529C235.698 288.684 236.265 287.416 236.265 285.725C236.265 284.034 235.674 282.846 234.494 282.16C233.394 281.538 231.775 281.227 229.637 281.227ZM265.526 302.258C266.515 302.258 267.201 302.162 267.583 301.971L267.679 301.995L267.44 308H249.52V276.011C249.95 276.043 250.429 276.067 250.955 276.083L252.63 276.131C253.746 276.163 254.959 276.179 256.267 276.179C259.919 276.179 263.532 276.115 267.105 275.987C266.93 277.391 266.842 279.265 266.842 281.61C266.842 281.865 266.858 282.056 266.89 282.184L266.842 282.256C266.012 282.017 264.832 281.897 263.301 281.897H255.764V287.998H261.435C263.189 287.998 264.242 287.95 264.593 287.854L264.665 293.764C263.899 293.684 262.91 293.645 261.698 293.645H255.764V302.258H265.526ZM276.388 308.191C275.016 308.064 273.413 308 271.579 308H269.689L280.097 278.834C280.559 277.527 280.791 276.769 280.791 276.562C280.791 276.338 280.783 276.203 280.767 276.155L280.791 276.107C281.827 276.155 282.928 276.179 284.092 276.179C285.049 276.179 286.198 276.163 287.538 276.131L287.562 276.179C287.53 276.243 287.514 276.33 287.514 276.442C287.514 276.745 287.753 277.55 288.231 278.858L298.854 308.072C298.535 308.056 298.161 308.048 297.73 308.048C297.73 308.048 297.315 308.032 296.486 308C296.087 308 295.728 308 295.409 308H291.701L289.452 301.109H278.637L276.388 308.191ZM287.585 295.367L283.973 284.242L280.456 295.367H287.585ZM325.46 308.144C324.694 308.048 323.219 308 321.034 308H319.12V276.083C320.14 276.147 321.265 276.179 322.493 276.179C323.721 276.179 324.591 276.115 325.101 275.987L333.14 289.649L340.868 275.987C341.379 276.115 342.352 276.179 343.787 276.179C345.223 276.179 346.451 276.147 347.472 276.083V308H345.558C343.372 308 341.897 308.048 341.131 308.144V286.706L333.308 300.703L325.46 287.831V308.144ZM371.852 302.258C372.841 302.258 373.527 302.162 373.91 301.971L374.005 301.995L373.766 308H355.846V276.011C356.276 276.043 356.755 276.067 357.281 276.083L358.956 276.131C360.073 276.163 361.285 276.179 362.593 276.179C366.245 276.179 369.858 276.115 373.431 275.987C373.256 277.391 373.168 279.265 373.168 281.61C373.168 281.865 373.184 282.056 373.216 282.184L373.168 282.256C372.339 282.017 371.158 281.897 369.627 281.897H362.09V287.998H367.761C369.515 287.998 370.568 287.95 370.919 287.854L370.991 293.764C370.225 293.684 369.236 293.645 368.024 293.645H362.09V302.258H371.852ZM385.059 308C382.714 308 381.159 308.048 380.394 308.144V276.035C380.776 276.131 381.566 276.179 382.762 276.179C383.974 276.179 385.378 276.147 386.973 276.083V302.258H391.926C393.361 302.258 394.51 302.21 395.371 302.114C395.259 305.847 395.204 307.785 395.204 307.928V308.167C393.64 308.056 391.017 308 387.332 308H385.059ZM416.88 302.258C417.869 302.258 418.555 302.162 418.938 301.971L419.034 301.995L418.794 308H400.874V276.011C401.305 276.043 401.783 276.067 402.31 276.083L403.984 276.131C405.101 276.163 406.313 276.179 407.621 276.179C411.274 276.179 414.887 276.115 418.459 275.987C418.284 277.391 418.196 279.265 418.196 281.61C418.196 281.865 418.212 282.056 418.244 282.184L418.196 282.256C417.367 282.017 416.187 281.897 414.655 281.897H407.119V287.998H412.789C414.544 287.998 415.596 287.95 415.947 287.854L416.019 293.764C415.253 293.684 414.264 293.645 413.052 293.645H407.119V302.258H416.88ZM425.637 308C425.733 307.458 425.781 306.868 425.781 306.229V276.179H430.566L443.247 296.133V277.806C443.247 276.928 443.167 276.386 443.007 276.179H449.467C449.388 276.817 449.348 277.519 449.348 278.284V308H444.371L431.882 288.835V308H425.637ZM465.713 308.598C463.129 308.598 460.696 308.391 458.416 307.976V275.963C460.521 275.708 462.961 275.581 465.737 275.581C468.528 275.581 471.048 275.963 473.297 276.729C475.562 277.479 477.452 278.555 478.968 279.959C482.03 282.766 483.562 286.698 483.562 291.754C483.562 297.417 481.855 301.715 478.441 304.65C475.379 307.282 471.136 308.598 465.713 308.598ZM464.636 302.76C465.673 302.952 466.71 303.047 467.747 303.047C468.783 303.047 469.9 302.848 471.096 302.449C472.292 302.035 473.329 301.396 474.207 300.535C476.089 298.717 477.03 296.069 477.03 292.592C477.03 286.882 474.948 283.372 470.785 282.064C469.413 281.634 467.826 281.418 466.024 281.418H465.378C465.139 281.418 464.891 281.426 464.636 281.442V302.76ZM491.337 276.083C492.932 276.147 493.897 276.179 494.232 276.179H495.955C496.8 276.179 497.478 276.115 497.989 275.987L497.965 308H491.337V276.083Z" fill="white"/>
<path d="M175.68 382.28C173.84 382.28 172.213 381.96 170.8 381.32C169.413 380.68 168.32 379.787 167.52 378.64C166.72 377.493 166.293 376.213 166.24 374.8H169.2C169.333 376.16 169.933 377.36 171 378.4C172.067 379.413 173.627 379.92 175.68 379.92C177.573 379.92 179.067 379.44 180.16 378.48C181.28 377.493 181.84 376.253 181.84 374.76C181.84 373.56 181.533 372.6 180.92 371.88C180.307 371.133 179.547 370.587 178.64 370.24C177.733 369.867 176.48 369.467 174.88 369.04C173.013 368.533 171.533 368.04 170.44 367.56C169.347 367.08 168.413 366.333 167.64 365.32C166.867 364.307 166.48 362.933 166.48 361.2C166.48 359.76 166.853 358.48 167.6 357.36C168.347 356.213 169.4 355.32 170.76 354.68C172.12 354.04 173.68 353.72 175.44 353.72C178.027 353.72 180.107 354.36 181.68 355.64C183.28 356.893 184.2 358.52 184.44 360.52H181.4C181.213 359.373 180.587 358.36 179.52 357.48C178.453 356.573 177.013 356.12 175.2 356.12C173.52 356.12 172.12 356.573 171 357.48C169.88 358.36 169.32 359.573 169.32 361.12C169.32 362.293 169.627 363.24 170.24 363.96C170.853 364.68 171.613 365.227 172.52 365.6C173.453 365.973 174.707 366.373 176.28 366.8C178.093 367.307 179.56 367.813 180.68 368.32C181.8 368.8 182.747 369.547 183.52 370.56C184.293 371.573 184.68 372.933 184.68 374.64C184.68 375.947 184.333 377.187 183.64 378.36C182.947 379.533 181.92 380.48 180.56 381.2C179.2 381.92 177.573 382.28 175.68 382.28ZM192.891 356.32V366.76H203.491V369.08H192.891V379.68H204.691V382H190.091V354H204.691V356.32H192.891ZM208.928 368C208.928 365.253 209.528 362.8 210.728 360.64C211.928 358.453 213.568 356.76 215.648 355.56C217.728 354.333 220.048 353.72 222.608 353.72C225.728 353.72 228.394 354.467 230.608 355.96C232.848 357.427 234.474 359.507 235.488 362.2H232.208C231.408 360.307 230.181 358.827 228.528 357.76C226.901 356.693 224.928 356.16 222.608 356.16C220.554 356.16 218.701 356.64 217.048 357.6C215.421 358.56 214.141 359.947 213.208 361.76C212.274 363.547 211.808 365.627 211.808 368C211.808 370.373 212.274 372.453 213.208 374.24C214.141 376.027 215.421 377.4 217.048 378.36C218.701 379.32 220.554 379.8 222.608 379.8C224.928 379.8 226.901 379.28 228.528 378.24C230.181 377.173 231.408 375.707 232.208 373.84H235.488C234.474 376.507 232.848 378.573 230.608 380.04C228.368 381.507 225.701 382.24 222.608 382.24C220.048 382.24 217.728 381.64 215.648 380.44C213.568 379.213 211.928 377.52 210.728 375.36C209.528 373.2 208.928 370.747 208.928 368ZM255.947 382L249.027 370.32H243.867V382H241.067V354.04H249.467C252.587 354.04 254.947 354.787 256.547 356.28C258.174 357.773 258.987 359.733 258.987 362.16C258.987 364.187 258.401 365.92 257.227 367.36C256.081 368.773 254.374 369.693 252.107 370.12L259.307 382H255.947ZM243.867 368.04H249.507C251.694 368.04 253.334 367.507 254.427 366.44C255.547 365.373 256.107 363.947 256.107 362.16C256.107 360.32 255.574 358.907 254.507 357.92C253.441 356.907 251.761 356.4 249.467 356.4H243.867V368.04ZM267.344 356.32V366.76H277.944V369.08H267.344V379.68H279.144V382H264.544V354H279.144V356.32H267.344ZM301.021 354.04V356.36H293.261V382H290.461V356.36H282.661V354.04H301.021ZM321.642 375.36H308.922L306.482 382H303.522L313.722 354.4H316.882L327.042 382H324.082L321.642 375.36ZM320.802 373.04L315.282 357.92L309.762 373.04H320.802ZM346.416 382L339.496 370.32H334.336V382H331.536V354.04H339.936C343.056 354.04 345.416 354.787 347.016 356.28C348.643 357.773 349.456 359.733 349.456 362.16C349.456 364.187 348.869 365.92 347.696 367.36C346.549 368.773 344.843 369.693 342.576 370.12L349.776 382H346.416ZM334.336 368.04H339.976C342.163 368.04 343.803 367.507 344.896 366.44C346.016 365.373 346.576 363.947 346.576 362.16C346.576 360.32 346.043 358.907 344.976 357.92C343.909 356.907 342.229 356.4 339.936 356.4H334.336V368.04ZM357.813 354.04V382H355.013V354.04H357.813ZM380.353 375.36H367.633L365.193 382H362.233L372.433 354.4H375.593L385.753 382H382.793L380.353 375.36ZM379.513 373.04L373.993 357.92L368.473 373.04H379.513ZM423.223 362.2C422.423 360.36 421.197 358.92 419.543 357.88C417.917 356.813 415.997 356.28 413.783 356.28C411.703 356.28 409.837 356.76 408.183 357.72C406.53 358.68 405.223 360.053 404.263 361.84C403.303 363.6 402.823 365.653 402.823 368C402.823 370.347 403.303 372.413 404.263 374.2C405.223 375.987 406.53 377.36 408.183 378.32C409.837 379.28 411.703 379.76 413.783 379.76C415.73 379.76 417.477 379.347 419.023 378.52C420.597 377.667 421.85 376.467 422.783 374.92C423.743 373.347 424.29 371.52 424.423 369.44H412.663V367.16H427.383V369.2C427.25 371.653 426.583 373.88 425.383 375.88C424.183 377.853 422.57 379.413 420.543 380.56C418.543 381.707 416.29 382.28 413.783 382.28C411.197 382.28 408.85 381.68 406.743 380.48C404.637 379.253 402.97 377.56 401.743 375.4C400.543 373.213 399.943 370.747 399.943 368C399.943 365.253 400.543 362.8 401.743 360.64C402.97 358.453 404.637 356.76 406.743 355.56C408.85 354.333 411.197 353.72 413.783 353.72C416.77 353.72 419.383 354.467 421.623 355.96C423.863 357.453 425.49 359.533 426.503 362.2H423.223ZM447.393 382L440.473 370.32H435.313V382H432.513V354.04H440.913C444.033 354.04 446.393 354.787 447.993 356.28C449.619 357.773 450.432 359.733 450.432 362.16C450.432 364.187 449.846 365.92 448.673 367.36C447.526 368.773 445.819 369.693 443.553 370.12L450.753 382H447.393ZM435.313 368.04H440.953C443.139 368.04 444.779 367.507 445.873 366.44C446.993 365.373 447.553 363.947 447.553 362.16C447.553 360.32 447.019 358.907 445.953 357.92C444.886 356.907 443.206 356.4 440.913 356.4H435.313V368.04ZM472.189 375.36H459.469L457.029 382H454.069L464.269 354.4H467.429L477.589 382H474.629L472.189 375.36ZM471.349 373.04L465.829 357.92L460.309 373.04H471.349ZM484.883 379.72H494.923V382H482.083V354.04H484.883V379.72ZM499.399 382.2C498.812 382.2 498.319 382 497.919 381.6C497.545 381.2 497.359 380.707 497.359 380.12C497.359 379.533 497.545 379.053 497.919 378.68C498.319 378.28 498.812 378.08 499.399 378.08C499.959 378.08 500.425 378.28 500.799 378.68C501.199 379.053 501.399 379.533 501.399 380.12C501.399 380.707 501.199 381.2 500.799 381.6C500.425 382 499.959 382.2 499.399 382.2Z" fill="white"/>
</svg>
