<svg width="740" height="740" viewBox="0 0 740 740" fill="none" xmlns="http://www.w3.org/2000/svg">
<rect x="655.494" y="279.5" width="423.207" height="423.207" rx="20" transform="rotate(117.322 655.494 279.5)" fill="#F28F1C"/>
<path d="M210.375 310.581C213.358 310.581 215.902 311.099 218.007 312.136V319.457L217.959 319.505C217.066 318.133 215.184 317.224 212.313 316.777C211.468 316.634 210.399 316.562 209.107 316.562C207.815 316.562 206.547 316.809 205.303 317.304C204.059 317.782 203.038 318.468 202.24 319.361C200.693 321.1 199.919 323.58 199.919 326.802C199.919 330.551 200.9 333.342 202.862 335.176C204.489 336.708 206.643 337.473 209.322 337.473C212.353 337.473 214.809 336.827 216.691 335.535C217.377 335.073 217.959 334.498 218.438 333.812L218.51 333.86V340.56C216.069 342.585 212.784 343.598 208.652 343.598C203.787 343.598 199.975 342.051 197.216 338.957C194.568 336.006 193.244 332.098 193.244 327.233C193.244 322.081 194.696 318.021 197.599 315.055C200.534 312.072 204.792 310.581 210.375 310.581ZM234.827 330.63C234.349 330.662 233.838 330.678 233.296 330.678C232.754 330.678 231.948 330.638 230.879 330.559V343H224.539V311.011C226.772 310.724 229.516 310.581 232.77 310.581C237.204 310.581 240.506 311.402 242.675 313.045C244.86 314.672 245.953 317.192 245.953 320.605C245.953 323.253 244.956 325.518 242.962 327.4C242.308 328.007 241.558 328.533 240.713 328.979L245.594 339.268C246.551 341.389 247.285 342.649 247.795 343.048L247.675 343.167C246.128 342.912 243.696 342.92 240.378 343.191L234.827 330.63ZM233.224 316.227C232.411 316.227 231.629 316.267 230.879 316.347V325.486C231.661 325.598 232.578 325.654 233.631 325.654C234.684 325.654 235.569 325.566 236.287 325.391C237.004 325.199 237.626 324.912 238.153 324.529C239.285 323.684 239.852 322.416 239.852 320.725C239.852 319.034 239.261 317.846 238.081 317.16C236.98 316.538 235.361 316.227 233.224 316.227ZM253.848 311.083C255.443 311.147 256.408 311.179 256.743 311.179H258.466C259.311 311.179 259.989 311.115 260.5 310.987L260.476 343H253.848V311.083ZM288.684 312.949L288.229 319.983L288.062 320.031C286.882 318.261 284.872 317.112 282.033 316.586C281.139 316.41 280.278 316.323 279.449 316.323C278.635 316.323 277.933 316.395 277.343 316.538C276.769 316.682 276.275 316.889 275.86 317.16C274.983 317.734 274.544 318.484 274.544 319.409C274.544 320.621 274.927 321.531 275.692 322.137C276.649 322.87 278.236 323.389 280.454 323.692C282.671 323.979 284.449 324.378 285.789 324.888C287.129 325.399 288.229 326.045 289.091 326.826C290.718 328.294 291.531 330.367 291.531 333.047C291.531 336.556 290.207 339.26 287.56 341.158C285.295 342.785 282.439 343.598 278.994 343.598C276.219 343.598 273.475 343.072 270.764 342.019C269.87 341.668 269.089 341.261 268.419 340.799L268.682 332.808L268.778 332.736C270.756 336.149 274.002 337.856 278.516 337.856C281.722 337.856 283.843 337.082 284.88 335.535C285.231 335.009 285.406 334.427 285.406 333.789C285.406 333.135 285.303 332.6 285.095 332.186C284.888 331.755 284.545 331.388 284.066 331.085C283.141 330.479 281.586 330.072 279.401 329.865C277.216 329.657 275.429 329.267 274.042 328.692C272.654 328.118 271.545 327.408 270.716 326.563C269.216 325.032 268.467 322.894 268.467 320.151C268.467 317.312 269.464 315.015 271.458 313.26C273.483 311.474 276.211 310.581 279.64 310.581C283.085 310.581 286.1 311.37 288.684 312.949ZM309.523 343.144C308.758 343.048 306.788 343 303.614 343H302.848V316.538H298.111C296.707 316.538 295.878 316.61 295.623 316.753C295.367 316.897 295.168 317.025 295.024 317.136L294.953 317.112V310.987L295.024 310.916C295.551 311.091 296.97 311.179 299.283 311.179H314.285C315.688 311.179 316.518 311.107 316.773 310.963C317.028 310.82 317.228 310.692 317.371 310.581L317.443 310.604V316.729L317.371 316.801C316.845 316.626 315.425 316.538 313.112 316.538H309.523V343.144ZM323.329 311.083C324.924 311.147 325.889 311.179 326.224 311.179H327.946C328.792 311.179 329.47 311.115 329.98 310.987L329.956 343H323.329V311.083ZM341.273 343.191C339.901 343.064 338.298 343 336.464 343H334.574L344.981 313.834C345.444 312.527 345.675 311.769 345.675 311.562C345.675 311.338 345.667 311.203 345.651 311.155L345.675 311.107C346.712 311.155 347.813 311.179 348.977 311.179C349.934 311.179 351.083 311.163 352.422 311.131L352.446 311.179C352.414 311.243 352.398 311.33 352.398 311.442C352.398 311.745 352.638 312.55 353.116 313.858L363.739 343.072C363.42 343.056 363.045 343.048 362.615 343.048C362.615 343.048 362.2 343.032 361.371 343C360.972 343 360.613 343 360.294 343H356.585L354.336 336.109H343.522L341.273 343.191ZM352.47 330.367L348.857 319.242L345.34 330.367H352.47ZM367.831 343C367.926 342.458 367.974 341.868 367.974 341.229V311.179H372.759L385.44 331.133V312.806C385.44 311.928 385.36 311.386 385.201 311.179H391.661C391.581 311.817 391.541 312.519 391.541 313.284V343H386.564L374.075 323.835V343H367.831ZM422.884 343.144C422.118 343.048 420.643 343 418.458 343H416.543V311.083C417.564 311.147 418.689 311.179 419.917 311.179C421.145 311.179 422.014 311.115 422.525 310.987L430.564 324.649L438.292 310.987C438.802 311.115 439.775 311.179 441.211 311.179C442.646 311.179 443.875 311.147 444.896 311.083V343H442.981C440.796 343 439.321 343.048 438.555 343.144V321.706L430.731 335.703L422.884 322.831V343.144ZM455.877 339.22C454.426 337.832 453.278 336.165 452.432 334.219C451.603 332.273 451.188 330.144 451.188 327.831C451.188 325.502 451.579 323.301 452.36 321.228C453.142 319.154 454.258 317.328 455.71 315.749C457.161 314.169 458.916 312.917 460.974 311.992C463.031 311.051 465.336 310.581 467.888 310.581C472.291 310.581 475.999 311.968 479.014 314.744C482.236 317.71 483.847 321.714 483.847 326.754C483.847 331.635 482.188 335.695 478.87 338.933C476.828 340.926 474.396 342.298 471.573 343.048C470.185 343.415 468.558 343.598 466.692 343.598C464.842 343.598 462.936 343.215 460.974 342.45C459.028 341.684 457.329 340.607 455.877 339.22ZM457.839 327.496C457.839 328.979 458.087 330.343 458.581 331.587C459.076 332.832 459.761 333.9 460.639 334.793C462.505 336.676 464.905 337.617 467.84 337.617C470.632 337.617 472.873 336.715 474.563 334.913C476.286 333.047 477.147 330.503 477.147 327.281C477.147 324.25 476.326 321.722 474.683 319.696C472.913 317.527 470.488 316.442 467.41 316.442C464.427 316.442 462.058 317.543 460.304 319.744C458.661 321.802 457.839 324.386 457.839 327.496ZM494.685 343C492.34 343 490.785 343.048 490.02 343.144V311.035C490.402 311.131 491.192 311.179 492.388 311.179C493.6 311.179 495.004 311.147 496.599 311.083V337.258H501.552C502.987 337.258 504.136 337.21 504.997 337.114C504.885 340.847 504.83 342.785 504.83 342.928V343.167C503.266 343.056 500.643 343 496.958 343H494.685ZM511.242 311.083C512.837 311.147 513.802 311.179 514.137 311.179H515.859C516.705 311.179 517.383 311.115 517.893 310.987L517.869 343H511.242V311.083ZM527.081 343C527.176 342.458 527.224 341.868 527.224 341.229V311.179H532.009L544.69 331.133V312.806C544.69 311.928 544.61 311.386 544.451 311.179H550.911C550.831 311.817 550.791 312.519 550.791 313.284V343H545.814L533.325 323.835V343H527.081ZM561.725 343.191C560.353 343.064 558.75 343 556.916 343H555.026L565.434 313.834C565.896 312.527 566.127 311.769 566.127 311.562C566.127 311.338 566.119 311.203 566.104 311.155L566.127 311.107C567.164 311.155 568.265 311.179 569.429 311.179C570.386 311.179 571.535 311.163 572.875 311.131L572.898 311.179C572.867 311.243 572.851 311.33 572.851 311.442C572.851 311.745 573.09 312.55 573.568 313.858L584.191 343.072C583.872 343.056 583.498 343.048 583.067 343.048C583.067 343.048 582.652 343.032 581.823 343C581.424 343 581.065 343 580.746 343H577.038L574.789 336.109H563.974L561.725 343.191ZM572.922 330.367L569.31 319.242L565.792 330.367H572.922Z" fill="white"/>
<path d="M169.68 415.28C167.84 415.28 166.213 414.96 164.8 414.32C163.413 413.68 162.32 412.787 161.52 411.64C160.72 410.493 160.293 409.213 160.24 407.8H163.2C163.333 409.16 163.933 410.36 165 411.4C166.067 412.413 167.627 412.92 169.68 412.92C171.573 412.92 173.067 412.44 174.16 411.48C175.28 410.493 175.84 409.253 175.84 407.76C175.84 406.56 175.533 405.6 174.92 404.88C174.307 404.133 173.547 403.587 172.64 403.24C171.733 402.867 170.48 402.467 168.88 402.04C167.013 401.533 165.533 401.04 164.44 400.56C163.347 400.08 162.413 399.333 161.64 398.32C160.867 397.307 160.48 395.933 160.48 394.2C160.48 392.76 160.853 391.48 161.6 390.36C162.347 389.213 163.4 388.32 164.76 387.68C166.12 387.04 167.68 386.72 169.44 386.72C172.027 386.72 174.107 387.36 175.68 388.64C177.28 389.893 178.2 391.52 178.44 393.52H175.4C175.213 392.373 174.587 391.36 173.52 390.48C172.453 389.573 171.013 389.12 169.2 389.12C167.52 389.12 166.12 389.573 165 390.48C163.88 391.36 163.32 392.573 163.32 394.12C163.32 395.293 163.627 396.24 164.24 396.96C164.853 397.68 165.613 398.227 166.52 398.6C167.453 398.973 168.707 399.373 170.28 399.8C172.093 400.307 173.56 400.813 174.68 401.32C175.8 401.8 176.747 402.547 177.52 403.56C178.293 404.573 178.68 405.933 178.68 407.64C178.68 408.947 178.333 410.187 177.64 411.36C176.947 412.533 175.92 413.48 174.56 414.2C173.2 414.92 171.573 415.28 169.68 415.28ZM186.891 389.32V399.76H197.491V402.08H186.891V412.68H198.691V415H184.091V387H198.691V389.32H186.891ZM202.928 401C202.928 398.253 203.528 395.8 204.728 393.64C205.928 391.453 207.568 389.76 209.648 388.56C211.728 387.333 214.048 386.72 216.608 386.72C219.728 386.72 222.394 387.467 224.608 388.96C226.848 390.427 228.474 392.507 229.488 395.2H226.208C225.408 393.307 224.181 391.827 222.528 390.76C220.901 389.693 218.928 389.16 216.608 389.16C214.554 389.16 212.701 389.64 211.048 390.6C209.421 391.56 208.141 392.947 207.208 394.76C206.274 396.547 205.808 398.627 205.808 401C205.808 403.373 206.274 405.453 207.208 407.24C208.141 409.027 209.421 410.4 211.048 411.36C212.701 412.32 214.554 412.8 216.608 412.8C218.928 412.8 220.901 412.28 222.528 411.24C224.181 410.173 225.408 408.707 226.208 406.84H229.488C228.474 409.507 226.848 411.573 224.608 413.04C222.368 414.507 219.701 415.24 216.608 415.24C214.048 415.24 211.728 414.64 209.648 413.44C207.568 412.213 205.928 410.52 204.728 408.36C203.528 406.2 202.928 403.747 202.928 401ZM249.947 415L243.027 403.32H237.867V415H235.067V387.04H243.467C246.587 387.04 248.947 387.787 250.547 389.28C252.174 390.773 252.987 392.733 252.987 395.16C252.987 397.187 252.401 398.92 251.227 400.36C250.081 401.773 248.374 402.693 246.107 403.12L253.307 415H249.947ZM237.867 401.04H243.507C245.694 401.04 247.334 400.507 248.427 399.44C249.547 398.373 250.107 396.947 250.107 395.16C250.107 393.32 249.574 391.907 248.507 390.92C247.441 389.907 245.761 389.4 243.467 389.4H237.867V401.04ZM261.344 389.32V399.76H271.944V402.08H261.344V412.68H273.144V415H258.544V387H273.144V389.32H261.344ZM295.021 387.04V389.36H287.261V415H284.461V389.36H276.661V387.04H295.021ZM315.642 408.36H302.922L300.482 415H297.522L307.722 387.4H310.882L321.042 415H318.082L315.642 408.36ZM314.802 406.04L309.282 390.92L303.762 406.04H314.802ZM340.416 415L333.496 403.32H328.336V415H325.536V387.04H333.936C337.056 387.04 339.416 387.787 341.016 389.28C342.643 390.773 343.456 392.733 343.456 395.16C343.456 397.187 342.869 398.92 341.696 400.36C340.549 401.773 338.843 402.693 336.576 403.12L343.776 415H340.416ZM328.336 401.04H333.976C336.163 401.04 337.803 400.507 338.896 399.44C340.016 398.373 340.576 396.947 340.576 395.16C340.576 393.32 340.043 391.907 338.976 390.92C337.909 389.907 336.229 389.4 333.936 389.4H328.336V401.04ZM351.813 387.04V415H349.013V387.04H351.813ZM370.713 415.28C368.126 415.28 365.78 414.68 363.673 413.48C361.566 412.253 359.9 410.56 358.673 408.4C357.473 406.213 356.873 403.747 356.873 401C356.873 398.253 357.473 395.8 358.673 393.64C359.9 391.453 361.566 389.76 363.673 388.56C365.78 387.333 368.126 386.72 370.713 386.72C373.326 386.72 375.686 387.333 377.793 388.56C379.9 389.76 381.553 391.453 382.753 393.64C383.953 395.8 384.553 398.253 384.553 401C384.553 403.747 383.953 406.213 382.753 408.4C381.553 410.56 379.9 412.253 377.793 413.48C375.686 414.68 373.326 415.28 370.713 415.28ZM370.713 412.84C372.793 412.84 374.66 412.36 376.313 411.4C377.966 410.44 379.273 409.067 380.233 407.28C381.193 405.467 381.673 403.373 381.673 401C381.673 398.627 381.193 396.547 380.233 394.76C379.273 392.973 377.966 391.6 376.313 390.64C374.66 389.68 372.793 389.2 370.713 389.2C368.633 389.2 366.766 389.68 365.113 390.64C363.46 391.6 362.153 392.973 361.193 394.76C360.233 396.547 359.753 398.627 359.753 401C359.753 403.373 360.233 405.467 361.193 407.28C362.153 409.067 363.46 410.44 365.113 411.4C366.766 412.36 368.633 412.84 370.713 412.84ZM408.933 387.04C412.026 387.04 414.68 387.6 416.893 388.72C419.106 389.84 420.8 391.453 421.973 393.56C423.146 395.667 423.733 398.173 423.733 401.08C423.733 403.96 423.146 406.453 421.973 408.56C420.8 410.64 419.106 412.24 416.893 413.36C414.68 414.453 412.026 415 408.933 415H400.653V387.04H408.933ZM408.933 412.68C412.826 412.68 415.786 411.667 417.813 409.64C419.866 407.587 420.893 404.733 420.893 401.08C420.893 397.4 419.866 394.533 417.813 392.48C415.786 390.4 412.826 389.36 408.933 389.36H403.453V412.68H408.933ZM431.695 389.32V399.76H442.295V402.08H431.695V412.68H443.495V415H428.895V387H443.495V389.32H431.695ZM476.189 408.36H463.469L461.029 415H458.069L468.269 387.4H471.429L481.589 415H478.629L476.189 408.36ZM475.349 406.04L469.829 390.92L464.309 406.04H475.349ZM484.803 401C484.803 398.253 485.403 395.8 486.603 393.64C487.803 391.453 489.443 389.76 491.523 388.56C493.603 387.333 495.923 386.72 498.483 386.72C501.603 386.72 504.269 387.467 506.483 388.96C508.723 390.427 510.349 392.507 511.363 395.2H508.083C507.283 393.307 506.056 391.827 504.403 390.76C502.776 389.693 500.803 389.16 498.483 389.16C496.429 389.16 494.576 389.64 492.923 390.6C491.296 391.56 490.016 392.947 489.083 394.76C488.149 396.547 487.683 398.627 487.683 401C487.683 403.373 488.149 405.453 489.083 407.24C490.016 409.027 491.296 410.4 492.923 411.36C494.576 412.32 496.429 412.8 498.483 412.8C500.803 412.8 502.776 412.28 504.403 411.24C506.056 410.173 507.283 408.707 508.083 406.84H511.363C510.349 409.507 508.723 411.573 506.483 413.04C504.243 414.507 501.576 415.24 498.483 415.24C495.923 415.24 493.603 414.64 491.523 413.44C489.443 412.213 487.803 410.52 486.603 408.36C485.403 406.2 484.803 403.747 484.803 401ZM533.302 387.04V389.36H525.542V415H522.742V389.36H514.942V387.04H533.302ZM553.923 408.36H541.203L538.763 415H535.803L546.003 387.4H549.163L559.323 415H556.363L553.923 408.36ZM553.083 406.04L547.563 390.92L542.043 406.04H553.083ZM572.297 415.28C570.457 415.28 568.831 414.96 567.417 414.32C566.031 413.68 564.937 412.787 564.137 411.64C563.337 410.493 562.911 409.213 562.857 407.8H565.817C565.951 409.16 566.551 410.36 567.617 411.4C568.684 412.413 570.244 412.92 572.297 412.92C574.191 412.92 575.684 412.44 576.777 411.48C577.897 410.493 578.457 409.253 578.457 407.76C578.457 406.56 578.151 405.6 577.537 404.88C576.924 404.133 576.164 403.587 575.257 403.24C574.351 402.867 573.097 402.467 571.497 402.04C569.631 401.533 568.151 401.04 567.057 400.56C565.964 400.08 565.031 399.333 564.257 398.32C563.484 397.307 563.097 395.933 563.097 394.2C563.097 392.76 563.471 391.48 564.217 390.36C564.964 389.213 566.017 388.32 567.377 387.68C568.737 387.04 570.297 386.72 572.057 386.72C574.644 386.72 576.724 387.36 578.297 388.64C579.897 389.893 580.817 391.52 581.057 393.52H578.017C577.831 392.373 577.204 391.36 576.137 390.48C575.071 389.573 573.631 389.12 571.817 389.12C570.137 389.12 568.737 389.573 567.617 390.48C566.497 391.36 565.937 392.573 565.937 394.12C565.937 395.293 566.244 396.24 566.857 396.96C567.471 397.68 568.231 398.227 569.137 398.6C570.071 398.973 571.324 399.373 572.897 399.8C574.711 400.307 576.177 400.813 577.297 401.32C578.417 401.8 579.364 402.547 580.137 403.56C580.911 404.573 581.297 405.933 581.297 407.64C581.297 408.947 580.951 410.187 580.257 411.36C579.564 412.533 578.537 413.48 577.177 414.2C575.817 414.92 574.191 415.28 572.297 415.28Z" fill="white"/>
</svg>
