<svg width="742" height="737" viewBox="0 0 742 737" fill="none" xmlns="http://www.w3.org/2000/svg">
<path d="M624.265 379.599C638.128 394.055 629.23 418.13 609.298 420.096L46.3098 475.61C26.9026 477.524 13.4363 456.719 23.1291 439.797L253.556 37.5115C261.52 23.6074 280.612 21.2636 291.703 32.8283L624.265 379.599Z" fill="#546EF3"/>
<path d="M144 319.72H154.04V322H141.2V294.04H144V319.72ZM160.836 294.04V322H158.036V294.04H160.836ZM165.897 308C165.897 305.253 166.497 302.8 167.697 300.64C168.897 298.453 170.537 296.76 172.617 295.56C174.697 294.333 177.017 293.72 179.577 293.72C182.697 293.72 185.363 294.467 187.577 295.96C189.817 297.427 191.443 299.507 192.457 302.2H189.177C188.377 300.307 187.15 298.827 185.497 297.76C183.87 296.693 181.897 296.16 179.577 296.16C177.523 296.16 175.67 296.64 174.017 297.6C172.39 298.56 171.11 299.947 170.177 301.76C169.243 303.547 168.777 305.627 168.777 308C168.777 310.373 169.243 312.453 170.177 314.24C171.11 316.027 172.39 317.4 174.017 318.36C175.67 319.32 177.523 319.8 179.577 319.8C181.897 319.8 183.87 319.28 185.497 318.24C187.15 317.173 188.377 315.707 189.177 313.84H192.457C191.443 316.507 189.817 318.573 187.577 320.04C185.337 321.507 182.67 322.24 179.577 322.24C177.017 322.24 174.697 321.64 172.617 320.44C170.537 319.213 168.897 317.52 167.697 315.36C166.497 313.2 165.897 310.747 165.897 308ZM198.516 322.2C197.929 322.2 197.436 322 197.036 321.6C196.663 321.2 196.476 320.707 196.476 320.12C196.476 319.533 196.663 319.053 197.036 318.68C197.436 318.28 197.929 318.08 198.516 318.08C199.076 318.08 199.543 318.28 199.916 318.68C200.316 319.053 200.516 319.533 200.516 320.12C200.516 320.707 200.316 321.2 199.916 321.6C199.543 322 199.076 322.2 198.516 322.2ZM224.758 322.28C222.918 322.28 221.291 321.96 219.878 321.32C218.491 320.68 217.398 319.787 216.598 318.64C215.798 317.493 215.371 316.213 215.318 314.8H218.278C218.411 316.16 219.011 317.36 220.078 318.4C221.145 319.413 222.705 319.92 224.758 319.92C226.651 319.92 228.145 319.44 229.238 318.48C230.358 317.493 230.918 316.253 230.918 314.76C230.918 313.56 230.611 312.6 229.998 311.88C229.385 311.133 228.625 310.587 227.718 310.24C226.811 309.867 225.558 309.467 223.958 309.04C222.091 308.533 220.611 308.04 219.518 307.56C218.425 307.08 217.491 306.333 216.718 305.32C215.945 304.307 215.558 302.933 215.558 301.2C215.558 299.76 215.931 298.48 216.678 297.36C217.425 296.213 218.478 295.32 219.838 294.68C221.198 294.04 222.758 293.72 224.518 293.72C227.105 293.72 229.185 294.36 230.758 295.64C232.358 296.893 233.278 298.52 233.518 300.52H230.478C230.291 299.373 229.665 298.36 228.598 297.48C227.531 296.573 226.091 296.12 224.278 296.12C222.598 296.12 221.198 296.573 220.078 297.48C218.958 298.36 218.398 299.573 218.398 301.12C218.398 302.293 218.705 303.24 219.318 303.96C219.931 304.68 220.691 305.227 221.598 305.6C222.531 305.973 223.785 306.373 225.358 306.8C227.171 307.307 228.638 307.813 229.758 308.32C230.878 308.8 231.825 309.547 232.598 310.56C233.371 311.573 233.758 312.933 233.758 314.64C233.758 315.947 233.411 317.187 232.718 318.36C232.025 319.533 230.998 320.48 229.638 321.2C228.278 321.92 226.651 322.28 224.758 322.28ZM255.529 294.04V296.36H247.769V322H244.969V296.36H237.169V294.04H255.529ZM262.75 296.32V306.76H273.35V309.08H262.75V319.68H274.55V322H259.95V294H274.55V296.32H262.75ZM282.867 319.72H292.907V322H280.067V294.04H282.867V319.72ZM299.703 319.72H309.743V322H296.903V294.04H299.703V319.72ZM329.939 315.36H317.219L314.779 322H311.819L322.019 294.4H325.179L335.339 322H332.379L329.939 315.36ZM329.099 313.04L323.579 297.92L318.059 313.04H329.099ZM365.689 322L358.769 310.32H353.609V322H350.809V294.04H359.209C362.329 294.04 364.689 294.787 366.289 296.28C367.916 297.773 368.729 299.733 368.729 302.16C368.729 304.187 368.143 305.92 366.969 307.36C365.823 308.773 364.116 309.693 361.849 310.12L369.049 322H365.689ZM353.609 308.04H359.249C361.436 308.04 363.076 307.507 364.169 306.44C365.289 305.373 365.849 303.947 365.849 302.16C365.849 300.32 365.316 298.907 364.249 297.92C363.183 296.907 361.503 296.4 359.209 296.4H353.609V308.04ZM376.966 294.04V311.64C376.966 314.413 377.619 316.467 378.926 317.8C380.259 319.133 382.073 319.8 384.366 319.8C386.659 319.8 388.446 319.147 389.726 317.84C391.033 316.507 391.686 314.44 391.686 311.64V294.04H394.486V311.6C394.486 315.147 393.539 317.813 391.646 319.6C389.779 321.387 387.339 322.28 384.326 322.28C381.313 322.28 378.859 321.387 376.966 319.6C375.099 317.813 374.166 315.147 374.166 311.6V294.04H376.966ZM403.531 294.04V322H400.731V294.04H403.531ZM411.672 319.52H425.952V322H408.392V319.76L422.472 296.52H408.632V294.04H425.752V296.28L411.672 319.52ZM156.12 368L144 355.08V368H141.2V340.04H144V353.12L156.12 340.04H159.68L146.6 354L159.8 368H156.12ZM166.734 365.72H176.774V368H163.934V340.04H166.734V365.72ZM202.77 348.2C201.97 346.36 200.744 344.92 199.09 343.88C197.464 342.813 195.544 342.28 193.33 342.28C191.25 342.28 189.384 342.76 187.73 343.72C186.077 344.68 184.77 346.053 183.81 347.84C182.85 349.6 182.37 351.653 182.37 354C182.37 356.347 182.85 358.413 183.81 360.2C184.77 361.987 186.077 363.36 187.73 364.32C189.384 365.28 191.25 365.76 193.33 365.76C195.277 365.76 197.024 365.347 198.57 364.52C200.144 363.667 201.397 362.467 202.33 360.92C203.29 359.347 203.837 357.52 203.97 355.44H192.21V353.16H206.93V355.2C206.797 357.653 206.13 359.88 204.93 361.88C203.73 363.853 202.117 365.413 200.09 366.56C198.09 367.707 195.837 368.28 193.33 368.28C190.744 368.28 188.397 367.68 186.29 366.48C184.184 365.253 182.517 363.56 181.29 361.4C180.09 359.213 179.49 356.747 179.49 354C179.49 351.253 180.09 348.8 181.29 346.64C182.517 344.453 184.184 342.76 186.29 341.56C188.397 340.333 190.744 339.72 193.33 339.72C196.317 339.72 198.93 340.467 201.17 341.96C203.41 343.453 205.037 345.533 206.05 348.2H202.77ZM224.619 368.28C222.033 368.28 219.686 367.68 217.579 366.48C215.473 365.253 213.806 363.56 212.579 361.4C211.379 359.213 210.779 356.747 210.779 354C210.779 351.253 211.379 348.8 212.579 346.64C213.806 344.453 215.473 342.76 217.579 341.56C219.686 340.333 222.033 339.72 224.619 339.72C227.233 339.72 229.593 340.333 231.699 341.56C233.806 342.76 235.459 344.453 236.659 346.64C237.859 348.8 238.459 351.253 238.459 354C238.459 356.747 237.859 359.213 236.659 361.4C235.459 363.56 233.806 365.253 231.699 366.48C229.593 367.68 227.233 368.28 224.619 368.28ZM224.619 365.84C226.699 365.84 228.566 365.36 230.219 364.4C231.873 363.44 233.179 362.067 234.139 360.28C235.099 358.467 235.579 356.373 235.579 354C235.579 351.627 235.099 349.547 234.139 347.76C233.179 345.973 231.873 344.6 230.219 343.64C228.566 342.68 226.699 342.2 224.619 342.2C222.539 342.2 220.673 342.68 219.019 343.64C217.366 344.6 216.059 345.973 215.099 347.76C214.139 349.547 213.659 351.627 213.659 354C213.659 356.373 214.139 358.467 215.099 360.28C216.059 362.067 217.366 363.44 219.019 364.4C220.673 365.36 222.539 365.84 224.619 365.84ZM244.063 368.2C243.476 368.2 242.983 368 242.583 367.6C242.209 367.2 242.023 366.707 242.023 366.12C242.023 365.533 242.209 365.053 242.583 364.68C242.983 364.28 243.476 364.08 244.063 364.08C244.623 364.08 245.089 364.28 245.463 364.68C245.863 365.053 246.063 365.533 246.063 366.12C246.063 366.707 245.863 367.2 245.463 367.6C245.089 368 244.623 368.2 244.063 368.2ZM270.105 340.04C273.198 340.04 275.852 340.6 278.065 341.72C280.278 342.84 281.972 344.453 283.145 346.56C284.318 348.667 284.905 351.173 284.905 354.08C284.905 356.96 284.318 359.453 283.145 361.56C281.972 363.64 280.278 365.24 278.065 366.36C275.852 367.453 273.198 368 270.105 368H261.825V340.04H270.105ZM270.105 365.68C273.998 365.68 276.958 364.667 278.985 362.64C281.038 360.587 282.065 357.733 282.065 354.08C282.065 350.4 281.038 347.533 278.985 345.48C276.958 343.4 273.998 342.36 270.105 342.36H264.625V365.68H270.105ZM306.267 361.36H293.547L291.107 368H288.147L298.347 340.4H301.507L311.667 368H308.707L306.267 361.36ZM305.427 359.04L299.907 343.92L294.387 359.04H305.427ZM338.321 340.04L327.721 368H324.521L313.921 340.04H316.961L326.121 364.96L335.361 340.04H338.321ZM345.328 340.04V368H342.528V340.04H345.328ZM359.949 340.04C363.042 340.04 365.695 340.6 367.909 341.72C370.122 342.84 371.815 344.453 372.989 346.56C374.162 348.667 374.749 351.173 374.749 354.08C374.749 356.96 374.162 359.453 372.989 361.56C371.815 363.64 370.122 365.24 367.909 366.36C365.695 367.453 363.042 368 359.949 368H351.669V340.04H359.949ZM359.949 365.68C363.842 365.68 366.802 364.667 368.829 362.64C370.882 360.587 371.909 357.733 371.909 354.08C371.909 350.4 370.882 347.533 368.829 345.48C366.802 343.4 363.842 342.36 359.949 342.36H354.469V365.68H359.949ZM406.008 340.04V342.36H393.688V352.8H404.088V355.12H393.688V368H390.888V340.04H406.008ZM413.414 342.32V352.76H424.014V355.08H413.414V365.68H425.214V368H410.614V340H425.214V342.32H413.414ZM445.611 368L438.691 356.32H433.531V368H430.731V340.04H439.131C442.251 340.04 444.611 340.787 446.211 342.28C447.838 343.773 448.651 345.733 448.651 348.16C448.651 350.187 448.065 351.92 446.891 353.36C445.745 354.773 444.038 355.693 441.771 356.12L448.971 368H445.611ZM433.531 354.04H439.171C441.358 354.04 442.998 353.507 444.091 352.44C445.211 351.373 445.771 349.947 445.771 348.16C445.771 346.32 445.238 344.907 444.171 343.92C443.105 342.907 441.425 342.4 439.131 342.4H433.531V354.04ZM469.088 368L462.168 356.32H457.008V368H454.208V340.04H462.608C465.728 340.04 468.088 340.787 469.688 342.28C471.314 343.773 472.128 345.733 472.128 348.16C472.128 350.187 471.541 351.92 470.368 353.36C469.221 354.773 467.514 355.693 465.248 356.12L472.448 368H469.088ZM457.008 354.04H462.648C464.834 354.04 466.474 353.507 467.568 352.44C468.688 351.373 469.248 349.947 469.248 348.16C469.248 346.32 468.714 344.907 467.648 343.92C466.581 342.907 464.901 342.4 462.608 342.4H457.008V354.04ZM493.884 361.36H481.164L478.724 368H475.764L485.964 340.4H489.124L499.284 368H496.324L493.884 361.36ZM493.044 359.04L487.524 343.92L482.004 359.04H493.044ZM524.858 368H522.058L506.578 344.48V368H503.778V340.04H506.578L522.058 363.52V340.04H524.858V368ZM547.56 340.04V342.36H539.8V368H537V342.36H529.2V340.04H547.56ZM554.781 340.04V368H551.981V340.04H554.781Z" fill="white"/>
<path d="M227.729 237.096C227.219 237.032 226.381 237 225.217 237H222.585C222.154 237 221.764 237.016 221.413 237.048L221.389 237C221.452 236.888 221.484 236.761 221.484 236.617C221.484 236.474 221.468 236.322 221.437 236.163C221.421 236.003 221.357 235.716 221.245 235.301C221.133 234.887 220.958 234.288 220.719 233.507L219.714 230.301L210.813 205.083C211.802 205.147 213.062 205.179 214.594 205.179C216.125 205.179 217.106 205.115 217.537 204.987L224.738 226.736L231.055 205.083C232.012 205.147 233.192 205.179 234.596 205.179C236.51 205.179 237.626 205.115 237.945 204.987L229.212 230.229C229.212 230.229 228.933 231.162 228.375 233.028C227.912 234.623 227.681 235.66 227.681 236.139C227.681 236.601 227.713 236.896 227.777 237.024L227.729 237.096ZM245.291 233.22C243.839 231.832 242.691 230.165 241.845 228.219C241.016 226.273 240.601 224.144 240.601 221.831C240.601 219.502 240.992 217.301 241.773 215.228C242.555 213.154 243.672 211.328 245.123 209.749C246.575 208.169 248.329 206.917 250.387 205.992C252.444 205.051 254.749 204.581 257.301 204.581C261.704 204.581 265.412 205.968 268.427 208.744C271.649 211.71 273.26 215.714 273.26 220.754C273.26 225.635 271.601 229.695 268.283 232.933C266.242 234.926 263.809 236.298 260.986 237.048C259.598 237.415 257.971 237.598 256.105 237.598C254.255 237.598 252.349 237.215 250.387 236.45C248.441 235.684 246.742 234.607 245.291 233.22ZM247.252 221.496C247.252 222.979 247.5 224.343 247.994 225.587C248.489 226.832 249.174 227.9 250.052 228.793C251.918 230.676 254.319 231.617 257.253 231.617C260.045 231.617 262.286 230.715 263.977 228.913C265.699 227.047 266.561 224.503 266.561 221.281C266.561 218.25 265.739 215.722 264.096 213.696C262.326 211.527 259.901 210.442 256.823 210.442C253.84 210.442 251.471 211.543 249.717 213.744C248.074 215.802 247.252 218.386 247.252 221.496ZM293.692 204.581C296.675 204.581 299.219 205.099 301.325 206.136V213.457L301.277 213.505C300.384 212.133 298.501 211.224 295.63 210.777C294.785 210.634 293.716 210.562 292.424 210.562C291.132 210.562 289.864 210.809 288.62 211.304C287.376 211.782 286.355 212.468 285.558 213.361C284.01 215.1 283.237 217.58 283.237 220.802C283.237 224.551 284.218 227.342 286.18 229.176C287.807 230.708 289.96 231.473 292.64 231.473C295.67 231.473 298.127 230.827 300.009 229.535C300.695 229.073 301.277 228.498 301.755 227.812L301.827 227.86V234.56C299.387 236.585 296.101 237.598 291.97 237.598C287.105 237.598 283.293 236.051 280.533 232.957C277.885 230.006 276.562 226.098 276.562 221.233C276.562 216.081 278.013 212.021 280.916 209.055C283.851 206.072 288.11 204.581 293.692 204.581ZM310.177 237.191C308.806 237.064 307.202 237 305.368 237H303.478L313.886 207.834C314.348 206.527 314.58 205.769 314.58 205.562C314.58 205.338 314.572 205.203 314.556 205.155L314.58 205.107C315.616 205.155 316.717 205.179 317.881 205.179C318.838 205.179 319.987 205.163 321.327 205.131L321.351 205.179C321.319 205.243 321.303 205.33 321.303 205.442C321.303 205.745 321.542 206.55 322.021 207.858L332.644 237.072C332.325 237.056 331.95 237.048 331.519 237.048C331.519 237.048 331.104 237.032 330.275 237C329.876 237 329.517 237 329.198 237H325.49L323.241 230.109H312.426L310.177 237.191ZM321.375 224.367L317.762 213.242L314.245 224.367H321.375ZM341.185 237C338.84 237 337.285 237.048 336.52 237.144V205.035C336.902 205.131 337.692 205.179 338.888 205.179C340.1 205.179 341.504 205.147 343.099 205.083V231.258H348.052C349.487 231.258 350.636 231.21 351.497 231.114C351.385 234.847 351.33 236.785 351.33 236.928V237.167C349.766 237.056 347.143 237 343.458 237H341.185ZM373.006 231.258C373.995 231.258 374.681 231.162 375.064 230.971L375.16 230.995L374.92 237H357V205.011C357.431 205.043 357.909 205.067 358.436 205.083L360.11 205.131C361.227 205.163 362.439 205.179 363.747 205.179C367.4 205.179 371.013 205.115 374.585 204.987C374.41 206.391 374.322 208.265 374.322 210.61C374.322 210.865 374.338 211.056 374.37 211.184L374.322 211.256C373.493 211.017 372.312 210.897 370.781 210.897H363.245V216.998H368.915C370.67 216.998 371.722 216.95 372.073 216.854L372.145 222.764C371.379 222.684 370.39 222.645 369.178 222.645H363.245V231.258H373.006ZM400.76 206.949L400.306 213.983L400.138 214.031C398.958 212.261 396.948 211.112 394.109 210.586C393.216 210.41 392.354 210.323 391.525 210.323C390.711 210.323 390.01 210.395 389.419 210.538C388.845 210.682 388.351 210.889 387.936 211.16C387.059 211.734 386.62 212.484 386.62 213.409C386.62 214.621 387.003 215.531 387.769 216.137C388.726 216.87 390.313 217.389 392.53 217.692C394.747 217.979 396.525 218.378 397.865 218.888C399.205 219.399 400.306 220.045 401.167 220.826C402.794 222.294 403.607 224.367 403.607 227.047C403.607 230.556 402.284 233.26 399.636 235.158C397.371 236.785 394.516 237.598 391.07 237.598C388.295 237.598 385.551 237.072 382.84 236.019C381.947 235.668 381.165 235.261 380.495 234.799L380.758 226.808L380.854 226.736C382.832 230.149 386.078 231.856 390.592 231.856C393.798 231.856 395.919 231.082 396.956 229.535C397.307 229.009 397.482 228.427 397.482 227.789C397.482 227.135 397.379 226.6 397.171 226.186C396.964 225.755 396.621 225.388 396.143 225.085C395.217 224.479 393.662 224.072 391.477 223.865C389.292 223.657 387.505 223.267 386.118 222.692C384.73 222.118 383.621 221.408 382.792 220.563C381.293 219.032 380.543 216.894 380.543 214.151C380.543 211.312 381.54 209.015 383.534 207.26C385.559 205.474 388.287 204.581 391.716 204.581C395.162 204.581 398.176 205.37 400.76 206.949Z" fill="white"/>
</svg>
