<svg width="478" height="478" viewBox="0 0 478 478" fill="none" xmlns="http://www.w3.org/2000/svg">
<circle cx="239" cy="239" r="239" fill="#F28F1C"/>
<path d="M158.729 136.096C158.219 136.032 157.381 136 156.217 136H153.585C153.154 136 152.764 136.016 152.413 136.048L152.389 136C152.452 135.888 152.484 135.761 152.484 135.617C152.484 135.474 152.468 135.322 152.437 135.163C152.421 135.003 152.357 134.716 152.245 134.301C152.133 133.887 151.958 133.288 151.719 132.507L150.714 129.301L141.813 104.083C142.802 104.147 144.062 104.179 145.594 104.179C147.125 104.179 148.106 104.115 148.537 103.987L155.738 125.736L162.055 104.083C163.012 104.147 164.192 104.179 165.596 104.179C167.51 104.179 168.626 104.115 168.945 103.987L160.212 129.229C160.212 129.229 159.933 130.162 159.375 132.028C158.912 133.623 158.681 134.66 158.681 135.139C158.681 135.601 158.713 135.896 158.777 136.024L158.729 136.096ZM176.291 132.22C174.839 130.832 173.691 129.165 172.845 127.219C172.016 125.273 171.601 123.144 171.601 120.831C171.601 118.502 171.992 116.301 172.773 114.228C173.555 112.154 174.672 110.328 176.123 108.749C177.575 107.169 179.329 105.917 181.387 104.992C183.444 104.051 185.749 103.581 188.301 103.581C192.704 103.581 196.412 104.968 199.427 107.744C202.649 110.71 204.26 114.714 204.26 119.754C204.26 124.635 202.601 128.695 199.283 131.933C197.242 133.926 194.809 135.298 191.986 136.048C190.598 136.415 188.971 136.598 187.105 136.598C185.255 136.598 183.349 136.215 181.387 135.45C179.441 134.684 177.742 133.607 176.291 132.22ZM178.252 120.496C178.252 121.979 178.5 123.343 178.994 124.587C179.489 125.832 180.174 126.9 181.052 127.793C182.918 129.676 185.319 130.617 188.253 130.617C191.045 130.617 193.286 129.715 194.977 127.913C196.699 126.047 197.561 123.503 197.561 120.281C197.561 117.25 196.739 114.722 195.096 112.696C193.326 110.527 190.901 109.442 187.823 109.442C184.84 109.442 182.471 110.543 180.717 112.744C179.074 114.802 178.252 117.386 178.252 120.496ZM224.692 103.581C227.675 103.581 230.219 104.099 232.325 105.136V112.457L232.277 112.505C231.384 111.133 229.501 110.224 226.63 109.777C225.785 109.634 224.716 109.562 223.424 109.562C222.132 109.562 220.864 109.809 219.62 110.304C218.376 110.782 217.355 111.468 216.558 112.361C215.01 114.1 214.237 116.58 214.237 119.802C214.237 123.551 215.218 126.342 217.18 128.176C218.807 129.708 220.96 130.473 223.64 130.473C226.67 130.473 229.127 129.827 231.009 128.535C231.695 128.073 232.277 127.498 232.755 126.812L232.827 126.86V133.56C230.387 135.585 227.101 136.598 222.97 136.598C218.105 136.598 214.293 135.051 211.533 131.957C208.885 129.006 207.562 125.098 207.562 120.233C207.562 115.081 209.013 111.021 211.916 108.055C214.851 105.072 219.11 103.581 224.692 103.581ZM241.177 136.191C239.806 136.064 238.202 136 236.368 136H234.478L244.886 106.834C245.348 105.527 245.58 104.769 245.58 104.562C245.58 104.338 245.572 104.203 245.556 104.155L245.58 104.107C246.616 104.155 247.717 104.179 248.881 104.179C249.838 104.179 250.987 104.163 252.327 104.131L252.351 104.179C252.319 104.243 252.303 104.33 252.303 104.442C252.303 104.745 252.542 105.55 253.021 106.858L263.644 136.072C263.325 136.056 262.95 136.048 262.519 136.048C262.519 136.048 262.104 136.032 261.275 136C260.876 136 260.517 136 260.198 136H256.49L254.241 129.109H243.426L241.177 136.191ZM252.375 123.367L248.762 112.242L245.245 123.367H252.375ZM272.185 136C269.84 136 268.285 136.048 267.52 136.144V104.035C267.902 104.131 268.692 104.179 269.888 104.179C271.1 104.179 272.504 104.147 274.099 104.083V130.258H279.052C280.487 130.258 281.636 130.21 282.497 130.114C282.385 133.847 282.33 135.785 282.33 135.928V136.167C280.766 136.056 278.143 136 274.458 136H272.185ZM304.006 130.258C304.995 130.258 305.681 130.162 306.064 129.971L306.16 129.995L305.92 136H288V104.011C288.431 104.043 288.909 104.067 289.436 104.083L291.11 104.131C292.227 104.163 293.439 104.179 294.747 104.179C298.4 104.179 302.013 104.115 305.585 103.987C305.41 105.391 305.322 107.265 305.322 109.61C305.322 109.865 305.338 110.056 305.37 110.184L305.322 110.256C304.493 110.017 303.312 109.897 301.781 109.897H294.245V115.998H299.915C301.67 115.998 302.722 115.95 303.073 115.854L303.145 121.764C302.379 121.684 301.39 121.645 300.178 121.645H294.245V130.258H304.006ZM331.76 105.949L331.306 112.983L331.138 113.031C329.958 111.261 327.948 110.112 325.109 109.586C324.216 109.41 323.354 109.323 322.525 109.323C321.711 109.323 321.01 109.395 320.419 109.538C319.845 109.682 319.351 109.889 318.936 110.16C318.059 110.734 317.62 111.484 317.62 112.409C317.62 113.621 318.003 114.531 318.769 115.137C319.726 115.87 321.313 116.389 323.53 116.692C325.747 116.979 327.525 117.378 328.865 117.888C330.205 118.399 331.306 119.045 332.167 119.826C333.794 121.294 334.607 123.367 334.607 126.047C334.607 129.556 333.284 132.26 330.636 134.158C328.371 135.785 325.516 136.598 322.07 136.598C319.295 136.598 316.551 136.072 313.84 135.019C312.947 134.668 312.165 134.261 311.495 133.799L311.758 125.808L311.854 125.736C313.832 129.149 317.078 130.856 321.592 130.856C324.798 130.856 326.919 130.082 327.956 128.535C328.307 128.009 328.482 127.427 328.482 126.789C328.482 126.135 328.379 125.6 328.171 125.186C327.964 124.755 327.621 124.388 327.143 124.085C326.217 123.479 324.662 123.072 322.477 122.865C320.292 122.657 318.505 122.267 317.118 121.692C315.73 121.118 314.621 120.408 313.792 119.563C312.293 118.032 311.543 115.894 311.543 113.151C311.543 110.312 312.54 108.015 314.534 106.26C316.559 104.474 319.287 103.581 322.716 103.581C326.162 103.581 329.176 104.37 331.76 105.949ZM141.79 151.949L141.335 158.983L141.167 159.031C139.987 157.261 137.977 156.112 135.138 155.586C134.245 155.41 133.384 155.323 132.554 155.323C131.741 155.323 131.039 155.395 130.449 155.538C129.875 155.682 129.38 155.889 128.965 156.16C128.088 156.734 127.649 157.484 127.649 158.409C127.649 159.621 128.032 160.531 128.798 161.137C129.755 161.87 131.342 162.389 133.559 162.692C135.776 162.979 137.555 163.378 138.895 163.888C140.234 164.399 141.335 165.045 142.196 165.826C143.823 167.294 144.637 169.367 144.637 172.047C144.637 175.556 143.313 178.26 140.665 180.158C138.4 181.785 135.545 182.598 132.1 182.598C129.324 182.598 126.581 182.072 123.869 181.019C122.976 180.668 122.194 180.261 121.524 179.799L121.788 171.808L121.883 171.736C123.861 175.149 127.107 176.856 131.621 176.856C134.827 176.856 136.949 176.082 137.985 174.535C138.336 174.009 138.512 173.427 138.512 172.789C138.512 172.135 138.408 171.6 138.201 171.186C137.993 170.755 137.65 170.388 137.172 170.085C136.247 169.479 134.692 169.072 132.506 168.865C130.321 168.657 128.535 168.267 127.147 167.692C125.759 167.118 124.651 166.408 123.821 165.563C122.322 164.032 121.572 161.894 121.572 159.151C121.572 156.312 122.569 154.015 124.563 152.26C126.589 150.474 129.316 149.581 132.746 149.581C136.191 149.581 139.206 150.37 141.79 151.949ZM169.28 150.059C170.269 150.139 171.091 150.179 171.745 150.179H173.73C174.4 150.179 175.102 150.115 175.836 149.987V169.774C175.836 173.698 174.648 176.848 172.271 179.225C170.022 181.474 167.199 182.598 163.801 182.598C160.085 182.598 157.078 181.633 154.781 179.703C152.213 177.534 150.929 174.408 150.929 170.324V150.059C152.253 150.139 153.497 150.179 154.662 150.179C155.842 150.179 156.815 150.115 157.581 149.987V170.635C157.581 172.645 158.195 174.208 159.423 175.325C160.571 176.346 162.007 176.856 163.729 176.856C166.282 176.856 167.98 175.548 168.826 172.932C169.129 171.991 169.28 170.827 169.28 169.439V150.059ZM183.42 150.011C185.638 149.724 187.91 149.581 190.239 149.581C194.578 149.581 197.872 150.601 200.121 152.643C202.386 154.669 203.518 157.707 203.518 161.759C203.518 165.38 202.282 168.243 199.81 170.348C197.497 172.326 194.522 173.315 190.885 173.315C190.471 173.315 190.016 173.291 189.521 173.243V182H183.42V150.011ZM190.957 155.347C190.479 155.347 190 155.363 189.521 155.395V167.979C190.032 168.043 190.654 168.075 191.388 168.075C192.121 168.075 192.887 167.924 193.685 167.621C194.482 167.302 195.152 166.863 195.694 166.305C196.827 165.14 197.393 163.609 197.393 161.711C197.393 157.468 195.248 155.347 190.957 155.347ZM213.088 182C210.744 182 209.188 182.048 208.423 182.144V150.035C208.806 150.131 209.595 150.179 210.792 150.179C212.004 150.179 213.407 150.147 215.002 150.083V176.258H219.955C221.391 176.258 222.539 176.21 223.4 176.114C223.289 179.847 223.233 181.785 223.233 181.928V182.167C221.67 182.056 219.046 182 215.361 182H213.088ZM244.91 176.258C245.899 176.258 246.584 176.162 246.967 175.971L247.063 175.995L246.824 182H228.903V150.011C229.334 150.043 229.812 150.067 230.339 150.083L232.014 150.131C233.13 150.163 234.342 150.179 235.65 150.179C239.303 150.179 242.916 150.115 246.489 149.987C246.313 151.391 246.226 153.265 246.226 155.61C246.226 155.865 246.242 156.056 246.273 156.184L246.226 156.256C245.396 156.017 244.216 155.897 242.685 155.897H235.148V161.998H240.818C242.573 161.998 243.626 161.95 243.977 161.854L244.048 167.764C243.283 167.684 242.294 167.645 241.082 167.645H235.148V176.258H244.91ZM253.667 182C253.762 181.458 253.81 180.868 253.81 180.229V150.179H258.595L271.276 170.133V151.806C271.276 150.928 271.196 150.386 271.037 150.179H277.497C277.417 150.817 277.377 151.519 277.377 152.284V182H272.4L259.911 162.835V182H253.667ZM297.475 182.144C296.709 182.048 294.739 182 291.565 182H290.799V155.538H286.062C284.658 155.538 283.829 155.61 283.574 155.753C283.319 155.897 283.119 156.025 282.976 156.136L282.904 156.112V149.987L282.976 149.916C283.502 150.091 284.922 150.179 287.234 150.179H302.236C303.639 150.179 304.469 150.107 304.724 149.963C304.979 149.82 305.179 149.692 305.322 149.581L305.394 149.604V155.729L305.322 155.801C304.796 155.626 303.376 155.538 301.063 155.538H297.475V182.144ZM326.544 176.258C327.533 176.258 328.219 176.162 328.602 175.971L328.698 175.995L328.458 182H310.538V150.011C310.969 150.043 311.447 150.067 311.974 150.083L313.648 150.131C314.765 150.163 315.977 150.179 317.285 150.179C320.938 150.179 324.551 150.115 328.124 149.987C327.948 151.391 327.86 153.265 327.86 155.61C327.86 155.865 327.876 156.056 327.908 156.184L327.86 156.256C327.031 156.017 325.851 155.897 324.319 155.897H316.783V161.998H322.453C324.208 161.998 325.26 161.95 325.611 161.854L325.683 167.764C324.917 167.684 323.929 167.645 322.716 167.645H316.783V176.258H326.544ZM354.298 151.949L353.844 158.983L353.676 159.031C352.496 157.261 350.486 156.112 347.647 155.586C346.754 155.41 345.892 155.323 345.063 155.323C344.25 155.323 343.548 155.395 342.958 155.538C342.383 155.682 341.889 155.889 341.474 156.16C340.597 156.734 340.158 157.484 340.158 158.409C340.158 159.621 340.541 160.531 341.307 161.137C342.264 161.87 343.851 162.389 346.068 162.692C348.285 162.979 350.063 163.378 351.403 163.888C352.743 164.399 353.844 165.045 354.705 165.826C356.332 167.294 357.146 169.367 357.146 172.047C357.146 175.556 355.822 178.26 353.174 180.158C350.909 181.785 348.054 182.598 344.608 182.598C341.833 182.598 339.09 182.072 336.378 181.019C335.485 180.668 334.703 180.261 334.033 179.799L334.296 171.808L334.392 171.736C336.37 175.149 339.616 176.856 344.13 176.856C347.336 176.856 349.457 176.082 350.494 174.535C350.845 174.009 351.021 173.427 351.021 172.789C351.021 172.135 350.917 171.6 350.709 171.186C350.502 170.755 350.159 170.388 349.681 170.085C348.756 169.479 347.2 169.072 345.015 168.865C342.83 168.657 341.043 168.267 339.656 167.692C338.268 167.118 337.16 166.408 336.33 165.563C334.831 164.032 334.081 161.894 334.081 159.151C334.081 156.312 335.078 154.015 337.072 152.26C339.097 150.474 341.825 149.581 345.254 149.581C348.7 149.581 351.714 150.37 354.298 151.949Z" fill="white"/>
<path d="M56.2969 257.72H66.3369V260H53.4969V232.04H56.2969V257.72ZM73.1328 232.04V260H70.3328V232.04H73.1328ZM78.1934 246C78.1934 243.253 78.7934 240.8 79.9934 238.64C81.1934 236.453 82.8334 234.76 84.9134 233.56C86.9934 232.333 89.3134 231.72 91.8734 231.72C94.9934 231.72 97.6601 232.467 99.8734 233.96C102.113 235.427 103.74 237.507 104.753 240.2H101.473C100.673 238.307 99.4468 236.827 97.7934 235.76C96.1668 234.693 94.1934 234.16 91.8734 234.16C89.8201 234.16 87.9668 234.64 86.3134 235.6C84.6868 236.56 83.4068 237.947 82.4734 239.76C81.5401 241.547 81.0734 243.627 81.0734 246C81.0734 248.373 81.5401 250.453 82.4734 252.24C83.4068 254.027 84.6868 255.4 86.3134 256.36C87.9668 257.32 89.8201 257.8 91.8734 257.8C94.1934 257.8 96.1668 257.28 97.7934 256.24C99.4468 255.173 100.673 253.707 101.473 251.84H104.753C103.74 254.507 102.113 256.573 99.8734 258.04C97.6334 259.507 94.9668 260.24 91.8734 260.24C89.3134 260.24 86.9934 259.64 84.9134 258.44C82.8334 257.213 81.1934 255.52 79.9934 253.36C78.7934 251.2 78.1934 248.747 78.1934 246ZM110.813 260.2C110.226 260.2 109.733 260 109.333 259.6C108.959 259.2 108.773 258.707 108.773 258.12C108.773 257.533 108.959 257.053 109.333 256.68C109.733 256.28 110.226 256.08 110.813 256.08C111.373 256.08 111.839 256.28 112.213 256.68C112.613 257.053 112.813 257.533 112.813 258.12C112.813 258.707 112.613 259.2 112.213 259.6C111.839 260 111.373 260.2 110.813 260.2ZM136.855 232.04C139.948 232.04 142.602 232.6 144.815 233.72C147.028 234.84 148.722 236.453 149.895 238.56C151.068 240.667 151.655 243.173 151.655 246.08C151.655 248.96 151.068 251.453 149.895 253.56C148.722 255.64 147.028 257.24 144.815 258.36C142.602 259.453 139.948 260 136.855 260H128.575V232.04H136.855ZM136.855 257.68C140.748 257.68 143.708 256.667 145.735 254.64C147.788 252.587 148.815 249.733 148.815 246.08C148.815 242.4 147.788 239.533 145.735 237.48C143.708 235.4 140.748 234.36 136.855 234.36H131.375V257.68H136.855ZM173.017 253.36H160.297L157.857 260H154.897L165.097 232.4H168.257L178.417 260H175.457L173.017 253.36ZM172.177 251.04L166.657 235.92L161.137 251.04H172.177ZM203.991 260H201.191L185.711 236.48V260H182.911V232.04H185.711L201.191 255.52V232.04H203.991V260ZM213.133 232.04V260H210.333V232.04H213.133ZM222.273 234.32V244.76H232.873V247.08H222.273V257.68H234.073V260H219.473V232H234.073V234.32H222.273ZM242.391 257.72H252.431V260H239.591V232.04H242.391V257.72ZM272.627 253.36H259.907L257.467 260H254.507L264.707 232.4H267.867L278.027 260H275.067L272.627 253.36ZM271.787 251.04L266.267 235.92L260.747 251.04H271.787ZM320.817 232.4V260H318.017V237.96L308.177 260H306.137L296.297 238.04V260H293.497V232.4H296.457L307.137 256.32L317.817 232.4H320.817ZM339.729 260.28C337.142 260.28 334.795 259.68 332.689 258.48C330.582 257.253 328.915 255.56 327.689 253.4C326.489 251.213 325.889 248.747 325.889 246C325.889 243.253 326.489 240.8 327.689 238.64C328.915 236.453 330.582 234.76 332.689 233.56C334.795 232.333 337.142 231.72 339.729 231.72C342.342 231.72 344.702 232.333 346.809 233.56C348.915 234.76 350.569 236.453 351.769 238.64C352.969 240.8 353.569 243.253 353.569 246C353.569 248.747 352.969 251.213 351.769 253.4C350.569 255.56 348.915 257.253 346.809 258.48C344.702 259.68 342.342 260.28 339.729 260.28ZM339.729 257.84C341.809 257.84 343.675 257.36 345.329 256.4C346.982 255.44 348.289 254.067 349.249 252.28C350.209 250.467 350.689 248.373 350.689 246C350.689 243.627 350.209 241.547 349.249 239.76C348.289 237.973 346.982 236.6 345.329 235.64C343.675 234.68 341.809 234.2 339.729 234.2C337.649 234.2 335.782 234.68 334.129 235.64C332.475 236.6 331.169 237.973 330.209 239.76C329.249 241.547 328.769 243.627 328.769 246C328.769 248.373 329.249 250.467 330.209 252.28C331.169 254.067 332.475 255.44 334.129 256.4C335.782 257.36 337.649 257.84 339.729 257.84ZM379.772 260H376.972L361.492 236.48V260H358.692V232.04H361.492L376.972 255.52V232.04H379.772V260ZM402.474 232.04V234.36H394.714V260H391.914V234.36H384.114V232.04H402.474ZM409.695 234.32V244.76H420.295V247.08H409.695V257.68H421.495V260H406.895V232H421.495V234.32H409.695ZM435.493 260.28C433.653 260.28 432.026 259.96 430.613 259.32C429.226 258.68 428.133 257.787 427.333 256.64C426.533 255.493 426.106 254.213 426.053 252.8H429.013C429.146 254.16 429.746 255.36 430.813 256.4C431.879 257.413 433.439 257.92 435.493 257.92C437.386 257.92 438.879 257.44 439.973 256.48C441.093 255.493 441.653 254.253 441.653 252.76C441.653 251.56 441.346 250.6 440.733 249.88C440.119 249.133 439.359 248.587 438.453 248.24C437.546 247.867 436.293 247.467 434.693 247.04C432.826 246.533 431.346 246.04 430.253 245.56C429.159 245.08 428.226 244.333 427.453 243.32C426.679 242.307 426.293 240.933 426.293 239.2C426.293 237.76 426.666 236.48 427.413 235.36C428.159 234.213 429.213 233.32 430.573 232.68C431.933 232.04 433.493 231.72 435.253 231.72C437.839 231.72 439.919 232.36 441.493 233.64C443.093 234.893 444.013 236.52 444.253 238.52H441.213C441.026 237.373 440.399 236.36 439.333 235.48C438.266 234.573 436.826 234.12 435.013 234.12C433.333 234.12 431.933 234.573 430.813 235.48C429.693 236.36 429.133 237.573 429.133 239.12C429.133 240.293 429.439 241.24 430.053 241.96C430.666 242.68 431.426 243.227 432.333 243.6C433.266 243.973 434.519 244.373 436.093 244.8C437.906 245.307 439.373 245.813 440.493 246.32C441.613 246.8 442.559 247.547 443.333 248.56C444.106 249.573 444.493 250.933 444.493 252.64C444.493 253.947 444.146 255.187 443.453 256.36C442.759 257.533 441.733 258.48 440.373 259.2C439.013 259.92 437.386 260.28 435.493 260.28ZM80.3984 303.72H90.4384V306H77.5984V278.04H80.3984V303.72ZM97.2344 278.04V306H94.4344V278.04H97.2344ZM102.295 292C102.295 289.253 102.895 286.8 104.095 284.64C105.295 282.453 106.935 280.76 109.015 279.56C111.095 278.333 113.415 277.72 115.975 277.72C119.095 277.72 121.762 278.467 123.975 279.96C126.215 281.427 127.842 283.507 128.855 286.2H125.575C124.775 284.307 123.548 282.827 121.895 281.76C120.268 280.693 118.295 280.16 115.975 280.16C113.922 280.16 112.068 280.64 110.415 281.6C108.788 282.56 107.508 283.947 106.575 285.76C105.642 287.547 105.175 289.627 105.175 292C105.175 294.373 105.642 296.453 106.575 298.24C107.508 300.027 108.788 301.4 110.415 302.36C112.068 303.32 113.922 303.8 115.975 303.8C118.295 303.8 120.268 303.28 121.895 302.24C123.548 301.173 124.775 299.707 125.575 297.84H128.855C127.842 300.507 126.215 302.573 123.975 304.04C121.735 305.507 119.068 306.24 115.975 306.24C113.415 306.24 111.095 305.64 109.015 304.44C106.935 303.213 105.295 301.52 104.095 299.36C102.895 297.2 102.295 294.747 102.295 292ZM134.914 306.2C134.328 306.2 133.834 306 133.434 305.6C133.061 305.2 132.874 304.707 132.874 304.12C132.874 303.533 133.061 303.053 133.434 302.68C133.834 302.28 134.328 302.08 134.914 302.08C135.474 302.08 135.941 302.28 136.314 302.68C136.714 303.053 136.914 303.533 136.914 304.12C136.914 304.707 136.714 305.2 136.314 305.6C135.941 306 135.474 306.2 134.914 306.2ZM155.477 280.32V290.76H166.077V293.08H155.477V303.68H167.277V306H152.677V278H167.277V280.32H155.477ZM163.117 271.96L154.917 276.72V274.56L163.117 269.44V271.96ZM187.674 306L180.754 294.32H175.594V306H172.794V278.04H181.194C184.314 278.04 186.674 278.787 188.274 280.28C189.9 281.773 190.714 283.733 190.714 286.16C190.714 288.187 190.127 289.92 188.954 291.36C187.807 292.773 186.1 293.693 183.834 294.12L191.034 306H187.674ZM175.594 292.04H181.234C183.42 292.04 185.06 291.507 186.154 290.44C187.274 289.373 187.834 287.947 187.834 286.16C187.834 284.32 187.3 282.907 186.234 281.92C185.167 280.907 183.487 280.4 181.194 280.4H175.594V292.04ZM199.07 278.04V306H196.27V278.04H199.07ZM204.131 292C204.131 289.253 204.731 286.8 205.931 284.64C207.131 282.453 208.771 280.76 210.851 279.56C212.931 278.333 215.251 277.72 217.811 277.72C220.931 277.72 223.598 278.467 225.811 279.96C228.051 281.427 229.678 283.507 230.691 286.2H227.411C226.611 284.307 225.384 282.827 223.731 281.76C222.104 280.693 220.131 280.16 217.811 280.16C215.758 280.16 213.904 280.64 212.251 281.6C210.624 282.56 209.344 283.947 208.411 285.76C207.478 287.547 207.011 289.627 207.011 292C207.011 294.373 207.478 296.453 208.411 298.24C209.344 300.027 210.624 301.4 212.251 302.36C213.904 303.32 215.758 303.8 217.811 303.8C220.131 303.8 222.104 303.28 223.731 302.24C225.384 301.173 226.611 299.707 227.411 297.84H230.691C229.678 300.507 228.051 302.573 225.811 304.04C223.571 305.507 220.904 306.24 217.811 306.24C215.251 306.24 212.931 305.64 210.851 304.44C208.771 303.213 207.131 301.52 205.931 299.36C204.731 297.2 204.131 294.747 204.131 292ZM252.47 299.36H239.75L237.31 306H234.35L244.55 278.4H247.71L257.87 306H254.91L252.47 299.36ZM251.63 297.04L246.11 281.92L240.59 297.04H251.63ZM300.661 278.4V306H297.861V283.96L288.021 306H285.981L276.141 284.04V306H273.341V278.4H276.301L286.981 302.32L297.661 278.4H300.661ZM319.573 306.28C316.986 306.28 314.639 305.68 312.533 304.48C310.426 303.253 308.759 301.56 307.533 299.4C306.333 297.213 305.733 294.747 305.733 292C305.733 289.253 306.333 286.8 307.533 284.64C308.759 282.453 310.426 280.76 312.533 279.56C314.639 278.333 316.986 277.72 319.573 277.72C322.186 277.72 324.546 278.333 326.653 279.56C328.759 280.76 330.413 282.453 331.613 284.64C332.813 286.8 333.413 289.253 333.413 292C333.413 294.747 332.813 297.213 331.613 299.4C330.413 301.56 328.759 303.253 326.653 304.48C324.546 305.68 322.186 306.28 319.573 306.28ZM319.573 303.84C321.653 303.84 323.519 303.36 325.173 302.4C326.826 301.44 328.133 300.067 329.093 298.28C330.053 296.467 330.533 294.373 330.533 292C330.533 289.627 330.053 287.547 329.093 285.76C328.133 283.973 326.826 282.6 325.173 281.64C323.519 280.68 321.653 280.2 319.573 280.2C317.493 280.2 315.626 280.68 313.973 281.64C312.319 282.6 311.013 283.973 310.053 285.76C309.093 287.547 308.613 289.627 308.613 292C308.613 294.373 309.093 296.467 310.053 298.28C311.013 300.067 312.319 301.44 313.973 302.4C315.626 303.36 317.493 303.84 319.573 303.84ZM347.016 306.28C345.176 306.28 343.549 305.96 342.136 305.32C340.749 304.68 339.656 303.787 338.856 302.64C338.056 301.493 337.629 300.213 337.576 298.8H340.536C340.669 300.16 341.269 301.36 342.336 302.4C343.403 303.413 344.963 303.92 347.016 303.92C348.909 303.92 350.403 303.44 351.496 302.48C352.616 301.493 353.176 300.253 353.176 298.76C353.176 297.56 352.869 296.6 352.256 295.88C351.643 295.133 350.883 294.587 349.976 294.24C349.069 293.867 347.816 293.467 346.216 293.04C344.349 292.533 342.869 292.04 341.776 291.56C340.683 291.08 339.749 290.333 338.976 289.32C338.203 288.307 337.816 286.933 337.816 285.2C337.816 283.76 338.189 282.48 338.936 281.36C339.683 280.213 340.736 279.32 342.096 278.68C343.456 278.04 345.016 277.72 346.776 277.72C349.363 277.72 351.443 278.36 353.016 279.64C354.616 280.893 355.536 282.52 355.776 284.52H352.736C352.549 283.373 351.923 282.36 350.856 281.48C349.789 280.573 348.349 280.12 346.536 280.12C344.856 280.12 343.456 280.573 342.336 281.48C341.216 282.36 340.656 283.573 340.656 285.12C340.656 286.293 340.963 287.24 341.576 287.96C342.189 288.68 342.949 289.227 343.856 289.6C344.789 289.973 346.043 290.373 347.616 290.8C349.429 291.307 350.896 291.813 352.016 292.32C353.136 292.8 354.083 293.547 354.856 294.56C355.629 295.573 356.016 296.933 356.016 298.64C356.016 299.947 355.669 301.187 354.976 302.36C354.283 303.533 353.256 304.48 351.896 305.2C350.536 305.92 348.909 306.28 347.016 306.28ZM364.227 280.32V290.76H374.827V293.08H364.227V303.68H376.027V306H361.427V278H376.027V280.32H364.227ZM396.424 306L389.504 294.32H384.344V306H381.544V278.04H389.944C393.064 278.04 395.424 278.787 397.024 280.28C398.65 281.773 399.464 283.733 399.464 286.16C399.464 288.187 398.877 289.92 397.704 291.36C396.557 292.773 394.85 293.693 392.584 294.12L399.784 306H396.424ZM384.344 292.04H389.984C392.17 292.04 393.81 291.507 394.904 290.44C396.024 289.373 396.584 287.947 396.584 286.16C396.584 284.32 396.05 282.907 394.984 281.92C393.917 280.907 392.237 280.4 389.944 280.4H384.344V292.04ZM421.38 278.04V280.36H413.62V306H410.82V280.36H403.02V278.04H421.38Z" fill="white"/>
</svg>
