<svg width="750" height="745" viewBox="0 0 750 745" fill="none" xmlns="http://www.w3.org/2000/svg">
<path d="M628.313 380.839C642.331 395.144 633.693 419.314 613.783 421.494L51.4249 483.063C32.0394 485.185 18.3501 464.527 27.8602 447.502L253.945 42.7597C261.759 28.7708 280.825 26.2216 292.039 37.6663L628.313 380.839Z" fill="#F28F1C"/>
<path d="M192.436 234.191C191.064 234.064 189.461 234 187.627 234H185.737L196.145 204.834C196.607 203.527 196.838 202.769 196.838 202.562C196.838 202.338 196.83 202.203 196.814 202.155L196.838 202.107C197.875 202.155 198.976 202.179 200.14 202.179C201.097 202.179 202.246 202.163 203.585 202.131L203.609 202.179C203.577 202.243 203.562 202.33 203.562 202.442C203.562 202.745 203.801 203.55 204.279 204.858L214.902 234.072C214.583 234.056 214.208 234.048 213.778 234.048C213.778 234.048 213.363 234.032 212.534 234C212.135 234 211.776 234 211.457 234H207.749L205.5 227.109H194.685L192.436 234.191ZM203.633 221.367L200.021 210.242L196.503 221.367H203.633ZM237.991 203.949L237.536 210.983L237.369 211.031C236.188 209.261 234.179 208.112 231.339 207.586C230.446 207.41 229.585 207.323 228.755 207.323C227.942 207.323 227.24 207.395 226.65 207.538C226.076 207.682 225.581 207.889 225.167 208.16C224.289 208.734 223.851 209.484 223.851 210.409C223.851 211.621 224.233 212.531 224.999 213.137C225.956 213.87 227.543 214.389 229.76 214.692C231.977 214.979 233.756 215.378 235.096 215.888C236.436 216.399 237.536 217.045 238.397 217.826C240.024 219.294 240.838 221.367 240.838 224.047C240.838 227.556 239.514 230.26 236.866 232.158C234.601 233.785 231.746 234.598 228.301 234.598C225.525 234.598 222.782 234.072 220.07 233.019C219.177 232.668 218.396 232.261 217.726 231.799L217.989 223.808L218.084 223.736C220.062 227.149 223.308 228.856 227.822 228.856C231.028 228.856 233.15 228.082 234.187 226.535C234.537 226.009 234.713 225.427 234.713 224.789C234.713 224.135 234.609 223.6 234.402 223.186C234.194 222.755 233.852 222.388 233.373 222.085C232.448 221.479 230.893 221.072 228.708 220.865C226.522 220.657 224.736 220.267 223.348 219.692C221.96 219.118 220.852 218.408 220.022 217.563C218.523 216.032 217.773 213.894 217.773 211.151C217.773 208.312 218.77 206.015 220.764 204.26C222.79 202.474 225.517 201.581 228.947 201.581C232.392 201.581 235.407 202.37 237.991 203.949ZM263.352 228.258C264.341 228.258 265.027 228.162 265.41 227.971L265.505 227.995L265.266 234H247.346V202.011C247.776 202.043 248.255 202.067 248.781 202.083L250.456 202.131C251.573 202.163 252.785 202.179 254.093 202.179C257.745 202.179 261.358 202.115 264.931 201.987C264.756 203.391 264.668 205.265 264.668 207.61C264.668 207.865 264.684 208.056 264.716 208.184L264.668 208.256C263.839 208.017 262.658 207.897 261.127 207.897H253.59V213.998H259.261C261.015 213.998 262.068 213.95 262.419 213.854L262.491 219.764C261.725 219.684 260.736 219.645 259.524 219.645H253.59V228.258H263.352ZM291.106 203.949L290.651 210.983L290.484 211.031C289.304 209.261 287.294 208.112 284.455 207.586C283.561 207.41 282.7 207.323 281.871 207.323C281.057 207.323 280.355 207.395 279.765 207.538C279.191 207.682 278.696 207.889 278.282 208.16C277.404 208.734 276.966 209.484 276.966 210.409C276.966 211.621 277.349 212.531 278.114 213.137C279.071 213.87 280.658 214.389 282.875 214.692C285.093 214.979 286.871 215.378 288.211 215.888C289.551 216.399 290.651 217.045 291.513 217.826C293.14 219.294 293.953 221.367 293.953 224.047C293.953 227.556 292.629 230.26 289.981 232.158C287.716 233.785 284.861 234.598 281.416 234.598C278.641 234.598 275.897 234.072 273.186 233.019C272.292 232.668 271.511 232.261 270.841 231.799L271.104 223.808L271.2 223.736C273.178 227.149 276.424 228.856 280.938 228.856C284.144 228.856 286.265 228.082 287.302 226.535C287.653 226.009 287.828 225.427 287.828 224.789C287.828 224.135 287.724 223.6 287.517 223.186C287.31 222.755 286.967 222.388 286.488 222.085C285.563 221.479 284.008 221.072 281.823 220.865C279.638 220.657 277.851 220.267 276.463 219.692C275.076 219.118 273.967 218.408 273.138 217.563C271.638 216.032 270.889 213.894 270.889 211.151C270.889 208.312 271.886 206.015 273.879 204.26C275.905 202.474 278.633 201.581 282.062 201.581C285.507 201.581 288.522 202.37 291.106 203.949ZM303.069 230.22C301.617 228.832 300.469 227.165 299.624 225.219C298.794 223.273 298.379 221.144 298.379 218.831C298.379 216.502 298.77 214.301 299.552 212.228C300.333 210.154 301.45 208.328 302.901 206.749C304.353 205.169 306.107 203.917 308.165 202.992C310.223 202.051 312.528 201.581 315.08 201.581C319.482 201.581 323.19 202.968 326.205 205.744C329.427 208.71 331.038 212.714 331.038 217.754C331.038 222.635 329.379 226.695 326.062 229.933C324.02 231.926 321.587 233.298 318.764 234.048C317.376 234.415 315.75 234.598 313.883 234.598C312.033 234.598 310.127 234.215 308.165 233.45C306.219 232.684 304.52 231.607 303.069 230.22ZM305.031 218.496C305.031 219.979 305.278 221.343 305.772 222.587C306.267 223.832 306.953 224.9 307.83 225.793C309.696 227.676 312.097 228.617 315.032 228.617C317.823 228.617 320.064 227.715 321.755 225.913C323.478 224.047 324.339 221.503 324.339 218.281C324.339 215.25 323.517 212.722 321.875 210.696C320.104 208.527 317.68 207.442 314.601 207.442C311.618 207.442 309.25 208.543 307.495 210.744C305.852 212.802 305.031 215.386 305.031 218.496ZM347.499 221.63C347.021 221.662 346.51 221.678 345.968 221.678C345.425 221.678 344.62 221.638 343.551 221.559V234H337.211V202.011C339.444 201.724 342.188 201.581 345.441 201.581C349.876 201.581 353.177 202.402 355.347 204.045C357.532 205.672 358.625 208.192 358.625 211.605C358.625 214.253 357.628 216.518 355.634 218.4C354.98 219.007 354.23 219.533 353.385 219.979L358.266 230.268C359.223 232.389 359.956 233.649 360.467 234.048L360.347 234.167C358.8 233.912 356.368 233.92 353.05 234.191L347.499 221.63ZM345.896 207.227C345.083 207.227 344.301 207.267 343.551 207.347V216.486C344.333 216.598 345.25 216.654 346.303 216.654C347.355 216.654 348.241 216.566 348.958 216.391C349.676 216.199 350.298 215.912 350.825 215.529C351.957 214.684 352.523 213.416 352.523 211.725C352.523 210.034 351.933 208.846 350.753 208.16C349.652 207.538 348.033 207.227 345.896 207.227ZM381.785 228.258C382.774 228.258 383.459 228.162 383.842 227.971L383.938 227.995L383.699 234H365.778V202.011C366.209 202.043 366.688 202.067 367.214 202.083L368.889 202.131C370.005 202.163 371.217 202.179 372.525 202.179C376.178 202.179 379.791 202.115 383.364 201.987C383.188 203.391 383.101 205.265 383.101 207.61C383.101 207.865 383.117 208.056 383.148 208.184L383.101 208.256C382.271 208.017 381.091 207.897 379.56 207.897H372.023V213.998H377.693C379.448 213.998 380.501 213.95 380.852 213.854L380.923 219.764C380.158 219.684 379.169 219.645 377.957 219.645H372.023V228.258H381.785ZM409.539 203.949L409.084 210.983L408.917 211.031C407.736 209.261 405.726 208.112 402.887 207.586C401.994 207.41 401.133 207.323 400.303 207.323C399.49 207.323 398.788 207.395 398.198 207.538C397.624 207.682 397.129 207.889 396.714 208.16C395.837 208.734 395.398 209.484 395.398 210.409C395.398 211.621 395.781 212.531 396.547 213.137C397.504 213.87 399.091 214.389 401.308 214.692C403.525 214.979 405.304 215.378 406.644 215.888C407.983 216.399 409.084 217.045 409.945 217.826C411.572 219.294 412.386 221.367 412.386 224.047C412.386 227.556 411.062 230.26 408.414 232.158C406.149 233.785 403.294 234.598 399.849 234.598C397.073 234.598 394.33 234.072 391.618 233.019C390.725 232.668 389.943 232.261 389.273 231.799L389.537 223.808L389.632 223.736C391.61 227.149 394.856 228.856 399.37 228.856C402.576 228.856 404.698 228.082 405.734 226.535C406.085 226.009 406.261 225.427 406.261 224.789C406.261 224.135 406.157 223.6 405.95 223.186C405.742 222.755 405.399 222.388 404.921 222.085C403.996 221.479 402.441 221.072 400.255 220.865C398.07 220.657 396.284 220.267 394.896 219.692C393.508 219.118 392.4 218.408 391.57 217.563C390.071 216.032 389.321 213.894 389.321 211.151C389.321 208.312 390.318 206.015 392.312 204.26C394.338 202.474 397.065 201.581 400.495 201.581C403.94 201.581 406.955 202.37 409.539 203.949Z" fill="white"/>
<path d="M201.909 298.04V319.2C201.909 321.333 201.256 323.053 199.949 324.36C198.642 325.64 196.896 326.28 194.709 326.28C192.442 326.28 190.629 325.6 189.269 324.24C187.936 322.853 187.269 320.987 187.269 318.64H190.109C190.136 320.16 190.509 321.4 191.229 322.36C191.976 323.32 193.136 323.8 194.709 323.8C196.202 323.8 197.309 323.36 198.029 322.48C198.749 321.6 199.109 320.507 199.109 319.2V298.04H201.909ZM225.15 319.36H212.43L209.99 326H207.03L217.23 298.4H220.39L230.55 326H227.59L225.15 319.36ZM224.31 317.04L218.79 301.92L213.27 317.04H224.31ZM257.204 298.04L246.604 326H243.404L232.804 298.04H235.844L245.004 322.96L254.244 298.04H257.204ZM264.211 298.04V326H261.411V298.04H264.211ZM273.352 300.32V310.76H283.952V313.08H273.352V323.68H285.152V326H270.552V298H285.152V300.32H273.352ZM305.549 326L298.629 314.32H293.469V326H290.669V298.04H299.069C302.189 298.04 304.549 298.787 306.149 300.28C307.775 301.773 308.589 303.733 308.589 306.16C308.589 308.187 308.002 309.92 306.829 311.36C305.682 312.773 303.975 313.693 301.709 314.12L308.909 326H305.549ZM293.469 312.04H299.109C301.295 312.04 302.935 311.507 304.029 310.44C305.149 309.373 305.709 307.947 305.709 306.16C305.709 304.32 305.175 302.907 304.109 301.92C303.042 300.907 301.362 300.4 299.069 300.4H293.469V312.04ZM347.122 306.2C346.322 304.36 345.095 302.92 343.442 301.88C341.815 300.813 339.895 300.28 337.682 300.28C335.602 300.28 333.735 300.76 332.082 301.72C330.429 302.68 329.122 304.053 328.162 305.84C327.202 307.6 326.722 309.653 326.722 312C326.722 314.347 327.202 316.413 328.162 318.2C329.122 319.987 330.429 321.36 332.082 322.32C333.735 323.28 335.602 323.76 337.682 323.76C339.629 323.76 341.375 323.347 342.922 322.52C344.495 321.667 345.749 320.467 346.682 318.92C347.642 317.347 348.189 315.52 348.322 313.44H336.562V311.16H351.282V313.2C351.149 315.653 350.482 317.88 349.282 319.88C348.082 321.853 346.469 323.413 344.442 324.56C342.442 325.707 340.189 326.28 337.682 326.28C335.095 326.28 332.749 325.68 330.642 324.48C328.535 323.253 326.869 321.56 325.642 319.4C324.442 317.213 323.842 314.747 323.842 312C323.842 309.253 324.442 306.8 325.642 304.64C326.869 302.453 328.535 300.76 330.642 299.56C332.749 298.333 335.095 297.72 337.682 297.72C340.669 297.72 343.282 298.467 345.522 299.96C347.762 301.453 349.389 303.533 350.402 306.2H347.122ZM372.611 319.36H359.891L357.451 326H354.491L364.691 298.4H367.851L378.011 326H375.051L372.611 319.36ZM371.771 317.04L366.251 301.92L360.731 317.04H371.771ZM397.385 326L390.465 314.32H385.305V326H382.505V298.04H390.905C394.025 298.04 396.385 298.787 397.985 300.28C399.611 301.773 400.425 303.733 400.425 306.16C400.425 308.187 399.838 309.92 398.665 311.36C397.518 312.773 395.811 313.693 393.545 314.12L400.745 326H397.385ZM385.305 312.04H390.945C393.131 312.04 394.771 311.507 395.865 310.44C396.985 309.373 397.545 307.947 397.545 306.16C397.545 304.32 397.011 302.907 395.945 301.92C394.878 300.907 393.198 300.4 390.905 300.4H385.305V312.04ZM419.061 311.56C420.635 311.853 421.968 312.653 423.061 313.96C424.155 315.267 424.701 316.787 424.701 318.52C424.701 319.933 424.341 321.213 423.621 322.36C422.928 323.48 421.901 324.373 420.541 325.04C419.181 325.68 417.555 326 415.661 326H405.981V298.04H415.381C418.208 298.04 420.355 298.693 421.821 300C423.315 301.307 424.061 303 424.061 305.08C424.061 306.813 423.595 308.227 422.661 309.32C421.728 310.387 420.528 311.133 419.061 311.56ZM408.781 310.4H415.301C417.195 310.4 418.648 309.96 419.661 309.08C420.701 308.173 421.221 306.933 421.221 305.36C421.221 303.813 420.701 302.6 419.661 301.72C418.648 300.84 417.155 300.4 415.181 300.4H408.781V310.4ZM415.461 323.64C417.488 323.64 419.061 323.16 420.181 322.2C421.328 321.24 421.901 319.92 421.901 318.24C421.901 316.56 421.301 315.227 420.101 314.24C418.928 313.227 417.341 312.72 415.341 312.72H408.781V323.64H415.461ZM432.648 298.04V326H429.848V298.04H432.648ZM460.069 326H457.269L441.789 302.48V326H438.989V298.04H441.789L457.269 321.52V298.04H460.069V326ZM120.402 346.32V356.76H131.002V359.08H120.402V369.68H132.202V372H117.602V344H132.202V346.32H120.402ZM165.04 344.4V372H162.24V349.96L152.4 372H150.36L140.52 350.04V372H137.72V344.4H140.68L151.36 368.32L162.04 344.4H165.04ZM174.191 344.04V372H171.391V344.04H174.191ZM183.332 369.72H193.372V372H180.532V344.04H183.332V369.72ZM200.168 344.04V372H197.368V344.04H200.168ZM219.069 372.28C216.482 372.28 214.135 371.68 212.029 370.48C209.922 369.253 208.255 367.56 207.029 365.4C205.829 363.213 205.229 360.747 205.229 358C205.229 355.253 205.829 352.8 207.029 350.64C208.255 348.453 209.922 346.76 212.029 345.56C214.135 344.333 216.482 343.72 219.069 343.72C221.682 343.72 224.042 344.333 226.149 345.56C228.255 346.76 229.909 348.453 231.109 350.64C232.309 352.8 232.909 355.253 232.909 358C232.909 360.747 232.309 363.213 231.109 365.4C229.909 367.56 228.255 369.253 226.149 370.48C224.042 371.68 221.682 372.28 219.069 372.28ZM219.069 369.84C221.149 369.84 223.015 369.36 224.669 368.4C226.322 367.44 227.629 366.067 228.589 364.28C229.549 362.467 230.029 360.373 230.029 358C230.029 355.627 229.549 353.547 228.589 351.76C227.629 349.973 226.322 348.6 224.669 347.64C223.015 346.68 221.149 346.2 219.069 346.2C216.989 346.2 215.122 346.68 213.469 347.64C211.815 348.6 210.509 349.973 209.549 351.76C208.589 353.547 208.109 355.627 208.109 358C208.109 360.373 208.589 362.467 209.549 364.28C210.509 366.067 211.815 367.44 213.469 368.4C215.122 369.36 216.989 369.84 219.069 369.84ZM271.169 344.04L260.569 372H257.369L246.769 344.04H249.809L258.969 368.96L268.209 344.04H271.169ZM291.576 365.36H278.856L276.416 372H273.456L283.656 344.4H286.816L296.976 372H294.016L291.576 365.36ZM290.736 363.04L285.216 347.92L279.696 363.04H290.736ZM303.27 369.52H317.55V372H299.99V369.76L314.07 346.52H300.23V344.04H317.35V346.28L303.27 369.52ZM345.565 377.48L339.325 371.68C337.965 372.08 336.538 372.28 335.045 372.28C332.458 372.28 330.112 371.68 328.005 370.48C325.898 369.253 324.232 367.56 323.005 365.4C321.805 363.213 321.205 360.747 321.205 358C321.205 355.253 321.805 352.8 323.005 350.64C324.232 348.453 325.898 346.76 328.005 345.56C330.112 344.333 332.458 343.72 335.045 343.72C337.658 343.72 340.018 344.333 342.125 345.56C344.232 346.76 345.885 348.453 347.085 350.64C348.285 352.8 348.885 355.253 348.885 358C348.885 360.827 348.258 363.347 347.005 365.56C345.752 367.747 344.032 369.427 341.845 370.6L349.325 377.48H345.565ZM324.085 358C324.085 360.373 324.565 362.467 325.525 364.28C326.485 366.067 327.792 367.44 329.445 368.4C331.098 369.36 332.965 369.84 335.045 369.84C337.125 369.84 338.992 369.36 340.645 368.4C342.298 367.44 343.605 366.067 344.565 364.28C345.525 362.467 346.005 360.373 346.005 358C346.005 355.627 345.525 353.547 344.565 351.76C343.605 349.973 342.298 348.6 340.645 347.64C338.992 346.68 337.125 346.2 335.045 346.2C332.965 346.2 331.098 346.68 329.445 347.64C327.792 348.6 326.485 349.973 325.525 351.76C324.565 353.547 324.085 355.627 324.085 358ZM356.728 344.04V361.64C356.728 364.413 357.381 366.467 358.688 367.8C360.021 369.133 361.834 369.8 364.128 369.8C366.421 369.8 368.208 369.147 369.488 367.84C370.794 366.507 371.448 364.44 371.448 361.64V344.04H374.248V361.6C374.248 365.147 373.301 367.813 371.408 369.6C369.541 371.387 367.101 372.28 364.088 372.28C361.074 372.28 358.621 371.387 356.728 369.6C354.861 367.813 353.928 365.147 353.928 361.6V344.04H356.728ZM383.293 346.32V356.76H393.893V359.08H383.293V369.68H395.093V372H380.493V344H395.093V346.32H383.293ZM402.41 369.52H416.69V372H399.13V369.76L413.21 346.52H399.37V344.04H416.49V346.28L402.41 369.52ZM454.762 344.04L444.162 372H440.962L430.362 344.04H433.402L442.562 368.96L451.802 344.04H454.762ZM461.77 344.04V372H458.97V344.04H461.77ZM470.91 346.32V356.76H481.51V359.08H470.91V369.68H482.71V372H468.11V344H482.71V346.32H470.91ZM503.107 372L496.187 360.32H491.027V372H488.227V344.04H496.627C499.747 344.04 502.107 344.787 503.707 346.28C505.334 347.773 506.147 349.733 506.147 352.16C506.147 354.187 505.561 355.92 504.387 357.36C503.241 358.773 501.534 359.693 499.267 360.12L506.467 372H503.107ZM491.027 358.04H496.667C498.854 358.04 500.494 357.507 501.587 356.44C502.707 355.373 503.267 353.947 503.267 352.16C503.267 350.32 502.734 348.907 501.667 347.92C500.601 346.907 498.921 346.4 496.627 346.4H491.027V358.04ZM527.904 365.36H515.184L512.744 372H509.784L519.984 344.4H523.144L533.304 372H530.344L527.904 365.36ZM527.064 363.04L521.544 347.92L516.024 363.04H527.064Z" fill="white"/>
</svg>
