<svg width="2000" height="2083" viewBox="0 0 2000 2083" fill="none" xmlns="http://www.w3.org/2000/svg">
<path d="M1607 463.5C1607 575.89 1515.89 667 1403.5 667C1291.11 667 1200 575.89 1200 463.5C1200 351.11 1291.11 260 1403.5 260C1515.89 260 1607 351.11 1607 463.5Z" fill="#1E1E1E"/>
<path d="M399.5 264C425.83 264 451.902 269.16 476.228 279.186C500.554 289.212 522.657 303.907 541.275 322.432C559.893 340.958 574.662 362.95 584.738 387.155C594.814 411.359 600 437.301 600 463.5L399.5 463.5L399.5 264Z" fill="#546EF3"/>
<path d="M1 463.5C1 437.301 6.16022 411.359 16.186 387.155C26.2119 362.95 40.9069 340.957 59.4322 322.432C77.9575 303.907 99.9502 289.212 124.155 279.186C148.359 269.16 174.301 264 200.5 264L200.5 463.5H1Z" fill="#546EF3"/>
<path d="M1000 324C1000 268.772 1044.77 224 1100 224C1155.23 224 1200 268.772 1200 324V469C1200 524.228 1155.23 569 1100 569C1044.77 569 1000 524.228 1000 469V324Z" fill="#546EF3"/>
<path d="M1800 1263H1600V1463H1800V1263Z" fill="#F28F1C"/>
<path d="M1800 1463H2000V1263H1800V1463Z" fill="#546EF3"/>
<path d="M1600 1463C1600 1489.26 1605.17 1515.27 1615.22 1539.54C1625.28 1563.8 1640.01 1585.85 1658.58 1604.42C1677.15 1622.99 1699.2 1637.72 1723.46 1647.78C1747.73 1657.83 1773.74 1663 1800 1663V1463H1600Z" fill="#F28F1C"/>
<path d="M2000 1463C2000 1489.26 1994.83 1515.27 1984.78 1539.54C1974.72 1563.8 1959.99 1585.85 1941.42 1604.42C1922.85 1622.99 1900.8 1637.72 1876.54 1647.78C1852.27 1657.83 1826.26 1663 1800 1663V1463H2000Z" fill="#546EF3"/>
<path d="M1200 1263C1200 1289.26 1205.17 1315.27 1215.22 1339.54C1225.28 1363.8 1240.01 1385.85 1258.58 1404.42C1277.15 1422.99 1299.2 1437.72 1323.46 1447.78C1347.73 1457.83 1373.74 1463 1400 1463V1263H1200Z" fill="#546EF3"/>
<path d="M1600 1263H1400V1463H1600V1263Z" fill="#546EF3"/>
<path d="M1600 1263C1600 1289.26 1594.83 1315.27 1584.78 1339.54C1574.72 1363.8 1559.99 1385.85 1541.42 1404.42C1522.85 1422.99 1500.8 1437.72 1476.54 1447.78C1452.27 1457.83 1426.26 1463 1400 1463V1263H1600Z" fill="#1E1E1E"/>
<path d="M1300 1463C1355.23 1463 1400 1507.77 1400 1563H1200C1200 1507.77 1244.77 1463 1300 1463Z" fill="#1E1E1E"/>
<path d="M1600 1463H1400V1563H1600V1463Z" fill="#546EF3"/>
<path d="M1500 1663C1444.77 1663 1400 1618.23 1400 1563H1600C1600 1618.23 1555.23 1663 1500 1663Z" fill="#546EF3"/>
<path d="M1000 1463H800V1263H1000V1463Z" fill="#546EF3"/>
<path d="M1000 1463H800V1363H1000V1463Z" fill="#1E1E1E"/>
<path d="M900 1263C844.772 1263 800 1307.77 800 1363H1000C1000 1307.77 955.228 1263 900 1263Z" fill="#1E1E1E"/>
<path d="M1000 1663H800V1463H1000V1663Z" fill="#1E1E1E"/>
<path d="M900 1563C844.772 1563 800 1607.77 800 1663H1000C1000 1607.77 955.228 1563 900 1563Z" fill="#F28F1C"/>
<path d="M600 1463H400V1263H600V1463Z" fill="#1E1E1E"/>
<path d="M500 1363C444.772 1363 400 1407.77 400 1463H600C600 1407.77 555.228 1363 500 1363Z" fill="#F28F1C"/>
<path d="M800 1263H600V1463H800V1263Z" fill="#F28F1C"/>
<path d="M600 1663H400V1463H600V1663Z" fill="#F28F1C"/>
<path d="M600 1663C600 1636.74 594.827 1610.73 584.776 1586.46C574.725 1562.2 559.993 1540.15 541.421 1521.58C522.85 1503.01 500.802 1488.28 476.537 1478.22C452.272 1468.17 426.264 1463 400 1463V1663H600Z" fill="#546EF3"/>
<path d="M700 1563C644.772 1563 600 1518.23 600 1463H800C800 1518.23 755.228 1563 700 1563Z" fill="#F28F1C"/>
<path d="M0 1463H200V1263H0V1463Z" fill="#F28F1C"/>
<path d="M200 1263C200 1289.26 194.827 1315.27 184.776 1339.54C174.725 1363.8 159.993 1385.85 141.421 1404.42C122.85 1422.99 100.802 1437.72 76.5367 1447.78C52.2716 1457.83 26.2644 1463 0 1463V1263H200Z" fill="#546EF3"/>
<path d="M200 1263H400V1463H200V1263Z" fill="#F28F1C"/>
<path d="M200 1363H400V1463H200V1363Z" fill="#1E1E1E"/>
<path d="M300 1263C355.228 1263 400 1307.77 400 1363H200C200 1307.77 244.772 1263 300 1263Z" fill="#1E1E1E"/>
<path d="M1800 863H1600V1063H1800V863Z" fill="#1E1E1E"/>
<path d="M1600 863C1600 889.264 1605.17 915.272 1615.22 939.537C1625.28 963.802 1640.01 985.85 1658.58 1004.42C1677.15 1022.99 1699.2 1037.72 1723.46 1047.78C1747.73 1057.83 1773.74 1063 1800 1063V863H1600Z" fill="#F28F1C"/>
<path d="M1800 1063H2000V863H1800V1063Z" fill="#F28F1C"/>
<path d="M2000 863C2000 889.264 1994.83 915.272 1984.78 939.537C1974.72 963.802 1959.99 985.85 1941.42 1004.42C1922.85 1022.99 1900.8 1037.72 1876.54 1047.78C1852.27 1057.83 1826.26 1063 1800 1063V863H2000Z" fill="#546EF3"/>
<path d="M1800 1063H1600V1263H1800V1063Z" fill="#1E1E1E"/>
<path d="M1600 1263C1600 1236.74 1605.17 1210.73 1615.22 1186.46C1625.28 1162.2 1640.01 1140.15 1658.58 1121.58C1677.15 1103.01 1699.2 1088.28 1723.46 1078.22C1747.73 1068.17 1773.74 1063 1800 1063V1263H1600Z" fill="#F28F1C"/>
<path d="M1800 1263H2000V1063H1800V1263Z" fill="#F28F1C"/>
<path d="M1400 863H1200V1063H1400V863Z" fill="#1E1E1E"/>
<path d="M1400 863H1200V963H1400V863Z" fill="#546EF3"/>
<path d="M1300 1063C1244.77 1063 1200 1018.23 1200 963H1400C1400 1018.23 1355.23 1063 1300 1063Z" fill="#546EF3"/>
<path d="M1600 1063H1400V863H1600V1063Z" fill="#1E1E1E"/>
<path d="M1500 963C1444.77 963 1400 1007.77 1400 1063H1600C1600 1007.77 1555.23 963 1500 963Z" fill="#F28F1C"/>
<path d="M1400 1063H1200V1263H1400V1063Z" fill="#1E1E1E"/>
<path d="M1200 1263C1200 1236.74 1205.17 1210.73 1215.22 1186.46C1225.28 1162.2 1240.01 1140.15 1258.58 1121.58C1277.15 1103.01 1299.2 1088.28 1323.46 1078.22C1347.73 1068.17 1373.74 1063 1400 1063V1263H1200Z" fill="#F28F1C"/>
<path d="M1600 1263H1400V1063H1600V1263Z" fill="#F28F1C"/>
<path d="M1600 1263C1600 1236.74 1594.83 1210.73 1584.78 1186.46C1574.72 1162.2 1559.99 1140.15 1541.42 1121.58C1522.85 1103.01 1500.8 1088.28 1476.54 1078.22C1452.27 1068.17 1426.26 1063 1400 1063V1263H1600Z" fill="#546EF3"/>
<path d="M800 1063H1000V863H800V1063Z" fill="#F28F1C"/>
<path d="M1000 863C1000 889.264 994.827 915.272 984.776 939.537C974.725 963.802 959.993 985.85 941.421 1004.42C922.85 1022.99 900.802 1037.72 876.537 1047.78C852.272 1057.83 826.264 1063 800 1063V863H1000Z" fill="#546EF3"/>
<path d="M1000 863H1200V1063H1000V863Z" fill="#F28F1C"/>
<path d="M1000 963H1200V1063H1000V963Z" fill="#1E1E1E"/>
<path d="M1100 863C1155.23 863 1200 907.772 1200 963H1000C1000 907.772 1044.77 863 1100 863Z" fill="#1E1E1E"/>
<path d="M800 1263H1000V1063H800V1263Z" fill="#F28F1C"/>
<path d="M1000 1063H1200V1263H1000V1063Z" fill="#1E1E1E"/>
<path d="M600 1063H400V863H600V1063Z" fill="#1E1E1E"/>
<path d="M800 863H600V1063H800V863Z" fill="#1E1E1E"/>
<path d="M600 863C600 889.264 605.173 915.272 615.224 939.537C625.275 963.802 640.007 985.85 658.579 1004.42C677.15 1022.99 699.198 1037.72 723.463 1047.78C747.728 1057.83 773.736 1063 800 1063V863H600Z" fill="#F28F1C"/>
<path d="M600 1263H400V1063H600V1263Z" fill="#1E1E1E"/>
<path d="M600 1263H400V1163H600V1263Z" fill="#546EF3"/>
<path d="M500 1063C444.772 1063 400 1107.77 400 1163H600C600 1107.77 555.228 1063 500 1063Z" fill="#546EF3"/>
<path d="M800 1063H600V1263H800V1063Z" fill="#1E1E1E"/>
<path d="M600 1263C600 1236.74 605.173 1210.73 615.224 1186.46C625.275 1162.2 640.007 1140.15 658.579 1121.58C677.15 1103.01 699.198 1088.28 723.463 1078.22C747.728 1068.17 773.736 1063 800 1063V1263H600Z" fill="#F28F1C"/>
<path d="M200 863H1.52588e-05V1063H200V863Z" fill="#1E1E1E"/>
<path d="M1.52588e-05 1063C1.52588e-05 1036.74 5.17315 1010.73 15.2241 986.463C25.275 962.198 40.0069 940.15 58.5786 921.579C77.1504 903.007 99.1982 888.275 123.463 878.224C147.728 868.173 173.736 863 200 863V1063H1.52588e-05Z" fill="#F28F1C"/>
<path d="M400 1063H200V863H400V1063Z" fill="#F28F1C"/>
<path d="M400 1063C400 1036.74 394.827 1010.73 384.776 986.463C374.725 962.198 359.993 940.15 341.421 921.579C322.85 903.007 300.802 888.275 276.537 878.224C252.272 868.173 226.264 863 200 863V1063H400Z" fill="#546EF3"/>
<path d="M200 1063H1.52588e-05L0 1263H200L200 1063Z" fill="#F28F1C"/>
<path d="M400 1263H200L200 1063H400V1263Z" fill="#546EF3"/>
<path d="M1600 663H1800V463H1600V663Z" fill="#F28F1C"/>
<path d="M1800 463H2000V663H1800V463Z" fill="#1E1E1E"/>
<path d="M1600 863H1800V663H1600V863Z" fill="#F28F1C"/>
<path d="M1600 863H1800V763H1600V863Z" fill="#546EF3"/>
<path d="M1700 663C1644.77 663 1600 707.772 1600 763H1800C1800 707.772 1755.23 663 1700 663Z" fill="#546EF3"/>
<path d="M1800 663H2000V863H1800V663Z" fill="#546EF3"/>
<path d="M1800 663H2000V763H1800V663Z" fill="#1E1E1E"/>
<path d="M1900 863C1955.23 863 2000 818.228 2000 763H1800C1800 818.228 1844.77 863 1900 863Z" fill="#1E1E1E"/>
<path d="M1400 663H1200V463H1400V663Z" fill="#1E1E1E"/>
<path d="M1400 663H1200V563H1400V663Z" fill="#546EF3"/>
<path d="M1300 463C1244.77 463 1200 507.772 1200 563H1400C1400 507.772 1355.23 463 1300 463Z" fill="#546EF3"/>
<path d="M1600 463H1400V663H1600V463Z" fill="#1E1E1E"/>
<path d="M1400 663C1400 636.736 1405.17 610.728 1415.22 586.463C1425.28 562.198 1440.01 540.15 1458.58 521.579C1477.15 503.007 1499.2 488.275 1523.46 478.224C1547.73 468.173 1573.74 463 1600 463V663H1400Z" fill="#F28F1C"/>
<path d="M1400 863H1200V663H1400V863Z" fill="#546EF3"/>
<path d="M1600 663H1400V863H1600V663Z" fill="#F28F1C"/>
<path d="M1000 463H800V663H1000V463Z" fill="#546EF3"/>
<path d="M1000 463C1000 489.264 994.827 515.272 984.776 539.537C974.725 563.802 959.993 585.85 941.421 604.421C922.85 622.993 900.802 637.725 876.537 647.776C852.272 657.827 826.264 663 800 663V463H1000Z" fill="#1E1E1E"/>
<path d="M1200 663H1000V463H1200V663Z" fill="#546EF3"/>
<path d="M1200 663H1000V563H1200V663Z" fill="#1E1E1E"/>
<path d="M1100 463C1044.77 463 1000 507.772 1000 563H1200C1200 507.772 1155.23 463 1100 463Z" fill="#1E1E1E"/>
<path d="M1000 663H800V863H1000V663Z" fill="#1E1E1E"/>
<path d="M1000 663H800V763H1000V663Z" fill="#546EF3"/>
<path d="M900 863C844.772 863 800 818.228 800 763H1000C1000 818.228 955.228 863 900 863Z" fill="#546EF3"/>
<path d="M1200 863H1000V663H1200V863Z" fill="#1E1E1E"/>
<path d="M1100 763C1044.77 763 1000 807.772 1000 863H1200C1200 807.772 1155.23 763 1100 763Z" fill="#F28F1C"/>
<path d="M400 663H600V463H400V663Z" fill="#546EF3"/>
<path d="M600 463H800V663H600V463Z" fill="#F28F1C"/>
<path d="M600 463C600 489.264 605.173 515.272 615.224 539.537C625.275 563.802 640.007 585.85 658.579 604.421C677.15 622.993 699.198 637.725 723.463 647.776C747.728 657.827 773.736 663 800 663V463H600Z" fill="#546EF3"/>
<path d="M400 863H600V663H400V863Z" fill="#F28F1C"/>
<path d="M600 663C600 689.264 594.827 715.272 584.776 739.537C574.725 763.802 559.993 785.85 541.421 804.421C522.85 822.993 500.802 837.725 476.537 847.776C452.272 857.827 426.264 863 400 863V663H600Z" fill="#546EF3"/>
<path d="M600 663H800V863H600V663Z" fill="#F28F1C"/>
<path d="M600 763H800V863H600V763Z" fill="#1E1E1E"/>
<path d="M700 663C755.228 663 800 707.772 800 763H600C600 707.772 644.772 663 700 663Z" fill="#1E1E1E"/>
<path d="M200 663H0V463H200V663Z" fill="#546EF3"/>
<path d="M200 663H0V563H200V663Z" fill="#1E1E1E"/>
<path d="M100 463C44.7715 463 0 507.772 0 563H200C200 507.772 155.228 463 100 463Z" fill="#1E1E1E"/>
<path d="M400 463H200V663H400V463Z" fill="#F28F1C"/>
<path d="M200 863H1.52588e-05L0 663H200L200 863Z" fill="#1E1E1E"/>
<path d="M400 663H200L200 863H400V663Z" fill="#1E1E1E"/>
<path d="M200 663C200 689.264 205.173 715.272 215.224 739.537C225.275 763.802 240.007 785.85 258.579 804.421C277.15 822.993 299.198 837.725 323.463 847.776C347.728 857.827 373.736 863 400 863V663H200Z" fill="#F28F1C"/>
<path d="M1400 1563C1400 1618.23 1355.23 1663 1300 1663C1244.77 1663 1200 1618.23 1200 1563C1200 1507.77 1244.77 1463 1300 1463C1355.23 1463 1400 1507.77 1400 1563Z" fill="#1E1E1E"/>
<path d="M800 1663C800 1607.77 844.772 1563 900 1563C955.228 1563 1000 1607.77 1000 1663V1863C1000 1918.23 955.228 1963 900 1963C844.772 1963 800 1918.23 800 1863V1663Z" fill="#F28F1C"/>
<path d="M400 1463C360.444 1463 321.776 1474.73 288.886 1496.71C255.996 1518.68 230.362 1549.92 215.224 1586.46C200.087 1623.01 196.126 1663.22 203.843 1702.02C211.56 1740.81 230.608 1776.45 258.579 1804.42C286.549 1832.39 322.186 1851.44 360.982 1859.16C399.778 1866.87 439.991 1862.91 476.537 1847.78C513.082 1832.64 544.318 1807 566.294 1774.11C588.27 1741.22 600 1702.56 600 1663H400V1463Z" fill="#546EF3"/>
<path d="M200 1463C200 1489.26 205.173 1515.27 215.224 1539.54C225.275 1563.8 240.007 1585.85 258.579 1604.42C277.15 1622.99 299.198 1637.72 323.463 1647.78C347.728 1657.83 373.736 1663 400 1663V1463H200Z" fill="#1E1E1E"/>
<path d="M600 1663C600 1636.74 594.827 1610.73 584.776 1586.46C574.725 1562.2 559.993 1540.15 541.421 1521.58C522.85 1503.01 500.802 1488.28 476.537 1478.22C452.272 1468.17 426.264 1463 400 1463V1663H600Z" fill="#1E1E1E"/>
<path d="M601 463.5C601 410.589 622.019 359.846 659.432 322.432C696.846 285.019 747.589 264 800.5 264C853.411 264 904.154 285.019 941.568 322.432C978.981 359.846 1000 410.589 1000 463.5H800.5H601Z" fill="#1E1E1E"/>
<path d="M601 463.5C601 437.301 606.16 411.359 616.186 387.155C626.212 362.95 640.907 340.957 659.432 322.432C677.958 303.907 699.95 289.212 724.155 279.186C748.359 269.16 774.301 264 800.5 264V463.5H601Z" fill="#546EF3"/>
<path d="M200 100C200 44.7715 244.772 0 300 0C355.228 0 400 44.7715 400 100V464C400 519.228 355.228 564 300 564C244.772 564 200 519.228 200 464V100Z" fill="#1E1E1E"/>
<path d="M1514 1879.5C1514 1991.89 1422.89 2083 1310.5 2083C1198.11 2083 1107 1991.89 1107 1879.5C1107 1767.11 1198.11 1676 1310.5 1676C1422.89 1676 1514 1767.11 1514 1879.5Z" fill="#1E1E1E"/>
</svg>
