<svg width="18" height="18" viewBox="0 0 18 18" fill="none" xmlns="http://www.w3.org/2000/svg">
<path d="M16.4042 0H1.75364C0.953101 0 0.253662 0.576009 0.253662 1.36714V16.0503C0.253662 16.8457 0.953101 17.5546 1.75364 17.5546H16.3999C17.2048 17.5546 17.8082 16.841 17.8082 16.0503V1.36714C17.8129 0.576009 17.2048 0 16.4042 0ZM5.69518 14.6326H3.18034V6.81336H5.69518V14.6326ZM4.52475 5.62451H4.50672C3.70188 5.62451 3.18073 5.02538 3.18073 4.2754C3.18073 3.51169 3.71559 2.92667 4.53846 2.92667C5.36133 2.92667 5.86485 3.50738 5.88287 4.2754C5.88248 5.02538 5.36133 5.62451 4.52475 5.62451ZM14.8862 14.6326H12.3714V10.3572C12.3714 9.33291 12.0054 8.63308 11.0956 8.63308C10.4004 8.63308 9.98899 9.10329 9.806 9.56135C9.73743 9.72593 9.71902 9.95006 9.71902 10.1789V14.6326H7.20417V6.81336H9.71902V7.90151C10.085 7.38036 10.6567 6.63037 11.987 6.63037C13.6378 6.63037 14.8866 7.71852 14.8866 10.0645L14.8862 14.6326Z" fill="#030211"/>
</svg>
