<svg width="478" height="479" viewBox="0 0 478 479" fill="none" xmlns="http://www.w3.org/2000/svg">
<circle cx="239" cy="239.321" r="239" fill="#F28F1C"/>
<path d="M48.5752 217.465C47.8096 217.369 46.3341 217.321 44.1489 217.321H42.2349V185.404C43.2557 185.468 44.3802 185.5 45.6084 185.5C46.8366 185.5 47.7059 185.436 48.2163 185.309L56.2554 198.97L63.9834 185.309C64.4938 185.436 65.4668 185.5 66.9023 185.5C68.3379 185.5 69.5661 185.468 70.5869 185.404V217.321H68.6729C66.4876 217.321 65.0122 217.369 64.2466 217.465V196.027L56.4229 210.024L48.5752 197.152V217.465ZM81.2817 217.513C79.91 217.385 78.307 217.321 76.4727 217.321H74.5825L84.9902 188.156C85.4528 186.848 85.6841 186.09 85.6841 185.883C85.6841 185.66 85.6761 185.524 85.6602 185.476L85.6841 185.428C86.7209 185.476 87.8215 185.5 88.9858 185.5C89.9429 185.5 91.0913 185.484 92.4312 185.452L92.4551 185.5C92.4232 185.564 92.4072 185.652 92.4072 185.763C92.4072 186.066 92.6465 186.872 93.125 188.18L103.748 217.393C103.429 217.377 103.054 217.369 102.624 217.369C102.624 217.369 102.209 217.353 101.379 217.321C100.981 217.321 100.622 217.321 100.303 217.321H96.5942L94.3452 210.431H83.5308L81.2817 217.513ZM92.479 204.688L88.8662 193.563L85.3491 204.688H92.479ZM117.912 204.952C117.434 204.984 116.923 205 116.381 205C115.839 205 115.033 204.96 113.964 204.88V217.321H107.624V185.333C109.857 185.045 112.601 184.902 115.854 184.902C120.289 184.902 123.59 185.723 125.76 187.366C127.945 188.993 129.038 191.513 129.038 194.927C129.038 197.575 128.041 199.84 126.047 201.722C125.393 202.328 124.643 202.854 123.798 203.301L128.679 213.589C129.636 215.71 130.369 216.97 130.88 217.369L130.76 217.489C129.213 217.234 126.781 217.242 123.463 217.513L117.912 204.952ZM116.309 190.548C115.496 190.548 114.714 190.588 113.964 190.668V199.808C114.746 199.919 115.663 199.975 116.716 199.975C117.769 199.975 118.654 199.887 119.372 199.712C120.089 199.521 120.711 199.233 121.238 198.851C122.37 198.005 122.937 196.737 122.937 195.046C122.937 193.356 122.346 192.167 121.166 191.481C120.065 190.859 118.446 190.548 116.309 190.548ZM136.933 185.404C138.528 185.468 139.493 185.5 139.828 185.5H141.551C142.396 185.5 143.074 185.436 143.584 185.309L143.561 217.321H136.933V185.404ZM138.177 174.542C140.57 174.542 143.122 174.406 145.833 174.135L145.81 174.303L139.541 182.031H134.134L138.177 174.542ZM154.877 217.513C153.506 217.385 151.903 217.321 150.068 217.321H148.178L158.586 188.156C159.049 186.848 159.28 186.09 159.28 185.883C159.28 185.66 159.272 185.524 159.256 185.476L159.28 185.428C160.317 185.476 161.417 185.5 162.582 185.5C163.539 185.5 164.687 185.484 166.027 185.452L166.051 185.5C166.019 185.564 166.003 185.652 166.003 185.763C166.003 186.066 166.242 186.872 166.721 188.18L177.344 217.393C177.025 217.377 176.65 217.369 176.219 217.369C176.219 217.369 175.805 217.353 174.975 217.321C174.576 217.321 174.217 217.321 173.898 217.321H170.19L167.941 210.431H157.126L154.877 217.513ZM166.075 204.688L162.462 193.563L158.945 204.688H166.075ZM202.155 217.321C199.81 217.321 198.255 217.369 197.489 217.465V185.356C197.872 185.452 198.662 185.5 199.858 185.5C201.07 185.5 202.474 185.468 204.069 185.404V211.579H209.021C210.457 211.579 211.605 211.531 212.467 211.436C212.355 215.168 212.299 217.106 212.299 217.25V217.489C210.736 217.377 208.112 217.321 204.428 217.321H202.155ZM220.291 217.513C218.919 217.385 217.316 217.321 215.481 217.321H213.591L223.999 188.156C224.462 186.848 224.693 186.09 224.693 185.883C224.693 185.66 224.685 185.524 224.669 185.476L224.693 185.428C225.73 185.476 226.83 185.5 227.995 185.5C228.952 185.5 230.1 185.484 231.44 185.452L231.464 185.5C231.432 185.564 231.416 185.652 231.416 185.763C231.416 186.066 231.655 186.872 232.134 188.18L242.757 217.393C242.438 217.377 242.063 217.369 241.632 217.369C241.632 217.369 241.218 217.353 240.388 217.321C239.989 217.321 239.631 217.321 239.312 217.321H235.603L233.354 210.431H222.54L220.291 217.513ZM231.488 204.688L227.875 193.563L224.358 204.688H231.488ZM264.769 185.38C265.757 185.46 266.579 185.5 267.233 185.5H269.219C269.889 185.5 270.59 185.436 271.324 185.309V205.095C271.324 209.019 270.136 212.169 267.759 214.546C265.51 216.795 262.687 217.919 259.29 217.919C255.573 217.919 252.566 216.954 250.27 215.024C247.701 212.855 246.417 209.729 246.417 205.646V185.38C247.741 185.46 248.986 185.5 250.15 185.5C251.33 185.5 252.303 185.436 253.069 185.309V205.957C253.069 207.966 253.683 209.529 254.911 210.646C256.06 211.667 257.495 212.177 259.218 212.177C261.77 212.177 263.469 210.869 264.314 208.253C264.617 207.312 264.769 206.148 264.769 204.76V185.38ZM289.651 204.952C289.173 204.984 288.662 205 288.12 205C287.578 205 286.772 204.96 285.704 204.88V217.321H279.363V185.333C281.596 185.045 284.34 184.902 287.594 184.902C292.028 184.902 295.33 185.723 297.499 187.366C299.684 188.993 300.777 191.513 300.777 194.927C300.777 197.575 299.78 199.84 297.786 201.722C297.132 202.328 296.382 202.854 295.537 203.301L300.418 213.589C301.375 215.71 302.109 216.97 302.619 217.369L302.5 217.489C300.952 217.234 298.52 217.242 295.202 217.513L289.651 204.952ZM288.048 190.548C287.235 190.548 286.453 190.588 285.704 190.668V199.808C286.485 199.919 287.402 199.975 288.455 199.975C289.508 199.975 290.393 199.887 291.111 199.712C291.829 199.521 292.451 199.233 292.977 198.851C294.11 198.005 294.676 196.737 294.676 195.046C294.676 193.356 294.086 192.167 292.905 191.481C291.805 190.859 290.186 190.548 288.048 190.548ZM310.251 217.513C308.88 217.385 307.277 217.321 305.442 217.321H303.552L313.96 188.156C314.423 186.848 314.654 186.09 314.654 185.883C314.654 185.66 314.646 185.524 314.63 185.476L314.654 185.428C315.691 185.476 316.791 185.5 317.956 185.5C318.913 185.5 320.061 185.484 321.401 185.452L321.425 185.5C321.393 185.564 321.377 185.652 321.377 185.763C321.377 186.066 321.616 186.872 322.095 188.18L332.718 217.393C332.399 217.377 332.024 217.369 331.593 217.369C331.593 217.369 331.179 217.353 330.349 217.321C329.95 217.321 329.591 217.321 329.272 217.321H325.564L323.315 210.431H312.5L310.251 217.513ZM321.449 204.688L317.836 193.563L314.319 204.688H321.449ZM352.409 185.333C354.626 185.045 356.899 184.902 359.228 184.902C363.566 184.902 366.86 185.923 369.109 187.964C371.374 189.99 372.506 193.029 372.506 197.08C372.506 200.701 371.27 203.564 368.798 205.669C366.485 207.647 363.51 208.636 359.874 208.636C359.459 208.636 359.004 208.612 358.51 208.564V217.321H352.409V185.333ZM359.945 190.668C359.467 190.668 358.988 190.684 358.51 190.716V203.301C359.02 203.365 359.642 203.396 360.376 203.396C361.11 203.396 361.875 203.245 362.673 202.942C363.47 202.623 364.14 202.184 364.683 201.626C365.815 200.462 366.381 198.93 366.381 197.032C366.381 192.789 364.236 190.668 359.945 190.668ZM378.153 185.404C379.748 185.468 380.713 185.5 381.048 185.5H382.771C383.616 185.5 384.294 185.436 384.804 185.309L384.78 217.321H378.153V185.404ZM393.992 217.321C394.087 216.779 394.135 216.189 394.135 215.551V185.5H398.92L411.601 205.454V187.127C411.601 186.25 411.521 185.707 411.362 185.5H417.822C417.742 186.138 417.702 186.84 417.702 187.605V217.321H412.726L400.236 198.157V217.321H393.992ZM427.057 185.404C428.652 185.468 429.617 185.5 429.952 185.5H431.675C432.52 185.5 433.198 185.436 433.708 185.309L433.685 217.321H427.057V185.404Z" fill="white"/>
<path d="M152.08 285.401C152.08 287.801 151.293 289.735 149.72 291.201C148.147 292.668 145.787 293.401 142.64 293.401H137V305.321H134.2V277.361H142.64C145.76 277.361 148.107 278.095 149.68 279.561C151.28 281.028 152.08 282.975 152.08 285.401ZM142.64 291.001C147.013 291.001 149.2 289.135 149.2 285.401C149.2 283.535 148.68 282.121 147.64 281.161C146.6 280.201 144.933 279.721 142.64 279.721H137V291.001H142.64ZM171.658 305.321L164.738 293.641H159.578V305.321H156.778V277.361H165.178C168.298 277.361 170.658 278.108 172.258 279.601C173.885 281.095 174.698 283.055 174.698 285.481C174.698 287.508 174.111 289.241 172.938 290.681C171.791 292.095 170.085 293.015 167.818 293.441L175.018 305.321H171.658ZM159.578 291.361H165.218C167.405 291.361 169.045 290.828 170.138 289.761C171.258 288.695 171.818 287.268 171.818 285.481C171.818 283.641 171.285 282.228 170.218 281.241C169.151 280.228 167.471 279.721 165.178 279.721H159.578V291.361ZM183.055 279.641V290.081H193.655V292.401H183.055V303.001H194.855V305.321H180.255V277.321H194.855V279.641H183.055ZM208.852 305.601C207.012 305.601 205.385 305.281 203.972 304.641C202.585 304.001 201.492 303.108 200.692 301.961C199.892 300.815 199.465 299.535 199.412 298.121H202.372C202.505 299.481 203.105 300.681 204.172 301.721C205.239 302.735 206.799 303.241 208.852 303.241C210.745 303.241 212.239 302.761 213.332 301.801C214.452 300.815 215.012 299.575 215.012 298.081C215.012 296.881 214.705 295.921 214.092 295.201C213.479 294.455 212.719 293.908 211.812 293.561C210.905 293.188 209.652 292.788 208.052 292.361C206.185 291.855 204.705 291.361 203.612 290.881C202.519 290.401 201.585 289.655 200.812 288.641C200.039 287.628 199.652 286.255 199.652 284.521C199.652 283.081 200.025 281.801 200.772 280.681C201.519 279.535 202.572 278.641 203.932 278.001C205.292 277.361 206.852 277.041 208.612 277.041C211.199 277.041 213.279 277.681 214.852 278.961C216.452 280.215 217.372 281.841 217.612 283.841H214.572C214.385 282.695 213.759 281.681 212.692 280.801C211.625 279.895 210.185 279.441 208.372 279.441C206.692 279.441 205.292 279.895 204.172 280.801C203.052 281.681 202.492 282.895 202.492 284.441C202.492 285.615 202.799 286.561 203.412 287.281C204.025 288.001 204.785 288.548 205.692 288.921C206.625 289.295 207.879 289.695 209.452 290.121C211.265 290.628 212.732 291.135 213.852 291.641C214.972 292.121 215.919 292.868 216.692 293.881C217.465 294.895 217.852 296.255 217.852 297.961C217.852 299.268 217.505 300.508 216.812 301.681C216.119 302.855 215.092 303.801 213.732 304.521C212.372 305.241 210.745 305.601 208.852 305.601ZM226.063 277.361V305.321H223.263V277.361H226.063ZM240.683 277.361C243.776 277.361 246.43 277.921 248.643 279.041C250.856 280.161 252.55 281.775 253.723 283.881C254.896 285.988 255.483 288.495 255.483 291.401C255.483 294.281 254.896 296.775 253.723 298.881C252.55 300.961 250.856 302.561 248.643 303.681C246.43 304.775 243.776 305.321 240.683 305.321H232.403V277.361H240.683ZM240.683 303.001C244.576 303.001 247.536 301.988 249.563 299.961C251.616 297.908 252.643 295.055 252.643 291.401C252.643 287.721 251.616 284.855 249.563 282.801C247.536 280.721 244.576 279.681 240.683 279.681H235.203V303.001H240.683ZM263.445 279.641V290.081H274.045V292.401H263.445V303.001H275.245V305.321H260.645V277.321H275.245V279.641H263.445ZM301.843 305.321H299.043L283.563 281.801V305.321H280.763V277.361H283.563L299.043 300.841V277.361H301.843V305.321ZM324.544 277.361V279.681H316.784V305.321H313.984V279.681H306.184V277.361H324.544ZM331.766 279.641V290.081H342.366V292.401H331.766V303.001H343.566V305.321H328.966V277.321H343.566V279.641H331.766Z" fill="white"/>
</svg>
