<svg width="523" height="523" viewBox="0 0 523 523" fill="none" xmlns="http://www.w3.org/2000/svg">
<rect x="407.1" width="423.207" height="423.207" rx="20" transform="rotate(74.1415 407.1 0)" fill="#546EF3"/>
<path d="M58.7188 188.059C59.7077 188.139 60.4255 188.179 60.8721 188.179H62.7383C63.5199 188.179 64.2935 188.115 65.0591 187.987V209.425C65.0591 212.934 64.126 215.693 62.2598 217.703C60.4893 219.633 58.0967 220.598 55.082 220.598C53.0085 220.598 51.2699 220.183 49.8662 219.354C49.3398 219.051 48.8135 218.684 48.2871 218.253V211.339L48.4546 211.291C49.1245 212.344 49.9061 213.205 50.7993 213.875C51.7085 214.545 52.833 214.88 54.1729 214.88C57.2035 214.88 58.7188 213.125 58.7188 209.616V188.059ZM88.6978 214.258C89.6867 214.258 90.3726 214.162 90.7554 213.971L90.8511 213.995L90.6118 220H72.6914V188.011C73.1221 188.043 73.6006 188.067 74.127 188.083L75.8018 188.131C76.9183 188.163 78.1305 188.179 79.4385 188.179C83.0911 188.179 86.7039 188.115 90.2769 187.987C90.1014 189.391 90.0137 191.265 90.0137 193.61C90.0137 193.865 90.0296 194.056 90.0615 194.184L90.0137 194.256C89.1842 194.017 88.0039 193.897 86.4727 193.897H78.936V199.998H84.6064C86.361 199.998 87.4137 199.95 87.7646 199.854L87.8364 205.764C87.0708 205.684 86.0819 205.645 84.8696 205.645H78.936V214.258H88.6978ZM107.527 207.63C107.049 207.662 106.538 207.678 105.996 207.678C105.454 207.678 104.648 207.638 103.58 207.559V220H97.2393V188.011C99.4723 187.724 102.216 187.581 105.47 187.581C109.904 187.581 113.206 188.402 115.375 190.045C117.56 191.672 118.653 194.192 118.653 197.605C118.653 200.253 117.656 202.518 115.662 204.4C115.008 205.007 114.258 205.533 113.413 205.979L118.294 216.268C119.251 218.389 119.985 219.649 120.495 220.048L120.375 220.167C118.828 219.912 116.396 219.92 113.078 220.191L107.527 207.63ZM105.924 193.227C105.111 193.227 104.329 193.267 103.58 193.347V202.486C104.361 202.598 105.278 202.654 106.331 202.654C107.384 202.654 108.269 202.566 108.987 202.391C109.705 202.199 110.327 201.912 110.853 201.529C111.986 200.684 112.552 199.416 112.552 197.725C112.552 196.034 111.962 194.846 110.781 194.16C109.681 193.538 108.062 193.227 105.924 193.227ZM141.813 214.258C142.802 214.258 143.488 214.162 143.871 213.971L143.966 213.995L143.727 220H125.807V188.011C126.237 188.043 126.716 188.067 127.242 188.083L128.917 188.131C130.034 188.163 131.246 188.179 132.554 188.179C136.206 188.179 139.819 188.115 143.392 187.987C143.217 189.391 143.129 191.265 143.129 193.61C143.129 193.865 143.145 194.056 143.177 194.184L143.129 194.256C142.299 194.017 141.119 193.897 139.588 193.897H132.051V199.998H137.722C139.476 199.998 140.529 199.95 140.88 199.854L140.952 205.764C140.186 205.684 139.197 205.645 137.985 205.645H132.051V214.258H141.813ZM156.814 220.144C156.049 220.048 154.573 220 152.388 220H150.474V188.083C151.495 188.147 152.619 188.179 153.848 188.179C155.076 188.179 155.945 188.115 156.456 187.987L164.495 201.649L172.223 187.987C172.733 188.115 173.706 188.179 175.142 188.179C176.577 188.179 177.805 188.147 178.826 188.083V220H176.912C174.727 220 173.251 220.048 172.486 220.144V198.706L164.662 212.703L156.814 199.831V220.144ZM187.942 188.083C189.537 188.147 190.502 188.179 190.837 188.179H192.56C193.405 188.179 194.083 188.115 194.593 187.987L194.569 220H187.942V188.083ZM189.186 177.221C191.579 177.221 194.131 177.085 196.842 176.814L196.818 176.981L190.55 184.709H185.143L189.186 177.221ZM205.886 220.191C204.514 220.064 202.911 220 201.077 220H199.187L209.595 190.834C210.057 189.527 210.289 188.769 210.289 188.562C210.289 188.338 210.281 188.203 210.265 188.155L210.289 188.107C211.325 188.155 212.426 188.179 213.59 188.179C214.547 188.179 215.696 188.163 217.036 188.131L217.06 188.179C217.028 188.243 217.012 188.33 217.012 188.442C217.012 188.745 217.251 189.55 217.729 190.858L228.353 220.072C228.034 220.056 227.659 220.048 227.228 220.048C227.228 220.048 226.813 220.032 225.984 220C225.585 220 225.226 220 224.907 220H221.199L218.95 213.109H208.135L205.886 220.191ZM217.083 207.367L213.471 196.242L209.954 207.367H217.083ZM251.441 189.949L250.986 196.983L250.819 197.031C249.639 195.261 247.629 194.112 244.79 193.586C243.896 193.41 243.035 193.323 242.206 193.323C241.392 193.323 240.69 193.395 240.1 193.538C239.526 193.682 239.031 193.889 238.617 194.16C237.739 194.734 237.301 195.484 237.301 196.409C237.301 197.621 237.684 198.531 238.449 199.137C239.406 199.87 240.993 200.389 243.21 200.692C245.428 200.979 247.206 201.378 248.546 201.888C249.886 202.399 250.986 203.045 251.848 203.826C253.475 205.294 254.288 207.367 254.288 210.047C254.288 213.556 252.964 216.26 250.316 218.158C248.051 219.785 245.196 220.598 241.751 220.598C238.976 220.598 236.232 220.072 233.521 219.019C232.627 218.668 231.846 218.261 231.176 217.799L231.439 209.808L231.535 209.736C233.513 213.149 236.758 214.856 241.272 214.856C244.479 214.856 246.6 214.082 247.637 212.535C247.988 212.009 248.163 211.427 248.163 210.789C248.163 210.135 248.059 209.6 247.852 209.186C247.645 208.755 247.302 208.388 246.823 208.085C245.898 207.479 244.343 207.072 242.158 206.865C239.972 206.657 238.186 206.267 236.798 205.692C235.411 205.118 234.302 204.408 233.473 203.563C231.973 202.032 231.224 199.894 231.224 197.151C231.224 194.312 232.221 192.015 234.214 190.26C236.24 188.474 238.968 187.581 242.397 187.581C245.842 187.581 248.857 188.37 251.441 189.949ZM291.325 187.581C294.308 187.581 296.852 188.099 298.958 189.136V196.457L298.91 196.505C298.016 195.133 296.134 194.224 293.263 193.777C292.418 193.634 291.349 193.562 290.057 193.562C288.765 193.562 287.497 193.809 286.253 194.304C285.009 194.782 283.988 195.468 283.19 196.361C281.643 198.1 280.87 200.58 280.87 203.802C280.87 207.551 281.851 210.342 283.812 212.176C285.439 213.708 287.593 214.473 290.272 214.473C293.303 214.473 295.759 213.827 297.642 212.535C298.327 212.073 298.91 211.498 299.388 210.812L299.46 210.86V217.56C297.02 219.585 293.734 220.598 289.603 220.598C284.738 220.598 280.925 219.051 278.166 215.957C275.518 213.006 274.194 209.098 274.194 204.233C274.194 199.081 275.646 195.021 278.549 192.055C281.484 189.072 285.743 187.581 291.325 187.581ZM308.097 216.22C306.646 214.832 305.497 213.165 304.652 211.219C303.822 209.273 303.408 207.144 303.408 204.831C303.408 202.502 303.799 200.301 304.58 198.228C305.362 196.154 306.478 194.328 307.93 192.749C309.381 191.169 311.136 189.917 313.193 188.992C315.251 188.051 317.556 187.581 320.108 187.581C324.51 187.581 328.219 188.968 331.233 191.744C334.455 194.71 336.066 198.714 336.066 203.754C336.066 208.635 334.408 212.695 331.09 215.933C329.048 217.926 326.616 219.298 323.792 220.048C322.405 220.415 320.778 220.598 318.912 220.598C317.061 220.598 315.155 220.215 313.193 219.45C311.247 218.684 309.549 217.607 308.097 216.22ZM310.059 204.496C310.059 205.979 310.306 207.343 310.801 208.587C311.295 209.832 311.981 210.9 312.858 211.793C314.725 213.676 317.125 214.617 320.06 214.617C322.851 214.617 325.092 213.715 326.783 211.913C328.506 210.047 329.367 207.503 329.367 204.281C329.367 201.25 328.546 198.722 326.903 196.696C325.132 194.527 322.708 193.442 319.629 193.442C316.647 193.442 314.278 194.543 312.523 196.744C310.881 198.802 310.059 201.386 310.059 204.496ZM352.527 207.63C352.049 207.662 351.538 207.678 350.996 207.678C350.454 207.678 349.648 207.638 348.58 207.559V220H342.239V188.011C344.472 187.724 347.216 187.581 350.47 187.581C354.904 187.581 358.206 188.402 360.375 190.045C362.56 191.672 363.653 194.192 363.653 197.605C363.653 200.253 362.656 202.518 360.662 204.4C360.008 205.007 359.258 205.533 358.413 205.979L363.294 216.268C364.251 218.389 364.985 219.649 365.495 220.048L365.375 220.167C363.828 219.912 361.396 219.92 358.078 220.191L352.527 207.63ZM350.924 193.227C350.111 193.227 349.329 193.267 348.58 193.347V202.486C349.361 202.598 350.278 202.654 351.331 202.654C352.384 202.654 353.269 202.566 353.987 202.391C354.705 202.199 355.327 201.912 355.853 201.529C356.986 200.684 357.552 199.416 357.552 197.725C357.552 196.034 356.962 194.846 355.781 194.16C354.681 193.538 353.062 193.227 350.924 193.227ZM382.291 220.144C381.525 220.048 379.556 220 376.381 220H375.616V193.538H370.878C369.475 193.538 368.645 193.61 368.39 193.753C368.135 193.897 367.936 194.025 367.792 194.136L367.72 194.112V187.987L367.792 187.916C368.318 188.091 369.738 188.179 372.051 188.179H387.052C388.456 188.179 389.285 188.107 389.541 187.963C389.796 187.82 389.995 187.692 390.139 187.581L390.21 187.604V193.729L390.139 193.801C389.612 193.626 388.193 193.538 385.88 193.538H382.291V220.144ZM411.361 214.258C412.35 214.258 413.036 214.162 413.418 213.971L413.514 213.995L413.275 220H395.354V188.011C395.785 188.043 396.264 188.067 396.79 188.083L398.465 188.131C399.581 188.163 400.794 188.179 402.102 188.179C405.754 188.179 409.367 188.115 412.94 187.987C412.764 189.391 412.677 191.265 412.677 193.61C412.677 193.865 412.693 194.056 412.725 194.184L412.677 194.256C411.847 194.017 410.667 193.897 409.136 193.897H401.599V199.998H407.27C409.024 199.998 410.077 199.95 410.428 199.854L410.5 205.764C409.734 205.684 408.745 205.645 407.533 205.645H401.599V214.258H411.361ZM419.208 190.332C419.208 189.806 419.185 189.088 419.137 188.179H441.818L427.894 214.258H436.579C438.844 214.258 440.175 214.194 440.574 214.066C440.989 213.923 441.316 213.795 441.555 213.684V220.359C440.869 220.295 440.303 220.239 439.856 220.191C439.41 220.144 438.939 220.104 438.445 220.072C437.695 220.024 436.244 220 434.09 220H417.988L432.392 193.921H424.855C421.745 193.921 419.767 194.088 418.921 194.423C419.113 193.626 419.208 192.501 419.208 191.05V190.332Z" fill="white"/>
<path d="M118.609 297.488L108.009 325.448H104.809L94.209 297.488H97.249L106.409 322.408L115.649 297.488H118.609ZM125.616 297.488V325.448H122.816V297.488H125.616ZM130.677 311.448C130.677 308.702 131.277 306.248 132.477 304.088C133.677 301.902 135.317 300.208 137.397 299.008C139.477 297.782 141.797 297.168 144.357 297.168C147.477 297.168 150.144 297.915 152.357 299.408C154.597 300.875 156.224 302.955 157.237 305.648H153.957C153.157 303.755 151.93 302.275 150.277 301.208C148.65 300.142 146.677 299.608 144.357 299.608C142.304 299.608 140.45 300.088 138.797 301.048C137.17 302.008 135.89 303.395 134.957 305.208C134.024 306.995 133.557 309.075 133.557 311.448C133.557 313.822 134.024 315.902 134.957 317.688C135.89 319.475 137.17 320.848 138.797 321.808C140.45 322.768 142.304 323.248 144.357 323.248C146.677 323.248 148.65 322.728 150.277 321.688C151.93 320.622 153.157 319.155 153.957 317.288H157.237C156.224 319.955 154.597 322.022 152.357 323.488C150.117 324.955 147.45 325.688 144.357 325.688C141.797 325.688 139.477 325.088 137.397 323.888C135.317 322.662 133.677 320.968 132.477 318.808C131.277 316.648 130.677 314.195 130.677 311.448ZM165.616 299.768V310.208H176.216V312.528H165.616V323.128H177.416V325.448H162.816V297.448H177.416V299.768H165.616ZM200.813 305.528C200.813 307.928 200.027 309.862 198.453 311.328C196.88 312.795 194.52 313.528 191.373 313.528H185.733V325.448H182.933V297.488H191.373C194.493 297.488 196.84 298.222 198.413 299.688C200.013 301.155 200.813 303.102 200.813 305.528ZM191.373 311.128C195.747 311.128 197.933 309.262 197.933 305.528C197.933 303.662 197.413 302.248 196.373 301.288C195.333 300.328 193.667 299.848 191.373 299.848H185.733V311.128H191.373ZM220.392 325.448L213.472 313.768H208.312V325.448H205.512V297.488H213.912C217.032 297.488 219.392 298.235 220.992 299.728C222.618 301.222 223.432 303.182 223.432 305.608C223.432 307.635 222.845 309.368 221.672 310.808C220.525 312.222 218.818 313.142 216.552 313.568L223.752 325.448H220.392ZM208.312 311.488H213.952C216.138 311.488 217.778 310.955 218.872 309.888C219.992 308.822 220.552 307.395 220.552 305.608C220.552 303.768 220.018 302.355 218.952 301.368C217.885 300.355 216.205 299.848 213.912 299.848H208.312V311.488ZM231.788 299.768V310.208H242.388V312.528H231.788V323.128H243.588V325.448H228.988V297.448H243.588V299.768H231.788ZM257.585 325.728C255.745 325.728 254.119 325.408 252.705 324.768C251.319 324.128 250.225 323.235 249.425 322.088C248.625 320.942 248.199 319.662 248.145 318.248H251.105C251.239 319.608 251.839 320.808 252.905 321.848C253.972 322.862 255.532 323.368 257.585 323.368C259.479 323.368 260.972 322.888 262.065 321.928C263.185 320.942 263.745 319.702 263.745 318.208C263.745 317.008 263.439 316.048 262.825 315.328C262.212 314.582 261.452 314.035 260.545 313.688C259.639 313.315 258.385 312.915 256.785 312.488C254.919 311.982 253.439 311.488 252.345 311.008C251.252 310.528 250.319 309.782 249.545 308.768C248.772 307.755 248.385 306.382 248.385 304.648C248.385 303.208 248.759 301.928 249.505 300.808C250.252 299.662 251.305 298.768 252.665 298.128C254.025 297.488 255.585 297.168 257.345 297.168C259.932 297.168 262.012 297.808 263.585 299.088C265.185 300.342 266.105 301.968 266.345 303.968H263.305C263.119 302.822 262.492 301.808 261.425 300.928C260.359 300.022 258.919 299.568 257.105 299.568C255.425 299.568 254.025 300.022 252.905 300.928C251.785 301.808 251.225 303.022 251.225 304.568C251.225 305.742 251.532 306.688 252.145 307.408C252.759 308.128 253.519 308.675 254.425 309.048C255.359 309.422 256.612 309.822 258.185 310.248C259.999 310.755 261.465 311.262 262.585 311.768C263.705 312.248 264.652 312.995 265.425 314.008C266.199 315.022 266.585 316.382 266.585 318.088C266.585 319.395 266.239 320.635 265.545 321.808C264.852 322.982 263.825 323.928 262.465 324.648C261.105 325.368 259.479 325.728 257.585 325.728ZM274.796 297.488V325.448H271.996V297.488H274.796ZM289.417 297.488C292.51 297.488 295.163 298.048 297.377 299.168C299.59 300.288 301.283 301.902 302.457 304.008C303.63 306.115 304.217 308.622 304.217 311.528C304.217 314.408 303.63 316.902 302.457 319.008C301.283 321.088 299.59 322.688 297.377 323.808C295.163 324.902 292.51 325.448 289.417 325.448H281.137V297.488H289.417ZM289.417 323.128C293.31 323.128 296.27 322.115 298.297 320.088C300.35 318.035 301.377 315.182 301.377 311.528C301.377 307.848 300.35 304.982 298.297 302.928C296.27 300.848 293.31 299.808 289.417 299.808H283.937V323.128H289.417ZM312.179 299.768V310.208H322.779V312.528H312.179V323.128H323.979V325.448H309.379V297.448H323.979V299.768H312.179ZM350.576 325.448H347.776L332.296 301.928V325.448H329.496V297.488H332.296L347.776 320.968V297.488H350.576V325.448ZM373.278 297.488V299.808H365.518V325.448H362.718V299.808H354.918V297.488H373.278ZM380.499 299.768V310.208H391.099V312.528H380.499V323.128H392.299V325.448H377.699V297.448H392.299V299.768H380.499Z" fill="white"/>
</svg>
