<svg width="478" height="478" viewBox="0 0 478 479" fill="none" xmlns="http://www.w3.org/2000/svg">
<circle cx="239" cy="239.321" r="239" fill="#546EF3"/>
<path d="M31.436 219.191C30.0643 219.064 28.4613 219 26.627 219H24.7368L35.1445 189.834C35.6071 188.527 35.8384 187.769 35.8384 187.562C35.8384 187.338 35.8304 187.203 35.8145 187.155L35.8384 187.107C36.8752 187.155 37.9757 187.179 39.1401 187.179C40.0972 187.179 41.2456 187.163 42.5854 187.131L42.6094 187.179C42.5775 187.243 42.5615 187.33 42.5615 187.442C42.5615 187.745 42.8008 188.55 43.2793 189.858L53.9023 219.072C53.5833 219.056 53.2085 219.048 52.7778 219.048C52.7778 219.048 52.3631 219.032 51.5337 219C51.1349 219 50.776 219 50.457 219H46.7485L44.4995 212.109H33.6851L31.436 219.191ZM42.6333 206.367L39.0205 195.242L35.5034 206.367H42.6333ZM65.5303 219.598C62.9463 219.598 60.5138 219.391 58.2329 218.976V186.963C60.3384 186.708 62.7788 186.581 65.5542 186.581C68.3455 186.581 70.8657 186.963 73.1147 187.729C75.3797 188.479 77.2699 189.555 78.7852 190.959C81.8477 193.766 83.3789 197.698 83.3789 202.754C83.3789 208.417 81.6722 212.715 78.2588 215.65C75.1963 218.282 70.9535 219.598 65.5303 219.598ZM64.4536 213.76C65.4904 213.952 66.5272 214.047 67.564 214.047C68.6007 214.047 69.7173 213.848 70.9136 213.449C72.1099 213.035 73.1466 212.396 74.0239 211.535C75.9061 209.717 76.8472 207.069 76.8472 203.592C76.8472 197.882 74.7656 194.372 70.6025 193.064C69.2308 192.634 67.6437 192.418 65.8413 192.418H65.1953C64.9561 192.418 64.7088 192.426 64.4536 192.442V213.76ZM100.701 206.63C100.223 206.662 99.7122 206.678 99.1699 206.678C98.6276 206.678 97.8221 206.638 96.7534 206.559V219H90.4131V187.011C92.6462 186.724 95.3896 186.581 98.6436 186.581C103.078 186.581 106.38 187.402 108.549 189.045C110.734 190.672 111.827 193.192 111.827 196.605C111.827 199.253 110.83 201.518 108.836 203.4C108.182 204.007 107.432 204.533 106.587 204.979L111.468 215.268C112.425 217.389 113.159 218.649 113.669 219.048L113.549 219.167C112.002 218.912 109.57 218.92 106.252 219.191L100.701 206.63ZM99.0981 192.227C98.2847 192.227 97.5031 192.267 96.7534 192.347V201.486C97.535 201.598 98.4521 201.654 99.5049 201.654C100.558 201.654 101.443 201.566 102.161 201.391C102.878 201.199 103.5 200.912 104.027 200.529C105.159 199.684 105.726 198.416 105.726 196.725C105.726 195.034 105.135 193.846 103.955 193.16C102.854 192.538 101.236 192.227 99.0981 192.227ZM119.722 187.083C121.317 187.147 122.282 187.179 122.617 187.179H124.34C125.185 187.179 125.863 187.115 126.374 186.987L126.35 219H119.722V187.083ZM137.667 219.191C136.295 219.064 134.692 219 132.857 219H130.967L141.375 189.834C141.838 188.527 142.069 187.769 142.069 187.562C142.069 187.338 142.061 187.203 142.045 187.155L142.069 187.107C143.106 187.155 144.206 187.179 145.371 187.179C146.328 187.179 147.476 187.163 148.816 187.131L148.84 187.179C148.808 187.243 148.792 187.33 148.792 187.442C148.792 187.745 149.031 188.55 149.51 189.858L160.133 219.072C159.814 219.056 159.439 219.048 159.008 219.048C159.008 219.048 158.594 219.032 157.764 219C157.365 219 157.007 219 156.688 219H152.979L150.73 212.109H139.916L137.667 219.191ZM148.864 206.367L145.251 195.242L141.734 206.367H148.864ZM164.224 219C164.32 218.458 164.368 217.868 164.368 217.229V187.179H169.153L181.833 207.133V188.806C181.833 187.928 181.754 187.386 181.594 187.179H188.054C187.974 187.817 187.935 188.519 187.935 189.284V219H182.958L170.469 199.835V219H164.224ZM198.869 219.191C197.497 219.064 195.894 219 194.06 219H192.169L202.577 189.834C203.04 188.527 203.271 187.769 203.271 187.562C203.271 187.338 203.263 187.203 203.247 187.155L203.271 187.107C204.308 187.155 205.408 187.179 206.573 187.179C207.53 187.179 208.678 187.163 210.018 187.131L210.042 187.179C210.01 187.243 209.994 187.33 209.994 187.442C209.994 187.745 210.233 188.55 210.712 189.858L221.335 219.072C221.016 219.056 220.641 219.048 220.21 219.048C220.21 219.048 219.796 219.032 218.966 219C218.568 219 218.209 219 217.89 219H214.181L211.932 212.109H201.118L198.869 219.191ZM210.066 206.367L206.453 195.242L202.936 206.367H210.066ZM255.74 186.581C258.723 186.581 261.267 187.099 263.373 188.136V195.457L263.325 195.505C262.431 194.133 260.549 193.224 257.678 192.777C256.833 192.634 255.764 192.562 254.472 192.562C253.18 192.562 251.912 192.809 250.668 193.304C249.424 193.782 248.403 194.468 247.605 195.361C246.058 197.1 245.285 199.58 245.285 202.802C245.285 206.551 246.266 209.342 248.228 211.176C249.854 212.708 252.008 213.473 254.688 213.473C257.718 213.473 260.174 212.827 262.057 211.535C262.743 211.073 263.325 210.498 263.803 209.812L263.875 209.86V216.56C261.435 218.585 258.149 219.598 254.018 219.598C249.153 219.598 245.34 218.051 242.581 214.957C239.933 212.006 238.609 208.098 238.609 203.233C238.609 198.081 240.061 194.021 242.964 191.055C245.899 188.072 250.158 186.581 255.74 186.581ZM285.911 213.258C286.9 213.258 287.585 213.162 287.968 212.971L288.064 212.995L287.825 219H269.904V187.011C270.335 187.043 270.813 187.067 271.34 187.083L273.015 187.131C274.131 187.163 275.343 187.179 276.651 187.179C280.304 187.179 283.917 187.115 287.49 186.987C287.314 188.391 287.227 190.265 287.227 192.61C287.227 192.865 287.243 193.056 287.274 193.184L287.227 193.256C286.397 193.017 285.217 192.897 283.686 192.897H276.149V198.998H281.819C283.574 198.998 284.627 198.95 284.978 198.854L285.049 204.764C284.284 204.684 283.295 204.645 282.083 204.645H276.149V213.258H285.911ZM276.819 176.221C279.211 176.221 281.764 176.085 284.475 175.814L284.451 175.981L278.183 183.709H272.775L276.819 176.221ZM313.665 188.949L313.21 195.983L313.042 196.031C311.862 194.261 309.852 193.112 307.013 192.586C306.12 192.41 305.259 192.323 304.429 192.323C303.616 192.323 302.914 192.395 302.324 192.538C301.75 192.682 301.255 192.889 300.84 193.16C299.963 193.734 299.524 194.484 299.524 195.409C299.524 196.621 299.907 197.531 300.673 198.137C301.63 198.87 303.217 199.389 305.434 199.692C307.651 199.979 309.43 200.378 310.77 200.888C312.109 201.399 313.21 202.045 314.071 202.826C315.698 204.294 316.512 206.367 316.512 209.047C316.512 212.556 315.188 215.26 312.54 217.158C310.275 218.785 307.42 219.598 303.975 219.598C301.199 219.598 298.456 219.072 295.744 218.019C294.851 217.668 294.069 217.261 293.399 216.799L293.663 208.808L293.758 208.736C295.736 212.149 298.982 213.856 303.496 213.856C306.702 213.856 308.824 213.082 309.86 211.535C310.211 211.009 310.387 210.427 310.387 209.789C310.387 209.135 310.283 208.6 310.076 208.186C309.868 207.755 309.525 207.388 309.047 207.085C308.122 206.479 306.567 206.072 304.381 205.865C302.196 205.657 300.41 205.267 299.022 204.692C297.634 204.118 296.526 203.408 295.696 202.563C294.197 201.032 293.447 198.894 293.447 196.151C293.447 193.312 294.444 191.015 296.438 189.26C298.464 187.474 301.191 186.581 304.621 186.581C308.066 186.581 311.081 187.37 313.665 188.949ZM322.565 187.011C324.782 186.724 327.055 186.581 329.384 186.581C333.722 186.581 337.016 187.601 339.265 189.643C341.53 191.669 342.663 194.707 342.663 198.759C342.663 202.38 341.426 205.243 338.954 207.348C336.641 209.326 333.667 210.315 330.03 210.315C329.615 210.315 329.16 210.291 328.666 210.243V219H322.565V187.011ZM330.102 192.347C329.623 192.347 329.145 192.363 328.666 192.395V204.979C329.176 205.043 329.799 205.075 330.532 205.075C331.266 205.075 332.032 204.924 332.829 204.621C333.627 204.302 334.297 203.863 334.839 203.305C335.971 202.14 336.538 200.609 336.538 198.711C336.538 194.468 334.392 192.347 330.102 192.347ZM363.574 213.258C364.563 213.258 365.249 213.162 365.631 212.971L365.727 212.995L365.488 219H347.567V187.011C347.998 187.043 348.477 187.067 349.003 187.083L350.678 187.131C351.794 187.163 353.007 187.179 354.314 187.179C357.967 187.179 361.58 187.115 365.153 186.987C364.977 188.391 364.89 190.265 364.89 192.61C364.89 192.865 364.906 193.056 364.938 193.184L364.89 193.256C364.06 193.017 362.88 192.897 361.349 192.897H353.812V198.998H359.482C361.237 198.998 362.29 198.95 362.641 198.854L362.712 204.764C361.947 204.684 360.958 204.645 359.746 204.645H353.812V213.258H363.574ZM379.867 219.598C377.283 219.598 374.851 219.391 372.57 218.976V186.963C374.675 186.708 377.116 186.581 379.891 186.581C382.682 186.581 385.203 186.963 387.452 187.729C389.717 188.479 391.607 189.555 393.122 190.959C396.185 193.766 397.716 197.698 397.716 202.754C397.716 208.417 396.009 212.715 392.596 215.65C389.533 218.282 385.29 219.598 379.867 219.598ZM378.791 213.76C379.827 213.952 380.864 214.047 381.901 214.047C382.938 214.047 384.054 213.848 385.25 213.449C386.447 213.035 387.484 212.396 388.361 211.535C390.243 209.717 391.184 207.069 391.184 203.592C391.184 197.882 389.103 194.372 384.939 193.064C383.568 192.634 381.981 192.418 380.178 192.418H379.532C379.293 192.418 379.046 192.426 378.791 192.442V213.76ZM420.756 213.258C421.745 213.258 422.431 213.162 422.814 212.971L422.91 212.995L422.67 219H404.75V187.011C405.181 187.043 405.659 187.067 406.186 187.083L407.86 187.131C408.977 187.163 410.189 187.179 411.497 187.179C415.15 187.179 418.763 187.115 422.335 186.987C422.16 188.391 422.072 190.265 422.072 192.61C422.072 192.865 422.088 193.056 422.12 193.184L422.072 193.256C421.243 193.017 420.062 192.897 418.531 192.897H410.995V198.998H416.665C418.42 198.998 419.472 198.95 419.823 198.854L419.895 204.764C419.129 204.684 418.14 204.645 416.928 204.645H410.995V213.258H420.756ZM448.51 188.949L448.056 195.983L447.888 196.031C446.708 194.261 444.698 193.112 441.859 192.586C440.966 192.41 440.104 192.323 439.275 192.323C438.461 192.323 437.76 192.395 437.169 192.538C436.595 192.682 436.101 192.889 435.686 193.16C434.809 193.734 434.37 194.484 434.37 195.409C434.37 196.621 434.753 197.531 435.519 198.137C436.476 198.87 438.063 199.389 440.28 199.692C442.497 199.979 444.275 200.378 445.615 200.888C446.955 201.399 448.056 202.045 448.917 202.826C450.544 204.294 451.357 206.367 451.357 209.047C451.357 212.556 450.034 215.26 447.386 217.158C445.121 218.785 442.266 219.598 438.82 219.598C436.045 219.598 433.301 219.072 430.59 218.019C429.697 217.668 428.915 217.261 428.245 216.799L428.508 208.808L428.604 208.736C430.582 212.149 433.828 213.856 438.342 213.856C441.548 213.856 443.669 213.082 444.706 211.535C445.057 211.009 445.232 210.427 445.232 209.789C445.232 209.135 445.129 208.6 444.921 208.186C444.714 207.755 444.371 207.388 443.893 207.085C442.967 206.479 441.412 206.072 439.227 205.865C437.042 205.657 435.255 205.267 433.868 204.692C432.48 204.118 431.371 203.408 430.542 202.563C429.043 201.032 428.293 198.894 428.293 196.151C428.293 193.312 429.29 191.015 431.284 189.26C433.309 187.474 436.037 186.581 439.466 186.581C442.912 186.581 445.926 187.37 448.51 188.949Z" fill="white"/>
<path d="M164.56 283.04V285.36H156.8V311H154V285.36H146.2V283.04H164.56ZM171.781 285.32V295.76H182.381V298.08H171.781V308.68H183.581V311H168.981V283H183.581V285.32H171.781ZM197.578 311.28C195.738 311.28 194.112 310.96 192.698 310.32C191.312 309.68 190.218 308.787 189.418 307.64C188.618 306.493 188.192 305.213 188.138 303.8H191.098C191.232 305.16 191.832 306.36 192.898 307.4C193.965 308.413 195.525 308.92 197.578 308.92C199.472 308.92 200.965 308.44 202.058 307.48C203.178 306.493 203.738 305.253 203.738 303.76C203.738 302.56 203.432 301.6 202.818 300.88C202.205 300.133 201.445 299.587 200.538 299.24C199.632 298.867 198.378 298.467 196.778 298.04C194.912 297.533 193.432 297.04 192.338 296.56C191.245 296.08 190.312 295.333 189.538 294.32C188.765 293.307 188.378 291.933 188.378 290.2C188.378 288.76 188.752 287.48 189.498 286.36C190.245 285.213 191.298 284.32 192.658 283.68C194.018 283.04 195.578 282.72 197.338 282.72C199.925 282.72 202.005 283.36 203.578 284.64C205.178 285.893 206.098 287.52 206.338 289.52H203.298C203.112 288.373 202.485 287.36 201.418 286.48C200.352 285.573 198.912 285.12 197.098 285.12C195.418 285.12 194.018 285.573 192.898 286.48C191.778 287.36 191.218 288.573 191.218 290.12C191.218 291.293 191.525 292.24 192.138 292.96C192.752 293.68 193.512 294.227 194.418 294.6C195.352 294.973 196.605 295.373 198.178 295.8C199.992 296.307 201.458 296.813 202.578 297.32C203.698 297.8 204.645 298.547 205.418 299.56C206.192 300.573 206.578 301.933 206.578 303.64C206.578 304.947 206.232 306.187 205.538 307.36C204.845 308.533 203.818 309.48 202.458 310.2C201.098 310.92 199.472 311.28 197.578 311.28ZM224.549 311.28C221.962 311.28 219.616 310.68 217.509 309.48C215.402 308.253 213.736 306.56 212.509 304.4C211.309 302.213 210.709 299.747 210.709 297C210.709 294.253 211.309 291.8 212.509 289.64C213.736 287.453 215.402 285.76 217.509 284.56C219.616 283.333 221.962 282.72 224.549 282.72C227.162 282.72 229.522 283.333 231.629 284.56C233.736 285.76 235.389 287.453 236.589 289.64C237.789 291.8 238.389 294.253 238.389 297C238.389 299.747 237.789 302.213 236.589 304.4C235.389 306.56 233.736 308.253 231.629 309.48C229.522 310.68 227.162 311.28 224.549 311.28ZM224.549 308.84C226.629 308.84 228.496 308.36 230.149 307.4C231.802 306.44 233.109 305.067 234.069 303.28C235.029 301.467 235.509 299.373 235.509 297C235.509 294.627 235.029 292.547 234.069 290.76C233.109 288.973 231.802 287.6 230.149 286.64C228.496 285.68 226.629 285.2 224.549 285.2C222.469 285.2 220.602 285.68 218.949 286.64C217.296 287.6 215.989 288.973 215.029 290.76C214.069 292.547 213.589 294.627 213.589 297C213.589 299.373 214.069 301.467 215.029 303.28C215.989 305.067 217.296 306.44 218.949 307.4C220.602 308.36 222.469 308.84 224.549 308.84ZM258.393 311L251.473 299.32H246.313V311H243.513V283.04H251.913C255.033 283.04 257.393 283.787 258.993 285.28C260.619 286.773 261.432 288.733 261.432 291.16C261.432 293.187 260.846 294.92 259.673 296.36C258.526 297.773 256.819 298.693 254.553 299.12L261.753 311H258.393ZM246.313 297.04H251.953C254.139 297.04 255.779 296.507 256.873 295.44C257.993 294.373 258.553 292.947 258.553 291.16C258.553 289.32 258.019 287.907 256.953 286.92C255.886 285.907 254.206 285.4 251.913 285.4H246.313V297.04ZM269.789 285.32V295.76H280.389V298.08H269.789V308.68H281.589V311H266.989V283H281.589V285.32H269.789ZM301.986 311L295.066 299.32H289.906V311H287.106V283.04H295.506C298.626 283.04 300.986 283.787 302.586 285.28C304.213 286.773 305.026 288.733 305.026 291.16C305.026 293.187 304.44 294.92 303.266 296.36C302.12 297.773 300.413 298.693 298.146 299.12L305.346 311H301.986ZM289.906 297.04H295.546C297.733 297.04 299.373 296.507 300.466 295.44C301.586 294.373 302.146 292.947 302.146 291.16C302.146 289.32 301.613 287.907 300.546 286.92C299.48 285.907 297.8 285.4 295.506 285.4H289.906V297.04ZM326.783 304.36H314.063L311.623 311H308.663L318.863 283.4H322.023L332.183 311H329.223L326.783 304.36ZM325.943 302.04L320.423 286.92L314.903 302.04H325.943Z" fill="white"/>
</svg>
