<svg width="523" height="523" viewBox="0 0 523 523" fill="none" xmlns="http://www.w3.org/2000/svg">
<rect x="407.1" width="423.207" height="423.207" rx="20" transform="rotate(74.1415 407.1 0)" fill="#546EF3"/>
<path d="M184.369 154.111C183.775 154.037 182.248 154 179.786 154H179.192V133.479H175.519C174.43 133.479 173.787 133.534 173.589 133.646C173.391 133.757 173.236 133.856 173.125 133.942L173.069 133.924V129.174L173.125 129.118C173.533 129.254 174.634 129.322 176.428 129.322H188.062C189.15 129.322 189.793 129.267 189.991 129.155C190.189 129.044 190.344 128.945 190.455 128.858L190.511 128.877V133.627L190.455 133.683C190.047 133.547 188.946 133.479 187.152 133.479H184.369V154.111ZM202.479 144.407C202.107 144.432 201.712 144.444 201.291 144.444C200.87 144.444 200.246 144.413 199.417 144.352V154H194.5V129.192C196.232 128.97 198.359 128.858 200.883 128.858C204.322 128.858 206.882 129.495 208.564 130.77C210.259 132.031 211.106 133.986 211.106 136.633C211.106 138.686 210.333 140.443 208.787 141.902C208.28 142.372 207.699 142.781 207.043 143.127L210.828 151.105C211.57 152.751 212.139 153.728 212.535 154.037L212.442 154.13C211.243 153.932 209.356 153.938 206.783 154.148L202.479 144.407ZM201.235 133.237C200.604 133.237 199.998 133.268 199.417 133.33V140.418C200.023 140.505 200.734 140.548 201.551 140.548C202.367 140.548 203.054 140.48 203.61 140.344C204.167 140.195 204.649 139.973 205.058 139.676C205.936 139.02 206.375 138.037 206.375 136.726C206.375 135.414 205.917 134.493 205.002 133.961C204.148 133.479 202.893 133.237 201.235 133.237ZM217.229 129.248C218.466 129.298 219.215 129.322 219.475 129.322H220.811C221.466 129.322 221.992 129.273 222.388 129.174L222.369 154H217.229V129.248ZM244.932 152.2C244.029 152.918 242.854 153.474 241.406 153.87C239.959 154.266 238.178 154.464 236.062 154.464C233.96 154.464 231.721 154.272 229.346 153.889V129.434C231.745 129.05 233.824 128.858 235.58 128.858C237.349 128.858 238.796 129.025 239.922 129.359C241.06 129.693 241.988 130.145 242.705 130.714C244.115 131.815 244.82 133.243 244.82 135C244.82 136.744 244.183 138.191 242.909 139.342C244.418 139.812 245.587 140.702 246.416 142.014C247.171 143.189 247.548 144.494 247.548 145.929C247.548 147.351 247.338 148.57 246.917 149.584C246.509 150.598 245.847 151.47 244.932 152.2ZM234.263 138.655C234.782 138.742 235.432 138.785 236.211 138.785C236.99 138.785 237.627 138.686 238.122 138.488C238.629 138.278 239.019 138.018 239.291 137.709C239.736 137.202 239.959 136.497 239.959 135.594C239.959 133.701 238.846 132.755 236.619 132.755C235.679 132.755 234.894 132.792 234.263 132.866V138.655ZM237.009 142.626C235.97 142.626 235.054 142.694 234.263 142.83V150.122C235.129 150.345 236.038 150.456 236.99 150.456C237.943 150.456 238.778 150.345 239.495 150.122C240.225 149.887 240.837 149.572 241.332 149.176C242.334 148.359 242.835 147.32 242.835 146.059C242.835 143.77 240.893 142.626 237.009 142.626ZM265.639 129.229C266.406 129.291 267.043 129.322 267.55 129.322H269.09C269.609 129.322 270.154 129.273 270.723 129.174V144.519C270.723 147.562 269.801 150.005 267.958 151.848C266.214 153.592 264.024 154.464 261.39 154.464C258.507 154.464 256.176 153.715 254.395 152.219C252.403 150.536 251.407 148.112 251.407 144.945V129.229C252.434 129.291 253.399 129.322 254.302 129.322C255.217 129.322 255.972 129.273 256.565 129.174V145.187C256.565 146.745 257.042 147.957 257.994 148.823C258.885 149.615 259.998 150.011 261.334 150.011C263.313 150.011 264.631 148.996 265.286 146.968C265.521 146.238 265.639 145.335 265.639 144.259V129.229ZM277.124 154C277.198 153.579 277.235 153.122 277.235 152.627V129.322H280.946L290.78 144.797V130.584C290.78 129.904 290.718 129.483 290.595 129.322H295.604C295.543 129.817 295.512 130.361 295.512 130.955V154H291.652L281.967 139.138V154H277.124ZM303.991 154.148C302.927 154.049 301.684 154 300.262 154H298.796L306.867 131.382C307.226 130.368 307.405 129.78 307.405 129.619C307.405 129.446 307.399 129.341 307.387 129.304L307.405 129.267C308.209 129.304 309.063 129.322 309.966 129.322C310.708 129.322 311.599 129.31 312.638 129.285L312.656 129.322C312.632 129.372 312.619 129.44 312.619 129.526C312.619 129.761 312.805 130.386 313.176 131.4L321.414 154.056C321.167 154.043 320.876 154.037 320.542 154.037C320.542 154.037 320.22 154.025 319.577 154C319.268 154 318.99 154 318.742 154H315.866L314.122 148.656H305.735L303.991 154.148ZM312.675 144.203L309.873 135.575L307.146 144.203H312.675ZM328.038 154C326.22 154 325.014 154.037 324.42 154.111V129.211C324.717 129.285 325.329 129.322 326.257 129.322C327.197 129.322 328.285 129.298 329.522 129.248V149.547H333.363C334.477 149.547 335.367 149.51 336.035 149.436C335.949 152.33 335.905 153.833 335.905 153.944V154.13C334.693 154.043 332.658 154 329.801 154H328.038ZM75.5273 200.464C73.5234 200.464 71.637 200.303 69.8682 199.981V175.155C71.501 174.957 73.3936 174.858 75.5459 174.858C77.7106 174.858 79.665 175.155 81.4092 175.749C83.1657 176.33 84.6315 177.165 85.8066 178.254C88.1816 180.431 89.3691 183.48 89.3691 187.401C89.3691 191.793 88.0456 195.126 85.3984 197.402C83.0234 199.443 79.7331 200.464 75.5273 200.464ZM74.6924 195.937C75.4964 196.085 76.3005 196.159 77.1045 196.159C77.9085 196.159 78.7744 196.005 79.7021 195.695C80.6299 195.374 81.4339 194.879 82.1143 194.211C83.5739 192.801 84.3037 190.747 84.3037 188.051C84.3037 183.622 82.6895 180.901 79.4609 179.887C78.3971 179.553 77.1663 179.386 75.7686 179.386H75.2676C75.082 179.386 74.8903 179.392 74.6924 179.404V195.937ZM107.237 195.547C108.004 195.547 108.536 195.473 108.833 195.324L108.907 195.343L108.722 200H94.8242V175.192C95.1582 175.217 95.5293 175.236 95.9375 175.248L97.2363 175.285C98.1022 175.31 99.0423 175.322 100.057 175.322C102.889 175.322 105.691 175.273 108.462 175.174C108.326 176.262 108.258 177.716 108.258 179.534C108.258 179.732 108.27 179.881 108.295 179.979L108.258 180.035C107.615 179.85 106.699 179.757 105.512 179.757H99.667V184.488H104.064C105.425 184.488 106.242 184.451 106.514 184.377L106.569 188.96C105.976 188.898 105.209 188.867 104.269 188.867H99.667V195.547H107.237ZM138.892 195.547C139.659 195.547 140.19 195.473 140.487 195.324L140.562 195.343L140.376 200H126.479V175.192C126.812 175.217 127.184 175.236 127.592 175.248L128.891 175.285C129.757 175.31 130.697 175.322 131.711 175.322C134.544 175.322 137.345 175.273 140.116 175.174C139.98 176.262 139.912 177.716 139.912 179.534C139.912 179.732 139.924 179.881 139.949 179.979L139.912 180.035C139.269 179.85 138.354 179.757 137.166 179.757H131.321V184.488H135.719C137.079 184.488 137.896 184.451 138.168 184.377L138.224 188.96C137.63 188.898 136.863 188.867 135.923 188.867H131.321V195.547H138.892ZM131.841 166.824C133.696 166.824 135.675 166.719 137.778 166.509L137.76 166.639L132.898 172.632H128.705L131.841 166.824ZM154.422 200.111C153.828 200.037 152.3 200 149.839 200H149.245V179.479H145.571C144.483 179.479 143.84 179.534 143.642 179.646C143.444 179.757 143.289 179.856 143.178 179.942L143.122 179.924V175.174L143.178 175.118C143.586 175.254 144.687 175.322 146.48 175.322H158.114C159.203 175.322 159.846 175.267 160.044 175.155C160.242 175.044 160.396 174.945 160.508 174.858L160.563 174.877V179.627L160.508 179.683C160.1 179.547 158.999 179.479 157.205 179.479H154.422V200.111ZM165.128 175.248C166.365 175.298 167.113 175.322 167.373 175.322H168.709C169.365 175.322 169.89 175.273 170.286 175.174L170.268 200H165.128V175.248ZM188.303 174.858C190.616 174.858 192.589 175.26 194.222 176.064V181.742L194.185 181.779C193.492 180.715 192.032 180.01 189.806 179.664C189.15 179.553 188.321 179.497 187.319 179.497C186.317 179.497 185.334 179.689 184.369 180.072C183.404 180.443 182.613 180.975 181.994 181.668C180.794 183.016 180.194 184.94 180.194 187.438C180.194 190.345 180.955 192.51 182.477 193.933C183.738 195.12 185.408 195.714 187.486 195.714C189.837 195.714 191.742 195.213 193.201 194.211C193.733 193.852 194.185 193.407 194.556 192.875L194.611 192.912V198.107C192.719 199.678 190.171 200.464 186.967 200.464C183.194 200.464 180.238 199.264 178.098 196.864C176.044 194.576 175.018 191.545 175.018 187.772C175.018 183.777 176.143 180.629 178.395 178.328C180.671 176.015 183.973 174.858 188.303 174.858ZM201.087 200.148C200.023 200.049 198.78 200 197.357 200H195.892L203.963 177.382C204.322 176.368 204.501 175.78 204.501 175.619C204.501 175.446 204.495 175.341 204.482 175.304L204.501 175.267C205.305 175.304 206.159 175.322 207.062 175.322C207.804 175.322 208.694 175.31 209.733 175.285L209.752 175.322C209.727 175.372 209.715 175.44 209.715 175.526C209.715 175.761 209.9 176.386 210.271 177.4L218.51 200.056C218.262 200.043 217.972 200.037 217.638 200.037C217.638 200.037 217.316 200.025 216.673 200C216.364 200 216.085 200 215.838 200H212.962L211.218 194.656H202.831L201.087 200.148ZM209.771 190.203L206.969 181.575L204.241 190.203H209.771ZM239.31 200C239.47 199.518 239.551 198.392 239.551 196.623V191.465C237.411 186.752 236.044 183.814 235.45 182.651C234.856 181.476 234.355 180.549 233.947 179.868C232.661 177.691 231.882 176.442 231.609 176.12C231.35 175.799 231.084 175.533 230.812 175.322H237.213C237.349 175.57 237.535 175.935 237.77 176.417L242.26 185.898C242.47 185.379 242.717 184.798 243.002 184.154C245.699 178.353 247.065 175.409 247.103 175.322H253.226C252.595 175.829 251.822 176.893 250.906 178.514C250.622 178.996 250.337 179.547 250.053 180.165L245.859 188.904C245.389 189.956 244.987 190.902 244.653 191.743V197.068C244.653 198.305 244.728 199.283 244.876 200H239.31ZM274.916 200.464C272.912 200.464 271.026 200.303 269.257 199.981V175.155C270.89 174.957 272.782 174.858 274.935 174.858C277.099 174.858 279.054 175.155 280.798 175.749C282.554 176.33 284.02 177.165 285.195 178.254C287.57 180.431 288.758 183.48 288.758 187.401C288.758 191.793 287.434 195.126 284.787 197.402C282.412 199.443 279.122 200.464 274.916 200.464ZM274.081 195.937C274.885 196.085 275.689 196.159 276.493 196.159C277.297 196.159 278.163 196.005 279.091 195.695C280.019 195.374 280.823 194.879 281.503 194.211C282.963 192.801 283.692 190.747 283.692 188.051C283.692 183.622 282.078 180.901 278.85 179.887C277.786 179.553 276.555 179.386 275.157 179.386H274.656C274.471 179.386 274.279 179.392 274.081 179.404V195.937ZM294.788 175.248C296.025 175.298 296.773 175.322 297.033 175.322H298.369C299.025 175.322 299.55 175.273 299.946 175.174L299.928 200H294.788V175.248ZM321.804 176.695L321.451 182.15L321.321 182.188C320.406 180.814 318.847 179.924 316.646 179.516C315.953 179.38 315.285 179.312 314.642 179.312C314.011 179.312 313.466 179.367 313.009 179.479C312.563 179.59 312.18 179.751 311.858 179.961C311.178 180.406 310.838 180.988 310.838 181.705C310.838 182.645 311.135 183.35 311.729 183.82C312.471 184.389 313.701 184.791 315.421 185.026C317.14 185.249 318.52 185.558 319.559 185.954C320.598 186.35 321.451 186.851 322.119 187.457C323.381 188.595 324.012 190.203 324.012 192.281C324.012 195.003 322.985 197.099 320.932 198.571C319.175 199.833 316.961 200.464 314.289 200.464C312.137 200.464 310.009 200.056 307.906 199.239C307.214 198.967 306.607 198.652 306.088 198.293L306.292 192.096L306.366 192.04C307.9 194.687 310.417 196.011 313.918 196.011C316.404 196.011 318.049 195.411 318.854 194.211C319.126 193.803 319.262 193.351 319.262 192.856C319.262 192.349 319.181 191.935 319.021 191.613C318.86 191.279 318.594 190.995 318.223 190.76C317.505 190.29 316.299 189.974 314.604 189.813C312.91 189.653 311.524 189.35 310.448 188.904C309.372 188.459 308.512 187.909 307.869 187.253C306.706 186.065 306.125 184.408 306.125 182.28C306.125 180.078 306.898 178.297 308.444 176.937C310.015 175.551 312.131 174.858 314.79 174.858C317.462 174.858 319.8 175.471 321.804 176.695ZM340.117 174.858C342.43 174.858 344.403 175.26 346.036 176.064V181.742L345.999 181.779C345.306 180.715 343.847 180.01 341.62 179.664C340.965 179.553 340.136 179.497 339.134 179.497C338.132 179.497 337.148 179.689 336.184 180.072C335.219 180.443 334.427 180.975 333.809 181.668C332.609 183.016 332.009 184.94 332.009 187.438C332.009 190.345 332.77 192.51 334.291 193.933C335.553 195.12 337.223 195.714 339.301 195.714C341.651 195.714 343.556 195.213 345.016 194.211C345.548 193.852 345.999 193.407 346.37 192.875L346.426 192.912V198.107C344.533 199.678 341.985 200.464 338.781 200.464C335.008 200.464 332.052 199.264 329.912 196.864C327.859 194.576 326.832 191.545 326.832 187.772C326.832 183.777 327.958 180.629 330.209 178.328C332.485 176.015 335.788 174.858 340.117 174.858ZM351.677 175.248C352.914 175.298 353.662 175.322 353.922 175.322H355.258C355.913 175.322 356.439 175.273 356.835 175.174L356.816 200H351.677V175.248ZM363.44 175.192C365.16 174.97 366.923 174.858 368.729 174.858C372.093 174.858 374.647 175.65 376.392 177.233C378.148 178.804 379.026 181.161 379.026 184.303C379.026 187.111 378.068 189.331 376.15 190.964C374.357 192.498 372.05 193.265 369.229 193.265C368.908 193.265 368.555 193.246 368.172 193.209V200H363.44V175.192ZM369.285 179.33C368.914 179.33 368.543 179.342 368.172 179.367V189.127C368.568 189.176 369.05 189.201 369.619 189.201C370.188 189.201 370.782 189.084 371.4 188.849C372.019 188.601 372.538 188.261 372.959 187.828C373.837 186.925 374.276 185.738 374.276 184.266C374.276 180.975 372.613 179.33 369.285 179.33ZM386.448 200C384.63 200 383.424 200.037 382.83 200.111V175.211C383.127 175.285 383.739 175.322 384.667 175.322C385.607 175.322 386.696 175.298 387.933 175.248V195.547H391.773C392.887 195.547 393.777 195.51 394.445 195.436C394.359 198.33 394.315 199.833 394.315 199.944V200.13C393.103 200.043 391.068 200 388.211 200H386.448ZM399.288 175.248C400.525 175.298 401.273 175.322 401.533 175.322H402.869C403.525 175.322 404.05 175.273 404.446 175.174L404.428 200H399.288V175.248ZM411.571 200C411.646 199.579 411.683 199.122 411.683 198.627V175.322H415.394L425.228 190.797V176.584C425.228 175.904 425.166 175.483 425.042 175.322H430.052C429.99 175.817 429.959 176.361 429.959 176.955V200H426.1L416.414 185.138V200H411.571ZM438.438 200.148C437.375 200.049 436.132 200 434.709 200H433.243L441.314 177.382C441.673 176.368 441.853 175.78 441.853 175.619C441.853 175.446 441.846 175.341 441.834 175.304L441.853 175.267C442.657 175.304 443.51 175.322 444.413 175.322C445.155 175.322 446.046 175.31 447.085 175.285L447.104 175.322C447.079 175.372 447.066 175.44 447.066 175.526C447.066 175.761 447.252 176.386 447.623 177.4L455.861 200.056C455.614 200.043 455.323 200.037 454.989 200.037C454.989 200.037 454.668 200.025 454.024 200C453.715 200 453.437 200 453.189 200H450.313L448.569 194.656H440.183L438.438 200.148ZM447.122 190.203L444.32 181.575L441.593 190.203H447.122Z" fill="white"/>
<path d="M160.372 248.3V269H158.272V252.47L150.892 269H149.362L141.982 252.53V269H139.882V248.3H142.102L150.112 266.24L158.122 248.3H160.372ZM167.236 249.74V257.57H175.186V259.31H167.236V267.26H176.086V269H165.136V248H176.086V249.74H167.236ZM182.324 267.29H189.854V269H180.224V248.03H182.324V267.29ZM194.951 248.03V269H192.851V248.03H194.951ZM206.067 269.21C204.687 269.21 203.467 268.97 202.407 268.49C201.367 268.01 200.547 267.34 199.947 266.48C199.347 265.62 199.027 264.66 198.987 263.6H201.207C201.307 264.62 201.757 265.52 202.557 266.3C203.357 267.06 204.527 267.44 206.067 267.44C207.487 267.44 208.607 267.08 209.427 266.36C210.267 265.62 210.687 264.69 210.687 263.57C210.687 262.67 210.457 261.95 209.997 261.41C209.537 260.85 208.967 260.44 208.287 260.18C207.607 259.9 206.667 259.6 205.467 259.28C204.067 258.9 202.957 258.53 202.137 258.17C201.317 257.81 200.617 257.25 200.037 256.49C199.457 255.73 199.167 254.7 199.167 253.4C199.167 252.32 199.447 251.36 200.007 250.52C200.567 249.66 201.357 248.99 202.377 248.51C203.397 248.03 204.567 247.79 205.887 247.79C207.827 247.79 209.387 248.27 210.567 249.23C211.767 250.17 212.457 251.39 212.637 252.89H210.357C210.217 252.03 209.747 251.27 208.947 250.61C208.147 249.93 207.067 249.59 205.707 249.59C204.447 249.59 203.397 249.93 202.557 250.61C201.717 251.27 201.297 252.18 201.297 253.34C201.297 254.22 201.527 254.93 201.987 255.47C202.447 256.01 203.017 256.42 203.697 256.7C204.397 256.98 205.337 257.28 206.517 257.6C207.877 257.98 208.977 258.36 209.817 258.74C210.657 259.1 211.367 259.66 211.947 260.42C212.527 261.18 212.817 262.2 212.817 263.48C212.817 264.46 212.557 265.39 212.037 266.27C211.517 267.15 210.747 267.86 209.727 268.4C208.707 268.94 207.487 269.21 206.067 269.21ZM229.025 264.02H219.485L217.655 269H215.435L223.085 248.3H225.455L233.075 269H230.855L229.025 264.02ZM228.395 262.28L224.255 250.94L220.115 262.28H228.395ZM243.717 258.5C243.717 256.44 244.167 254.6 245.067 252.98C245.967 251.34 247.197 250.07 248.757 249.17C250.317 248.25 252.057 247.79 253.977 247.79C256.317 247.79 258.317 248.35 259.977 249.47C261.657 250.57 262.877 252.13 263.637 254.15H261.177C260.577 252.73 259.657 251.62 258.417 250.82C257.197 250.02 255.717 249.62 253.977 249.62C252.437 249.62 251.047 249.98 249.807 250.7C248.587 251.42 247.627 252.46 246.927 253.82C246.227 255.16 245.877 256.72 245.877 258.5C245.877 260.28 246.227 261.84 246.927 263.18C247.627 264.52 248.587 265.55 249.807 266.27C251.047 266.99 252.437 267.35 253.977 267.35C255.717 267.35 257.197 266.96 258.417 266.18C259.657 265.38 260.577 264.28 261.177 262.88H263.637C262.877 264.88 261.657 266.43 259.977 267.53C258.297 268.63 256.297 269.18 253.977 269.18C252.057 269.18 250.317 268.73 248.757 267.83C247.197 266.91 245.967 265.64 245.067 264.02C244.167 262.4 243.717 260.56 243.717 258.5ZM279.972 264.02H270.432L268.602 269H266.382L274.032 248.3H276.402L284.022 269H281.802L279.972 264.02ZM279.342 262.28L275.202 250.94L271.062 262.28H279.342ZM307.882 248.3V269H305.782V252.47L298.402 269H296.872L289.492 252.53V269H287.392V248.3H289.612L297.622 266.24L305.632 248.3H307.882ZM326.056 254.06C326.056 255.86 325.466 257.31 324.286 258.41C323.106 259.51 321.336 260.06 318.976 260.06H314.746V269H312.646V248.03H318.976C321.316 248.03 323.076 248.58 324.256 249.68C325.456 250.78 326.056 252.24 326.056 254.06ZM318.976 258.26C322.256 258.26 323.896 256.86 323.896 254.06C323.896 252.66 323.506 251.6 322.726 250.88C321.946 250.16 320.696 249.8 318.976 249.8H314.746V258.26H318.976ZM331.68 249.74V257.57H339.63V259.31H331.68V267.26H340.53V269H329.58V248H340.53V249.74H331.68ZM355.828 269L350.638 260.24H346.768V269H344.668V248.03H350.968C353.308 248.03 355.078 248.59 356.278 249.71C357.498 250.83 358.108 252.3 358.108 254.12C358.108 255.64 357.668 256.94 356.788 258.02C355.928 259.08 354.648 259.77 352.948 260.09L358.348 269H355.828ZM346.768 258.53H350.998C352.638 258.53 353.868 258.13 354.688 257.33C355.528 256.53 355.948 255.46 355.948 254.12C355.948 252.74 355.548 251.68 354.748 250.94C353.948 250.18 352.688 249.8 350.968 249.8H346.768V258.53ZM371.695 269.21C369.755 269.21 367.995 268.76 366.415 267.86C364.835 266.94 363.585 265.67 362.665 264.05C361.765 262.41 361.315 260.56 361.315 258.5C361.315 256.44 361.765 254.6 362.665 252.98C363.585 251.34 364.835 250.07 366.415 249.17C367.995 248.25 369.755 247.79 371.695 247.79C373.655 247.79 375.425 248.25 377.005 249.17C378.585 250.07 379.825 251.34 380.725 252.98C381.625 254.6 382.075 256.44 382.075 258.5C382.075 260.56 381.625 262.41 380.725 264.05C379.825 265.67 378.585 266.94 377.005 267.86C375.425 268.76 373.655 269.21 371.695 269.21ZM371.695 267.38C373.255 267.38 374.655 267.02 375.895 266.3C377.135 265.58 378.115 264.55 378.835 263.21C379.555 261.85 379.915 260.28 379.915 258.5C379.915 256.72 379.555 255.16 378.835 253.82C378.115 252.48 377.135 251.45 375.895 250.73C374.655 250.01 373.255 249.65 371.695 249.65C370.135 249.65 368.735 250.01 367.495 250.73C366.255 251.45 365.275 252.48 364.555 253.82C363.835 255.16 363.475 256.72 363.475 258.5C363.475 260.28 363.835 261.85 364.555 263.21C365.275 264.55 366.255 265.58 367.495 266.3C368.735 267.02 370.135 267.38 371.695 267.38ZM116.048 315L106.958 305.31V315H104.858V294.03H106.958V303.84L116.048 294.03H118.718L108.908 304.5L118.808 315H116.048ZM124.009 313.29H131.539V315H121.909V294.03H124.009V313.29ZM151.036 300.15C150.436 298.77 149.516 297.69 148.276 296.91C147.056 296.11 145.616 295.71 143.956 295.71C142.396 295.71 140.996 296.07 139.756 296.79C138.516 297.51 137.536 298.54 136.816 299.88C136.096 301.2 135.736 302.74 135.736 304.5C135.736 306.26 136.096 307.81 136.816 309.15C137.536 310.49 138.516 311.52 139.756 312.24C140.996 312.96 142.396 313.32 143.956 313.32C145.416 313.32 146.726 313.01 147.886 312.39C149.066 311.75 150.006 310.85 150.706 309.69C151.426 308.51 151.836 307.14 151.936 305.58H143.116V303.87H154.156V305.4C154.056 307.24 153.556 308.91 152.656 310.41C151.756 311.89 150.546 313.06 149.026 313.92C147.526 314.78 145.836 315.21 143.956 315.21C142.016 315.21 140.256 314.76 138.676 313.86C137.096 312.94 135.846 311.67 134.926 310.05C134.026 308.41 133.576 306.56 133.576 304.5C133.576 302.44 134.026 300.6 134.926 298.98C135.846 297.34 137.096 296.07 138.676 295.17C140.256 294.25 142.016 293.79 143.956 293.79C146.196 293.79 148.156 294.35 149.836 295.47C151.516 296.59 152.736 298.15 153.496 300.15H151.036ZM167.423 315.21C165.483 315.21 163.723 314.76 162.143 313.86C160.563 312.94 159.313 311.67 158.393 310.05C157.493 308.41 157.043 306.56 157.043 304.5C157.043 302.44 157.493 300.6 158.393 298.98C159.313 297.34 160.563 296.07 162.143 295.17C163.723 294.25 165.483 293.79 167.423 293.79C169.383 293.79 171.153 294.25 172.733 295.17C174.313 296.07 175.553 297.34 176.453 298.98C177.353 300.6 177.803 302.44 177.803 304.5C177.803 306.56 177.353 308.41 176.453 310.05C175.553 311.67 174.313 312.94 172.733 313.86C171.153 314.76 169.383 315.21 167.423 315.21ZM167.423 313.38C168.983 313.38 170.383 313.02 171.623 312.3C172.863 311.58 173.843 310.55 174.563 309.21C175.283 307.85 175.643 306.28 175.643 304.5C175.643 302.72 175.283 301.16 174.563 299.82C173.843 298.48 172.863 297.45 171.623 296.73C170.383 296.01 168.983 295.65 167.423 295.65C165.863 295.65 164.463 296.01 163.223 296.73C161.983 297.45 161.003 298.48 160.283 299.82C159.563 301.16 159.203 302.72 159.203 304.5C159.203 306.28 159.563 307.85 160.283 309.21C161.003 310.55 161.983 311.58 163.223 312.3C164.463 313.02 165.863 313.38 167.423 313.38ZM182.005 315.15C181.565 315.15 181.195 315 180.895 314.7C180.615 314.4 180.475 314.03 180.475 313.59C180.475 313.15 180.615 312.79 180.895 312.51C181.195 312.21 181.565 312.06 182.005 312.06C182.425 312.06 182.775 312.21 183.055 312.51C183.355 312.79 183.505 313.15 183.505 313.59C183.505 314.03 183.355 314.4 183.055 314.7C182.775 315 182.425 315.15 182.005 315.15ZM206.667 294.03V295.77H197.427V303.6H205.227V305.34H197.427V315H195.327V294.03H206.667ZM212.222 295.74V303.57H220.172V305.31H212.222V313.26H221.072V315H210.122V294H221.072V295.74H212.222ZM236.37 315L231.18 306.24H227.31V315H225.21V294.03H231.51C233.85 294.03 235.62 294.59 236.82 295.71C238.04 296.83 238.65 298.3 238.65 300.12C238.65 301.64 238.21 302.94 237.33 304.02C236.47 305.08 235.19 305.77 233.49 306.09L238.89 315H236.37ZM227.31 304.53H231.54C233.18 304.53 234.41 304.13 235.23 303.33C236.07 302.53 236.49 301.46 236.49 300.12C236.49 298.74 236.09 297.68 235.29 296.94C234.49 296.18 233.23 295.8 231.51 295.8H227.31V304.53ZM263.307 294.3V315H261.207V298.47L253.827 315H252.297L244.917 298.53V315H242.817V294.3H245.037L253.047 312.24L261.057 294.3H263.307ZM270.171 294.03V315H268.071V294.03H270.171ZM271.881 289.47L265.731 293.04V291.42L271.881 287.58V289.47ZM290.736 315H288.636L277.026 297.36V315H274.926V294.03H277.026L288.636 311.64V294.03H290.736V315ZM310.085 315.21C308.705 315.21 307.485 314.97 306.425 314.49C305.385 314.01 304.565 313.34 303.965 312.48C303.365 311.62 303.045 310.66 303.005 309.6H305.225C305.325 310.62 305.775 311.52 306.575 312.3C307.375 313.06 308.545 313.44 310.085 313.44C311.505 313.44 312.625 313.08 313.445 312.36C314.285 311.62 314.705 310.69 314.705 309.57C314.705 308.67 314.475 307.95 314.015 307.41C313.555 306.85 312.985 306.44 312.305 306.18C311.625 305.9 310.685 305.6 309.485 305.28C308.085 304.9 306.975 304.53 306.155 304.17C305.335 303.81 304.635 303.25 304.055 302.49C303.475 301.73 303.185 300.7 303.185 299.4C303.185 298.32 303.465 297.36 304.025 296.52C304.585 295.66 305.375 294.99 306.395 294.51C307.415 294.03 308.585 293.79 309.905 293.79C311.845 293.79 313.405 294.27 314.585 295.23C315.785 296.17 316.475 297.39 316.655 298.89H314.375C314.235 298.03 313.765 297.27 312.965 296.61C312.165 295.93 311.085 295.59 309.725 295.59C308.465 295.59 307.415 295.93 306.575 296.61C305.735 297.27 305.315 298.18 305.315 299.34C305.315 300.22 305.545 300.93 306.005 301.47C306.465 302.01 307.035 302.42 307.715 302.7C308.415 302.98 309.355 303.28 310.535 303.6C311.895 303.98 312.995 304.36 313.835 304.74C314.675 305.1 315.385 305.66 315.965 306.42C316.545 307.18 316.835 308.2 316.835 309.48C316.835 310.46 316.575 311.39 316.055 312.27C315.535 313.15 314.765 313.86 313.745 314.4C312.725 314.94 311.505 315.21 310.085 315.21ZM322.993 295.74V303.57H330.943V305.31H322.993V313.26H331.843V315H320.893V294H331.843V295.74H322.993ZM342.191 294.03C344.511 294.03 346.501 294.45 348.161 295.29C349.821 296.13 351.091 297.34 351.971 298.92C352.851 300.5 353.291 302.38 353.291 304.56C353.291 306.72 352.851 308.59 351.971 310.17C351.091 311.73 349.821 312.93 348.161 313.77C346.501 314.59 344.511 315 342.191 315H335.981V294.03H342.191ZM342.191 313.26C345.111 313.26 347.331 312.5 348.851 310.98C350.391 309.44 351.161 307.3 351.161 304.56C351.161 301.8 350.391 299.65 348.851 298.11C347.331 296.55 345.111 295.77 342.191 295.77H338.081V313.26H342.191ZM369.313 310.02H359.773L357.943 315H355.723L363.373 294.3H365.743L373.363 315H371.143L369.313 310.02ZM368.683 308.28L364.543 296.94L360.403 308.28H368.683ZM392.543 315H390.443L378.833 297.36V315H376.733V294.03H378.833L390.443 311.64V294.03H392.543V315ZM406.719 315.21C404.779 315.21 403.019 314.76 401.439 313.86C399.859 312.94 398.609 311.67 397.689 310.05C396.789 308.41 396.339 306.56 396.339 304.5C396.339 302.44 396.789 300.6 397.689 298.98C398.609 297.34 399.859 296.07 401.439 295.17C403.019 294.25 404.779 293.79 406.719 293.79C408.679 293.79 410.449 294.25 412.029 295.17C413.609 296.07 414.849 297.34 415.749 298.98C416.649 300.6 417.099 302.44 417.099 304.5C417.099 306.56 416.649 308.41 415.749 310.05C414.849 311.67 413.609 312.94 412.029 313.86C410.449 314.76 408.679 315.21 406.719 315.21ZM406.719 313.38C408.279 313.38 409.679 313.02 410.919 312.3C412.159 311.58 413.139 310.55 413.859 309.21C414.579 307.85 414.939 306.28 414.939 304.5C414.939 302.72 414.579 301.16 413.859 299.82C413.139 298.48 412.159 297.45 410.919 296.73C409.679 296.01 408.279 295.65 406.719 295.65C405.159 295.65 403.759 296.01 402.519 296.73C401.279 297.45 400.299 298.48 399.579 299.82C398.859 301.16 398.499 302.72 398.499 304.5C398.499 306.28 398.859 307.85 399.579 309.21C400.299 310.55 401.279 311.58 402.519 312.3C403.759 313.02 405.159 313.38 406.719 313.38ZM99.7443 361L90.6543 351.31V361H88.5543V340.03H90.6543V349.84L99.7443 340.03H102.414L92.6043 350.5L102.504 361H99.7443ZM107.705 359.29H115.235V361H105.605V340.03H107.705V359.29ZM134.732 346.15C134.132 344.77 133.212 343.69 131.972 342.91C130.752 342.11 129.312 341.71 127.652 341.71C126.092 341.71 124.692 342.07 123.452 342.79C122.212 343.51 121.232 344.54 120.512 345.88C119.792 347.2 119.432 348.74 119.432 350.5C119.432 352.26 119.792 353.81 120.512 355.15C121.232 356.49 122.212 357.52 123.452 358.24C124.692 358.96 126.092 359.32 127.652 359.32C129.112 359.32 130.422 359.01 131.582 358.39C132.762 357.75 133.702 356.85 134.402 355.69C135.122 354.51 135.532 353.14 135.632 351.58H126.812V349.87H137.852V351.4C137.752 353.24 137.252 354.91 136.352 356.41C135.452 357.89 134.242 359.06 132.722 359.92C131.222 360.78 129.532 361.21 127.652 361.21C125.712 361.21 123.952 360.76 122.372 359.86C120.792 358.94 119.542 357.67 118.622 356.05C117.722 354.41 117.272 352.56 117.272 350.5C117.272 348.44 117.722 346.6 118.622 344.98C119.542 343.34 120.792 342.07 122.372 341.17C123.952 340.25 125.712 339.79 127.652 339.79C129.892 339.79 131.852 340.35 133.532 341.47C135.212 342.59 136.432 344.15 137.192 346.15H134.732ZM151.119 361.21C149.179 361.21 147.419 360.76 145.839 359.86C144.259 358.94 143.009 357.67 142.089 356.05C141.189 354.41 140.739 352.56 140.739 350.5C140.739 348.44 141.189 346.6 142.089 344.98C143.009 343.34 144.259 342.07 145.839 341.17C147.419 340.25 149.179 339.79 151.119 339.79C153.079 339.79 154.849 340.25 156.429 341.17C158.009 342.07 159.249 343.34 160.149 344.98C161.049 346.6 161.499 348.44 161.499 350.5C161.499 352.56 161.049 354.41 160.149 356.05C159.249 357.67 158.009 358.94 156.429 359.86C154.849 360.76 153.079 361.21 151.119 361.21ZM151.119 359.38C152.679 359.38 154.079 359.02 155.319 358.3C156.559 357.58 157.539 356.55 158.259 355.21C158.979 353.85 159.339 352.28 159.339 350.5C159.339 348.72 158.979 347.16 158.259 345.82C157.539 344.48 156.559 343.45 155.319 342.73C154.079 342.01 152.679 341.65 151.119 341.65C149.559 341.65 148.159 342.01 146.919 342.73C145.679 343.45 144.699 344.48 143.979 345.82C143.259 347.16 142.899 348.72 142.899 350.5C142.899 352.28 143.259 353.85 143.979 355.21C144.699 356.55 145.679 357.58 146.919 358.3C148.159 359.02 149.559 359.38 151.119 359.38ZM165.701 361.15C165.261 361.15 164.891 361 164.591 360.7C164.311 360.4 164.171 360.03 164.171 359.59C164.171 359.15 164.311 358.79 164.591 358.51C164.891 358.21 165.261 358.06 165.701 358.06C166.121 358.06 166.471 358.21 166.751 358.51C167.051 358.79 167.201 359.15 167.201 359.59C167.201 360.03 167.051 360.4 166.751 360.7C166.471 361 166.121 361.15 165.701 361.15ZM195.523 346.15C194.923 344.77 194.003 343.69 192.763 342.91C191.543 342.11 190.103 341.71 188.443 341.71C186.883 341.71 185.483 342.07 184.243 342.79C183.003 343.51 182.023 344.54 181.303 345.88C180.583 347.2 180.223 348.74 180.223 350.5C180.223 352.26 180.583 353.81 181.303 355.15C182.023 356.49 183.003 357.52 184.243 358.24C185.483 358.96 186.883 359.32 188.443 359.32C189.903 359.32 191.213 359.01 192.373 358.39C193.553 357.75 194.493 356.85 195.193 355.69C195.913 354.51 196.323 353.14 196.423 351.58H187.603V349.87H198.643V351.4C198.543 353.24 198.043 354.91 197.143 356.41C196.243 357.89 195.033 359.06 193.513 359.92C192.013 360.78 190.323 361.21 188.443 361.21C186.503 361.21 184.743 360.76 183.163 359.86C181.583 358.94 180.333 357.67 179.413 356.05C178.513 354.41 178.063 352.56 178.063 350.5C178.063 348.44 178.513 346.6 179.413 344.98C180.333 343.34 181.583 342.07 183.163 341.17C184.743 340.25 186.503 339.79 188.443 339.79C190.683 339.79 192.643 340.35 194.323 341.47C196.003 342.59 197.223 344.15 197.983 346.15H195.523ZM204.5 340.03V353.23C204.5 355.31 204.99 356.85 205.97 357.85C206.97 358.85 208.33 359.35 210.05 359.35C211.77 359.35 213.11 358.86 214.07 357.88C215.05 356.88 215.54 355.33 215.54 353.23V340.03H217.64V353.2C217.64 355.86 216.93 357.86 215.51 359.2C214.11 360.54 212.28 361.21 210.02 361.21C207.76 361.21 205.92 360.54 204.5 359.2C203.1 357.86 202.4 355.86 202.4 353.2V340.03H204.5ZM228.684 361.21C227.304 361.21 226.084 360.97 225.024 360.49C223.984 360.01 223.164 359.34 222.564 358.48C221.964 357.62 221.644 356.66 221.604 355.6H223.824C223.924 356.62 224.374 357.52 225.174 358.3C225.974 359.06 227.144 359.44 228.684 359.44C230.104 359.44 231.224 359.08 232.044 358.36C232.884 357.62 233.304 356.69 233.304 355.57C233.304 354.67 233.074 353.95 232.614 353.41C232.154 352.85 231.584 352.44 230.904 352.18C230.224 351.9 229.284 351.6 228.084 351.28C226.684 350.9 225.574 350.53 224.754 350.17C223.934 349.81 223.234 349.25 222.654 348.49C222.074 347.73 221.784 346.7 221.784 345.4C221.784 344.32 222.064 343.36 222.624 342.52C223.184 341.66 223.974 340.99 224.994 340.51C226.014 340.03 227.184 339.79 228.504 339.79C230.444 339.79 232.004 340.27 233.184 341.23C234.384 342.17 235.074 343.39 235.254 344.89H232.974C232.834 344.03 232.364 343.27 231.564 342.61C230.764 341.93 229.684 341.59 228.324 341.59C227.064 341.59 226.014 341.93 225.174 342.61C224.334 343.27 223.914 344.18 223.914 345.34C223.914 346.22 224.144 346.93 224.604 347.47C225.064 348.01 225.634 348.42 226.314 348.7C227.014 348.98 227.954 349.28 229.134 349.6C230.494 349.98 231.594 350.36 232.434 350.74C233.274 351.1 233.984 351.66 234.564 352.42C235.144 353.18 235.434 354.2 235.434 355.48C235.434 356.46 235.174 357.39 234.654 358.27C234.134 359.15 233.364 359.86 232.344 360.4C231.324 360.94 230.104 361.21 228.684 361.21ZM251.762 340.03V341.77H245.942V361H243.842V341.77H237.992V340.03H251.762ZM267.228 356.02H257.688L255.858 361H253.638L261.288 340.3H263.658L271.278 361H269.058L267.228 356.02ZM266.598 354.28L262.458 342.94L258.318 354.28H266.598ZM291.268 340.03L283.318 361H280.918L272.968 340.03H275.248L282.118 358.72L289.048 340.03H291.268ZM303.843 361.21C301.903 361.21 300.143 360.76 298.563 359.86C296.983 358.94 295.733 357.67 294.813 356.05C293.913 354.41 293.463 352.56 293.463 350.5C293.463 348.44 293.913 346.6 294.813 344.98C295.733 343.34 296.983 342.07 298.563 341.17C300.143 340.25 301.903 339.79 303.843 339.79C305.803 339.79 307.573 340.25 309.153 341.17C310.733 342.07 311.973 343.34 312.873 344.98C313.773 346.6 314.223 348.44 314.223 350.5C314.223 352.56 313.773 354.41 312.873 356.05C311.973 357.67 310.733 358.94 309.153 359.86C307.573 360.76 305.803 361.21 303.843 361.21ZM303.843 359.38C305.403 359.38 306.803 359.02 308.043 358.3C309.283 357.58 310.263 356.55 310.983 355.21C311.703 353.85 312.063 352.28 312.063 350.5C312.063 348.72 311.703 347.16 310.983 345.82C310.263 344.48 309.283 343.45 308.043 342.73C306.803 342.01 305.403 341.65 303.843 341.65C302.283 341.65 300.883 342.01 299.643 342.73C298.403 343.45 297.423 344.48 296.703 345.82C295.983 347.16 295.623 348.72 295.623 350.5C295.623 352.28 295.983 353.85 296.703 355.21C297.423 356.55 298.403 357.58 299.643 358.3C300.883 359.02 302.283 359.38 303.843 359.38ZM332.658 361.21C331.278 361.21 330.058 360.97 328.998 360.49C327.958 360.01 327.138 359.34 326.538 358.48C325.938 357.62 325.618 356.66 325.578 355.6H327.798C327.898 356.62 328.348 357.52 329.148 358.3C329.948 359.06 331.118 359.44 332.658 359.44C334.078 359.44 335.198 359.08 336.018 358.36C336.858 357.62 337.278 356.69 337.278 355.57C337.278 354.67 337.048 353.95 336.588 353.41C336.128 352.85 335.558 352.44 334.878 352.18C334.198 351.9 333.258 351.6 332.058 351.28C330.658 350.9 329.548 350.53 328.728 350.17C327.908 349.81 327.208 349.25 326.628 348.49C326.048 347.73 325.758 346.7 325.758 345.4C325.758 344.32 326.038 343.36 326.598 342.52C327.158 341.66 327.948 340.99 328.968 340.51C329.988 340.03 331.158 339.79 332.478 339.79C334.418 339.79 335.978 340.27 337.158 341.23C338.358 342.17 339.048 343.39 339.228 344.89H336.948C336.808 344.03 336.338 343.27 335.538 342.61C334.738 341.93 333.658 341.59 332.298 341.59C331.038 341.59 329.988 341.93 329.148 342.61C328.308 343.27 327.888 344.18 327.888 345.34C327.888 346.22 328.118 346.93 328.578 347.47C329.038 348.01 329.608 348.42 330.288 348.7C330.988 348.98 331.928 349.28 333.108 349.6C334.468 349.98 335.568 350.36 336.408 350.74C337.248 351.1 337.958 351.66 338.538 352.42C339.118 353.18 339.408 354.2 339.408 355.48C339.408 356.46 339.148 357.39 338.628 358.27C338.108 359.15 337.338 359.86 336.318 360.4C335.298 360.94 334.078 361.21 332.658 361.21ZM342.506 350.5C342.506 348.44 342.956 346.6 343.856 344.98C344.756 343.34 345.986 342.07 347.546 341.17C349.106 340.25 350.846 339.79 352.766 339.79C355.106 339.79 357.106 340.35 358.766 341.47C360.446 342.57 361.666 344.13 362.426 346.15H359.966C359.366 344.73 358.446 343.62 357.206 342.82C355.986 342.02 354.506 341.62 352.766 341.62C351.226 341.62 349.836 341.98 348.596 342.7C347.376 343.42 346.416 344.46 345.716 345.82C345.016 347.16 344.666 348.72 344.666 350.5C344.666 352.28 345.016 353.84 345.716 355.18C346.416 356.52 347.376 357.55 348.596 358.27C349.836 358.99 351.226 359.35 352.766 359.35C354.506 359.35 355.986 358.96 357.206 358.18C358.446 357.38 359.366 356.28 359.966 354.88H362.426C361.666 356.88 360.446 358.43 358.766 359.53C357.086 360.63 355.086 361.18 352.766 361.18C350.846 361.18 349.106 360.73 347.546 359.83C345.986 358.91 344.756 357.64 343.856 356.02C342.956 354.4 342.506 352.56 342.506 350.5ZM368.711 340.03V361H366.611V340.03H368.711ZM385.616 356.02H376.076L374.246 361H372.026L379.676 340.3H382.046L389.666 361H387.446L385.616 356.02ZM384.986 354.28L380.846 342.94L376.706 354.28H384.986ZM408.847 361H406.747L395.137 343.36V361H393.037V340.03H395.137L406.747 357.64V340.03H408.847V361ZM423.023 361.21C421.083 361.21 419.323 360.76 417.743 359.86C416.163 358.94 414.913 357.67 413.993 356.05C413.093 354.41 412.643 352.56 412.643 350.5C412.643 348.44 413.093 346.6 413.993 344.98C414.913 343.34 416.163 342.07 417.743 341.17C419.323 340.25 421.083 339.79 423.023 339.79C424.983 339.79 426.753 340.25 428.333 341.17C429.913 342.07 431.153 343.34 432.053 344.98C432.953 346.6 433.403 348.44 433.403 350.5C433.403 352.56 432.953 354.41 432.053 356.05C431.153 357.67 429.913 358.94 428.333 359.86C426.753 360.76 424.983 361.21 423.023 361.21ZM423.023 359.38C424.583 359.38 425.983 359.02 427.223 358.3C428.463 357.58 429.443 356.55 430.163 355.21C430.883 353.85 431.243 352.28 431.243 350.5C431.243 348.72 430.883 347.16 430.163 345.82C429.443 344.48 428.463 343.45 427.223 342.73C425.983 342.01 424.583 341.65 423.023 341.65C421.463 341.65 420.063 342.01 418.823 342.73C417.583 343.45 416.603 344.48 415.883 345.82C415.163 347.16 414.803 348.72 414.803 350.5C414.803 352.28 415.163 353.85 415.883 355.21C416.603 356.55 417.583 357.58 418.823 358.3C420.063 359.02 421.463 359.38 423.023 359.38Z" fill="white"/>
</svg>
