<svg width="1159" height="729" viewBox="0 0 1159 729" fill="none" xmlns="http://www.w3.org/2000/svg">
<rect x="483.162" y="61.3043" width="675.839" height="544.133" rx="24" fill="#3D3D3E"/>
<circle cx="133.519" cy="133.519" r="133.519" fill="#546EF3"/>
<path d="M283.744 619.319C283.744 679.596 234.88 728.461 174.602 728.461C114.325 728.461 65.4607 679.596 65.4607 619.319C65.4607 559.041 114.325 510.177 174.602 510.177C234.88 510.177 283.744 559.041 283.744 619.319ZM126.32 619.319C126.32 645.984 147.937 667.601 174.602 667.601C201.268 667.601 222.884 645.984 222.884 619.319C222.884 592.653 201.268 571.037 174.602 571.037C147.937 571.037 126.32 592.653 126.32 619.319Z" fill="#F28F1C"/>
</svg>
