<svg width="19" height="18" viewBox="0 0 19 18" fill="none" xmlns="http://www.w3.org/2000/svg">
<path d="M13.1209 1.57425C14.1127 1.5771 15.063 1.95748 15.7643 2.63231C16.4656 3.30715 16.8609 4.22161 16.8638 5.17597V12.3786C16.8609 13.333 16.4656 14.2475 15.7643 14.9223C15.063 15.5971 14.1127 15.9775 13.1209 15.9804H5.63585C4.64407 15.9775 3.69377 15.5971 2.99247 14.9223C2.29118 14.2475 1.89589 13.333 1.89292 12.3786V5.17597C1.89589 4.22161 2.29118 3.30715 2.99247 2.63231C3.69377 1.95748 4.64407 1.5771 5.63585 1.57425H13.1209ZM13.1209 0.133789H5.63585C2.75387 0.133789 0.395996 2.40271 0.395996 5.17597V12.3786C0.395996 15.1519 2.75387 17.4208 5.63585 17.4208H13.1209C16.0029 17.4208 18.3607 15.1519 18.3607 12.3786V5.17597C18.3607 2.40271 16.0029 0.133789 13.1209 0.133789Z" fill="#030211"/>
<path d="M14.2437 5.17638C14.0216 5.17638 13.8046 5.11302 13.6199 4.9943C13.4353 4.87558 13.2914 4.70683 13.2064 4.50941C13.1214 4.31198 13.0992 4.09474 13.1425 3.88516C13.1858 3.67557 13.2928 3.48306 13.4498 3.33196C13.6068 3.18085 13.8069 3.07795 14.0247 3.03626C14.2425 2.99457 14.4682 3.01597 14.6734 3.09775C14.8786 3.17952 15.0539 3.31801 15.1773 3.49568C15.3007 3.67336 15.3665 3.88225 15.3665 4.09594C15.3668 4.23791 15.338 4.37855 15.2817 4.50977C15.2254 4.64099 15.1427 4.76022 15.0384 4.86061C14.934 4.961 14.8101 5.04057 14.6738 5.09476C14.5374 5.14895 14.3913 5.17669 14.2437 5.17638ZM9.3784 5.89642C9.9706 5.89642 10.5495 6.0654 11.0419 6.38201C11.5343 6.69861 11.9181 7.1486 12.1447 7.67509C12.3714 8.20158 12.4307 8.78091 12.3151 9.33983C12.1996 9.89875 11.9144 10.4121 11.4957 10.8151C11.0769 11.2181 10.5434 11.4925 9.96255 11.6037C9.38172 11.7148 8.77967 11.6578 8.23254 11.4397C7.68541 11.2216 7.21777 10.8523 6.88876 10.3785C6.55975 9.90466 6.38414 9.34759 6.38414 8.77772C6.38499 8.0138 6.70072 7.28141 7.26207 6.74123C7.82342 6.20106 8.58453 5.89724 9.3784 5.89642ZM9.3784 4.45596C8.49012 4.45596 7.6218 4.70943 6.88323 5.18431C6.14465 5.65919 5.56901 6.33416 5.22908 7.12385C4.88915 7.91355 4.80021 8.78251 4.97351 9.62085C5.1468 10.4592 5.57454 11.2293 6.20265 11.8337C6.83075 12.4381 7.631 12.8497 8.50221 13.0164C9.37341 13.1832 10.2764 13.0976 11.0971 12.7705C11.9178 12.4434 12.6192 11.8895 13.1127 11.1788C13.6062 10.4681 13.8696 9.63248 13.8696 8.77772C13.8696 7.63152 13.3964 6.53226 12.5541 5.72177C11.7119 4.91129 10.5695 4.45596 9.3784 4.45596Z" fill="#030211"/>
</svg>
