<svg width="1435" height="895" viewBox="0 0 1435 895" fill="none" xmlns="http://www.w3.org/2000/svg">
<path d="M202.953 850.863C235.29 839.376 262.034 814.629 277.302 782.064C292.569 749.499 295.11 711.784 284.365 677.216C273.62 642.649 250.47 614.06 220.006 597.739C189.543 581.418 154.262 578.702 121.926 590.188L162.44 720.526L202.953 850.863Z" fill="#F28F1C"/>
<path d="M121.925 590.188C89.5888 601.675 62.845 626.422 47.5773 658.987C32.3097 691.552 29.7689 729.267 40.5139 763.834C51.2588 798.402 74.4094 826.991 104.873 843.312C135.336 859.633 170.617 862.349 202.953 850.863L162.439 720.525L121.925 590.188Z" fill="#546EF3"/>
<path d="M1088.88 164.835C1082.94 156.86 1084.27 145.174 1091.85 138.735L1241.29 11.6601C1248.87 5.2204 1259.82 6.46537 1265.75 14.4408L1384.95 174.632C1390.88 182.608 1389.55 194.293 1381.98 200.733L1232.54 327.808C1224.96 334.247 1214.01 333.002 1208.08 325.027L1088.88 164.835Z" fill="#546EF3"/>
<ellipse cx="1306.52" cy="756.764" rx="128.48" ry="137.344" fill="#F28F1C"/>
<path d="M988.032 784.409L1010.65 784.409L988.032 760.229L988.032 784.409Z" fill="#546EF3"/>
<path d="M988.032 760.229L1010.65 760.229L988.032 736.049L988.032 760.229Z" fill="#546EF3"/>
<path d="M988.032 736.049L1010.65 736.049L988.032 711.868L988.032 736.049Z" fill="#546EF3"/>
<path d="M988.032 711.868L1010.65 711.868L988.032 687.688L988.032 711.868Z" fill="#546EF3"/>
<path d="M988.032 687.688L1010.65 687.688L988.032 663.508L988.032 687.688Z" fill="#546EF3"/>
<path d="M988.032 663.508L1010.65 663.508L988.032 639.328L988.032 663.508Z" fill="#546EF3"/>
<path d="M988.032 639.328L1010.65 639.328L988.032 615.147L988.032 639.328Z" fill="#546EF3"/>
<path d="M988.032 615.147L1010.65 615.147L988.032 590.967L988.032 615.147Z" fill="#546EF3"/>
<path d="M1010.65 784.409L1033.27 784.409L1010.65 760.229L1010.65 784.409Z" fill="#546EF3"/>
<path d="M1010.65 760.229L1033.27 760.229L1010.65 736.049L1010.65 760.229Z" fill="#546EF3"/>
<path d="M1010.65 736.049L1033.27 736.049L1010.65 711.868L1010.65 736.049Z" fill="#546EF3"/>
<path d="M1010.65 711.868L1033.27 711.868L1010.65 687.688L1010.65 711.868Z" fill="#546EF3"/>
<path d="M1010.65 687.688L1033.27 687.688L1010.65 663.508L1010.65 687.688Z" fill="#546EF3"/>
<path d="M1010.65 663.508L1033.27 663.508L1010.65 639.328L1010.65 663.508Z" fill="#546EF3"/>
<path d="M1010.65 639.328L1033.27 639.328L1010.65 615.147L1010.65 639.328Z" fill="#546EF3"/>
<path d="M1033.27 784.409L1055.89 784.409L1033.27 760.229L1033.27 784.409Z" fill="#546EF3"/>
<path d="M1033.27 760.229L1055.89 760.229L1033.27 736.049L1033.27 760.229Z" fill="#546EF3"/>
<path d="M1033.27 736.049L1055.89 736.049L1033.27 711.868L1033.27 736.049Z" fill="#546EF3"/>
<path d="M1033.27 711.868L1055.89 711.868L1033.27 687.688L1033.27 711.868Z" fill="#546EF3"/>
<path d="M1033.27 687.688L1055.89 687.688L1033.27 663.508L1033.27 687.688Z" fill="#546EF3"/>
<path d="M1033.27 663.508L1055.89 663.508L1033.27 639.328L1033.27 663.508Z" fill="#546EF3"/>
<path d="M1055.89 784.409L1078.51 784.409L1055.89 760.229L1055.89 784.409Z" fill="#546EF3"/>
<path d="M1055.89 760.229L1078.51 760.229L1055.89 736.049L1055.89 760.229Z" fill="#546EF3"/>
<path d="M1055.89 736.049L1078.51 736.049L1055.89 711.868L1055.89 736.049Z" fill="#546EF3"/>
<path d="M1055.89 711.868L1078.51 711.868L1055.89 687.688L1055.89 711.868Z" fill="#546EF3"/>
<path d="M1055.89 687.688L1078.51 687.688L1055.89 663.508L1055.89 687.688Z" fill="#546EF3"/>
<path d="M1078.51 784.409L1101.13 784.409L1078.51 760.229L1078.51 784.409Z" fill="#546EF3"/>
<path d="M1078.51 760.229L1101.13 760.229L1078.51 736.049L1078.51 760.229Z" fill="#546EF3"/>
<path d="M1078.51 736.049L1101.13 736.049L1078.51 711.868L1078.51 736.049Z" fill="#546EF3"/>
<path d="M1078.51 711.868L1101.13 711.869L1078.51 687.688L1078.51 711.868Z" fill="#546EF3"/>
<path d="M1101.13 784.409L1123.75 784.409L1101.13 760.229L1101.13 784.409Z" fill="#546EF3"/>
<path d="M1101.13 760.229L1123.75 760.229L1101.13 736.049L1101.13 760.229Z" fill="#546EF3"/>
<path d="M1101.13 736.049L1123.75 736.049L1101.13 711.869L1101.13 736.049Z" fill="#546EF3"/>
<path d="M1123.75 784.409L1146.37 784.409L1123.75 760.229L1123.75 784.409Z" fill="#546EF3"/>
<path d="M1123.75 760.229L1146.37 760.229L1123.75 736.049L1123.75 760.229Z" fill="#546EF3"/>
<path d="M1146.37 784.409L1168.99 784.409L1146.37 760.229L1146.37 784.409Z" fill="#546EF3"/>
</svg>
